<svg width="258" height="40" viewBox="0 0 258 40" fill="none" xmlns="http://www.w3.org/2000/svg">
<path d="M250.141 0.0102088C251.134 0.158664 252.077 0.54417 252.89 1.13412C253.628 1.67067 254.27 2.32787 254.789 3.07803C257.418 6.78429 257.728 12.3528 256.025 16.5038C255.324 18.211 254.145 19.9714 252.545 20.9443C251.742 21.4339 250.824 21.8317 249.847 21.8317H234.108C232.746 21.8317 231.456 21.2748 230.341 20.5486C229.243 19.7967 228.314 18.8241 227.614 17.693C227.195 17.693 226.798 17.6726 226.39 17.693C226.05 17.7119 225.719 17.8074 225.422 17.9723C225.124 18.1373 224.868 18.3674 224.672 18.6455C224.348 19.1472 224.184 19.7354 224.201 20.3324L224.252 27.8306L224.215 31.4491C225.031 31.0147 225.425 30.5088 226.255 30.1091C228.315 29.1218 229.602 32.0795 230.769 31.4329C231.534 31.0106 231.993 30.4966 232.746 30.1253C234.826 29.1055 236.103 32.0386 237.253 31.4471C237.967 31.082 238.367 30.6128 239.169 30.1743C241.053 29.1422 242.359 31.443 243.365 31.5226C243.748 31.5532 244.05 31.7816 244.032 32.1794C244.027 32.2619 244.006 32.3425 243.969 32.4166C243.933 32.4906 243.881 32.5565 243.819 32.6103C243.756 32.664 243.683 32.7045 243.604 32.7293C243.526 32.7541 243.443 32.7627 243.36 32.7546C242.249 32.6792 241.547 31.7776 240.578 31.2371C239.74 30.7699 238.946 32.0162 237.706 32.5751C236.278 33.2238 235.259 31.9632 234.106 31.2635C233.967 31.1746 233.804 31.1273 233.639 31.1273C233.473 31.1273 233.311 31.1746 233.172 31.2635C232.458 31.6858 232.054 32.1325 231.31 32.5119C229.79 33.285 228.788 31.9775 227.571 31.2533C227.446 31.172 227.301 31.1263 227.152 31.1212C227.004 31.1162 226.856 31.152 226.726 31.2248C226.114 31.5654 225.684 31.9877 225.021 32.3854C223.297 33.4175 222.382 32.0264 221.068 31.2615C220.938 31.1763 220.788 31.1285 220.633 31.1231C220.478 31.1177 220.324 31.155 220.189 31.2309C219.008 31.8898 217.966 33.3053 216.423 32.52C215.663 32.1325 215.253 31.6715 214.512 31.2452C214.38 31.1647 214.228 31.1221 214.073 31.1221C213.918 31.1221 213.766 31.1647 213.633 31.2452C212.468 31.9285 211.459 33.2381 209.984 32.5568C209.001 32.1019 208.248 31.1636 207.518 31.1085C207.435 31.1026 207.354 31.0796 207.28 31.0412C207.206 31.0028 207.14 30.9498 207.088 30.8852C207.035 30.8207 206.996 30.746 206.973 30.6659C206.95 30.5857 206.944 30.5017 206.955 30.4191C206.966 30.338 206.993 30.2599 207.035 30.1894C207.076 30.1189 207.132 30.0575 207.197 30.0088C207.263 29.9601 207.338 29.9251 207.418 29.9059C207.497 29.8867 207.58 29.8836 207.661 29.8969C209.211 30.0417 210.219 31.9122 211.147 31.4471C211.885 31.0779 212.332 30.5517 213.148 30.1315C214.708 29.3319 215.738 30.7434 216.929 31.4124C217.541 31.747 218.078 31.2085 218.612 30.8291L219.24 30.3803L219.269 27.0065C219.295 24.1651 219.285 21.3666 219.183 18.5313C219.112 17.5162 219.22 16.4965 219.501 15.5186C219.814 14.4611 220.457 13.5317 221.337 12.8669C222.178 12.2549 223.173 11.8082 224.219 11.8001L225.786 11.7858C225.531 7.91023 226.969 3.70832 230.19 1.39318C231.261 0.632303 232.507 0.153199 233.812 0L250.141 0.0102088ZM239.044 15.6838C238.508 16.5212 237.782 17.2201 236.925 17.7236C236.16 18.169 235.289 18.4007 234.404 18.3946C233.519 18.3885 232.652 18.1448 231.893 17.6889H229.101C229.684 18.508 230.426 19.2017 231.283 19.7286C232.123 20.2556 233.082 20.563 234.072 20.6225C235.062 20.6821 236.05 20.4919 236.947 20.0693C239.063 19.0719 240.527 17.028 241.262 14.8393C242.106 12.3127 242.106 9.58012 241.262 7.05354C240.55 4.90974 239.136 2.90666 237.096 1.87454C236.232 1.43389 235.273 1.21355 234.303 1.23312C233.333 1.2527 232.384 1.51158 231.538 1.98673C229.58 3.07597 228.274 4.99743 227.577 7.08616C227.08 8.60426 226.884 10.2048 227 11.798H228.519C228.374 10.3017 228.602 8.79263 229.184 7.40641C229.527 6.59583 230.01 5.85214 230.612 5.20958C232.856 2.86792 236.105 2.88831 238.308 5.24424C240.86 7.96937 241.082 12.5772 239.05 15.6838H239.044ZM247.797 19.6022C249.304 18.464 250.302 16.4997 250.785 14.723C251.49 12.1369 251.461 9.40544 250.699 6.83527C250.161 5.03007 249.082 3.06575 247.483 2.01935C246.828 1.591 246.09 1.24224 245.28 1.2402H238.449C240.535 2.66803 241.849 4.75268 242.567 7.10657C243.369 9.82574 243.297 12.7278 242.363 15.4043C241.958 16.5483 241.374 17.6209 240.633 18.5823C240.016 19.3738 239.28 20.0658 238.453 20.6343L245.247 20.6221C246.196 20.6098 247.058 20.1672 247.803 19.6022H247.797ZM253.896 17.9704C254.535 17.0291 255.017 15.9902 255.324 14.8944C256.051 12.3434 256.063 9.64149 255.358 7.08411C254.844 5.21773 253.802 3.25958 252.211 2.11935C251.53 1.60737 250.715 1.30281 249.865 1.24224C249.394 1.21572 248.957 1.22796 248.466 1.24224C250.083 2.50077 251.199 4.40182 251.807 6.32328C252.708 9.19769 252.748 12.2731 251.921 15.1698C251.334 17.2259 250.181 19.3024 248.454 20.6282C248.902 20.6384 249.302 20.6466 249.735 20.6282C251.507 20.5548 252.945 19.3676 253.902 17.9663L253.896 17.9704ZM239.154 11.7838C239.327 10.2709 239.053 8.74054 238.365 7.38191C237.963 6.58851 237.376 5.90354 236.654 5.38497C234.763 4.08564 232.593 4.63434 231.199 6.3559C229.994 7.84493 229.533 9.88473 229.735 11.7838H239.154ZM222.991 20.463C222.961 18.5986 223.883 17.0117 225.706 16.567C225.935 16.5033 226.171 16.4677 226.408 16.4609H236.633C237.782 15.6654 238.561 14.3477 238.92 13.0158H228.89L224.44 13.0076C224.006 13.0208 223.578 13.107 223.173 13.2626C222.603 13.456 222.085 13.7787 221.661 14.2055C221.236 14.6322 220.916 15.1515 220.725 15.7226C220.484 16.4453 220.372 17.2048 220.395 17.9663L220.497 25.1809L220.47 29.9051C221.49 29.8663 222.155 30.5558 222.998 31.1289L223.045 23.9632L222.991 20.463Z" fill="#3A3A3A"/>
<path d="M205.423 37.9107V37.5843C205.477 37.4399 205.578 37.3181 205.711 37.2388C205.843 37.1595 205.998 37.1275 206.151 37.1479C207.291 37.2927 207.875 38.0963 208.868 38.6552C208.991 38.7287 209.131 38.7685 209.274 38.7707C209.417 38.7728 209.559 38.7372 209.684 38.6675C210.889 38.0066 211.927 36.5706 213.492 37.3845C214.277 37.7924 214.689 38.2718 215.43 38.6736C216.246 39.1162 217.08 37.8413 218.285 37.313C219.732 36.6848 220.721 37.9617 221.873 38.6389C222.01 38.7262 222.17 38.7726 222.332 38.7726C222.495 38.7726 222.654 38.7262 222.791 38.6389C223.548 38.184 224.015 37.6823 224.784 37.3273C226.279 36.642 227.321 38.0678 228.482 38.6858C229.643 39.3039 230.96 36.281 233.076 37.4008C233.832 37.8087 234.257 38.2758 234.971 38.6695C235.092 38.7397 235.23 38.7766 235.37 38.7766C235.511 38.7766 235.649 38.7397 235.77 38.6695C236.535 38.2371 237.006 37.7108 237.777 37.3437C239.597 36.4788 240.804 38.7062 241.934 38.7838C242.096 38.7963 242.245 38.8721 242.351 38.9949C242.456 39.1176 242.509 39.2771 242.497 39.4385C242.49 39.5207 242.467 39.6007 242.429 39.6736C242.39 39.7466 242.337 39.811 242.273 39.8631C242.209 39.9151 242.135 39.9536 242.056 39.9763C241.977 39.999 241.894 40.0055 241.812 39.9954C240.676 39.9077 239.96 38.9489 238.956 38.441C237.845 37.874 236.509 40.7929 234.469 39.7771C233.653 39.3691 233.245 38.8817 232.472 38.4635C232.365 38.4013 232.244 38.3666 232.121 38.3627C231.997 38.3588 231.875 38.3857 231.764 38.441C230.644 38.9857 229.598 40.4808 228.093 39.8383C226.869 39.312 226.012 38.0249 225.212 38.4574C223.989 39.1183 222.981 40.5522 221.414 39.7689C220.621 39.3712 220.152 38.8347 219.438 38.4615C219.328 38.3994 219.205 38.3656 219.079 38.3632C218.953 38.3607 218.828 38.3895 218.716 38.4472C217.541 39.0591 216.488 40.5583 214.916 39.7791C214.137 39.3936 213.704 38.9021 212.943 38.4717C212.817 38.3982 212.673 38.3607 212.527 38.3632C212.381 38.3657 212.239 38.4081 212.115 38.4859C211.144 39.0346 210.188 40.1545 209.056 39.979C208.639 39.9123 208.245 39.7473 207.905 39.4977L206.771 38.6818C205.937 38.078 205.818 38.643 205.423 37.9107Z" fill="#3A3A3A"/>
<path d="M227.014 34.8129C225.908 34.2703 224.552 37.2463 222.453 36.1081C221.684 35.69 221.331 35.278 220.59 34.8578C220.467 34.7848 220.326 34.7462 220.182 34.7462C220.039 34.7462 219.898 34.7848 219.774 34.8578C219.03 35.2657 218.616 35.7512 217.837 36.1489C215.736 37.2198 214.455 34.2193 213.27 34.8496C212.085 35.4799 211.091 36.9036 209.547 36.1877C208.527 35.7144 207.899 34.8313 207.044 34.7374C206.966 34.7281 206.89 34.7033 206.822 34.6646C206.753 34.6258 206.693 34.5738 206.645 34.5115C206.596 34.4493 206.561 34.3781 206.54 34.302C206.519 34.226 206.514 34.1465 206.524 34.0684C206.534 33.9845 206.561 33.9035 206.603 33.8305C206.646 33.7575 206.703 33.6941 206.771 33.6443C206.839 33.5945 206.917 33.5593 207 33.541C207.082 33.5227 207.168 33.5217 207.25 33.538C208.378 33.6665 208.996 34.511 209.996 35.0577C211.201 35.7186 212.488 32.6324 214.638 33.7991C215.375 34.2071 215.754 34.615 216.474 35.0332C216.596 35.1092 216.735 35.1518 216.878 35.1568C217.021 35.1618 217.164 35.1291 217.29 35.0618C218.514 34.4009 219.56 32.9078 221.192 33.8175C221.93 34.2254 222.351 34.6824 223.028 35.0413C223.153 35.1153 223.296 35.1542 223.442 35.1542C223.588 35.1542 223.731 35.1153 223.856 35.0413C224.574 34.6334 225.053 34.1234 225.775 33.7604C227.35 32.9689 228.366 34.3988 229.569 35.0556C229.695 35.1248 229.836 35.1596 229.979 35.1568C230.123 35.1539 230.263 35.1134 230.385 35.0393C231.132 34.615 231.57 34.1234 232.337 33.7461C233.845 33.0036 234.858 34.3376 236.052 35.0332C236.184 35.1133 236.336 35.1556 236.49 35.1556C236.645 35.1556 236.797 35.1133 236.929 35.0332C237.647 34.6252 238.002 34.2173 238.734 33.8093C239.776 33.23 240.6 33.638 241.447 34.2499L242.328 34.8884C242.517 35.0335 242.741 35.1264 242.977 35.1576C243.059 35.154 243.142 35.1672 243.219 35.1964C243.296 35.2255 243.367 35.27 243.427 35.3272C243.486 35.3844 243.534 35.4531 243.566 35.5291C243.598 35.6051 243.615 35.6869 243.615 35.7696C243.615 35.8531 243.598 35.9358 243.565 36.0125C243.532 36.0893 243.484 36.1584 243.423 36.2158C243.362 36.2731 243.29 36.3174 243.212 36.3459C243.133 36.3744 243.05 36.3865 242.966 36.3815C241.822 36.3285 241.08 35.3432 240.101 34.8374C238.96 34.2499 237.653 37.175 235.613 36.1693C234.797 35.7614 234.389 35.2779 233.637 34.8598C233.522 34.7923 233.392 34.7552 233.259 34.752C233.125 34.7488 232.994 34.7796 232.876 34.8415C232.199 35.1943 231.766 35.6573 231.016 36.0877C229.323 37.0403 228.235 35.4105 227.014 34.8129Z" fill="#3A3A3A"/>
<path d="M0.362882 16.7284C0.356477 16.2637 0.386486 15.7993 0.452631 15.3393C0.500569 14.998 0.606819 14.6675 0.766748 14.3622C0.918718 14.0859 1.12723 13.8448 1.37867 13.6544C1.68384 13.4287 2.01121 13.2346 2.35572 13.0752L4.92784 11.8513H6.62695L7.64683 14.5785C7.70149 14.7893 7.82675 14.9751 8.00174 15.1047C8.19825 15.2048 8.41813 15.2499 8.63815 15.2353H9.02366V16.7773L8.63815 17.1629C8.17738 17.185 7.71815 17.0947 7.30007 16.8997C6.9536 16.7077 6.67021 16.4193 6.48417 16.0695L6.40666 16.0838V17.1629H4.23229C3.77904 17.1853 3.33248 17.0465 2.97172 16.7712C2.81936 16.6515 2.69706 16.498 2.61455 16.3227C2.53204 16.1474 2.4916 15.9552 2.49646 15.7615C2.49862 15.4538 2.60261 15.1554 2.79222 14.913L2.74123 14.8477L2.44342 14.9762C2.34295 15.0218 2.25169 15.0854 2.17418 15.1639C2.09691 15.2524 2.0417 15.358 2.01304 15.4719C1.96953 15.6362 1.94153 15.8042 1.92941 15.9737C1.91309 16.1749 1.90493 16.4258 1.90493 16.7263V21.0751H0.36084L0.362882 16.7284ZM3.47554 14.709C3.47207 14.7865 3.48911 14.8635 3.52492 14.9322C3.56074 15.001 3.61406 15.0591 3.67951 15.1007C3.84402 15.1997 4.0344 15.2473 4.22617 15.2373H6.11702L5.47246 13.5382L4.12214 14.0787C3.69107 14.2501 3.47554 14.4602 3.47554 14.709Z" fill="#707070"/>
<path d="M8.63403 15.6226L9.01955 15.2371H9.58456C9.91092 15.2371 10.1271 15.1739 10.2352 15.0494C10.3561 14.8793 10.4132 14.672 10.3964 14.464V7.64709H11.9405V14.464C11.9405 15.3819 11.7623 16.0618 11.4061 16.5038C11.0498 16.9457 10.4426 17.168 9.58456 17.1708H8.63403V15.6226Z" fill="#707070"/>
<path d="M16.0426 17.1645C15.1763 17.1645 14.5331 16.9605 14.1129 16.5525C13.6928 16.1446 13.4827 15.4756 13.4827 14.5454V7.651H15.0268V14.2884C15.0268 14.6739 15.1043 14.9289 15.2573 15.0533C15.4958 15.2004 15.7757 15.2662 16.0548 15.241H16.4423V16.7831L16.0548 17.1685L16.0426 17.1645Z" fill="#707070"/>
<path d="M16.0551 15.6218L16.4427 15.2362H17.8134V16.7783L17.4279 17.1638H16.051L16.0551 15.6218Z" fill="#707070"/>
<path d="M17.4319 15.6218L17.8174 15.2362H19.1942V16.7783L18.8087 17.1638H17.4319V15.6218Z" fill="#707070"/>
<path d="M18.8088 15.6218L19.1944 15.2362H20.5712V16.7783L20.1836 17.1638H18.8088V15.6218Z" fill="#707070"/>
<path d="M20.1857 15.6218L20.5712 15.2362H21.948V16.7783L21.5605 17.1638H20.1857V15.6218Z" fill="#707070"/>
<path d="M21.5598 15.6218L21.9453 15.2362H23.3201V16.7783L22.9346 17.1638H21.5577L21.5598 15.6218Z" fill="#707070"/>
<path d="M22.9366 15.6218L23.3222 15.2362H24.699V16.7783L24.3135 17.1638H22.9366V15.6218Z" fill="#707070"/>
<path d="M24.3134 15.6218L24.6989 15.2362H26.0757V16.7783L25.6881 17.1638H24.3134V15.6218Z" fill="#707070"/>
<path d="M25.6903 15.6218L26.0758 15.2362H27.4506V16.7783L27.0651 17.1638H25.6903V15.6218Z" fill="#707070"/>
<path d="M27.0653 15.6218L27.4508 15.2362H28.8277V16.7783L28.4421 17.1638H27.0653V15.6218Z" fill="#707070"/>
<path d="M28.4423 15.6218L28.8278 15.2362H30.2046V16.7783L29.8191 17.1638H28.4423V15.6218Z" fill="#707070"/>
<path d="M29.8192 15.6218L30.2047 15.2362H31.5816V16.7783L31.194 17.1638H29.8192V15.6218Z" fill="#707070"/>
<path d="M31.194 15.6218L31.5815 15.2362H32.9563V16.7783L32.5708 17.1638H31.194V15.6218Z" fill="#707070"/>
<path d="M32.5709 15.6218L32.9564 15.2362H34.3353V16.7783L33.9498 17.1638H32.573L32.5709 15.6218Z" fill="#707070"/>
<path d="M33.9479 15.6218L34.3334 15.2362H35.7102V16.7783L35.3247 17.1638H33.9479V15.6218Z" fill="#707070"/>
<path d="M35.3248 15.6218L35.7103 15.2362H37.0872V16.7783L36.6996 17.1638H35.3248V15.6218Z" fill="#707070"/>
<path d="M36.6996 15.6218L37.0871 15.2362H38.4619V16.7783L38.0764 17.1638H36.6996V15.6218Z" fill="#707070"/>
<path d="M38.0756 15.6218L38.4611 15.2362H39.842V16.7783L39.4565 17.1638H38.0796L38.0756 15.6218Z" fill="#707070"/>
<path d="M39.4525 15.6218L39.838 15.2362H41.2149V16.7783L40.8273 17.1638H39.4525V15.6218Z" fill="#707070"/>
<path d="M40.8275 15.6218L41.2151 15.2362H42.5899V16.7783L42.2043 17.1638H40.8275V15.6218Z" fill="#707070"/>
<path d="M42.2042 15.6218L42.5897 15.2362H43.9666V16.7783L43.5811 17.1638H42.2042V15.6218Z" fill="#707070"/>
<path d="M43.5812 15.6218L43.9667 15.2362H45.3496V16.7783L44.9641 17.1638H43.5873L43.5812 15.6218Z" fill="#707070"/>
<path d="M44.9581 15.6218L45.3436 15.2362H46.7205V16.7783L46.3329 17.1638H44.9581V15.6218Z" fill="#707070"/>
<path d="M46.3331 15.6218L46.7207 15.2362H48.0955V16.7783L47.71 17.1638H46.3331V15.6218Z" fill="#707070"/>
<path d="M47.7101 15.6218L48.0956 15.2362H49.4724V16.7783L49.0869 17.1638H47.7101V15.6218Z" fill="#707070"/>
<path d="M49.0868 15.6218L49.4723 15.2362H50.8573V16.7783L50.4718 17.1638H49.095L49.0868 15.6218Z" fill="#707070"/>
<path d="M50.4637 15.6218L50.8493 15.2362H52.2261V16.7783L51.8385 17.1638H50.4637V15.6218Z" fill="#707070"/>
<path d="M51.8378 15.6218L52.2253 15.2362H53.6001V16.7783L53.2146 17.1638H51.8378V15.6218Z" fill="#707070"/>
<path d="M53.2147 15.6225L53.6002 15.237H53.6145C53.9283 15.2535 54.2419 15.2028 54.5344 15.0881C54.7495 14.9746 54.9193 14.7911 55.0158 14.5679L55.5176 13.5256L56.7904 14.1376L56.3417 15.0758C56.546 15.1698 56.7566 15.2496 56.9719 15.3145C57.1844 15.3779 57.405 15.4101 57.6267 15.4104C57.9134 15.4369 58.1992 15.3514 58.4242 15.1718C58.5874 15.0126 58.669 14.7332 58.669 14.3293V13.5134H60.0846V14.3293C60.062 14.6041 60.127 14.879 60.2702 15.1146C60.3291 15.1932 60.4059 15.2564 60.4943 15.299C60.5827 15.3416 60.68 15.3623 60.7781 15.3594H60.9066C60.9905 15.3613 61.0736 15.3439 61.1497 15.3085C61.2257 15.2732 61.2926 15.2208 61.3452 15.1554C61.4718 14.9685 61.5308 14.744 61.5124 14.519C61.5091 14.366 61.4962 14.2134 61.4737 14.0621C61.4472 13.8765 61.4125 13.6542 61.3696 13.387L61.2554 12.7301L62.6567 12.4996L62.7587 13.1544C62.8016 13.4032 62.8321 13.6378 62.8485 13.8561C62.8648 14.0743 62.875 14.2946 62.875 14.519C62.875 15.4804 62.7098 16.1855 62.3793 16.6343C62.0489 17.083 61.5369 17.3081 60.8434 17.3094C60.2328 17.3094 59.7739 17.1639 59.4666 16.8729C59.1193 16.5005 58.8986 16.0279 58.8363 15.5226H58.7588C58.6894 16.1345 58.5385 16.5914 58.3019 16.879C58.1907 17.0184 58.0486 17.1299 57.8868 17.2046C57.7249 17.2794 57.5479 17.3153 57.3697 17.3094C57.1169 17.3087 56.8662 17.2631 56.6293 17.1748C56.2973 17.0409 55.9773 16.8792 55.6726 16.6914L55.4013 16.5384C55.152 16.7867 54.8384 16.9604 54.4957 17.0402C54.0741 17.1247 53.6446 17.163 53.2147 17.1544V15.6225Z" fill="#707070"/>
<path d="M65.5253 18.323H66.0393C66.8205 18.323 67.3916 18.1639 67.7568 17.8478C68.1219 17.5316 68.2993 17.0033 68.2912 16.2649C68.2909 16.0562 68.2779 15.8478 68.2524 15.6407C68.2259 15.4225 68.1933 15.1879 68.1504 14.939L67.8791 13.2297L69.2825 13.0115L69.4742 14.2068C69.5436 14.6147 69.5973 14.9941 69.6354 15.345C69.6697 15.6286 69.6888 15.9139 69.6925 16.1996C69.6994 16.7655 69.6217 17.3293 69.462 17.8723C69.3221 18.3431 69.0852 18.7794 68.7664 19.1532C68.4546 19.5115 68.0625 19.7911 67.6221 19.9691C67.1233 20.1667 66.5901 20.2631 66.0536 20.2527H65.5253V18.323Z" fill="#707070"/>
<path d="M70.9142 7.64709H72.4583V17.1646H70.9142V7.64709Z" fill="#707070"/>
<path d="M75.4692 17.1646C74.8668 17.1646 74.4078 17.015 74.0923 16.7159C73.7741 16.416 73.6171 15.9347 73.6171 15.2738V14.413H75.0959V15.2289H77.0642C77.6374 15.2289 77.925 15.0045 77.925 14.5599C77.9233 14.4461 77.8968 14.334 77.8475 14.2315C77.7815 14.0911 77.6994 13.959 77.6027 13.8378C77.4692 13.6668 77.3255 13.504 77.1724 13.3503C76.9969 13.1708 76.7807 12.9607 76.5237 12.72L75.2489 11.5369L76.5625 10.1213L77.6027 11.1412C77.8895 11.4237 78.1619 11.7205 78.4186 12.0305C78.6258 12.2836 78.8069 12.557 78.9592 12.8464C79.0927 13.1045 79.1921 13.3787 79.2549 13.6623C79.316 13.9569 79.3461 14.257 79.3447 14.5578C79.3447 15.3737 79.1346 16.0122 78.7144 16.4732C78.2942 16.9341 77.7027 17.1613 76.9398 17.1545L75.4692 17.1646Z" fill="#707070"/>
<path d="M88.4092 17.3195C87.6129 17.33 86.817 17.2782 86.0288 17.1645C85.4808 17.0943 84.9508 16.922 84.4663 16.6566C84.0899 16.4473 83.7882 16.1257 83.6035 15.7366C83.4151 15.2942 83.3253 14.816 83.3404 14.3353C83.3448 13.9543 83.39 13.5747 83.475 13.2033C83.5665 12.7853 83.6934 12.3758 83.8544 11.9794L85.0905 12.3404C84.9518 12.6104 84.8377 12.8924 84.7498 13.1829C84.673 13.4175 84.6317 13.6622 84.6275 13.909C84.6197 14.1272 84.6726 14.3433 84.7804 14.5332C84.9023 14.7171 85.0773 14.8594 85.2822 14.9411C85.5743 15.0604 85.8821 15.1367 86.196 15.1676C86.6613 15.2196 87.1292 15.2434 87.5973 15.2389H89.4515C90.7202 15.2389 91.6653 15.1614 92.2867 15.0064C92.9082 14.8514 93.2189 14.5386 93.2189 14.0681V13.4766H93.1414C92.8925 14.1565 92.3228 14.4965 91.4321 14.4965C90.7372 14.4965 90.1933 14.3143 89.8003 13.9498C89.6011 13.7538 89.4459 13.5177 89.345 13.2571C89.244 12.9965 89.1997 12.7174 89.2149 12.4383C89.2115 12.0157 89.2805 11.5956 89.4188 11.1962C89.5399 10.8348 89.7274 10.4993 89.9716 10.2068C90.2013 9.93178 90.4862 9.70803 90.8079 9.55004C91.134 9.38975 91.493 9.30798 91.8563 9.31136C92.2469 9.29978 92.6336 9.39114 92.9776 9.57624C93.3217 9.76134 93.611 10.0337 93.8165 10.366C94.2857 11.069 94.5196 12.0467 94.5182 13.2991C94.5373 13.9723 94.4464 14.644 94.249 15.2879C94.0757 15.7901 93.7407 16.2205 93.2964 16.5118C92.7258 16.8561 92.0866 17.0713 91.4239 17.1421C90.4244 17.2721 89.417 17.3314 88.4092 17.3195ZM91.8298 12.8178C92.1025 12.8206 92.375 12.8056 92.6457 12.7729C92.8327 12.7526 93.0152 12.7023 93.1863 12.624C93.1502 12.2381 92.9739 11.8788 92.6906 11.6143C92.4152 11.3629 92.0537 11.2271 91.6809 11.2349C91.378 11.2242 91.0807 11.3179 90.8385 11.5001C90.7315 11.5768 90.6446 11.6782 90.5852 11.7958C90.5259 11.9134 90.4959 12.0435 90.4979 12.1752C90.4911 12.276 90.5141 12.3767 90.5642 12.4645C90.6143 12.5523 90.6891 12.6234 90.7794 12.6689C91.0215 12.7794 91.2865 12.8304 91.5524 12.8178H91.8298ZM91.7278 8.27723C91.6277 8.28144 91.5278 8.26555 91.4339 8.23052C91.34 8.19549 91.2541 8.14202 91.1812 8.07325C91.0433 7.88239 90.9691 7.65291 90.9691 7.41745C90.9691 7.18199 91.0433 6.95251 91.1812 6.76165C91.2541 6.69288 91.34 6.63941 91.4339 6.60438C91.5278 6.56935 91.6277 6.55346 91.7278 6.55767H91.9848C92.0849 6.55391 92.1847 6.57002 92.2786 6.60503C92.3724 6.64004 92.4583 6.69326 92.5315 6.76165C92.6694 6.95251 92.7436 7.18199 92.7436 7.41745C92.7436 7.65291 92.6694 7.88239 92.5315 8.07325C92.4583 8.14164 92.3724 8.19486 92.2786 8.22987C92.1847 8.26488 92.0849 8.28099 91.9848 8.27723H91.7278Z" fill="#707070"/>
<path d="M94.1953 18.3242H94.8399C95.5517 18.3242 96.0841 18.1651 96.4411 17.8489C96.798 17.5328 96.9755 17.0045 96.9755 16.2661C96.9741 16.0574 96.9612 15.8491 96.9367 15.6419C96.9102 15.4236 96.8755 15.1891 96.8327 14.9402L96.6144 13.5267L101.373 13.0126V14.3364C101.366 14.5017 101.394 14.6666 101.457 14.8198C101.508 14.9292 101.586 15.0239 101.683 15.0952L102.248 14.1182C102.514 13.6451 102.821 13.1972 103.168 12.7801C103.453 12.4362 103.784 12.1335 104.151 11.8806C104.484 11.6536 104.851 11.4814 105.239 11.3706C105.637 11.2626 106.049 11.209 106.462 11.2115C107.474 11.2115 108.233 11.4876 108.739 12.0397C109.245 12.5918 109.498 13.3615 109.498 14.3487C109.498 15.3196 109.222 16.0295 108.682 16.4843C108.141 16.9392 107.268 17.1656 106.083 17.1656H102.146C101.451 17.1656 100.922 16.9841 100.563 16.6455C100.204 16.3069 100.002 15.7765 99.9515 15.0565L98.2911 15.2238C98.3074 15.4277 98.3237 15.6011 98.336 15.7643C98.3482 15.9275 98.3564 16.0723 98.3564 16.2008C98.3637 16.7669 98.2853 17.3308 98.1239 17.8734C97.9847 18.3417 97.7531 18.7772 97.4426 19.1544C97.1447 19.5083 96.7682 19.7877 96.3432 19.9703C95.8684 20.1674 95.3579 20.264 94.8439 20.2538H94.1871L94.1953 18.3242ZM102.815 15.1605L102.854 15.238H106.081C106.421 15.2409 106.762 15.2252 107.101 15.1911C107.328 15.1776 107.553 15.1294 107.766 15.0483C107.915 14.9909 108.04 14.8845 108.121 14.7464C108.194 14.5898 108.229 14.4177 108.223 14.2447C108.233 14.0898 108.205 13.9349 108.143 13.7928C108.08 13.6508 107.985 13.526 107.864 13.4288C107.623 13.2493 107.224 13.1595 106.666 13.1595H106.281C105.94 13.1569 105.6 13.1719 105.261 13.2044C104.997 13.2274 104.737 13.2858 104.488 13.3778C104.265 13.4614 104.058 13.5829 103.876 13.7368C103.677 13.9159 103.504 14.1218 103.362 14.3487L102.815 15.1605Z" fill="#707070"/>
<path d="M113.376 15.2371H114.469L114.791 14.6823V7.64709H116.333V10.9393L116.18 12.4446L116.282 12.4956C116.675 12.0732 117.153 11.7382 117.684 11.5124C118.208 11.3058 118.768 11.2033 119.332 11.2106C120.343 11.2106 121.102 11.4866 121.608 12.0387C122.114 12.5908 122.367 13.3605 122.367 14.3478C122.367 15.3187 122.091 16.0285 121.551 16.4834C121.01 16.9383 120.137 17.1646 118.954 17.1646H113.376V15.2371ZM115.678 15.1596L115.717 15.2371H118.946C119.287 15.24 119.627 15.2243 119.966 15.1902C120.189 15.1748 120.408 15.1267 120.617 15.0474C120.765 14.9893 120.889 14.883 120.97 14.7455C121.044 14.5892 121.079 14.4168 121.072 14.2437C121.082 14.0889 121.054 13.9339 120.992 13.7919C120.929 13.6499 120.834 13.525 120.713 13.4278C120.472 13.2483 120.074 13.1586 119.515 13.1586H119.13C118.789 13.1559 118.449 13.1709 118.11 13.2034C117.846 13.2262 117.587 13.2846 117.339 13.3768C117.116 13.4602 116.909 13.5817 116.727 13.7358C116.528 13.9149 116.355 14.1209 116.213 14.3478L115.678 15.1596Z" fill="#707070"/>
<path d="M123.203 18.3232H124.018C124.686 18.3482 125.353 18.2436 125.981 18.0152C126.416 17.8574 126.785 17.5578 127.029 17.1646H125.538C124.843 17.1646 124.3 16.9606 123.906 16.5527C123.513 16.1447 123.321 15.5777 123.321 14.8475C123.318 14.4255 123.387 14.006 123.525 13.6073C123.646 13.2454 123.834 12.9093 124.078 12.616C124.307 12.3415 124.592 12.1184 124.914 11.9612C125.24 11.8009 125.599 11.7191 125.962 11.7225C126.324 11.7111 126.682 11.7898 127.005 11.9515C127.329 12.1131 127.607 12.3527 127.814 12.6486C128.267 13.2673 128.515 14.1294 128.559 15.235H129.216V16.7771L128.83 17.1626H128.394C128.203 18.069 127.697 18.8785 126.966 19.4472C126.259 19.9843 125.317 20.2522 124.141 20.2508H123.19L123.203 18.3232ZM124.618 14.5925C124.611 14.6937 124.634 14.7947 124.684 14.8829C124.734 14.9711 124.809 15.0425 124.9 15.0881C125.142 15.1977 125.407 15.2487 125.673 15.237H127.28V15.1983C127.289 14.9931 127.257 14.7882 127.185 14.5957C127.113 14.4033 127.003 14.2274 126.862 14.0785C126.724 13.9385 126.558 13.8286 126.376 13.7556C126.193 13.6826 125.998 13.6481 125.801 13.6542C125.499 13.6439 125.202 13.7367 124.959 13.9173C124.852 13.994 124.765 14.0955 124.706 14.2131C124.646 14.3306 124.616 14.4608 124.618 14.5925Z" fill="#707070"/>
<path d="M138.241 17.1647C137.951 17.1668 137.663 17.1305 137.384 17.0567C137.103 16.9771 136.842 16.8379 136.619 16.6487C136.075 16.9914 135.294 17.1627 134.277 17.1627H128.837V15.6207L129.223 15.2351H129.796L130.116 14.6803V7.64514H131.66V10.9374L131.507 12.4427L131.609 12.4937C132.002 12.0708 132.479 11.7357 133.011 11.5105C133.535 11.3038 134.095 11.2013 134.659 11.2086C135.67 11.2086 136.429 11.4847 136.935 12.0368C137.441 12.5889 137.694 13.3586 137.694 14.3458C137.698 14.6319 137.668 14.9174 137.604 15.1964C137.813 15.2212 138.024 15.2342 138.234 15.2351H138.62V16.7772L138.241 17.1647ZM134.283 15.2372C134.624 15.24 134.964 15.2244 135.303 15.1902C135.528 15.1724 135.749 15.1209 135.958 15.0373C136.107 14.9799 136.232 14.8734 136.313 14.7354C136.387 14.5787 136.422 14.4066 136.415 14.2336C136.425 14.0788 136.398 13.9238 136.335 13.7818C136.273 13.6398 136.177 13.5149 136.056 13.4177C135.815 13.2382 135.416 13.1484 134.859 13.1484H134.473C134.133 13.1458 133.792 13.1608 133.453 13.1933C133.189 13.2164 132.929 13.2747 132.68 13.3667C132.457 13.4504 132.25 13.5718 132.068 13.7257C131.869 13.9048 131.696 14.1108 131.554 14.3376L131.001 15.174L131.04 15.2514L134.283 15.2372Z" fill="#707070"/>
<path d="M138.24 15.6219L138.626 15.2363H139.513C139.992 15.2363 140.425 15.2363 140.806 15.2159C141.17 15.2049 141.533 15.1729 141.893 15.1201C142.233 15.0699 142.568 14.9921 142.895 14.8875C143.252 14.7721 143.601 14.6303 143.937 14.4632L144.414 14.2328V14.1675L142.356 13.731L140.412 13.2537V14.2185H138.934V13.2292C138.934 12.6173 139.064 12.1746 139.325 11.8911C139.586 11.6076 139.988 11.4668 140.529 11.4668C140.597 11.4672 140.665 11.4713 140.733 11.4791C140.806 11.4791 140.892 11.5015 140.99 11.5178C141.088 11.5341 141.206 11.5607 141.345 11.5954L141.859 11.7238L144.341 12.3664C144.704 12.4655 145.073 12.5384 145.447 12.5846C145.835 12.6365 146.226 12.6624 146.617 12.6621H146.874V14.5918H145.873L144.663 15.4077C144.175 15.7461 143.665 16.0533 143.138 16.3276C142.727 16.5385 142.299 16.7146 141.859 16.8539C141.477 16.9737 141.085 17.0557 140.688 17.0986C140.295 17.1379 139.9 17.1569 139.505 17.1558H138.24V15.6219ZM142.022 10.4367C141.922 10.4414 141.822 10.4258 141.728 10.3907C141.634 10.3557 141.548 10.3019 141.475 10.2328C141.337 10.0419 141.263 9.81245 141.263 9.577C141.263 9.34154 141.337 9.11205 141.475 8.92119C141.548 8.85242 141.634 8.79896 141.728 8.76393C141.822 8.72889 141.922 8.713 142.022 8.71722H142.279C142.379 8.71346 142.479 8.72957 142.573 8.76457C142.666 8.79958 142.752 8.8528 142.825 8.92119C142.963 9.11205 143.038 9.34154 143.038 9.577C143.038 9.81245 142.963 10.0419 142.825 10.2328C142.753 10.3016 142.667 10.3552 142.573 10.3902C142.479 10.4253 142.379 10.4411 142.279 10.4367H142.022Z" fill="#707070"/>
<path d="M150.562 18.3225H151.378C152.502 18.3225 153.326 18.1273 153.848 17.737C154.093 17.5695 154.294 17.3437 154.431 17.08C154.568 16.8163 154.637 16.5228 154.633 16.2256V15.891H154.556C154.463 16.2743 154.243 16.6146 153.932 16.8559C153.611 17.0715 153.23 17.1793 152.844 17.1639C152.151 17.1639 151.608 16.9599 151.213 16.5519C150.817 16.144 150.627 15.5769 150.627 14.8467C150.624 14.4247 150.693 14.0053 150.831 13.6065C150.952 13.2447 151.14 12.9086 151.384 12.6152C151.614 12.3408 151.899 12.1177 152.22 11.9605C152.546 11.7999 152.905 11.7182 153.269 11.7218C153.659 11.7152 154.046 11.8056 154.393 11.9849C154.729 12.1656 155.016 12.4262 155.229 12.7437C155.475 13.1169 155.652 13.5315 155.751 13.9676C155.877 14.5023 155.937 15.0502 155.931 15.5994C155.931 17.0653 155.555 18.2103 154.805 19.0344C154.054 19.8584 152.955 20.2698 151.506 20.2684H150.554L150.562 18.3225ZM153.252 15.2363C153.532 15.2392 153.811 15.2235 154.089 15.1894C154.276 15.1706 154.458 15.121 154.629 15.0425C154.62 14.8511 154.573 14.6634 154.491 14.4901C154.409 14.3168 154.294 14.1615 154.152 14.0328C153.865 13.7783 153.493 13.6426 153.11 13.6534C152.808 13.6435 152.512 13.7363 152.269 13.9166C152.162 13.993 152.075 14.0944 152.015 14.212C151.955 14.3296 151.925 14.4599 151.927 14.5917C151.92 14.6931 151.943 14.7942 151.994 14.8824C152.044 14.9705 152.119 15.0418 152.21 15.0874C152.453 15.1972 152.717 15.2482 152.983 15.2363H153.252Z" fill="#707070"/>
<path d="M164.969 17.3197C164.179 17.3302 163.39 17.2783 162.609 17.1647C162.065 17.095 161.539 16.9226 161.059 16.6568C160.685 16.4461 160.385 16.1247 160.202 15.7369C160.013 15.2944 159.924 14.8162 159.939 14.3356C159.943 13.9545 159.988 13.575 160.073 13.2035C160.165 12.7855 160.292 12.3761 160.453 11.9796L161.689 12.3407C161.55 12.6106 161.436 12.8926 161.348 13.1831C161.272 13.4179 161.231 13.6625 161.226 13.9092C161.218 14.1274 161.271 14.3435 161.379 14.5334C161.501 14.7173 161.676 14.8597 161.881 14.9414C162.173 15.0606 162.48 15.1369 162.794 15.1678C163.26 15.2198 163.728 15.2436 164.196 15.2392H165.997C166.564 15.2392 167.039 15.2249 167.425 15.2004C167.739 15.1852 168.051 15.1394 168.357 15.0638C168.545 15.0236 168.722 14.9405 168.873 14.821C168.924 14.7747 168.965 14.7181 168.993 14.6548C169.021 14.5915 169.035 14.523 169.034 14.4539C169.034 14.3254 169.022 14.1601 169.001 13.9582C168.981 13.7562 168.938 13.4931 168.879 13.1668L168.661 11.9715L170.062 11.7389L170.256 12.9363C170.299 13.1668 170.331 13.4238 170.358 13.7073C170.384 13.9908 170.397 14.2397 170.397 14.4539C170.413 14.937 170.332 15.4184 170.158 15.8695C169.986 16.2509 169.686 16.5599 169.309 16.7425C168.788 16.9894 168.226 17.142 167.651 17.1933C166.76 17.2881 165.865 17.3303 164.969 17.3197ZM163.939 12.4957C163.839 12.5 163.739 12.4842 163.645 12.4492C163.551 12.4141 163.465 12.3606 163.392 12.2917C163.254 12.1008 163.18 11.8714 163.18 11.6359C163.18 11.4004 163.254 11.171 163.392 10.9802C163.465 10.9118 163.551 10.8585 163.645 10.8235C163.739 10.7885 163.839 10.7724 163.939 10.7762H164.196C164.296 10.772 164.396 10.7879 164.49 10.8229C164.584 10.8579 164.669 10.9114 164.742 10.9802C164.881 11.1705 164.956 11.4001 164.956 11.6359C164.956 11.8717 164.881 12.1013 164.742 12.2917C164.67 12.3609 164.584 12.4146 164.49 12.4497C164.396 12.4847 164.296 12.5004 164.196 12.4957H163.939ZM165.978 12.4957C165.878 12.5004 165.778 12.4847 165.684 12.4497C165.59 12.4146 165.504 12.3609 165.432 12.2917C165.294 12.1008 165.22 11.8714 165.22 11.6359C165.22 11.4004 165.294 11.171 165.432 10.9802C165.505 10.9114 165.591 10.8579 165.685 10.8229C165.778 10.7879 165.878 10.772 165.978 10.7762H166.235C166.336 10.7724 166.435 10.7885 166.529 10.8235C166.623 10.8585 166.709 10.9118 166.782 10.9802C166.92 11.171 166.994 11.4004 166.994 11.6359C166.994 11.8714 166.92 12.1008 166.782 12.2917C166.709 12.3606 166.623 12.4141 166.529 12.4492C166.436 12.4842 166.336 12.5 166.235 12.4957H165.978Z" fill="#707070"/>
<path d="M174.113 17.1645C173.248 17.1645 172.606 16.9605 172.186 16.5525C171.763 16.1446 171.555 15.4715 171.555 14.5454V7.651H173.097V14.2884C173.097 14.6746 173.175 14.9296 173.33 15.0533C173.568 15.2007 173.848 15.2665 174.127 15.241H174.513V16.7831L174.127 17.1685L174.113 17.1645Z" fill="#707070"/>
<path d="M183.531 17.1647C183.242 17.1668 182.954 17.1305 182.674 17.0567C182.393 16.9771 182.132 16.8379 181.909 16.6487C181.366 16.9914 180.585 17.1627 179.568 17.1627H174.128V15.6207L174.513 15.2351H175.093L175.413 14.6803V7.64514H176.957V10.9374L176.802 12.4427L176.906 12.4937C177.298 12.0705 177.776 11.7354 178.307 11.5105C178.831 11.304 179.39 11.2015 179.953 11.2086C180.965 11.2086 181.725 11.4847 182.232 12.0368C182.739 12.5889 182.992 13.3586 182.991 14.3458C182.995 14.632 182.964 14.9177 182.899 15.1964C183.109 15.2212 183.32 15.2341 183.531 15.2351H183.917V16.7772L183.531 17.1647ZM179.566 15.2372C179.906 15.24 180.247 15.2244 180.586 15.1902C180.81 15.1724 181.031 15.1209 181.24 15.0373C181.39 14.9799 181.515 14.8734 181.595 14.7354C181.669 14.5787 181.704 14.4066 181.697 14.2336C181.707 14.0786 181.68 13.9234 181.617 13.7813C181.554 13.6392 181.458 13.5145 181.336 13.4177C181.098 13.2382 180.698 13.1484 180.141 13.1484H179.77C179.429 13.1458 179.089 13.1608 178.75 13.1933C178.486 13.2164 178.226 13.2747 177.977 13.3667C177.754 13.4504 177.547 13.5718 177.365 13.7257C177.165 13.9043 176.992 14.1103 176.851 14.3376L176.296 15.174L176.335 15.2514L179.566 15.2372Z" fill="#707070"/>
<path d="M183.528 15.6234L183.916 15.2379H184.803C185.282 15.2379 185.713 15.2379 186.096 15.2175C186.459 15.2065 186.822 15.1745 187.181 15.1216C187.522 15.0717 187.857 14.9939 188.185 14.8891C188.542 14.7737 188.891 14.6318 189.227 14.4648L189.702 14.2343V14.169L187.644 13.7325L185.702 13.2552V14.22H184.224V13.2308C184.224 12.6188 184.354 12.1762 184.615 11.8927C184.876 11.6091 185.278 11.4684 185.819 11.4684C185.887 11.4688 185.955 11.4729 186.023 11.4806C186.096 11.4806 186.182 11.5031 186.28 11.5194C186.378 11.5357 186.496 11.5622 186.635 11.5969L187.149 11.7254L189.631 12.368C189.994 12.4671 190.363 12.54 190.737 12.5862C191.125 12.638 191.516 12.664 191.907 12.6637H192.164V14.5933H191.273C191.266 14.687 191.281 14.781 191.316 14.868C191.352 14.955 191.407 15.0327 191.477 15.0951C191.687 15.2081 191.926 15.2577 192.164 15.2379H192.55V16.78L192.164 17.1654C191.523 17.1573 191.023 17.0098 190.667 16.7228C190.311 16.4359 190.09 15.9879 190.004 15.3787L189.953 15.4174C189.465 15.7558 188.955 16.0631 188.428 16.3373C188.017 16.5479 187.589 16.7239 187.149 16.8636C186.767 16.9834 186.375 17.0654 185.978 17.1084C185.585 17.1476 185.19 17.1666 184.795 17.1654H183.52L183.528 15.6234Z" fill="#707070"/>
<path d="M194.065 16.4442C193.881 16.7014 193.623 16.8969 193.326 17.0051C192.954 17.1224 192.564 17.1761 192.174 17.1642V15.6221L192.559 15.2366C192.8 15.2533 193.04 15.204 193.255 15.0938C193.424 14.9679 193.55 14.7926 193.616 14.592L193.975 13.7047C194.082 13.4399 194.207 13.1823 194.348 12.9337C194.479 12.7004 194.644 12.488 194.838 12.3034C195.022 12.1244 195.238 11.9806 195.474 11.8791C195.732 11.771 196.01 11.7182 196.29 11.7241C196.651 11.7055 197.01 11.7841 197.331 11.9516C197.651 12.1191 197.921 12.3695 198.111 12.6767C198.519 13.3104 198.723 14.1889 198.723 15.3121V15.6853L197.499 17.4987L194.065 16.4442ZM194.772 14.6573L197.359 15.4406V15.3121C197.384 14.8777 197.252 14.4487 196.985 14.1045C196.86 13.9588 196.703 13.8436 196.526 13.7676C196.349 13.6916 196.158 13.6568 195.966 13.666C195.71 13.6601 195.46 13.7366 195.252 13.8843C195.029 14.0611 194.868 14.3049 194.795 14.5798L194.772 14.6573Z" fill="#707070"/>
<path d="M0 23.6491H3.38395C3.93653 23.6424 4.48559 23.7379 5.00351 23.9306C5.47912 24.1112 5.9064 24.3996 6.25183 24.773C6.61323 25.1797 6.88497 25.6579 7.04938 26.1764C7.24869 26.811 7.34442 27.4736 7.3329 28.1387C7.34427 28.8031 7.24854 29.465 7.04938 30.0989C6.88497 30.6175 6.61323 31.0956 6.25183 31.5022C5.90709 31.8765 5.4796 32.165 5.00351 32.3447C4.48559 32.5374 3.93653 32.6329 3.38395 32.6262H0V23.6491ZM3.38395 30.8903C3.63414 30.9042 3.88458 30.8681 4.12064 30.784C4.3567 30.7 4.57363 30.5697 4.75874 30.4008C5.09325 30.0765 5.26051 29.5523 5.26051 28.8322V27.4431C5.26051 26.7231 5.09325 26.1989 4.75874 25.8746C4.57363 25.7057 4.3567 25.5754 4.12064 25.4913C3.88458 25.4072 3.63414 25.3711 3.38395 25.385H1.95612V30.8924L3.38395 30.8903Z" fill="#707070"/>
<path d="M10.9207 32.6262H8.9646V23.6512H13.2236C13.606 23.6445 13.986 23.7138 14.3414 23.8552C14.6662 23.9855 14.9586 24.1854 15.1981 24.4406C15.439 24.7029 15.6249 25.0109 15.7447 25.3463C15.8768 25.7223 15.9417 26.1186 15.9365 26.5171C15.9488 27.0761 15.8077 27.6278 15.5285 28.1122C15.249 28.5751 14.8159 28.9252 14.3047 29.1015L16.067 32.6262H13.8947L12.3241 29.334H10.9228L10.9207 32.6262ZM12.9788 27.694C13.2284 27.7083 13.474 27.6274 13.6662 27.4676C13.7537 27.3824 13.8214 27.2791 13.8647 27.1649C13.9081 27.0508 13.9259 26.9285 13.9171 26.8067V26.2397C13.9257 26.1176 13.9077 25.9952 13.8644 25.8807C13.8211 25.7663 13.7535 25.6626 13.6662 25.5768C13.4733 25.4185 13.228 25.3384 12.9788 25.3524H10.9207V27.694H12.9788Z" fill="#707070"/>
<path d="M23.1675 32.6262L22.5229 30.4926H19.5265L18.884 32.6262H16.9014L19.861 23.6512H22.2782L25.1991 32.6262H23.1675ZM21.0441 25.4238H20.9788L19.9895 28.8323H22.0477L21.0441 25.4238Z" fill="#707070"/>
<path d="M26.0983 32.6263V31.07H27.2568V25.2057H26.0983V23.6493H30.3695V25.2057H29.2109V31.07H30.3695V32.6263H26.0983Z" fill="#707070"/>
<path d="M34.7432 28.3815L33.8825 26.5804H33.8437V32.6262H32.0079V23.6512H34.1313L36.579 27.896L37.4418 29.6971H37.4806V23.6512H39.3164V32.6262H37.1828L34.7432 28.3815Z" fill="#707070"/>
<path d="M46.8472 32.6262L46.2047 30.4926H43.2083L42.5637 32.6262H40.5831L43.5408 23.6512H45.962L48.8829 32.6262H46.8472ZM44.7259 25.4238H44.6606L43.6713 28.8323H45.7294L44.7259 25.4238Z" fill="#707070"/>
<path d="M55.8256 31.1989H55.7522C55.7184 31.4245 55.6396 31.6409 55.5204 31.8354C55.4013 32.0299 55.2443 32.1984 55.0587 32.331C54.5872 32.6542 54.0222 32.8127 53.4514 32.7818C52.9552 32.7861 52.4637 32.6853 52.0093 32.486C51.5652 32.2829 51.1717 31.9841 50.8568 31.611C50.501 31.1885 50.234 30.6987 50.0715 30.1709C49.8718 29.5251 49.7761 28.8518 49.788 28.176C49.7766 27.496 49.8765 26.8187 50.0837 26.1709C50.2565 25.6301 50.5391 25.1308 50.9139 24.7043C51.2663 24.3107 51.7037 24.0024 52.1928 23.8027C52.7205 23.5913 53.2848 23.4866 53.8532 23.4947C54.5798 23.4791 55.297 23.6617 55.9276 24.023C56.5325 24.3953 57.0121 24.9402 57.3045 25.5875L55.7094 26.4993C55.5749 26.1515 55.3537 25.844 55.0668 25.6059C54.7155 25.3419 54.2816 25.2117 53.843 25.2387C53.5776 25.2256 53.3123 25.2656 53.0626 25.3563C52.8128 25.447 52.5837 25.5866 52.3887 25.767C52.0297 26.1179 51.8481 26.6706 51.8481 27.4253V28.8675C51.8481 29.612 52.0297 30.1648 52.3887 30.5197C52.5825 30.7022 52.8113 30.8437 53.0612 30.9355C53.3111 31.0274 53.5771 31.0677 53.843 31.0541C54.0746 31.0514 54.3049 31.0192 54.5284 30.9582C54.731 30.9065 54.9229 30.8195 55.0954 30.7012C55.251 30.5914 55.3806 30.4486 55.4748 30.2831C55.5682 30.1045 55.6145 29.9052 55.6094 29.7038V29.253H53.9368V27.6211H57.4738V32.6247H55.8277L55.8256 31.1989Z" fill="#707070"/>
<path d="M59.3754 32.6262V23.6512H65.4946V25.3871H61.3315V27.2229H64.8949V28.9608H61.3315V30.9026H65.4865V32.6385L59.3754 32.6262Z" fill="#707070"/>
<path d="M70.2179 32.6262V23.6512H72.174V30.8924H75.5967V32.6283L70.2179 32.6262Z" fill="#707070"/>
<path d="M76.6906 32.6263V31.07H77.8471V25.2057H76.6906V23.6493H80.9598V25.2057H79.8032V31.07H80.9598V32.6263H76.6906Z" fill="#707070"/>
<path d="M85.3287 28.3815L84.4679 26.5804H84.4292V32.6262H82.5934V23.6512H84.729L87.1767 27.896L88.0395 29.6971H88.0783V23.6512H89.914V32.6262H87.7907L85.3287 28.3815Z" fill="#707070"/>
<path d="M91.9071 32.6262V23.6512H98.0162V25.3871H93.8612V27.2229H97.4246V28.9608H93.8612V30.9026H98.0162V32.6385L91.9071 32.6262Z" fill="#707070"/>
<path d="M102.622 32.7817C101.93 32.8023 101.243 32.6627 100.615 32.3738C100.084 32.1177 99.6079 31.7609 99.2133 31.3233L100.498 30.0239C100.775 30.3478 101.119 30.6071 101.507 30.7833C101.895 30.9595 102.316 31.0485 102.742 31.0438C103.221 31.0438 103.578 30.9459 103.809 30.7501C103.923 30.6559 104.013 30.5369 104.074 30.4021C104.134 30.2674 104.163 30.1205 104.158 29.973C104.164 29.7513 104.092 29.5345 103.954 29.361C103.815 29.1958 103.546 29.0816 103.117 29.0224L102.23 28.9082C101.278 28.7885 100.581 28.5009 100.139 28.0454C99.9135 27.8022 99.7386 27.5163 99.6247 27.2046C99.5109 26.8928 99.4605 26.5615 99.4764 26.23C99.4717 25.8482 99.5511 25.4701 99.7089 25.1224C99.8602 24.788 100.086 24.4928 100.37 24.2596C100.682 24.0059 101.04 23.8154 101.424 23.6986C101.887 23.5574 102.369 23.4886 102.852 23.4946C103.464 23.4828 104.072 23.5923 104.641 23.8169C105.148 24.0259 105.601 24.3475 105.965 24.7573L104.666 26.0627C104.448 25.8112 104.184 25.6036 103.888 25.4508C103.529 25.2814 103.135 25.2003 102.738 25.2142C102.396 25.1899 102.054 25.2703 101.759 25.4447C101.656 25.5151 101.573 25.6104 101.517 25.7217C101.461 25.833 101.434 25.9566 101.439 26.0811C101.427 26.2031 101.444 26.3262 101.487 26.4408C101.531 26.5554 101.6 26.6584 101.69 26.742C101.932 26.9076 102.213 27.0087 102.505 27.0357L103.393 27.1764C104.319 27.3233 105.005 27.6089 105.451 28.0331C105.897 28.4574 106.12 29.0605 106.12 29.8424C106.124 30.249 106.046 30.6522 105.889 31.0275C105.738 31.3838 105.507 31.7005 105.214 31.9536C104.892 32.2266 104.517 32.4308 104.113 32.5533C103.631 32.7067 103.128 32.7837 102.622 32.7817Z" fill="#707070"/>
<path d="M110.431 32.6263V31.07H111.587V25.2057H110.431V23.6493H114.702V25.2057H113.545V31.07H114.702V32.6263H110.431Z" fill="#707070"/>
<path d="M119.073 28.3815L118.212 26.5804H118.169V32.6262H116.333V23.6512H118.469L120.917 27.896L121.78 29.6971H121.818V23.6512H123.654V32.6262H121.531L119.073 28.3815Z" fill="#707070"/>
<path d="M128.682 23.6491H132.066C132.619 23.6424 133.168 23.7379 133.686 23.9306C134.161 24.1112 134.589 24.3996 134.934 24.773C135.295 25.1797 135.567 25.6579 135.732 26.1764C136.11 27.4566 136.11 28.8187 135.732 30.0989C135.567 30.6175 135.295 31.0956 134.934 31.5022C134.589 31.8765 134.162 32.165 133.686 32.3447C133.168 32.5374 132.619 32.6329 132.066 32.6262H128.682V23.6491ZM132.066 30.8903C132.316 30.9042 132.567 30.8681 132.803 30.784C133.039 30.7 133.256 30.5697 133.441 30.4008C133.776 30.0765 133.943 29.5523 133.943 28.8322V27.4431C133.943 26.7231 133.776 26.1989 133.441 25.8746C133.256 25.7057 133.039 25.5754 132.803 25.4913C132.567 25.4072 132.316 25.3711 132.066 25.385H130.638V30.8924L132.066 30.8903Z" fill="#707070"/>
<path d="M143.178 32.6262L142.536 30.4926H139.537L138.895 32.6262H136.914L139.872 23.6512H142.291L145.212 32.6262H143.178ZM141.057 25.4238H140.992L139.994 28.8323H142.05L141.057 25.4238Z" fill="#707070"/>
<path d="M148.414 32.6262H146.458V23.6512H150.717C151.1 23.6447 151.48 23.714 151.835 23.8552C152.16 23.9855 152.452 24.1853 152.692 24.4406C152.932 24.7034 153.118 25.0112 153.239 25.3462C153.371 25.7223 153.435 26.1186 153.43 26.5171C153.443 27.0761 153.301 27.6277 153.022 28.1122C152.743 28.5754 152.31 28.9256 151.798 29.1014L153.561 32.6262H151.384L149.816 29.3258H148.414V32.6262ZM150.473 27.694C150.722 27.7083 150.968 27.6273 151.16 27.4676C151.247 27.3823 151.315 27.2791 151.359 27.1649C151.402 27.0507 151.42 26.9285 151.411 26.8067V26.2397C151.419 26.1176 151.401 25.9951 151.358 25.8807C151.315 25.7662 151.247 25.6626 151.16 25.5768C150.967 25.4184 150.722 25.3383 150.473 25.3524H148.414V27.694H150.473Z" fill="#707070"/>
<path d="M161.071 32.7817C160.38 32.8023 159.693 32.6627 159.064 32.3738C158.533 32.1177 158.057 31.7609 157.663 31.3233L158.948 30.0239C159.224 30.3478 159.569 30.6071 159.956 30.7833C160.344 30.9595 160.766 31.0485 161.191 31.0438C161.673 31.0438 162.028 30.9459 162.26 30.7501C162.373 30.6554 162.463 30.5362 162.523 30.4016C162.583 30.2669 162.612 30.1203 162.607 29.973C162.614 29.7513 162.541 29.5345 162.403 29.361C162.266 29.1958 161.995 29.0816 161.567 29.0224L160.68 28.9082C159.728 28.7885 159.031 28.5009 158.589 28.0454C158.363 27.8019 158.189 27.516 158.075 27.2043C157.961 26.8927 157.91 26.5615 157.926 26.23C157.921 25.8482 158.001 25.4701 158.158 25.1224C158.31 24.7879 158.537 24.4927 158.821 24.2596C159.133 24.0051 159.491 23.8145 159.876 23.6986C160.338 23.5572 160.82 23.4884 161.304 23.4946C161.915 23.4828 162.522 23.5923 163.09 23.8169C163.598 24.0264 164.051 24.3479 164.416 24.7573L163.117 26.0709C162.898 25.8194 162.634 25.6117 162.338 25.459C161.979 25.2896 161.584 25.2084 161.187 25.2223C160.846 25.198 160.505 25.2784 160.21 25.4528C160.107 25.5228 160.023 25.6179 159.967 25.7293C159.91 25.8406 159.883 25.9645 159.888 26.0892C159.876 26.2112 159.893 26.3343 159.937 26.4489C159.98 26.5635 160.049 26.6666 160.139 26.7502C160.382 26.9158 160.662 27.0168 160.955 27.0439L161.842 27.1846C162.768 27.3315 163.454 27.617 163.9 28.0413C164.346 28.4656 164.569 29.0687 164.569 29.8506C164.575 30.2573 164.496 30.6606 164.339 31.0357C164.187 31.3986 163.953 31.7212 163.656 31.9781C163.334 32.2511 162.96 32.4552 162.556 32.5777C162.075 32.7218 161.574 32.7906 161.071 32.7817Z" fill="#707070"/>
<path d="M171.723 32.6262L171.078 30.4926H168.082L167.439 32.6262H165.456L168.416 23.6512H170.833L173.754 32.6262H171.723ZM169.599 25.4238H169.536L168.551 28.8323H170.609L169.599 25.4238Z" fill="#707070"/>
<path d="M175.003 32.6262V23.6512H176.957V30.8924H180.381V32.6283L175.003 32.6262Z" fill="#707070"/>
<path d="M181.819 32.6262V23.6512H187.939V25.3871H183.774V27.2229H187.337V28.9608H183.774V30.9026H187.929V32.6385L181.819 32.6262Z" fill="#707070"/>
<path d="M196.342 26.7354H196.304L195.647 28.047L193.897 31.2249L192.188 28.0613L191.504 26.6457H191.467V32.6262H189.632V23.6512H191.702L193.901 27.8573H193.927L196.102 23.6512H198.184V32.6262H196.349L196.342 26.7354Z" fill="#707070"/>
</svg>
