<svg width="234" height="40" viewBox="0 0 234 40" fill="none" xmlns="http://www.w3.org/2000/svg">
<path d="M4.00953 20.2902C2.68733 20.2902 1.68819 19.9828 1.0121 19.3681C0.336002 18.7533 -0.00135898 17.883 4.114e-06 16.7571C0.00609541 16.3163 0.0602597 15.8775 0.161532 15.4485C0.268225 14.9653 0.41738 14.4926 0.607261 14.0357L1.84426 14.3976C1.67527 14.7583 1.53843 15.1332 1.43534 15.518C1.34565 15.8378 1.29619 16.1675 1.28812 16.4995C1.27592 16.7404 1.32239 16.9807 1.42354 17.1997C1.52468 17.4187 1.67747 17.6099 1.8688 17.7569C2.25455 18.054 2.7957 18.2019 3.49224 18.2006H4.52478C5.25404 18.2006 5.7911 18.0329 6.13596 17.6976C6.48082 17.3623 6.65257 16.8382 6.6512 16.1253C6.64706 15.8706 6.62589 15.6165 6.58782 15.3647C6.54488 15.0539 6.49172 14.7615 6.43243 14.4875L6.1748 13.2873L7.5672 13.0174L7.81256 14.2033C7.84732 14.3587 7.87594 14.5284 7.90252 14.7124C7.9291 14.8965 7.94955 15.0805 7.9659 15.2604H9.12726V16.8082L8.74082 17.1946H7.94137C7.79416 18.2524 7.4009 19.0327 6.76161 19.5357C6.12232 20.0387 5.20496 20.2902 4.00953 20.2902ZM3.88073 13.3527C3.78042 13.3565 3.68035 13.3404 3.5863 13.3053C3.49226 13.2702 3.40608 13.2168 3.33276 13.1483C3.25628 13.0578 3.19877 12.953 3.16364 12.8399C3.12852 12.7268 3.1165 12.6078 3.12829 12.4899C3.11666 12.3724 3.12877 12.2537 3.16389 12.141C3.19902 12.0282 3.25644 11.9237 3.33276 11.8336C3.40608 11.765 3.49226 11.7117 3.5863 11.6766C3.68035 11.6415 3.78042 11.6254 3.88073 11.6291H4.14039C4.24041 11.6252 4.34022 11.6412 4.43396 11.6763C4.5277 11.7115 4.61349 11.7649 4.68631 11.8336C4.76474 11.9227 4.82422 12.0269 4.86113 12.1397C4.89804 12.2525 4.9116 12.3717 4.901 12.4899C4.91177 12.6085 4.89828 12.728 4.86137 12.8412C4.82447 12.9544 4.7649 13.0588 4.68631 13.1483C4.61349 13.217 4.5277 13.2704 4.43396 13.3055C4.34022 13.3406 4.24041 13.3567 4.14039 13.3527H3.88073Z" fill="#707070"/>
<path d="M8.74243 15.6467L9.12887 15.2603H10.509V16.8081L10.1226 17.1945H8.74243V15.6467Z" fill="#707070"/>
<path d="M10.1228 15.6467L10.5092 15.2603H11.8894V16.8081L11.5009 17.1945H10.1228V15.6467Z" fill="#707070"/>
<path d="M11.5012 15.6467L11.8897 15.2603H13.2678V16.8081L12.8814 17.1945H11.5012V15.6467Z" fill="#707070"/>
<path d="M12.8816 15.6467L13.268 15.2603H14.6482V16.8081L14.2617 17.1945H12.8816V15.6467Z" fill="#707070"/>
<path d="M14.261 15.6467L14.6474 15.2603H16.0276V16.8081L15.6411 17.1945H14.261V15.6467Z" fill="#707070"/>
<path d="M15.6414 15.6467L16.0278 15.2603H17.4059V16.8081L17.0194 17.1945H15.6414V15.6467Z" fill="#707070"/>
<path d="M17.02 15.6467L17.4065 15.2603H18.7866V16.8081L18.4001 17.1945H17.02V15.6467Z" fill="#707070"/>
<path d="M18.3994 15.6467L18.7859 15.2603H20.166V16.8081L19.7795 17.1945H18.3994V15.6467Z" fill="#707070"/>
<path d="M19.7799 15.6467L20.1663 15.2603H21.5383V16.8081L21.1498 17.1945H19.7717L19.7799 15.6467Z" fill="#707070"/>
<path d="M21.1582 15.6467L21.5467 15.2603H22.9248V16.8081L22.5383 17.1945H21.1582V15.6467Z" fill="#707070"/>
<path d="M22.5376 15.6467L22.924 15.2603H24.3042V16.8081L23.9177 17.1945H22.5376V15.6467Z" fill="#707070"/>
<path d="M23.918 15.6467L24.3044 15.2603H25.6845V16.8081L25.2981 17.1945H23.918V15.6467Z" fill="#707070"/>
<path d="M25.2981 15.6467L25.6846 15.2603H27.0586V16.8081L26.6701 17.1945H25.292L25.2981 15.6467Z" fill="#707070"/>
<path d="M26.676 15.6467L27.0645 15.2603H28.4426V16.8081L28.0562 17.1945H26.676V15.6467Z" fill="#707070"/>
<path d="M28.0564 15.6467L28.4428 15.2603H29.823V16.8081L29.4365 17.1945H28.0564V15.6467Z" fill="#707070"/>
<path d="M29.4365 15.6467L29.823 15.2603H31.2031V16.8081L30.8167 17.1945H29.4365V15.6467Z" fill="#707070"/>
<path d="M33.4973 12.464L33.6016 12.5151C33.9941 12.0902 34.4731 11.7541 35.0062 11.5296C35.5312 11.3219 36.0917 11.2184 36.6563 11.225C37.6704 11.225 38.4317 11.5024 38.9401 12.0571C39.4451 12.6112 39.7007 13.3841 39.7007 14.3716C39.7007 15.3592 39.4247 16.0564 38.8829 16.5123C38.341 16.9683 37.4639 17.1953 36.278 17.1953H30.825V15.6475L31.2114 15.2611H31.7921L32.1131 14.707V7.65503H33.6609V10.955L33.4973 12.464ZM36.2698 15.2611C36.6112 15.2646 36.9524 15.2496 37.2921 15.2161C37.5179 15.1975 37.7397 15.1458 37.9505 15.0627C38.1 15.005 38.225 14.8974 38.3042 14.7581C38.3798 14.6016 38.4156 14.4288 38.4085 14.2551C38.4188 14.0997 38.3913 13.9441 38.3283 13.8016C38.2652 13.6592 38.1686 13.5342 38.0466 13.4373C37.8074 13.2573 37.4066 13.1653 36.8484 13.1653H36.4641C36.0776 13.1653 35.7362 13.1817 35.4417 13.2103C35.1775 13.2348 34.9177 13.2939 34.6689 13.3861C34.445 13.4693 34.2374 13.5911 34.0555 13.746C33.8549 13.9244 33.6814 14.1311 33.5402 14.3594L32.9841 15.1956L33.0229 15.2733L36.2698 15.2611Z" fill="#707070"/>
<path d="M40.5371 18.3565H41.355C42.0246 18.3809 42.6925 18.2753 43.3219 18.0458C43.7578 17.8883 44.128 17.5887 44.3729 17.1952H42.8844C42.5841 17.2124 42.2835 17.1668 42.0018 17.0611C41.7201 16.9555 41.4636 16.7923 41.2487 16.5818C40.8588 16.1729 40.6632 15.6031 40.6619 14.8725C40.6597 14.4496 40.7288 14.0293 40.8663 13.6294C40.9887 13.267 41.1765 12.9302 41.4204 12.6357C41.6516 12.3609 41.937 12.1367 42.2587 11.9773C42.5861 11.8185 42.9458 11.7373 43.3097 11.7401C43.6719 11.7285 44.0313 11.8072 44.3554 11.9693C44.6795 12.1314 44.9582 12.3717 45.1662 12.6684C45.6228 13.2859 45.8723 14.1494 45.9145 15.2589H46.5729V16.8067L46.1865 17.1932H45.7469C45.5556 18.1017 45.0485 18.9131 44.3156 19.4831C43.6055 20.0188 42.6622 20.2874 41.4859 20.2888H40.531L40.5371 18.3565ZM41.9561 14.6169C41.9493 14.7185 41.9727 14.8198 42.0232 14.9082C42.0738 14.9966 42.1493 15.0681 42.2403 15.1138C42.4827 15.2231 42.7476 15.2735 43.0132 15.261H44.6264V15.2222C44.6368 15.0175 44.6059 14.8129 44.5357 14.6204C44.4654 14.4279 44.3572 14.2515 44.2175 14.1017C44.0788 13.9612 43.9126 13.8508 43.7293 13.7776C43.546 13.7044 43.3495 13.67 43.1522 13.6764C42.849 13.6665 42.5514 13.7594 42.3078 13.9402C42.1986 14.0159 42.1095 14.1171 42.0482 14.235C41.987 14.353 41.9553 14.484 41.9561 14.6169Z" fill="#707070"/>
<path d="M46.1841 15.6475L46.5726 15.2611H47.1389C47.4661 15.2611 47.6828 15.1997 47.7912 15.075C47.9113 14.9041 47.9677 14.6964 47.9506 14.4882V7.65503H49.4984V14.4882C49.4984 15.4083 49.3199 16.0898 48.9627 16.5328C48.6056 16.9758 47.9977 17.1994 47.1389 17.2035H46.1841V15.6475Z" fill="#707070"/>
<path d="M51.0464 7.65503H52.5942V17.1953H51.0464V7.65503Z" fill="#707070"/>
<path d="M61.9668 17.3519C61.1754 17.3623 60.3844 17.3103 59.6012 17.1965C59.0558 17.1263 58.5285 16.9535 58.0473 16.6874C57.6736 16.4755 57.3744 16.1535 57.1906 15.7652C57.0001 15.3221 56.9094 14.8426 56.9248 14.3606C56.929 13.9785 56.9749 13.5979 57.0618 13.2258C57.1532 12.8067 57.2804 12.3963 57.4421 11.999L58.6791 12.3589C58.5425 12.6308 58.4296 12.914 58.3417 13.2053C58.2657 13.4414 58.2244 13.6873 58.219 13.9353C58.2108 14.1543 58.2647 14.3712 58.3744 14.561C58.4955 14.7462 58.6713 14.8891 58.8774 14.9699C59.1693 15.0898 59.4772 15.1662 59.7913 15.1968C60.2584 15.2482 60.7282 15.2714 61.1981 15.2663H63.0035C63.6046 15.2663 64.1028 15.2534 64.4981 15.2275C64.8119 15.216 65.1233 15.1686 65.4264 15.0864C65.6075 15.0431 65.7714 14.9462 65.8966 14.8083C65.9923 14.6808 66.0407 14.5239 66.0336 14.3646V12.5245H67.4506V14.3646C67.4506 14.9657 67.7913 15.2663 68.4729 15.2663H68.8593V16.8141L68.4729 17.2006C67.8104 17.2006 67.2945 17.0642 66.9251 16.7916C66.5234 16.459 66.2614 15.9876 66.1911 15.4708H66.1113C66.0549 15.7916 65.9271 16.0956 65.7371 16.3602C65.5365 16.6161 65.275 16.8179 64.9765 16.947C64.5858 17.1147 64.1724 17.2236 63.7498 17.2701C63.1577 17.3346 62.5623 17.3619 61.9668 17.3519ZM60.9445 12.5163C60.8442 12.5205 60.744 12.5046 60.6499 12.4695C60.5558 12.4344 60.4696 12.3808 60.3966 12.3119C60.2572 12.121 60.182 11.8908 60.182 11.6545C60.182 11.4182 60.2572 11.1879 60.3966 10.9971C60.4696 10.9282 60.5558 10.8746 60.6499 10.8395C60.744 10.8044 60.8442 10.7884 60.9445 10.7927H61.2042C61.3045 10.7889 61.4046 10.805 61.4986 10.8401C61.5927 10.8752 61.6788 10.9286 61.7522 10.9971C61.8904 11.1884 61.9648 11.4185 61.9648 11.6545C61.9648 11.8905 61.8904 12.1205 61.7522 12.3119C61.6788 12.3804 61.5927 12.4338 61.4986 12.4688C61.4046 12.5039 61.3045 12.5201 61.2042 12.5163H60.9445ZM62.9892 12.5163C62.8888 12.5203 62.7887 12.5043 62.6946 12.4691C62.6005 12.434 62.5144 12.3806 62.4412 12.3119C62.303 12.1205 62.2286 11.8905 62.2286 11.6545C62.2286 11.4185 62.303 11.1884 62.4412 10.9971C62.5144 10.9284 62.6005 10.8749 62.6946 10.8398C62.7887 10.8047 62.8888 10.7887 62.9892 10.7927H63.2468C63.3471 10.7887 63.4472 10.8047 63.5413 10.8398C63.6354 10.8749 63.7215 10.9284 63.7947 10.9971C63.933 11.1884 64.0074 11.4185 64.0074 11.6545C64.0074 11.8905 63.933 12.1205 63.7947 12.3119C63.7215 12.3806 63.6354 12.434 63.5413 12.4691C63.4472 12.5043 63.3471 12.5203 63.2468 12.5163H62.9892Z" fill="#707070"/>
<path d="M68.4789 15.6474L68.8653 15.261H69.2517C69.9333 15.261 70.274 14.9605 70.274 14.3593V12.5192H71.693V14.3593C71.693 14.9605 71.9943 15.261 72.5967 15.261H73.112V16.8088L72.7256 17.1952C72.0365 17.1952 71.5151 17.0562 71.1573 16.7863C70.7669 16.447 70.5127 15.9778 70.4417 15.4655H70.3661C70.2454 16.0666 70.0389 16.5082 69.7527 16.7863C69.4664 17.0644 69.035 17.1952 68.4768 17.1952L68.4789 15.6474ZM69.8447 19.9678C69.7443 19.9717 69.6442 19.9557 69.5501 19.9206C69.4561 19.8855 69.3699 19.832 69.2967 19.7633C69.1585 19.572 69.0841 19.3419 69.0841 19.1059C69.0841 18.8699 69.1585 18.6399 69.2967 18.4486C69.3699 18.3799 69.4561 18.3264 69.5501 18.2913C69.6442 18.2562 69.7443 18.2401 69.8447 18.2441H70.1023C70.2026 18.2401 70.3028 18.2562 70.3968 18.2913C70.4909 18.3264 70.5771 18.3799 70.6503 18.4486C70.7885 18.6399 70.8629 18.8699 70.8629 19.1059C70.8629 19.3419 70.7885 19.572 70.6503 19.7633C70.5771 19.832 70.4909 19.8855 70.3968 19.9206C70.3028 19.9557 70.2026 19.9717 70.1023 19.9678H69.8447ZM71.8893 19.9678C71.789 19.9715 71.6889 19.9554 71.5949 19.9203C71.5008 19.8852 71.4147 19.8318 71.3413 19.7633C71.2031 19.572 71.1287 19.3419 71.1287 19.1059C71.1287 18.8699 71.2031 18.6399 71.3413 18.4486C71.4147 18.3801 71.5008 18.3267 71.5949 18.2916C71.6889 18.2565 71.789 18.2404 71.8893 18.2441H72.149C72.2493 18.2404 72.3493 18.2565 72.4434 18.2916C72.5374 18.3267 72.6236 18.3801 72.6969 18.4486C72.8352 18.6399 72.9095 18.8699 72.9095 19.1059C72.9095 19.3419 72.8352 19.572 72.6969 19.7633C72.6236 19.8318 72.5374 19.8852 72.4434 19.9203C72.3493 19.9554 72.2493 19.9715 72.149 19.9678H71.8893Z" fill="#707070"/>
<path d="M72.7336 15.648L73.1201 15.2616H73.4942C73.7504 15.2648 74.0065 15.2518 74.261 15.2227C74.4313 15.2074 74.5975 15.1617 74.7517 15.0878C74.8625 15.0369 74.9531 14.9506 75.0093 14.8424C75.0594 14.7271 75.0831 14.6021 75.0788 14.4764C75.0788 14.3469 75.0686 14.1813 75.0482 13.9796C75.0257 13.7751 74.9848 13.5134 74.9255 13.1862L74.6985 11.9861L76.1032 11.755L76.2954 12.9532C76.3383 13.1863 76.3731 13.4439 76.3997 13.7281C76.4263 14.0123 76.4385 14.2617 76.4385 14.4764C76.4385 15.4129 76.2082 16.1006 75.7474 16.5395C75.2867 16.9784 74.5329 17.1972 73.4861 17.1958H72.7336V15.648ZM74.9827 19.9683C74.8824 19.9721 74.7824 19.956 74.6883 19.9209C74.5943 19.8858 74.5081 19.8324 74.4348 19.7639C74.2966 19.5726 74.2222 19.3425 74.2222 19.1065C74.2222 18.8705 74.2966 18.6405 74.4348 18.4492C74.5081 18.3806 74.5943 18.3272 74.6883 18.2921C74.7824 18.2571 74.8824 18.241 74.9827 18.2447H75.2404C75.3407 18.2405 75.4409 18.2564 75.535 18.2915C75.6291 18.3266 75.7153 18.3803 75.7883 18.4492C75.9265 18.6405 76.0009 18.8705 76.0009 19.1065C76.0009 19.3425 75.9265 19.5726 75.7883 19.7639C75.7153 19.8328 75.6291 19.8864 75.535 19.9215C75.4409 19.9566 75.3407 19.9726 75.2404 19.9683H74.9827Z" fill="#707070"/>
<path d="M84.7172 20.2909C84.0956 20.2982 83.4761 20.2177 82.877 20.0517C82.3735 19.9146 81.9027 19.6775 81.4928 19.3545C81.1208 19.0588 80.8244 18.6789 80.6279 18.2463C80.4228 17.7773 80.3216 17.2696 80.3315 16.7578C80.3376 16.317 80.3917 15.8782 80.493 15.4492C80.599 14.9661 80.7475 14.4933 80.9367 14.0364L82.1757 14.3983C82.0058 14.7587 81.869 15.1337 81.7668 15.5187C81.6771 15.8385 81.6277 16.1682 81.6196 16.5002C81.6116 16.7515 81.6706 17.0005 81.7906 17.2214C81.9107 17.4424 82.0873 17.6275 82.3025 17.7576C82.7578 18.0548 83.3936 18.2026 84.2101 18.2013H85.2325C85.9379 18.2258 86.6421 18.1276 87.3139 17.911C87.8332 17.7188 88.1318 17.453 88.2094 17.1177L85.0259 16.5778V14.7377H85.7866C86.0562 14.7396 86.3255 14.7205 86.5921 14.6804C86.807 14.6487 87.0146 14.5795 87.2055 14.476C87.3693 14.3855 87.5051 14.2518 87.5981 14.0895C87.6977 13.9008 87.7463 13.6894 87.7392 13.4762V13.012H87.6615C87.412 13.6936 86.8409 14.0343 85.9481 14.0343C85.2515 14.0343 84.7063 13.8517 84.3124 13.4864C84.1126 13.29 83.957 13.0533 83.8558 12.792C83.7546 12.5308 83.7102 12.251 83.7256 11.9713C83.7234 11.5484 83.7925 11.1281 83.93 10.7282C84.0516 10.3655 84.2395 10.0285 84.4841 9.73446C84.7166 9.45611 85.005 9.22971 85.3306 9.06996C85.658 8.91112 86.0177 8.82997 86.3815 8.8328C86.7733 8.82083 87.1614 8.9122 87.5067 9.09776C87.8519 9.28332 88.1423 9.55651 88.3485 9.88986C88.8174 10.5946 89.0512 11.5746 89.0498 12.83C89.0717 13.3596 88.989 13.8884 88.8065 14.386C88.7261 14.5781 88.6084 14.7523 88.4604 14.8986C88.3123 15.045 88.1366 15.1605 87.9436 15.2386V15.3143L88.189 15.3797C88.5609 15.4692 88.9002 15.6611 89.1684 15.9338C89.4161 16.2088 89.5461 16.57 89.5303 16.9398C89.54 17.4367 89.4269 17.9283 89.2011 18.371C88.9763 18.7941 88.6504 19.1551 88.2524 19.4219C87.7921 19.7267 87.2811 19.947 86.7434 20.0721C86.0797 20.2289 85.3991 20.3024 84.7172 20.2909ZM83.5702 23.0634C83.4698 23.0674 83.3697 23.0514 83.2756 23.0163C83.1816 22.9812 83.0954 22.9277 83.0222 22.859C82.8838 22.6673 82.8093 22.437 82.8093 22.2006C82.8093 21.9642 82.8838 21.7339 83.0222 21.5422C83.0953 21.4734 83.1815 21.4198 83.2756 21.3847C83.3697 21.3496 83.4698 21.3337 83.5702 21.3378H83.8278C83.9282 21.3335 84.0283 21.3495 84.1225 21.3846C84.2166 21.4197 84.3027 21.4733 84.3758 21.5422C84.5141 21.7339 84.5886 21.9642 84.5886 22.2006C84.5886 22.437 84.5141 22.6673 84.3758 22.859C84.3027 22.9279 84.2166 22.9815 84.1225 23.0166C84.0283 23.0517 83.9282 23.0676 83.8278 23.0634H83.5702ZM85.6148 23.0634C85.5148 23.0674 85.415 23.0513 85.3212 23.0162C85.2275 22.9811 85.1417 22.9276 85.0689 22.859C84.9293 22.6678 84.8541 22.4373 84.8541 22.2006C84.8541 21.9639 84.9293 21.7334 85.0689 21.5422C85.1416 21.4734 85.2274 21.4199 85.3212 21.3848C85.4149 21.3497 85.5148 21.3337 85.6148 21.3378H85.8745C85.9748 21.3339 86.0749 21.35 86.169 21.3851C86.263 21.4202 86.3492 21.4736 86.4224 21.5422C86.5608 21.7339 86.6353 21.9642 86.6353 22.2006C86.6353 22.437 86.5608 22.6673 86.4224 22.859C86.3491 22.9275 86.2629 22.9809 86.1689 23.016C86.0748 23.0511 85.9748 23.0672 85.8745 23.0634H85.6148ZM86.3631 12.3598C86.6365 12.3627 86.9097 12.3477 87.181 12.3148C87.3683 12.295 87.5512 12.2453 87.7228 12.1676C87.6901 11.7769 87.513 11.4124 87.226 11.1452C86.9474 10.8908 86.5808 10.7545 86.2037 10.765C85.9004 10.7547 85.6027 10.8477 85.3592 11.0287C85.2519 11.1056 85.1648 11.2073 85.1054 11.3251C85.0459 11.443 85.0158 11.5735 85.0178 11.7055C85.0105 11.8069 85.0335 11.9082 85.0837 11.9966C85.1339 12.085 85.2091 12.1566 85.2999 12.2024C85.5432 12.3114 85.8086 12.3618 86.0748 12.3496L86.3631 12.3598ZM86.2609 7.80843C86.1605 7.81312 86.0602 7.7974 85.966 7.76226C85.8718 7.72712 85.7857 7.67329 85.7129 7.60397C85.5747 7.41265 85.5003 7.18262 85.5003 6.9466C85.5003 6.71058 85.5747 6.48055 85.7129 6.28923C85.786 6.2203 85.8721 6.16671 85.9662 6.13159C86.0604 6.09648 86.1606 6.08055 86.2609 6.08477H86.5185C86.6189 6.08078 86.719 6.09684 86.8131 6.13194C86.9072 6.16705 86.9933 6.22049 87.0665 6.28923C87.2047 6.48055 87.2791 6.71058 87.2791 6.9466C87.2791 7.18262 87.2047 7.41265 87.0665 7.60397C86.9936 7.67309 86.9075 7.72678 86.8133 7.76191C86.7192 7.79704 86.6189 7.81289 86.5185 7.80843H86.2609Z" fill="#707070"/>
<path d="M97.8036 20.2907C97.182 20.2979 96.5625 20.2174 95.9635 20.0515C95.4595 19.9139 94.9881 19.6769 94.5772 19.3542C94.2058 19.0585 93.91 18.6786 93.7144 18.246C93.5092 17.7771 93.408 17.2693 93.4179 16.7576C93.4242 16.3169 93.4777 15.8782 93.5774 15.449C93.685 14.9661 93.8341 14.4934 94.0231 14.0362L95.2601 14.3981C95.0902 14.7584 94.9533 15.1334 94.8512 15.5185C94.7599 15.838 94.7098 16.1678 94.7019 16.4999C94.6954 16.751 94.7551 16.9994 94.875 17.2201C94.9948 17.4408 95.1707 17.6261 95.3848 17.7574C95.8401 18.0545 96.4767 18.2024 97.2945 18.201H98.3168C99.0229 18.2255 99.7279 18.1273 100.4 17.9107C100.92 17.7185 101.218 17.4528 101.296 17.1174L98.1103 16.5776V14.7374H98.8709C99.4393 14.7374 99.8244 14.6693 100.026 14.533C100.133 14.4522 100.217 14.3451 100.27 14.2222C100.323 14.0993 100.343 13.9648 100.329 13.8317C100.327 13.6656 100.316 13.4998 100.296 13.3349C100.276 13.1304 100.235 12.8687 100.173 12.5415L99.9546 11.3434L101.361 11.1103L101.553 12.3084C101.596 12.5415 101.631 12.7991 101.658 13.0833C101.684 13.3675 101.695 13.617 101.695 13.8317C101.695 14.4601 101.472 14.9242 101.026 15.2241V15.2997L101.269 15.3652C101.642 15.4543 101.982 15.6463 102.251 15.9193C102.496 16.1956 102.625 16.556 102.611 16.9252C102.621 17.4219 102.509 17.9135 102.283 18.3564C102.058 18.7791 101.732 19.14 101.335 19.4074C100.874 19.7122 100.363 19.9324 99.8258 20.0576C99.164 20.2189 98.4847 20.2971 97.8036 20.2907ZM96.6566 23.0632C96.5562 23.0674 96.456 23.0515 96.3619 23.0164C96.2678 22.9813 96.1817 22.9277 96.1086 22.8587C95.9702 22.6671 95.8958 22.4367 95.8958 22.2004C95.8958 21.964 95.9702 21.7336 96.1086 21.542C96.1817 21.4731 96.2678 21.4195 96.3619 21.3844C96.456 21.3492 96.5562 21.3333 96.6566 21.3375H96.9142C97.0146 21.3334 97.1147 21.3494 97.2088 21.3845C97.3029 21.4196 97.3891 21.4732 97.4622 21.542C97.6006 21.7336 97.6751 21.964 97.6751 22.2004C97.6751 22.4367 97.6006 22.6671 97.4622 22.8587C97.389 22.9275 97.3028 22.981 97.2088 23.0161C97.1147 23.0512 97.0146 23.0672 96.9142 23.0632H96.6566ZM98.7012 23.0632C98.6009 23.067 98.5009 23.0509 98.4068 23.0158C98.3128 22.9807 98.2266 22.9273 98.1533 22.8587C98.0149 22.6671 97.9404 22.4367 97.9404 22.2004C97.9404 21.964 98.0149 21.7336 98.1533 21.542C98.2265 21.4734 98.3127 21.42 98.4068 21.3849C98.5008 21.3498 98.6009 21.3337 98.7012 21.3375H98.9589C99.0592 21.3333 99.1594 21.3492 99.2535 21.3844C99.3476 21.4195 99.4338 21.4731 99.5068 21.542C99.6452 21.7336 99.7197 21.964 99.7197 22.2004C99.7197 22.4367 99.6452 22.6671 99.5068 22.8587C99.4338 22.9277 99.3476 22.9813 99.2535 23.0164C99.1594 23.0515 99.0592 23.0674 98.9589 23.0632H98.7012ZM100.462 10.092C100.361 10.0962 100.261 10.0802 100.167 10.0451C100.073 10.01 99.9868 9.95642 99.9137 9.88758C99.7753 9.69595 99.7008 9.46559 99.7008 9.22922C99.7008 8.99284 99.7753 8.76248 99.9137 8.57085C99.9869 8.50211 100.073 8.44861 100.167 8.41351C100.261 8.37841 100.361 8.3624 100.462 8.36639H100.719C100.82 8.36217 100.92 8.37809 101.014 8.41321C101.108 8.44833 101.194 8.50192 101.267 8.57085C101.406 8.76248 101.48 8.99284 101.48 9.22922C101.48 9.46559 101.406 9.69595 101.267 9.88758C101.194 9.95651 101.108 10.0101 101.014 10.0452C100.92 10.0803 100.82 10.0963 100.719 10.092H100.462Z" fill="#707070"/>
<path d="M106.348 17.1947C105.48 17.1947 104.835 16.9903 104.414 16.5813C103.993 16.1724 103.782 15.5017 103.782 14.5694V7.65857H105.33V14.3118C105.33 14.6982 105.405 14.9538 105.561 15.0785C105.8 15.2252 106.081 15.2905 106.36 15.2646H106.747V16.8124L106.36 17.1988L106.348 17.1947Z" fill="#707070"/>
<path d="M106.36 15.6467L106.747 15.2603H108.127V16.8081L107.74 17.1945H106.36V15.6467Z" fill="#707070"/>
<path d="M107.74 15.6467L108.126 15.2603H109.506V16.8081L109.118 17.1945H107.74V15.6467Z" fill="#707070"/>
<path d="M109.118 15.6467L109.507 15.2603H110.889V16.8081L110.502 17.1945H109.122L109.118 15.6467Z" fill="#707070"/>
<path d="M110.499 15.6467L110.885 15.2603H112.265V16.8081L111.879 17.1945H110.499V15.6467Z" fill="#707070"/>
<path d="M111.878 15.6467L112.264 15.2603H113.644V16.8081L113.258 17.1945H111.878V15.6467Z" fill="#707070"/>
<path d="M113.258 15.6467L113.645 15.2603H115.025V16.8081L114.636 17.1945H113.258V15.6467Z" fill="#707070"/>
<path d="M114.637 15.6467L115.025 15.2603H116.409V16.8081L116.023 17.1945H114.643L114.637 15.6467Z" fill="#707070"/>
<path d="M116.017 15.6467L116.404 15.2603H117.784V16.8081L117.397 17.1945H116.017V15.6467Z" fill="#707070"/>
<path d="M117.396 15.6467L117.783 15.2603H119.163V16.8081L118.777 17.1945H117.396V15.6467Z" fill="#707070"/>
<path d="M118.777 15.6467L119.163 15.2603H120.543V16.8081L120.155 17.1945H118.777V15.6467Z" fill="#707070"/>
<path d="M120.156 15.6467L120.542 15.2603H121.93V16.8081L121.544 17.1945H120.164L120.156 15.6467Z" fill="#707070"/>
<path d="M121.535 15.6467L121.921 15.2603H123.301V16.8081L122.915 17.1945H121.535V15.6467Z" fill="#707070"/>
<path d="M122.915 15.6467L123.302 15.2603H124.682V16.8081L124.295 17.1945H122.915V15.6467Z" fill="#707070"/>
<path d="M124.296 15.6467L124.682 15.2603H126.062V16.8081L125.674 17.1945H124.296V15.6467Z" fill="#707070"/>
<path d="M125.673 15.6467L126.06 15.2603H127.45V16.8081L127.063 17.1945H125.683L125.673 15.6467Z" fill="#707070"/>
<path d="M127.053 15.6467L127.44 15.2603H128.82V16.8081L128.434 17.1945H127.053V15.6467Z" fill="#707070"/>
<path d="M128.434 15.6467L128.82 15.2603H130.2V16.8081L129.812 17.1945H128.434V15.6467Z" fill="#707070"/>
<path d="M129.812 15.6474L130.2 15.261H130.587C131.268 15.261 131.609 14.9605 131.609 14.3593V12.5192H133.028V14.3593C133.028 14.9605 133.329 15.261 133.93 15.261H134.447V16.8088L134.061 17.1952C133.372 17.1952 132.85 17.0562 132.492 16.7863C132.102 16.447 131.848 15.9778 131.777 15.4655H131.699C131.581 16.0666 131.374 16.5082 131.086 16.7863C130.797 17.0644 130.368 17.1952 129.808 17.1952L129.812 15.6474ZM132.198 19.9678C132.098 19.9717 131.998 19.9557 131.904 19.9206C131.809 19.8855 131.723 19.832 131.65 19.7633C131.512 19.572 131.437 19.3419 131.437 19.1059C131.437 18.8699 131.512 18.6399 131.65 18.4486C131.723 18.3799 131.809 18.3264 131.904 18.2913C131.998 18.2562 132.098 18.2401 132.198 18.2441H132.456C132.556 18.2399 132.656 18.2558 132.75 18.2909C132.844 18.326 132.931 18.3797 133.004 18.4486C133.142 18.6399 133.216 18.8699 133.216 19.1059C133.216 19.3419 133.142 19.572 133.004 19.7633C132.931 19.8322 132.844 19.8858 132.75 19.9209C132.656 19.956 132.556 19.972 132.456 19.9678H132.198Z" fill="#707070"/>
<path d="M135.962 16.4728C135.779 16.7342 135.52 16.9332 135.22 17.0433C134.847 17.1628 134.456 17.2174 134.065 17.2048V15.657L134.453 15.2706C134.693 15.2879 134.934 15.2391 135.148 15.1295C135.318 15.0033 135.445 14.8276 135.51 14.6265L135.87 13.7371C135.977 13.4683 136.101 13.2067 136.242 12.954C136.374 12.7209 136.54 12.508 136.733 12.3222C136.919 12.144 137.135 12.0001 137.371 11.8969C137.63 11.7903 137.908 11.7381 138.189 11.7436C138.55 11.7247 138.911 11.8032 139.232 11.9707C139.553 12.1383 139.823 12.3889 140.015 12.6964C140.424 13.3329 140.628 14.2142 140.628 15.3401V15.7143L139.401 17.5319L135.962 16.4728ZM136.672 14.6817L139.264 15.4669V15.338C139.29 14.902 139.157 14.4714 138.89 14.1256C138.764 13.9797 138.607 13.8646 138.429 13.7887C138.252 13.7129 138.06 13.6785 137.868 13.688C137.612 13.6824 137.361 13.7591 137.152 13.9068C136.929 14.084 136.768 14.3285 136.694 14.604L136.672 14.6817Z" fill="#707070"/>
<path d="M150.571 17.1956C149.79 17.1956 149.217 16.9911 148.857 16.6231C148.669 16.4147 148.525 16.1711 148.432 15.9065C148.339 15.6419 148.299 15.3615 148.315 15.0814V15.016H148.238C148.181 15.277 148.101 15.5323 147.998 15.7787C147.92 15.9657 147.804 16.1343 147.657 16.2735C147.516 16.4 147.348 16.493 147.166 16.5454C146.948 16.6049 146.723 16.6331 146.498 16.6292C145.877 16.6292 145.413 16.4636 145.103 16.1324C144.774 15.7437 144.607 15.2425 144.639 14.7339C144.612 14.1067 144.821 13.4923 145.226 13.0123C145.673 12.5283 146.21 12.1359 146.806 11.857L148.25 11.1353V10.4258H149.798V14.5662C149.787 14.6636 149.797 14.7623 149.827 14.8556C149.857 14.949 149.906 15.035 149.971 15.108C150.147 15.2272 150.359 15.2814 150.571 15.2614H150.963V16.8092L150.571 17.1956ZM146.923 14.695C147.275 14.7186 147.627 14.6699 147.96 14.5519C148.055 14.5058 148.133 14.4317 148.185 14.3397C148.237 14.2476 148.26 14.1419 148.25 14.0367V12.4889L147.297 12.9407C147.064 13.0532 146.864 13.1452 146.696 13.2372C146.546 13.3119 146.404 13.4002 146.271 13.5009C146.168 13.577 146.081 13.6713 146.013 13.779C145.956 13.8772 145.928 13.9888 145.929 14.1021C145.92 14.1896 145.935 14.2779 145.971 14.3583C146.006 14.4386 146.063 14.5082 146.134 14.5601C146.381 14.6721 146.653 14.7185 146.923 14.695ZM146.87 9.39535C146.769 9.39911 146.669 9.38297 146.575 9.34788C146.481 9.31278 146.395 9.25944 146.322 9.19088C146.184 8.99957 146.109 8.76954 146.109 8.53352C146.109 8.2975 146.184 8.06746 146.322 7.87615C146.395 7.8076 146.481 7.75425 146.575 7.71916C146.669 7.68406 146.769 7.66792 146.87 7.67168H147.129C147.23 7.66792 147.33 7.68406 147.424 7.71916C147.518 7.75425 147.604 7.8076 147.677 7.87615C147.816 8.06746 147.89 8.2975 147.89 8.53352C147.89 8.76954 147.816 8.99957 147.677 9.19088C147.604 9.25944 147.518 9.31278 147.424 9.34788C147.33 9.38297 147.23 9.39911 147.129 9.39535H146.87ZM148.914 9.39535C148.814 9.39957 148.714 9.38364 148.62 9.34852C148.526 9.31341 148.44 9.25982 148.366 9.19088C148.228 8.99957 148.154 8.76954 148.154 8.53352C148.154 8.2975 148.228 8.06746 148.366 7.87615C148.44 7.80722 148.526 7.75362 148.62 7.71851C148.714 7.68339 148.814 7.66746 148.914 7.67168H149.172C149.272 7.66769 149.372 7.68375 149.467 7.71886C149.561 7.75396 149.647 7.80741 149.72 7.87615C149.858 8.06746 149.933 8.2975 149.933 8.53352C149.933 8.76954 149.858 8.99957 149.72 9.19088C149.647 9.25963 149.561 9.31307 149.467 9.34817C149.372 9.38328 149.272 9.39934 149.172 9.39535H148.914Z" fill="#707070"/>
<path d="M150.571 15.6468L150.958 15.2604H151.98V15.2031C151.81 14.9577 151.678 14.6882 151.588 14.4037C151.494 14.1075 151.448 13.7983 151.451 13.4877C151.448 12.6869 151.75 11.915 152.295 11.3286C152.558 11.049 152.874 10.8251 153.225 10.6702C153.592 10.5083 153.99 10.4268 154.391 10.4309C154.988 10.4053 155.58 10.5538 156.094 10.8583C156.545 11.154 156.92 11.551 157.19 12.0176L155.81 13.2444C155.648 12.9722 155.422 12.744 155.151 12.5799C154.878 12.4355 154.571 12.365 154.262 12.3754C153.867 12.3524 153.475 12.454 153.141 12.6658C153.009 12.7589 152.902 12.8839 152.83 13.0294C152.759 13.1748 152.725 13.336 152.733 13.4979C152.724 13.7025 152.771 13.9056 152.868 14.0856C152.966 14.2656 153.111 14.4158 153.287 14.5202C153.657 14.7574 154.176 14.8739 154.847 14.8739C155.084 14.8733 155.321 14.8562 155.556 14.8228C155.787 14.7919 156.015 14.7448 156.239 14.6817L157.49 14.3342L157.981 16.0742L156.086 16.6548C155.716 16.7653 155.358 16.8593 155.014 16.9308C154.639 17.009 154.261 17.067 153.88 17.1047C153.471 17.1496 152.994 17.1783 152.463 17.1967C151.931 17.2151 151.293 17.2212 150.553 17.2212L150.571 15.6468Z" fill="#707070"/>
<path d="M158.694 18.3565H159.512C160.181 18.3811 160.848 18.2755 161.477 18.0458C161.914 17.8896 162.284 17.5897 162.528 17.1952H161.033C160.335 17.1952 159.79 16.9907 159.398 16.5818C159.005 16.1729 158.809 15.6031 158.811 14.8725C158.809 14.4496 158.878 14.0293 159.015 13.6294C159.137 13.2667 159.325 12.9297 159.569 12.6357C159.8 12.3604 160.086 12.1362 160.408 11.9773C160.735 11.8185 161.095 11.7373 161.459 11.7401C161.821 11.7285 162.18 11.8072 162.504 11.9693C162.828 12.1314 163.107 12.3717 163.315 12.6684C163.77 13.2859 164.02 14.1494 164.063 15.2589H164.722V16.8067L164.333 17.1932H163.896C163.705 18.1017 163.197 18.9131 162.465 19.4831C161.756 20.0188 160.812 20.2874 159.635 20.2888H158.68L158.694 18.3565ZM160.113 14.6169C160.106 14.7185 160.13 14.8198 160.18 14.9082C160.231 14.9966 160.306 15.0681 160.397 15.1138C160.64 15.2231 160.905 15.2735 161.17 15.261H162.781V15.2222C162.791 15.0168 162.759 14.8116 162.687 14.619C162.615 14.4264 162.504 14.2504 162.362 14.1017C162.224 13.9614 162.058 13.8513 161.875 13.7781C161.692 13.7049 161.496 13.6703 161.299 13.6764C160.996 13.6661 160.698 13.7591 160.455 13.9402C160.347 14.017 160.26 14.1187 160.201 14.2366C160.141 14.3544 160.111 14.4849 160.113 14.6169Z" fill="#707070"/>
<path d="M164.342 15.6467L164.728 15.2603H166.109V16.8081L165.722 17.1945H164.342V15.6467Z" fill="#707070"/>
<path d="M165.722 15.6473L166.108 15.2609H167.231C167.223 15.2102 167.219 15.1589 167.219 15.1075V14.9521C167.219 13.9107 167.82 13.0424 169.022 12.3473L169.84 11.8708H171.541L172.563 14.6045C172.619 14.815 172.743 15.0007 172.917 15.132C173.115 15.2305 173.335 15.2749 173.555 15.2609H173.941V16.8087L173.555 17.1951C173.093 17.2168 172.633 17.1263 172.214 16.9313C171.867 16.7381 171.583 16.4492 171.396 16.0991L171.318 16.1135V17.1951H169.682C169.153 17.2209 168.627 17.0885 168.173 16.8148C167.814 16.5845 167.535 16.2489 167.374 15.8538H167.259C167.018 16.7493 166.502 17.1964 165.712 17.1951L165.722 15.6473ZM168.39 14.7722C168.383 14.8515 168.4 14.931 168.44 15.0001C168.479 15.0693 168.539 15.1246 168.611 15.1586C168.777 15.2307 168.957 15.2656 169.138 15.2609H171.034L170.388 13.5679L169.214 14.032C168.994 14.1143 168.787 14.2294 168.601 14.3735C168.538 14.4199 168.487 14.4799 168.45 14.5489C168.414 14.6179 168.393 14.6942 168.39 14.7722Z" fill="#707070"/>
<path d="M173.561 15.6472L173.948 15.2608H174.837C175.32 15.2608 175.752 15.2547 176.133 15.2424C176.498 15.2314 176.862 15.1993 177.223 15.1463C177.564 15.0938 177.9 15.0159 178.229 14.9132C178.588 14.7975 178.937 14.6554 179.274 14.4879L179.75 14.2549V14.1915L177.687 13.7518L175.741 13.2755V14.2426H174.258V13.2509C174.258 12.6403 174.389 12.1931 174.651 11.9096C174.913 11.6261 175.315 11.4844 175.857 11.4844C175.926 11.4849 175.994 11.489 176.062 11.4967C176.133 11.4967 176.219 11.5171 176.319 11.5355C176.42 11.5539 176.536 11.5784 176.673 11.6132L177.188 11.742L179.677 12.386C180.041 12.4844 180.412 12.5575 180.787 12.6048C181.176 12.6559 181.568 12.6818 181.961 12.6825H182.218V14.6167H181.315C181.308 14.7106 181.323 14.8048 181.358 14.8921C181.394 14.9793 181.449 15.0572 181.519 15.1197C181.731 15.2318 181.971 15.2808 182.21 15.2608H182.597V16.8086L182.21 17.195C181.565 17.1868 181.064 17.039 180.707 16.7514C180.352 16.4631 180.129 16.0132 180.043 15.4039L179.992 15.4428C179.503 15.7825 178.993 16.0899 178.464 16.3628C178.052 16.5754 177.623 16.7526 177.18 16.8924C176.799 17.0127 176.406 17.0949 176.009 17.1378C175.614 17.177 175.217 17.1961 174.821 17.195H173.545L173.561 15.6472ZM178.01 19.9676C177.91 19.9718 177.81 19.9559 177.716 19.9207C177.622 19.8856 177.536 19.832 177.462 19.7631C177.324 19.5718 177.25 19.3417 177.25 19.1057C177.25 18.8697 177.324 18.6397 177.462 18.4484C177.536 18.3795 177.622 18.3258 177.716 18.2907C177.81 18.2556 177.91 18.2397 178.01 18.2439H178.268C178.368 18.2402 178.468 18.2563 178.562 18.2914C178.657 18.3265 178.743 18.3799 178.816 18.4484C178.954 18.6397 179.029 18.8697 179.029 19.1057C179.029 19.3417 178.954 19.5718 178.816 19.7631C178.743 19.8316 178.657 19.885 178.562 19.9201C178.468 19.9552 178.368 19.9713 178.268 19.9676H178.01Z" fill="#707070"/>
<path d="M184.121 16.4729C183.936 16.7299 183.677 16.9251 183.379 17.0332C183.007 17.1525 182.617 17.2071 182.226 17.1947V15.6469L182.612 15.2605C182.853 15.2778 183.094 15.229 183.309 15.1194C183.478 14.9929 183.604 14.8172 183.669 14.6164L184.031 13.727C184.137 13.4601 184.262 13.2012 184.405 12.9521C184.538 12.7194 184.702 12.5067 184.894 12.3203C185.081 12.143 185.297 11.9992 185.532 11.895C185.791 11.7887 186.07 11.7365 186.35 11.7417C186.711 11.7232 187.071 11.8017 187.392 11.9693C187.712 12.1368 187.982 12.3872 188.174 12.6944C188.583 13.331 188.787 14.2122 188.787 15.3381V15.7123L187.56 17.53L184.121 16.4729ZM184.831 14.6818L187.421 15.467V15.3381C187.447 14.9021 187.314 14.4715 187.047 14.1257C186.921 13.9799 186.764 13.8647 186.586 13.7888C186.409 13.713 186.217 13.6786 186.025 13.6882C185.769 13.6828 185.518 13.7594 185.309 13.9069C185.086 14.0847 184.926 14.329 184.851 14.6042L184.831 14.6818Z" fill="#707070"/>
<path d="M0.735596 23.6936H5.10498C5.85332 23.6936 6.43604 23.9042 6.85314 24.3254C7.06513 24.5482 7.22984 24.8116 7.33736 25.0997C7.44488 25.3879 7.493 25.6948 7.4788 26.002C7.48609 26.3001 7.4404 26.5971 7.34386 26.8792C7.26451 27.0992 7.1414 27.3009 6.98196 27.4721C6.83446 27.6256 6.65312 27.7425 6.4524 27.8135C6.24352 27.8886 6.02406 27.93 5.8022 27.9362V28.0139C6.03255 28.0166 6.261 28.0559 6.47898 28.1304C6.71817 28.2088 6.93974 28.3331 7.13121 28.4964C7.33843 28.6783 7.50674 28.9001 7.62602 29.1487C7.76926 29.4548 7.83927 29.7902 7.83048 30.1281C7.83287 30.4691 7.774 30.8077 7.65669 31.1279C7.54782 31.4284 7.38344 31.7059 7.17211 31.9457C6.96797 32.1772 6.71803 32.3638 6.43808 32.4937C6.14798 32.6308 5.83068 32.7007 5.50982 32.6982H0.739683L0.735596 23.6936ZM2.69435 27.3739H4.64085C4.75262 27.3814 4.86475 27.3659 4.97026 27.3282C5.07577 27.2906 5.17243 27.2317 5.25424 27.1552C5.33077 27.0733 5.38968 26.9767 5.42731 26.8712C5.46495 26.7657 5.4805 26.6535 5.47301 26.5418V26.1554C5.4805 26.0436 5.46495 25.9315 5.42731 25.8259C5.38968 25.7204 5.33077 25.6238 5.25424 25.542C5.17243 25.4654 5.07577 25.4065 4.97026 25.3689C4.86475 25.3313 4.75262 25.3157 4.64085 25.3232H2.69435V27.3739ZM2.69435 31.0359H4.94345C5.1668 31.0507 5.38705 30.9773 5.55684 30.8314C5.63498 30.7533 5.69562 30.6596 5.73475 30.5563C5.77388 30.453 5.7906 30.3426 5.7838 30.2323V29.7928C5.7906 29.6825 5.77388 29.5721 5.73475 29.4688C5.69562 29.3655 5.63498 29.2717 5.55684 29.1936C5.38705 29.0478 5.1668 28.9744 4.94345 28.9892H2.69435V31.0359Z" fill="#707070"/>
<path d="M11.1922 23.6936V29.2141C11.1922 29.852 11.3169 30.3291 11.5664 30.6454C11.8158 30.9602 12.2329 31.1156 12.8177 31.1156C13.4025 31.1156 13.8175 30.9602 14.067 30.6454C14.3164 30.3305 14.4411 29.8582 14.4411 29.2141V23.6936H16.3488V29.0097C16.3584 29.5883 16.2959 30.1659 16.1627 30.7292C16.06 31.1736 15.8493 31.5858 15.5493 31.9294C15.2511 32.253 14.8732 32.4927 14.4534 32.6246C13.924 32.788 13.3716 32.8647 12.8177 32.8515C12.2638 32.8646 11.7114 32.7879 11.182 32.6246C10.7621 32.4927 10.3843 32.253 10.0861 31.9294C9.78605 31.5858 9.57537 31.1736 9.47267 30.7292C9.3395 30.1659 9.277 29.5883 9.28661 29.0097V23.6936H11.1922Z" fill="#707070"/>
<path d="M17.9353 32.6941V31.134H19.0967V25.2536H17.9353V23.6936H22.2168V25.2536H21.0554V31.134H22.2168V32.6941H17.9353Z" fill="#707070"/>
<path d="M23.853 32.6935V23.6971H25.8138V30.9474H29.2427V32.6874L23.853 32.6935Z" fill="#707070"/>
<path d="M30.6877 23.694H34.0778C34.6359 23.6864 35.1906 23.7828 35.7135 23.9782C36.1903 24.159 36.6187 24.4481 36.9648 24.8227C37.327 25.2303 37.5994 25.7095 37.7642 26.2293C37.9633 26.8649 38.0586 27.5284 38.0464 28.1943C38.0586 28.8608 37.9633 29.5249 37.7642 30.1612C37.5992 30.6803 37.3268 31.1589 36.9648 31.5659C36.6192 31.941 36.1907 32.2302 35.7135 32.4103C35.1908 32.6065 34.636 32.7029 34.0778 32.6945H30.6877V23.694ZM34.0778 30.9545C34.3289 30.9686 34.5803 30.9324 34.8173 30.8482C35.0542 30.7639 35.272 30.6332 35.4579 30.4638C35.7932 30.1366 35.9609 29.6125 35.9609 28.8915V27.4991C35.9609 26.7766 35.7932 26.2518 35.4579 25.9247C35.2716 25.756 35.0537 25.626 34.8168 25.5421C34.5799 25.4582 34.3287 25.4222 34.0778 25.4361H32.6465V30.9566L34.0778 30.9545Z" fill="#707070"/>
<path d="M39.3269 32.6941V31.134H40.4862V25.2536H39.3269V23.6936H43.6084V25.2536H42.447V31.134H43.6084V32.6941H39.3269Z" fill="#707070"/>
<path d="M47.9918 28.4386L47.1269 26.6332H47.0963V32.6935H45.2561V23.6971H47.3968L49.8606 27.952L50.7235 29.7574H50.7623V23.6971H52.6025V32.6935H50.4536L47.9918 28.4386Z" fill="#707070"/>
<path d="M60.2922 31.2624H60.2268C60.1925 31.4884 60.1133 31.7052 59.9939 31.9001C59.8745 32.0949 59.7173 32.264 59.5316 32.3972C59.0581 32.7209 58.4912 32.8797 57.9184 32.849C57.4218 32.8522 56.9301 32.7512 56.4749 32.5526C56.0233 32.3512 55.6224 32.0515 55.3013 31.6754C54.9458 31.2515 54.6788 30.7607 54.5161 30.2319C54.316 29.5846 54.22 28.9097 54.2319 28.2322C54.2204 27.5499 54.3205 26.8703 54.5284 26.2203C54.702 25.679 54.9853 25.1793 55.3606 24.7523C55.7139 24.3577 56.1522 24.0487 56.6426 23.8486C57.1715 23.6367 57.7372 23.5317 58.3069 23.5398C59.0345 23.5217 59.7533 23.7019 60.3863 24.0612C60.9926 24.4335 61.4733 24.9791 61.7664 25.6274L60.1818 26.5434C60.0471 26.1948 59.8254 25.8865 59.5378 25.6479C59.1856 25.3832 58.7507 25.2527 58.311 25.2798C58.0449 25.2662 57.7789 25.306 57.5285 25.397C57.2781 25.4879 57.0485 25.6282 56.8532 25.8094C56.4919 26.1611 56.3113 26.7151 56.3113 27.4717V28.9152C56.3113 29.6635 56.4919 30.2162 56.8532 30.5733C57.0479 30.7556 57.2774 30.8967 57.5278 30.9884C57.7783 31.0801 58.0446 31.1204 58.311 31.107C58.5413 31.1088 58.7709 31.0806 58.9939 31.0232C59.197 30.9731 59.3891 30.8858 59.5603 30.7656C59.718 30.6574 59.8482 30.5139 59.9406 30.3464C60.036 30.1688 60.0833 29.9693 60.0776 29.7678V29.3118H58.401V27.6761H61.9423V32.6916H60.2922V31.2624Z" fill="#707070"/>
<path d="M66.764 32.8488C66.0716 32.8678 65.384 32.7279 64.7541 32.4399C64.2223 32.1819 63.7448 31.8245 63.3474 31.3868L64.6376 30.0824C64.9142 30.4077 65.2592 30.668 65.648 30.8447C66.0367 31.0214 66.4597 31.1102 66.8867 31.1047C67.3672 31.1047 67.7229 31.0086 67.956 30.8123C68.0696 30.7172 68.1599 30.5974 68.2202 30.462C68.2804 30.3267 68.3089 30.1793 68.3036 30.0313C68.3104 29.809 68.238 29.5916 68.0991 29.4179C67.9622 29.2523 67.6902 29.1398 67.2608 29.0805L66.3714 28.966C65.4173 28.8447 64.7194 28.5564 64.2777 28.1012C64.0513 27.857 63.876 27.5701 63.7618 27.2572C63.6477 26.9444 63.5972 26.612 63.6132 26.2794C63.6088 25.8969 63.6877 25.5181 63.8443 25.1691C63.9985 24.8349 64.2255 24.5394 64.5088 24.3043C64.8211 24.0502 65.1803 23.8599 65.5658 23.744C66.0292 23.6012 66.5122 23.5322 66.9971 23.5396C67.6103 23.5268 68.22 23.6367 68.7902 23.8626C69.298 24.0726 69.7517 24.3948 70.1172 24.8052L68.8148 26.1219C68.597 25.8692 68.3325 25.661 68.0358 25.5085C67.6749 25.339 67.279 25.2577 66.8805 25.2714C66.5396 25.2504 66.2004 25.3331 65.9073 25.5085C65.8041 25.579 65.7204 25.6745 65.6639 25.786C65.6074 25.8975 65.58 26.0215 65.5842 26.1465C65.5726 26.2691 65.5892 26.3927 65.6328 26.5079C65.6764 26.6231 65.7458 26.7268 65.8357 26.811C66.0791 26.9767 66.3605 27.0779 66.6536 27.1054L67.543 27.2465C68.4713 27.3937 69.1589 27.68 69.606 28.1052C70.0531 28.5305 70.2767 29.135 70.2767 29.9188C70.2811 30.3266 70.2017 30.7309 70.0436 31.1068C69.8921 31.4639 69.6605 31.7815 69.3668 32.035C69.0435 32.3073 68.6687 32.5117 68.2648 32.6361C67.7787 32.7849 67.2723 32.8567 66.764 32.8488Z" fill="#707070"/>
<path d="M74.5903 32.6941V31.134H75.7517V25.2536H74.5903V23.6936H78.8718V25.2536H77.7104V31.134H78.8718V32.6941H74.5903Z" fill="#707070"/>
<path d="M83.255 28.4386L82.3902 26.6332H82.3534V32.6935H80.5132V23.6971H82.6539L85.1075 27.952L85.9724 29.7574H86.0112V23.6971H87.8514V32.6935H85.7188L83.255 28.4386Z" fill="#707070"/>
<path d="M92.8962 23.6936H97.2677C98.0133 23.6936 98.5953 23.9042 99.0138 24.3254C99.2258 24.5482 99.3905 24.8116 99.498 25.0997C99.6055 25.3879 99.6536 25.6948 99.6394 26.002C99.6467 26.3001 99.601 26.5971 99.5045 26.8792C99.4259 27.0996 99.3027 27.3014 99.1426 27.4721C98.9958 27.6255 98.8152 27.7425 98.6151 27.8135C98.4055 27.8886 98.1854 27.93 97.9628 27.9362V28.0139C98.1932 28.0166 98.4216 28.0559 98.6396 28.1304C98.8788 28.2088 99.1004 28.3331 99.2919 28.4964C99.4991 28.6783 99.6674 28.9001 99.7867 29.1487C99.9309 29.4545 100.001 29.7901 99.9911 30.1281C99.9935 30.4691 99.9347 30.8077 99.8173 31.1279C99.7084 31.4279 99.5448 31.7052 99.3348 31.9457C99.1297 32.177 98.8791 32.3636 98.5987 32.4937C98.3086 32.6308 97.9913 32.7007 97.6705 32.6982H92.8962V23.6936ZM94.855 27.3739H96.8035C96.9132 27.3829 97.0235 27.3679 97.1268 27.33C97.2301 27.292 97.3239 27.2321 97.4017 27.1543C97.4796 27.0765 97.5395 26.9827 97.5774 26.8794C97.6154 26.7761 97.6304 26.6658 97.6214 26.5561V26.1696C97.6304 26.06 97.6154 25.9497 97.5774 25.8464C97.5395 25.7431 97.4796 25.6493 97.4017 25.5715C97.3239 25.4937 97.2301 25.4337 97.1268 25.3958C97.0235 25.3578 96.9132 25.3428 96.8035 25.3518H94.855V27.3739ZM94.855 31.0359H97.1041C97.3275 31.0507 97.5477 30.9773 97.7175 30.8314C97.7956 30.7533 97.8563 30.6596 97.8954 30.5563C97.9345 30.453 97.9512 30.3426 97.9444 30.2323V29.7928C97.9512 29.6825 97.9345 29.5721 97.8954 29.4688C97.8563 29.3655 97.7956 29.2717 97.7175 29.1936C97.5477 29.0478 97.3275 28.9744 97.1041 28.9892H94.855V31.0359Z" fill="#707070"/>
<path d="M101.484 32.6935V23.6971H107.618V25.4269H103.446V27.2671H107.018V29.0091H103.446V30.9474H107.618V32.6874L101.484 32.6935Z" fill="#707070"/>
<path d="M108.967 32.6941V31.134H110.126V25.2536H108.967V23.6936H113.246V25.2536H112.087V31.134H113.246V32.6941H108.967Z" fill="#707070"/>
<path d="M118.635 25.4267V32.6852H116.677V25.4267H114.24V23.6847H121.073V25.4267H118.635Z" fill="#707070"/>
<path d="M131.002 32.6935L130.356 30.5528H127.352L126.708 32.6935H124.723L127.688 23.6971H130.108L133.034 32.6935H131.002ZM128.882 25.4739H128.818L127.825 28.8905H129.888L128.882 25.4739Z" fill="#707070"/>
<path d="M134.29 32.6935V23.6971H136.243V30.9474H139.674V32.6874L134.29 32.6935Z" fill="#707070"/>
<path d="M145.584 32.6935L143.539 23.6971H145.473L146.324 28.0174L146.8 30.518H146.839L147.405 28.0174L148.399 23.6971H150.554L151.56 28.0174L152.114 30.518H152.153L152.63 28.0174L153.494 23.6971H155.351L153.261 32.6935H151.024L149.89 27.8191L149.452 25.8481H149.413L148.961 27.8191L147.827 32.6935H145.584Z" fill="#707070"/>
<path d="M162.256 32.6935L161.612 30.5528H158.607L157.963 32.6935H155.977L158.942 23.6971H161.367L164.293 32.6935H162.256ZM160.128 25.4739H160.065L159.071 28.8905H161.134L160.128 25.4739Z" fill="#707070"/>
<path d="M169.295 25.4267V32.6852H167.337V25.4267H164.899V23.6847H171.733V25.4267H169.295Z" fill="#707070"/>
<path d="M178.619 32.6935L177.973 30.5528H174.97L174.326 32.6935H172.338L175.305 23.6971H177.728L180.656 32.6935H178.619ZM176.491 25.4739H176.427L175.434 28.8905H177.497L176.491 25.4739Z" fill="#707070"/>
<path d="M184.653 28.4386L183.788 26.6332H183.749V32.6935H181.909V23.6971H184.045L186.509 27.952L187.374 29.7574H187.411V23.6971H189.251V32.6935H187.114L184.653 28.4386Z" fill="#707070"/>
<path d="M212.368 0C212.512 0.107083 212.627 0.248903 212.702 0.412271C212.776 0.57564 212.809 0.755265 212.795 0.934412V2.69282H215.633C216.134 2.69282 216.388 3.04041 216.388 3.51067V6.27502H217.733V3.34709C217.739 3.17009 217.814 3.00255 217.942 2.88001C218.07 2.75747 218.241 2.68959 218.418 2.69077H230.994C231.403 2.69077 231.661 3.04653 231.661 3.44932V38.6354L232.683 38.6518C233.115 38.6518 233.454 38.8951 233.448 39.3347C233.447 39.4252 233.427 39.5144 233.39 39.5972C233.354 39.6799 233.301 39.7545 233.235 39.8164C233.169 39.8784 233.091 39.9265 233.006 39.9579C232.921 39.9893 232.831 40.0033 232.741 39.9992H197.777C197.687 40.0036 197.596 39.9897 197.511 39.9582C197.426 39.9268 197.348 39.8785 197.283 39.8163C197.217 39.754 197.164 39.6791 197.128 39.596C197.092 39.5129 197.073 39.4233 197.072 39.3327C197.07 39.2426 197.086 39.1531 197.12 39.0697C197.154 38.9862 197.205 38.9106 197.269 38.8474C197.333 38.7842 197.409 38.7348 197.493 38.7022C197.577 38.6696 197.667 38.6545 197.757 38.6579L198.853 38.6375V13.376C198.841 13.2767 198.85 13.1759 198.88 13.0805C198.91 12.985 198.96 12.897 199.027 12.8222C199.093 12.7474 199.175 12.6876 199.266 12.6466C199.357 12.6057 199.456 12.5846 199.556 12.5847H205.146V6.9252C205.146 6.55103 205.512 6.31179 205.825 6.29544L207.837 6.2852V3.35528C207.843 3.18613 207.912 3.0254 208.031 2.90497C208.15 2.78453 208.31 2.7132 208.479 2.7051L211.427 2.69077V0.938505C211.427 0.509132 211.546 0.214689 211.898 0.00204663L212.368 0ZM215.026 4.04634H209.188V6.29544H215.032L215.026 4.04634ZM225.368 20.6079V38.6538H230.312V4.05862H219.066V20.6692L221.315 20.6815C221.266 20.1458 221.556 19.8003 221.996 19.8043C222.405 19.8043 222.699 20.1397 222.656 20.6795H224.004C223.971 20.1601 224.235 19.8207 224.654 19.8064C225.073 19.7921 225.398 20.0865 225.374 20.6099L225.368 20.6079ZM212.793 17.0768H214.819C214.996 17.0873 215.162 17.1658 215.282 17.2958C215.402 17.4257 215.467 17.5971 215.463 17.774C215.457 17.9492 215.383 18.115 215.256 18.236C215.129 18.3571 214.96 18.4239 214.785 18.4222L212.779 18.4406L212.791 20.6733H217.721V7.63878H206.494V12.5806H212.055C212.548 12.5806 212.812 12.9405 212.801 13.468L214.821 13.4844C214.915 13.4871 215.007 13.5092 215.091 13.5496C215.175 13.5899 215.25 13.6475 215.311 13.7186C215.372 13.7897 215.417 13.8728 215.443 13.9624C215.47 14.052 215.478 14.1462 215.465 14.2389C215.438 14.4136 215.345 14.5714 215.206 14.6804C215.067 14.7893 214.891 14.8413 214.715 14.8256L212.785 14.8379L212.793 17.0768ZM207.641 35.0696C207.82 35.0807 207.987 35.1613 208.108 35.2943C208.228 35.4272 208.291 35.6019 208.285 35.7811V38.662L211.425 38.6497V13.9322H200.18V38.6579H203.324V35.7954C203.32 35.6971 203.336 35.5989 203.371 35.507C203.407 35.4151 203.461 35.3316 203.53 35.2618C203.6 35.192 203.683 35.1374 203.774 35.1015C203.866 35.0656 203.964 35.0492 204.063 35.0532L207.641 35.0696ZM224.018 22.0269H212.773V38.66H224.018V22.0269ZM206.485 37.6172V38.6395L206.927 38.6191V36.4027H204.678V38.5904C204.816 38.6442 204.968 38.6492 205.109 38.6048L205.132 37.5272C205.132 37.4378 205.149 37.3492 205.184 37.2668C205.219 37.1844 205.27 37.1099 205.334 37.0478C205.399 36.9857 205.475 36.9373 205.559 36.9055C205.642 36.8737 205.732 36.8591 205.821 36.8627C205.916 36.8633 206.01 36.8838 206.096 36.923C206.183 36.9621 206.26 37.019 206.324 37.0899C206.387 37.1608 206.434 37.2442 206.463 37.3347C206.492 37.4252 206.502 37.5207 206.492 37.6152L206.485 37.6172Z" fill="#3A3A3A"/>
<path d="M225.369 12.3637C225.367 12.532 225.301 12.6934 225.185 12.8152C225.069 12.937 224.911 13.0102 224.743 13.0201C224.656 13.0273 224.569 13.0171 224.486 12.99C224.403 12.9628 224.326 12.9194 224.261 12.8623C224.195 12.8051 224.141 12.7353 224.103 12.657C224.065 12.5788 224.042 12.4937 224.037 12.4067V11.4804C224.034 11.3039 224.101 11.1333 224.222 11.0054C224.344 10.8776 224.511 10.8029 224.688 10.7975C224.775 10.7937 224.862 10.8072 224.944 10.8373C225.026 10.8674 225.101 10.9135 225.165 10.9728C225.228 11.0322 225.28 11.1036 225.316 11.183C225.352 11.2624 225.372 11.3483 225.375 11.4355L225.369 12.3637Z" fill="#3A3A3A"/>
<path d="M225.368 7.86194C225.363 8.03329 225.292 8.19612 225.17 8.31684C225.049 8.43757 224.885 8.50695 224.714 8.51063C224.543 8.5143 224.376 8.45201 224.249 8.33661C224.123 8.22122 224.045 8.06152 224.033 7.89055V6.95613C224.036 6.78567 224.105 6.62305 224.225 6.50173C224.345 6.38041 224.506 6.30962 224.677 6.30391C224.849 6.29605 225.017 6.35593 225.145 6.47063C225.273 6.58534 225.351 6.74571 225.362 6.9173L225.368 7.86194Z" fill="#3A3A3A"/>
<path d="M225.362 16.8802C225.362 17.0565 225.292 17.2255 225.167 17.3501C225.042 17.4747 224.873 17.5447 224.697 17.5447C224.521 17.5447 224.352 17.4747 224.227 17.3501C224.103 17.2255 224.033 17.0565 224.033 16.8802V15.9479C224.035 15.7779 224.103 15.6153 224.223 15.4947C224.343 15.3741 224.505 15.3049 224.675 15.3018C224.765 15.2979 224.855 15.3124 224.94 15.3446C225.024 15.3768 225.101 15.4258 225.166 15.4888C225.231 15.5518 225.282 15.6273 225.317 15.7108C225.352 15.7944 225.369 15.884 225.368 15.9745L225.362 16.8802Z" fill="#3A3A3A"/>
<path d="M228.062 30.3589C228.06 30.4467 228.04 30.5332 228.004 30.6133C227.968 30.6935 227.917 30.7657 227.853 30.826C227.789 30.8862 227.714 30.9334 227.632 30.9646C227.55 30.9959 227.462 31.0106 227.374 31.0081C227.287 31.0055 227.2 30.9857 227.12 30.9498C227.04 30.9138 226.968 30.8624 226.907 30.7985C226.785 30.6695 226.72 30.4974 226.725 30.32V29.4531C226.724 29.364 226.741 29.2755 226.775 29.1929C226.808 29.1104 226.859 29.0356 226.922 28.9728C226.985 28.91 227.061 28.8606 227.143 28.8276C227.226 28.7946 227.315 28.7785 227.404 28.7804C227.581 28.7836 227.749 28.8562 227.873 28.9823C227.997 29.1085 228.066 29.2783 228.066 29.4552L228.062 30.3589Z" fill="#3A3A3A"/>
<path d="M222.673 12.3135C222.678 12.4038 222.664 12.4941 222.633 12.5791C222.602 12.6641 222.555 12.742 222.493 12.8081C222.431 12.8743 222.357 12.9275 222.275 12.9644C222.192 13.0013 222.103 13.0212 222.013 13.023C221.923 13.025 221.835 13.0089 221.752 12.9759C221.669 12.9428 221.594 12.8934 221.53 12.8306C221.467 12.7679 221.417 12.693 221.383 12.6105C221.35 12.528 221.333 12.4395 221.334 12.3503V11.4814C221.329 11.3903 221.342 11.2992 221.374 11.2136C221.405 11.1279 221.454 11.0496 221.516 10.9834C221.579 10.9172 221.654 10.8644 221.738 10.8283C221.822 10.7923 221.912 10.7737 222.003 10.7737C222.095 10.7737 222.185 10.7923 222.269 10.8283C222.352 10.8644 222.428 10.9172 222.491 10.9834C222.553 11.0496 222.602 11.1279 222.633 11.2136C222.664 11.2992 222.678 11.3903 222.673 11.4814V12.3135Z" fill="#3A3A3A"/>
<path d="M228.069 12.3136C228.074 12.404 228.06 12.4945 228.029 12.5796C227.998 12.6647 227.95 12.7427 227.888 12.8089C227.826 12.8751 227.752 12.9281 227.669 12.9649C227.586 13.0017 227.497 13.0215 227.406 13.023C227.317 13.025 227.229 13.0089 227.146 12.9759C227.063 12.9428 226.988 12.8934 226.924 12.8307C226.861 12.7679 226.811 12.693 226.777 12.6105C226.743 12.528 226.726 12.4395 226.728 12.3503V11.4814C226.726 11.3916 226.743 11.3024 226.777 11.2192C226.81 11.136 226.86 11.0604 226.924 10.9969C226.987 10.9334 227.063 10.8832 227.146 10.8495C227.23 10.8158 227.319 10.7991 227.408 10.8005C227.587 10.8043 227.756 10.8781 227.88 11.0059C228.004 11.1337 228.073 11.3053 228.071 11.4834L228.069 12.3136Z" fill="#3A3A3A"/>
<path d="M228.064 34.8501C228.055 35.0207 227.981 35.1813 227.856 35.2987C227.732 35.4162 227.568 35.4817 227.397 35.4817C227.226 35.4817 227.061 35.4162 226.937 35.2987C226.813 35.1813 226.739 35.0207 226.729 34.8501V33.9054C226.739 33.7353 226.813 33.5753 226.937 33.4582C227.06 33.3411 227.224 33.2758 227.395 33.2758C227.565 33.2758 227.729 33.3411 227.853 33.4582C227.977 33.5753 228.051 33.7353 228.06 33.9054L228.064 34.8501Z" fill="#3A3A3A"/>
<path d="M228.067 7.85737C228.068 7.94454 228.051 8.03099 228.019 8.1118C227.986 8.19262 227.938 8.26618 227.877 8.3283C227.816 8.39041 227.743 8.43984 227.662 8.47376C227.582 8.50767 227.496 8.52544 227.409 8.52597C227.322 8.52952 227.236 8.51585 227.155 8.48579C227.075 8.45573 227 8.40986 226.937 8.35086C226.874 8.29186 226.824 8.22092 226.789 8.14215C226.753 8.06339 226.734 7.9784 226.732 7.89211V6.94752C226.734 6.86078 226.753 6.7753 226.788 6.69598C226.824 6.61667 226.874 6.54504 226.937 6.48523C227 6.42542 227.074 6.3786 227.155 6.34741C227.236 6.31621 227.322 6.30126 227.409 6.30343C227.581 6.30598 227.745 6.37479 227.868 6.49551C227.99 6.61624 228.062 6.77956 228.067 6.95156V7.85737Z" fill="#3A3A3A"/>
<path d="M228.071 21.2985C228.076 21.3893 228.062 21.4802 228.031 21.5656C228 21.6511 227.952 21.7294 227.89 21.796C227.828 21.8626 227.753 21.916 227.67 21.9531C227.587 21.9902 227.498 22.0103 227.407 22.0121C227.317 22.014 227.228 21.9978 227.144 21.9644C227.061 21.931 226.985 21.8811 226.922 21.8177C226.858 21.7543 226.808 21.6787 226.774 21.5955C226.741 21.5122 226.724 21.423 226.726 21.3333V20.4663C226.725 20.3769 226.741 20.2881 226.775 20.2052C226.808 20.1223 226.858 20.0471 226.922 19.984C226.985 19.9208 227.061 19.8711 227.144 19.8377C227.226 19.8043 227.315 19.7879 227.405 19.7895C227.582 19.7933 227.751 19.8666 227.874 19.9936C227.998 20.1206 228.066 20.2912 228.065 20.4684L228.071 21.2985Z" fill="#3A3A3A"/>
<path d="M222.669 16.8399C222.671 16.9275 222.656 17.0146 222.624 17.0962C222.593 17.1778 222.545 17.2523 222.484 17.3153C222.423 17.3783 222.35 17.4285 222.27 17.4631C222.189 17.4977 222.103 17.5159 222.015 17.5167C221.928 17.5202 221.842 17.5065 221.761 17.4763C221.68 17.4462 221.606 17.4002 221.542 17.341C221.479 17.2818 221.428 17.2106 221.393 17.1316C221.358 17.0526 221.338 16.9673 221.336 16.8808V15.9362C221.346 15.7661 221.42 15.606 221.544 15.4889C221.667 15.3718 221.831 15.3065 222.002 15.3065C222.172 15.3065 222.336 15.3718 222.46 15.4889C222.584 15.606 222.658 15.7661 222.667 15.9362L222.669 16.8399Z" fill="#3A3A3A"/>
<path d="M222.669 7.85339C222.671 7.94054 222.656 8.02719 222.624 8.10832C222.592 8.18946 222.544 8.26344 222.484 8.32602C222.423 8.38859 222.35 8.43848 222.27 8.47282C222.19 8.50716 222.104 8.52529 222.017 8.52609C221.931 8.52992 221.845 8.51651 221.764 8.4867C221.683 8.45689 221.608 8.41128 221.545 8.35247C221.482 8.29366 221.431 8.22283 221.396 8.14416C221.36 8.0655 221.34 7.98056 221.338 7.89428V6.94763C221.34 6.86064 221.359 6.77483 221.394 6.69525C221.429 6.61567 221.48 6.54389 221.543 6.484C221.606 6.42411 221.681 6.3773 221.762 6.34632C221.843 6.31535 221.93 6.30082 222.017 6.30355C222.188 6.30662 222.352 6.37544 222.473 6.49573C222.595 6.61602 222.666 6.77852 222.671 6.94963L222.669 7.85339Z" fill="#3A3A3A"/>
<path d="M228.064 25.8627C228.055 26.0334 227.981 26.1939 227.856 26.3114C227.732 26.4289 227.568 26.4944 227.397 26.4944C227.226 26.4944 227.061 26.4289 226.937 26.3114C226.813 26.1939 226.739 26.0334 226.729 25.8627V24.9181C226.739 24.748 226.813 24.5879 226.937 24.4708C227.06 24.3537 227.224 24.2885 227.395 24.2885C227.565 24.2885 227.729 24.3537 227.853 24.4708C227.977 24.5879 228.051 24.748 228.06 24.9181L228.064 25.8627Z" fill="#3A3A3A"/>
<path d="M228.067 16.8399C228.069 16.9276 228.053 17.0148 228.02 17.0963C227.988 17.1779 227.94 17.2521 227.878 17.3148C227.817 17.3774 227.743 17.4272 227.662 17.4611C227.581 17.4951 227.494 17.5126 227.407 17.5126C227.32 17.5161 227.234 17.5023 227.153 17.472C227.072 17.4416 226.998 17.3954 226.935 17.3359C226.872 17.2765 226.821 17.205 226.787 17.1258C226.752 17.0466 226.733 16.9611 226.732 16.8746V15.9321C226.732 15.7553 226.802 15.5857 226.927 15.4607C227.052 15.3357 227.222 15.2655 227.398 15.2655C227.575 15.2655 227.745 15.3357 227.87 15.4607C227.995 15.5857 228.065 15.7553 228.065 15.9321L228.067 16.8399Z" fill="#3A3A3A"/>
<path d="M206.492 23.0959C206.497 23.1857 206.484 23.2754 206.453 23.3601C206.423 23.4448 206.377 23.5226 206.316 23.589C206.256 23.6555 206.182 23.7092 206.101 23.747C206.019 23.7849 205.931 23.8061 205.841 23.8095C205.754 23.8145 205.667 23.802 205.584 23.7728C205.502 23.7436 205.426 23.6982 205.361 23.6394C205.297 23.5806 205.244 23.5095 205.207 23.4302C205.17 23.3509 205.15 23.2651 205.146 23.1777V22.2208C205.15 22.1341 205.171 22.0489 205.207 21.9701C205.244 21.8914 205.296 21.8207 205.36 21.762C205.424 21.7034 205.499 21.6578 205.58 21.6282C205.662 21.5985 205.749 21.5852 205.835 21.589C206.01 21.5954 206.176 21.6699 206.297 21.7967C206.418 21.9235 206.485 22.0926 206.483 22.2679L206.492 23.0959Z" fill="#3A3A3A"/>
<path d="M206.48 31.1905C206.502 31.7937 206.647 32.7752 205.842 32.7997C205.754 32.8041 205.667 32.791 205.585 32.7611C205.502 32.7312 205.427 32.6852 205.363 32.6258C205.299 32.5663 205.247 32.4947 205.211 32.415C205.175 32.3353 205.155 32.2492 205.153 32.1617V31.2028C205.16 31.033 205.233 30.8727 205.355 30.7547C205.477 30.6367 205.64 30.5701 205.81 30.5685C205.98 30.5669 206.144 30.6306 206.269 30.7463C206.393 30.862 206.469 31.0209 206.48 31.1905Z" fill="#3A3A3A"/>
<path d="M206.488 18.6371C206.491 18.8121 206.426 18.9815 206.305 19.1083C206.184 19.2351 206.018 19.3091 205.843 19.3139C205.671 19.3234 205.502 19.264 205.374 19.149C205.246 19.034 205.168 18.8727 205.159 18.7005C205.142 18.3734 205.142 18.0237 205.159 17.6986C205.171 17.5285 205.249 17.3698 205.376 17.2554C205.502 17.1411 205.668 17.0797 205.839 17.0842C206.009 17.0887 206.171 17.1585 206.292 17.2794C206.412 17.4002 206.482 17.5628 206.485 17.7334L206.488 18.6371Z" fill="#3A3A3A"/>
<path d="M206.49 27.6241C206.492 27.7114 206.477 27.7982 206.446 27.8797C206.414 27.9611 206.367 28.0356 206.307 28.0988C206.247 28.1621 206.175 28.2128 206.095 28.2482C206.015 28.2835 205.929 28.3029 205.842 28.305C205.67 28.3128 205.502 28.253 205.374 28.1383C205.246 28.0236 205.168 27.8632 205.157 27.6916C205.143 27.3645 205.143 27.0168 205.157 26.6897C205.166 26.5175 205.244 26.3562 205.372 26.2412C205.501 26.1261 205.67 26.0668 205.842 26.0763C206.01 26.0804 206.171 26.1488 206.29 26.2675C206.409 26.3861 206.479 26.546 206.484 26.7143L206.49 27.6241Z" fill="#3A3A3A"/>
<path d="M209.187 23.0981C209.194 23.1887 209.182 23.2797 209.152 23.3656C209.123 23.4516 209.076 23.5306 209.015 23.5979C208.954 23.6653 208.88 23.7195 208.797 23.7573C208.715 23.7952 208.625 23.8158 208.534 23.818C208.444 23.8203 208.353 23.804 208.269 23.7702C208.185 23.7365 208.108 23.6859 208.044 23.6217C207.979 23.5574 207.929 23.4807 207.895 23.3963C207.862 23.3119 207.845 23.2216 207.848 23.1308V22.2659C207.848 22.1781 207.865 22.0911 207.899 22.01C207.932 21.9289 207.981 21.8552 208.043 21.7931C208.106 21.731 208.179 21.6818 208.26 21.6482C208.341 21.6146 208.428 21.5973 208.516 21.5973C208.604 21.5973 208.691 21.6146 208.772 21.6482C208.853 21.6818 208.927 21.731 208.989 21.7931C209.051 21.8552 209.1 21.9289 209.134 22.01C209.168 22.0911 209.185 22.1781 209.185 22.2659L209.187 23.0981Z" fill="#3A3A3A"/>
<path d="M203.789 27.6766C203.779 27.8472 203.705 28.0078 203.58 28.1253C203.456 28.2427 203.292 28.3082 203.121 28.3082C202.95 28.3082 202.786 28.2427 202.661 28.1253C202.537 28.0078 202.463 27.8472 202.453 27.6766V26.736C202.453 26.5592 202.524 26.3897 202.649 26.2647C202.774 26.1397 202.943 26.0695 203.12 26.0695C203.297 26.0695 203.466 26.1397 203.591 26.2647C203.716 26.3897 203.786 26.5592 203.786 26.736L203.789 27.6766Z" fill="#3A3A3A"/>
<path d="M203.793 32.1165C203.797 32.2867 203.735 32.452 203.621 32.5785C203.507 32.705 203.349 32.7833 203.18 32.7973C203.092 32.8063 203.003 32.7974 202.918 32.7712C202.833 32.7449 202.755 32.7019 202.687 32.6446C202.62 32.5874 202.564 32.517 202.525 32.4379C202.485 32.3587 202.461 32.2724 202.456 32.184C202.44 31.8507 202.44 31.5072 202.456 31.1739C202.475 31.0049 202.557 30.8494 202.687 30.7394C202.817 30.6293 202.983 30.573 203.153 30.5818C203.323 30.5907 203.483 30.6642 203.6 30.7872C203.718 30.9101 203.784 31.0734 203.785 31.2434L203.793 32.1165Z" fill="#3A3A3A"/>
<path d="M203.79 23.1308C203.797 23.3059 203.735 23.4767 203.617 23.6063C203.499 23.7358 203.335 23.8138 203.16 23.8232C202.985 23.8326 202.814 23.7727 202.682 23.6565C202.551 23.5404 202.471 23.3772 202.459 23.2024C202.443 22.8712 202.443 22.5256 202.459 22.1923C202.471 22.0175 202.551 21.8543 202.682 21.7381C202.814 21.622 202.985 21.5621 203.16 21.5715C203.335 21.5809 203.499 21.6588 203.617 21.7884C203.735 21.918 203.797 22.0888 203.79 22.2639V23.1308Z" fill="#3A3A3A"/>
<path d="M209.185 32.1203C209.19 32.2113 209.176 32.3025 209.145 32.3881C209.114 32.4737 209.065 32.552 209.002 32.6182C208.94 32.6845 208.864 32.7372 208.781 32.7733C208.697 32.8093 208.607 32.8279 208.515 32.8279C208.424 32.8279 208.334 32.8093 208.25 32.7733C208.166 32.7372 208.091 32.6845 208.028 32.6182C207.966 32.552 207.917 32.4737 207.886 32.3881C207.854 32.3025 207.841 32.2113 207.846 32.1203V31.2554C207.846 31.0781 207.916 30.908 208.042 30.7826C208.167 30.6572 208.337 30.5868 208.514 30.5868C208.692 30.5868 208.862 30.6572 208.987 30.7826C209.112 30.908 209.183 31.0781 209.183 31.2554L209.185 32.1203Z" fill="#3A3A3A"/>
<path d="M209.18 18.6799C209.171 18.85 209.097 19.0101 208.973 19.1272C208.849 19.2443 208.685 19.3096 208.515 19.3096C208.344 19.3096 208.18 19.2443 208.057 19.1272C207.933 19.0101 207.859 18.85 207.849 18.6799V17.7414C207.849 17.5652 207.919 17.3962 208.044 17.2715C208.168 17.1469 208.337 17.0769 208.514 17.0769C208.69 17.0769 208.859 17.1469 208.984 17.2715C209.108 17.3962 209.178 17.5652 209.178 17.7414L209.18 18.6799Z" fill="#3A3A3A"/>
<path d="M203.786 18.6807C203.786 18.8575 203.716 19.027 203.591 19.152C203.466 19.277 203.297 19.3472 203.12 19.3472C202.943 19.3472 202.774 19.277 202.649 19.152C202.524 19.027 202.453 18.8575 202.453 18.6807V17.7381C202.453 17.5613 202.524 17.3918 202.649 17.2668C202.774 17.1418 202.943 17.0715 203.12 17.0715C203.297 17.0715 203.466 17.1418 203.591 17.2668C203.716 17.3918 203.786 17.5613 203.786 17.7381V18.6807Z" fill="#3A3A3A"/>
<path d="M209.184 27.6308C209.18 27.8023 209.11 27.9657 208.989 28.087C208.867 28.2083 208.704 28.2782 208.532 28.2824C208.361 28.2866 208.194 28.2247 208.067 28.1095C207.94 27.9943 207.862 27.8346 207.849 27.6635V26.7251C207.849 26.5488 207.919 26.3798 208.044 26.2552C208.168 26.1306 208.337 26.0605 208.514 26.0605C208.69 26.0605 208.859 26.1306 208.984 26.2552C209.108 26.3798 209.178 26.5488 209.178 26.7251L209.184 27.6308Z" fill="#3A3A3A"/>
<path d="M216.392 36.5697C216.4 36.7487 216.336 36.9235 216.216 37.0558C216.095 37.1881 215.927 37.267 215.748 37.2751C215.569 37.2832 215.394 37.22 215.261 37.0992C215.129 36.9784 215.05 36.81 215.042 36.6311V24.0749C215.038 23.896 215.105 23.7227 215.228 23.5931C215.352 23.4635 215.522 23.3882 215.701 23.3839C215.88 23.3795 216.053 23.4464 216.182 23.5699C216.312 23.6934 216.387 23.8633 216.392 24.0422V36.5697Z" fill="#3A3A3A"/>
<path d="M221.777 36.5721C221.781 36.6607 221.768 36.7492 221.737 36.8325C221.707 36.9159 221.661 36.9925 221.601 37.0579C221.541 37.1233 221.469 37.1762 221.388 37.2137C221.308 37.2512 221.221 37.2726 221.132 37.2765C221.044 37.2804 220.955 37.2667 220.872 37.2364C220.789 37.2061 220.712 37.1597 220.647 37.0998C220.581 37.0399 220.528 36.9677 220.491 36.8873C220.453 36.8069 220.432 36.72 220.428 36.6314V24.0752C220.432 23.9021 220.503 23.7373 220.626 23.6149C220.748 23.4925 220.913 23.4219 221.086 23.4177C221.259 23.4135 221.427 23.476 221.556 23.5923C221.684 23.7087 221.763 23.8698 221.775 24.0426L221.777 36.5721Z" fill="#3A3A3A"/>
<path d="M219.081 36.5941C219.083 36.6854 219.066 36.7761 219.032 36.8607C218.997 36.9454 218.946 37.0222 218.882 37.0866C218.817 37.151 218.74 37.2015 218.655 37.2351C218.57 37.2688 218.479 37.2848 218.388 37.2823C218.296 37.2798 218.207 37.2589 218.124 37.2206C218.041 37.1824 217.966 37.1277 217.905 37.0599C217.844 36.9921 217.797 36.9126 217.768 36.8262C217.738 36.7398 217.726 36.6483 217.733 36.5572V24.0707C217.731 23.98 217.746 23.8896 217.78 23.8052C217.813 23.7208 217.863 23.6442 217.928 23.58C217.992 23.5158 218.068 23.4655 218.153 23.4321C218.237 23.3987 218.328 23.3829 218.418 23.3857C218.507 23.3876 218.594 23.4069 218.675 23.4425C218.757 23.4781 218.83 23.5294 218.891 23.5934C218.953 23.6574 219.001 23.7329 219.033 23.8154C219.065 23.898 219.081 23.9861 219.079 24.0747L219.081 36.5941Z" fill="#3A3A3A"/>
<path d="M214.828 11.2384H209.479C209.391 11.2415 209.302 11.2271 209.219 11.196C209.136 11.165 209.06 11.1179 208.995 11.0574C208.93 10.9969 208.878 10.9243 208.841 10.8436C208.805 10.7629 208.784 10.6758 208.781 10.5872C208.778 10.4986 208.792 10.4102 208.823 10.3271C208.854 10.2441 208.901 10.168 208.962 10.1032C209.022 10.0383 209.095 9.98603 209.176 9.94927C209.256 9.91251 209.344 9.892 209.432 9.88892H214.836C215.008 9.89841 215.17 9.97352 215.289 10.0988C215.408 10.2241 215.474 10.3901 215.474 10.5626C215.474 10.7351 215.408 10.9011 215.289 11.0264C215.17 11.1517 215.008 11.2269 214.836 11.2363L214.828 11.2384Z" fill="#3A3A3A"/>
</svg>
