<svg width="226" height="40" viewBox="0 0 226 40" fill="none" xmlns="http://www.w3.org/2000/svg">
<path d="M2.37528 17.2207C1.77639 17.2207 1.31873 17.0706 1.00231 16.7705C0.685883 16.4703 0.526993 15.991 0.525635 15.3323V14.4707H2.00454V15.2855H3.76252C3.97814 15.3007 4.1938 15.2563 4.38586 15.1571C4.45429 15.1109 4.50921 15.0472 4.545 14.9728C4.58079 14.8984 4.59617 14.8158 4.58957 14.7334C4.58671 14.6199 4.5675 14.5074 4.53253 14.3993C4.49315 14.2717 4.45241 14.1434 4.41031 14.0144L3.27974 10.7551L4.92365 10.1765L6.22126 13.8901C6.29623 14.1284 6.39094 14.3601 6.50441 14.5827C6.58108 14.74 6.68291 14.8839 6.80589 15.0084C6.90403 15.1022 7.02257 15.1719 7.15219 15.2121C7.29656 15.2532 7.44623 15.2724 7.59628 15.2692H7.98128V16.8296L7.59628 17.2146C7.28152 17.2181 6.96712 17.1922 6.65719 17.1372C6.40311 17.091 6.16075 16.9947 5.94422 16.854C5.72615 16.7091 5.53518 16.5271 5.37995 16.3162C5.18777 16.0477 5.02586 15.7587 4.89717 15.4545L4.84624 15.481C4.80702 15.753 4.73873 16.0201 4.64254 16.2775C4.56646 16.4778 4.45076 16.6608 4.30235 16.8153C4.16238 16.9556 3.9904 17.0598 3.80123 17.1188C3.57193 17.1869 3.33351 17.2192 3.09437 17.2146L2.37528 17.2207Z" fill="#707070"/>
<path d="M7.59367 15.6785L7.97868 15.2934H8.36368C9.04813 15.2934 9.38221 14.994 9.38221 14.3951V12.5618H10.7939V14.3951C10.7939 14.994 11.094 15.2934 11.6943 15.2934H12.2076V16.8294L11.8226 17.2144C11.1354 17.2144 10.6153 17.0752 10.2622 16.7968C9.87223 16.4596 9.61871 15.9917 9.54925 15.4809H9.47184C9.40601 15.9713 9.19292 16.4301 8.86072 16.7968C8.56875 17.0766 8.14504 17.2158 7.5896 17.2144L7.59367 15.6785ZM8.95443 19.9828C8.85449 19.9865 8.7548 19.9705 8.6611 19.9355C8.5674 19.9005 8.48155 19.8474 8.4085 19.7791C8.3325 19.6888 8.27533 19.5843 8.24034 19.4717C8.20536 19.359 8.19327 19.2405 8.20479 19.1231C8.1932 19.006 8.20526 18.8878 8.24025 18.7755C8.27525 18.6632 8.33246 18.559 8.4085 18.4692C8.48122 18.4005 8.56702 18.347 8.6608 18.312C8.75458 18.277 8.85443 18.2612 8.95443 18.2655H9.2111C9.31114 18.2609 9.41109 18.2765 9.50492 18.3115C9.59874 18.3465 9.68451 18.4002 9.75703 18.4692C9.83347 18.5588 9.89094 18.6629 9.92595 18.7753C9.96097 18.8877 9.9728 19.006 9.96074 19.1231C9.97273 19.2405 9.96086 19.3592 9.92586 19.4719C9.89085 19.5846 9.83343 19.6891 9.75703 19.7791C9.68424 19.8477 9.59843 19.9012 9.50467 19.9361C9.41091 19.9711 9.31109 19.987 9.2111 19.9828H8.95443ZM10.9915 19.9828C10.8912 19.9868 10.7911 19.9709 10.6971 19.9359C10.603 19.9009 10.5168 19.8476 10.4435 19.7791C10.3675 19.6888 10.3104 19.5843 10.2754 19.4717C10.2404 19.359 10.2283 19.2405 10.2398 19.1231C10.2282 19.006 10.2403 18.8878 10.2753 18.7755C10.3103 18.6632 10.3675 18.559 10.4435 18.4692C10.5166 18.4003 10.6027 18.3468 10.6968 18.3118C10.791 18.2768 10.8912 18.2611 10.9915 18.2655H11.2482C11.3482 18.2612 11.448 18.277 11.5418 18.312C11.6356 18.347 11.7214 18.4005 11.7941 18.4692C11.8701 18.559 11.9273 18.6632 11.9623 18.7755C11.9973 18.8878 12.0094 19.006 11.9978 19.1231C12.0093 19.2405 11.9972 19.359 11.9622 19.4717C11.9273 19.5843 11.8701 19.6888 11.7941 19.7791C11.721 19.8474 11.6352 19.9005 11.5415 19.9355C11.4478 19.9705 11.3481 19.9865 11.2482 19.9828H10.9915Z" fill="#707070"/>
<path d="M11.8335 15.6785L12.2185 15.2935H13.5935V16.8294L13.2065 17.2144H11.8335V15.6785Z" fill="#707070"/>
<path d="M13.2065 15.6785L13.5936 15.2935H14.9666V16.8294L14.5816 17.2144H13.2065V15.6785Z" fill="#707070"/>
<path d="M14.5811 15.6785L14.9661 15.2935H16.3411V16.8294L15.9561 17.2144H14.5811V15.6785Z" fill="#707070"/>
<path d="M15.9568 15.6785L16.3418 15.2935H17.7168V16.8294L17.3318 17.2144H15.9568V15.6785Z" fill="#707070"/>
<path d="M17.3313 15.6785L17.7163 15.2935H19.0913V16.8294L18.7043 17.2144H17.3313V15.6785Z" fill="#707070"/>
<path d="M18.7043 15.6785L19.0894 15.2935H20.4644V16.8294L20.0794 17.2144H18.7043V15.6785Z" fill="#707070"/>
<path d="M20.0791 15.6785L20.4641 15.2935H21.8391V16.8294L21.4541 17.2144H20.0791V15.6785Z" fill="#707070"/>
<path d="M21.4546 15.6785L21.8396 15.2935H23.2146V16.8294L22.8296 17.2144H21.4546V15.6785Z" fill="#707070"/>
<path d="M22.8297 15.6785L23.2147 15.2935H24.5795V16.8294L24.1945 17.2144H22.8215L22.8297 15.6785Z" fill="#707070"/>
<path d="M24.2021 15.6785L24.5872 15.2935H25.9622V16.8294L25.5772 17.2144H24.2021V15.6785Z" fill="#707070"/>
<path d="M25.5769 15.6785L25.9619 15.2935H27.3369V16.8294L26.9519 17.2144H25.5769V15.6785Z" fill="#707070"/>
<path d="M26.9524 15.6785L27.3374 15.2935H28.7124V16.8294L28.3254 17.2144H26.9524V15.6785Z" fill="#707070"/>
<path d="M28.3254 15.6785L28.7125 15.2935H30.0794V16.8294L29.6944 17.2144H28.3193L28.3254 15.6785Z" fill="#707070"/>
<path d="M29.7002 15.6785L30.0852 15.2935H31.4602V16.8294L31.0752 17.2144H29.7002V15.6785Z" fill="#707070"/>
<path d="M31.0757 15.6785L31.4607 15.2935H32.8357V16.8294L32.4507 17.2144H31.0757V15.6785Z" fill="#707070"/>
<path d="M32.4504 15.6785L32.8354 15.2935H34.2105V16.8294L33.8234 17.2144H32.4504V15.6785Z" fill="#707070"/>
<path d="M33.8232 15.6785L34.2102 15.2935H35.5791V16.8294L35.1941 17.2144H33.8191L33.8232 15.6785Z" fill="#707070"/>
<path d="M37.0864 16.5015C36.9019 16.7579 36.6441 16.9525 36.3469 17.0596C35.9759 17.1785 35.5873 17.233 35.198 17.2206V15.6785L35.583 15.2935C35.823 15.3107 36.0632 15.2621 36.2776 15.1529C36.4454 15.0264 36.5705 14.8515 36.6362 14.6518L37.0049 13.7739C37.1115 13.5083 37.236 13.2504 37.3777 13.0018C37.5089 12.7697 37.6728 12.5577 37.8645 12.3724C38.0509 12.1952 38.2666 12.0519 38.5021 11.9487C38.7602 11.8417 39.0376 11.789 39.3169 11.7938C39.6772 11.7756 40.0357 11.8542 40.3553 12.0215C40.6748 12.1888 40.9437 12.4387 41.134 12.7451C41.5414 13.378 41.7451 14.256 41.7451 15.3791V15.7518L40.5229 17.5628L37.0864 16.5015ZM37.7932 14.715L40.3742 15.4992V15.3709C40.3993 14.9368 40.2677 14.5082 40.0034 14.1629C39.8779 14.0178 39.7209 13.9031 39.5444 13.8275C39.368 13.752 39.1766 13.7176 38.9849 13.727C38.7299 13.7207 38.4798 13.7971 38.2719 13.945C38.0504 14.1214 37.8913 14.3641 37.8177 14.6376L37.7932 14.715Z" fill="#707070"/>
<path d="M42.5723 18.3753H43.3871C44.0541 18.4003 44.7195 18.2958 45.3468 18.0677C45.7807 17.9102 46.1493 17.6118 46.3938 17.2203H44.9047C44.2094 17.2203 43.6662 17.0166 43.2751 16.6092C42.886 16.2018 42.6904 15.6354 42.6904 14.9082C42.6871 14.4861 42.756 14.0665 42.8941 13.6677C43.015 13.3068 43.2023 12.9718 43.4462 12.6797C43.6756 12.405 43.9601 12.1815 44.2814 12.0238C44.607 11.8637 44.9656 11.782 45.3284 11.7854C45.6892 11.7745 46.047 11.8534 46.3698 12.0148C46.6926 12.1762 46.9703 12.4151 47.1781 12.7102C47.633 13.3268 47.8809 14.1878 47.9216 15.2932H48.5775V16.8292L48.1925 17.2142H47.7566C47.5656 18.1186 47.0604 18.9262 46.3307 19.4936C45.6231 20.0301 44.6834 20.2976 43.5114 20.2963H42.5601L42.5723 18.3753ZM43.986 14.6516C43.9792 14.7523 44.0022 14.8527 44.0522 14.9404C44.1022 15.0281 44.177 15.0991 44.2671 15.1445C44.5089 15.2549 44.7736 15.3059 45.0392 15.2932H46.6444V15.2545C46.655 15.0503 46.6244 14.8461 46.5544 14.6539C46.4844 14.4618 46.3764 14.2857 46.237 14.1362C46.0991 13.9964 45.9338 13.8867 45.7515 13.8138C45.5693 13.7409 45.3739 13.7064 45.1777 13.7125C44.8752 13.7018 44.5782 13.7953 44.3364 13.9773C44.2276 14.0528 44.1388 14.1536 44.0778 14.2711C44.0167 14.3886 43.9852 14.5192 43.986 14.6516Z" fill="#707070"/>
<path d="M48.2087 15.6783L48.5937 15.2933H48.606C48.9194 15.311 49.2329 15.2603 49.5247 15.1446C49.7405 15.032 49.911 14.8486 50.0075 14.6252L50.5086 13.5842L51.7797 14.1953L51.3295 15.1324C51.5335 15.2264 51.7438 15.3061 51.959 15.3707C52.1719 15.434 52.3928 15.4662 52.6149 15.4665C52.9009 15.4927 53.186 15.4081 53.4114 15.2302C53.5744 15.0713 53.6558 14.7901 53.6558 14.3888V13.574H55.0675V14.3888C55.0457 14.6628 55.1113 14.9367 55.2549 15.1711C55.3137 15.2495 55.3904 15.3126 55.4787 15.3552C55.567 15.3977 55.6642 15.4184 55.7622 15.4155H55.8905C55.974 15.4179 56.0569 15.4007 56.1326 15.3654C56.2083 15.33 56.2747 15.2774 56.3264 15.2118C56.4538 15.0256 56.5128 14.801 56.4935 14.5762C56.4911 14.4234 56.4782 14.271 56.4548 14.1199C56.4303 13.9366 56.3957 13.7125 56.3529 13.4457L56.2368 12.7918L57.6383 12.5596L57.7402 13.2155C57.7829 13.464 57.8135 13.6962 57.8298 13.9142C57.8461 14.1322 57.8563 14.3542 57.8563 14.5762C57.8563 15.5364 57.6913 16.2412 57.3613 16.6907C57.0313 17.1389 56.52 17.365 55.8253 17.365C55.2183 17.365 54.7606 17.219 54.4523 16.927C54.1036 16.5565 53.883 16.0838 53.8229 15.5785H53.7455C53.6762 16.1896 53.5255 16.6479 53.2892 16.9331C53.1782 17.0725 53.0363 17.184 52.8747 17.259C52.7131 17.3339 52.5363 17.3702 52.3582 17.365C52.1055 17.3646 51.855 17.3183 51.6188 17.2285C51.2869 17.0949 50.9667 16.9341 50.6614 16.7478L50.3925 16.5929C50.1427 16.8409 49.8288 17.0145 49.486 17.0941C49.0658 17.1794 48.6375 17.2183 48.2087 17.2102V15.6783Z" fill="#707070"/>
<path d="M66.7995 17.3754C66.0111 17.3847 65.2231 17.3329 64.4426 17.2205C63.8994 17.1496 63.3743 16.9776 62.8945 16.7133C62.523 16.5011 62.2252 16.1806 62.0409 15.7946C61.8522 15.3528 61.7619 14.8753 61.7761 14.3951C61.7811 14.0145 61.8268 13.6355 61.9126 13.2646C62.0037 12.8471 62.1304 12.4381 62.2915 12.0423L63.5137 12.4008C63.3773 12.6714 63.2635 12.9528 63.1735 13.2422C63.0979 13.4767 63.0567 13.721 63.0513 13.9673C63.0432 14.1856 63.0968 14.4016 63.2061 14.5907C63.3269 14.7752 63.502 14.9175 63.7073 14.9981C63.9985 15.1158 64.3052 15.1913 64.6178 15.2222C65.0831 15.2741 65.5511 15.2979 66.0193 15.2935H67.818C68.3823 15.2935 68.859 15.2813 69.244 15.2548C69.5578 15.2389 69.8694 15.1939 70.1749 15.1203C70.3623 15.0788 70.5379 14.9952 70.6883 14.8759C70.7403 14.8303 70.7817 14.7738 70.8095 14.7104C70.8373 14.6471 70.8508 14.5784 70.8492 14.5092C70.8472 14.3437 70.8363 14.1785 70.8166 14.0142C70.7962 13.8105 70.7555 13.5498 70.6944 13.2259L70.4764 12.0301L71.8759 11.7999L72.0796 12.9936C72.1224 13.2259 72.157 13.4825 72.1814 13.7657C72.2059 14.0488 72.2201 14.2953 72.2201 14.5092C72.237 14.9915 72.1566 15.4723 71.9838 15.9229C71.8124 16.3045 71.5125 16.6137 71.1364 16.7968C70.6146 17.0436 70.0532 17.196 69.4782 17.247C68.5886 17.3423 67.6942 17.3852 66.7995 17.3754ZM66.7873 19.9685C66.6873 19.9726 66.5875 19.9567 66.4938 19.9217C66.4 19.8868 66.3142 19.8334 66.2414 19.7648C66.1035 19.5739 66.0293 19.3444 66.0293 19.1089C66.0293 18.8734 66.1035 18.6439 66.2414 18.4529C66.3143 18.3845 66.4001 18.3312 66.4938 18.2962C66.5876 18.2612 66.6873 18.2453 66.7873 18.2492H67.044C67.1439 18.2453 67.2437 18.2612 67.3374 18.2962C67.4311 18.3312 67.517 18.3845 67.5899 18.4529C67.7278 18.6439 67.802 18.8734 67.802 19.1089C67.802 19.3444 67.7278 19.5739 67.5899 19.7648C67.517 19.8334 67.4312 19.8868 67.3375 19.9217C67.2437 19.9567 67.1439 19.9726 67.044 19.9685H66.7873Z" fill="#707070"/>
<path d="M71.8389 18.3757H72.3481C73.1283 18.3757 73.7007 18.2188 74.0633 17.901C74.4259 17.5832 74.6052 17.0577 74.597 16.3223C74.5967 16.1139 74.5838 15.9058 74.5583 15.699C74.5319 15.479 74.4993 15.2467 74.4565 14.9982L74.1856 13.2891L75.5871 13.0712L75.7785 14.2649C75.8132 14.4543 75.8417 14.6336 75.8621 14.8047C75.8824 14.9758 75.9028 15.1388 75.9211 15.2936H77.1026V16.8295L76.7176 17.2145H75.913C75.8161 18.076 75.4213 18.8765 74.7967 19.4777C74.1924 20.0304 73.3775 20.3061 72.3522 20.3048H71.8389V18.3757Z" fill="#707070"/>
<path d="M76.7283 15.6785L77.1133 15.2935H78.4863V16.8294L78.1013 17.2144H76.7283V15.6785Z" fill="#707070"/>
<path d="M78.0908 15.6785L78.4758 15.2935H79.8508V16.8294L79.4658 17.2144H78.0908V15.6785Z" fill="#707070"/>
<path d="M79.4656 15.6785L79.8506 15.2935H81.2256V16.8294L80.8406 17.2144H79.4656V15.6785Z" fill="#707070"/>
<path d="M80.8411 15.6785L81.2261 15.2935H82.6011V16.8294L82.214 17.2144H80.8411V15.6785Z" fill="#707070"/>
<path d="M82.2141 15.6783L82.6012 15.2933H83.6197V15.2282C83.2711 14.7277 83.0873 14.131 83.0941 13.5211C83.0894 12.7223 83.3904 11.9519 83.9354 11.3679C84.202 11.09 84.5222 10.8689 84.8766 10.7181C85.2422 10.5569 85.6381 10.4756 86.0377 10.4798C86.6323 10.4546 87.2215 10.6018 87.7345 10.9035C88.1834 11.1992 88.5572 11.5953 88.8264 12.0605L87.4514 13.2828C87.291 13.0112 87.0656 12.7837 86.7955 12.6207C86.5229 12.4766 86.2174 12.4064 85.9093 12.417C85.516 12.3931 85.1253 12.4944 84.793 12.7063C84.6608 12.799 84.5542 12.9236 84.483 13.0686C84.4118 13.2135 84.3783 13.374 84.3856 13.5353C84.3774 13.7391 84.4244 13.9413 84.5216 14.1206C84.6187 14.2998 84.7625 14.4495 84.9377 14.5539C85.4127 14.8143 85.9511 14.9364 86.4919 14.9063C86.7285 14.9057 86.9646 14.8887 87.1988 14.8554C87.4293 14.8246 87.6573 14.7776 87.8812 14.7148L89.1259 14.3665L89.6148 16.1021L87.7264 16.6785C87.357 16.7913 87.0012 16.8836 86.659 16.9556C86.2855 17.0334 85.9081 17.0912 85.5284 17.1287C85.121 17.1715 84.6464 17.2021 84.1167 17.2184C83.5871 17.2347 82.9515 17.2448 82.2141 17.2448V15.6783ZM85.9012 9.44902C85.8013 9.45277 85.7016 9.43668 85.6079 9.40172C85.5142 9.36676 85.4283 9.31361 85.3553 9.24531C85.2176 9.0547 85.1434 8.82555 85.1434 8.5904C85.1434 8.35526 85.2176 8.12608 85.3553 7.93547C85.428 7.8667 85.5138 7.81323 85.6076 7.77824C85.7013 7.74325 85.8012 7.72744 85.9012 7.73176H86.1579C86.2579 7.72709 86.3579 7.74273 86.4517 7.77774C86.5455 7.81275 86.6313 7.86641 86.7038 7.93547C86.8415 8.12608 86.9156 8.35526 86.9156 8.5904C86.9156 8.82555 86.8415 9.0547 86.7038 9.24531C86.631 9.31399 86.5452 9.36738 86.4514 9.40237C86.3577 9.43735 86.2579 9.45322 86.1579 9.44902H85.9012Z" fill="#707070"/>
<path d="M97.7852 20.3028C97.1626 20.312 96.5418 20.2324 95.9417 20.0665C95.4399 19.9287 94.9704 19.6925 94.5605 19.3719C94.1905 19.0767 93.8952 18.6985 93.6989 18.2678C93.4944 17.8006 93.3937 17.2947 93.4035 16.7848C93.4095 16.345 93.4635 15.9072 93.5644 15.4791C93.6703 14.9985 93.8182 14.5282 94.0065 14.0735L95.2409 14.432C95.0725 14.7921 94.9362 15.1663 94.8335 15.5503C94.7443 15.8683 94.695 16.196 94.6868 16.5261C94.6787 16.7766 94.7374 17.0246 94.857 17.2448C94.9766 17.465 95.1527 17.6494 95.3672 17.7789C95.8222 18.0736 96.4557 18.2216 97.2678 18.223H98.2863C98.9891 18.2466 99.6906 18.1487 100.36 17.9337C100.88 17.7395 101.178 17.4761 101.254 17.1433L98.0806 16.6035V14.7702H98.8384C99.107 14.7715 99.3754 14.7517 99.641 14.7111C99.855 14.6794 100.062 14.6105 100.252 14.5074C100.415 14.416 100.55 14.2823 100.643 14.1203C100.742 13.9323 100.791 13.7217 100.784 13.5092V13.0468H100.708C100.46 13.7258 99.8902 14.0653 98.9993 14.0653C98.3053 14.0653 97.7621 13.8834 97.3696 13.5194C97.1707 13.3236 97.0157 13.0878 96.9149 12.8276C96.8141 12.5673 96.7698 12.2886 96.785 12.0099C96.7827 11.5879 96.8516 11.1685 96.9887 10.7694C97.1096 10.4085 97.2968 10.0735 97.5408 9.78141C97.7706 9.50719 98.0551 9.28381 98.376 9.12548C98.7017 8.96561 99.0602 8.88399 99.423 8.88713C99.8135 8.87543 100.2 8.96677 100.544 9.15201C100.888 9.33725 101.177 9.60983 101.383 9.94232C101.849 10.6431 102.081 11.6209 102.081 12.8696C102.101 13.3944 102.018 13.9181 101.839 14.4116C101.758 14.6026 101.64 14.7758 101.493 14.9212C101.345 15.0666 101.17 15.1814 100.977 15.2591V15.3365L101.222 15.4016C101.593 15.4895 101.931 15.681 102.197 15.9537C102.444 16.2276 102.574 16.5875 102.558 16.9559C102.567 17.451 102.455 17.9407 102.23 18.3819C102.006 18.8034 101.681 19.1631 101.285 19.4289C100.826 19.7312 100.318 19.9504 99.7836 20.0767C99.1292 20.2337 98.4581 20.3096 97.7852 20.3028ZM96.6404 23.0651C96.5404 23.0694 96.4405 23.0536 96.3467 23.0186C96.253 22.9836 96.1672 22.9301 96.0944 22.8614C95.9567 22.6708 95.8826 22.4416 95.8826 22.2065C95.8826 21.9713 95.9567 21.7422 96.0944 21.5515C96.1675 21.4832 96.2534 21.4301 96.347 21.3951C96.4407 21.3601 96.5404 21.3441 96.6404 21.3478H96.895C96.995 21.3436 97.0948 21.3595 97.1886 21.3945C97.2823 21.4294 97.3681 21.4829 97.4409 21.5515C97.5786 21.7422 97.6528 21.9713 97.6528 22.2065C97.6528 22.4416 97.5786 22.6708 97.4409 22.8614C97.3684 22.9304 97.2827 22.9841 97.1888 23.0191C97.095 23.0541 96.995 23.0697 96.895 23.0651H96.6404ZM98.6774 23.0651C98.5774 23.0697 98.4775 23.0541 98.3836 23.0191C98.2898 22.9841 98.204 22.9304 98.1315 22.8614C97.9938 22.6708 97.9197 22.4416 97.9197 22.2065C97.9197 21.9713 97.9938 21.7422 98.1315 21.5515C98.2043 21.4829 98.2901 21.4294 98.3839 21.3945C98.4776 21.3595 98.5774 21.3436 98.6774 21.3478H98.9321C99.032 21.3441 99.1317 21.3601 99.2254 21.3951C99.3191 21.4301 99.4049 21.4832 99.478 21.5515C99.6157 21.7422 99.6898 21.9713 99.6898 22.2065C99.6898 22.4416 99.6157 22.6708 99.478 22.8614C99.4053 22.9301 99.3195 22.9836 99.2257 23.0186C99.1319 23.0536 99.0321 23.0694 98.9321 23.0651H98.6774ZM99.421 12.4031C99.6933 12.406 99.9655 12.3911 100.236 12.3583C100.423 12.3383 100.605 12.288 100.776 12.2096C100.743 11.8202 100.567 11.4569 100.281 11.191C100.006 10.94 99.6446 10.8043 99.2723 10.8121C98.9699 10.8025 98.6733 10.8959 98.431 11.077C98.324 11.1536 98.2373 11.2549 98.178 11.3723C98.1188 11.4897 98.0888 11.6197 98.0908 11.7512C98.084 11.8524 98.1073 11.9534 98.1576 12.0415C98.208 12.1295 98.2832 12.2008 98.3739 12.2462C98.6154 12.3551 98.8793 12.4054 99.1439 12.3929L99.421 12.4031ZM99.3191 7.8686C99.2191 7.87258 99.1194 7.85661 99.0257 7.82163C98.9319 7.78666 98.8461 7.73339 98.7732 7.6649C98.6355 7.47429 98.5614 7.24514 98.5614 7.00999C98.5614 6.77485 98.6355 6.54567 98.7732 6.35506C98.8461 6.28657 98.9319 6.2333 99.0257 6.19832C99.1194 6.16335 99.2191 6.14738 99.3191 6.15135H99.5758C99.6757 6.14738 99.7755 6.16335 99.8692 6.19832C99.963 6.2333 100.049 6.28657 100.122 6.35506C100.259 6.54567 100.334 6.77485 100.334 7.00999C100.334 7.24514 100.259 7.47429 100.122 7.6649C100.049 7.73339 99.963 7.78666 99.8692 7.82163C99.7755 7.85661 99.6757 7.87258 99.5758 7.8686H99.3191Z" fill="#707070"/>
<path d="M110.053 20.3028C108.863 20.3028 107.964 19.9972 107.355 19.3861C106.747 18.775 106.443 17.9079 106.443 16.7848C106.449 16.3449 106.503 15.9071 106.604 15.479C106.71 14.9984 106.858 14.5281 107.046 14.0734L108.28 14.4319C108.11 14.7913 107.974 15.1657 107.873 15.5503C107.783 15.8681 107.733 16.1959 107.724 16.526C107.71 16.7573 107.746 16.9888 107.829 17.205C107.913 17.4211 108.041 17.6168 108.207 17.7788C108.577 18.0919 109.053 18.2509 109.537 18.2229H110.556C110.843 18.23 111.13 18.1887 111.403 18.1007C111.626 18.024 111.822 17.8821 111.963 17.6933C112.117 17.4788 112.222 17.2334 112.271 16.9742C112.341 16.6167 112.373 16.2527 112.367 15.8884V7.70557H113.909V15.2855H115.335V16.8296L114.95 17.2146H113.807C113.634 18.2671 113.245 19.0438 112.638 19.545C112.031 20.0461 111.169 20.2987 110.053 20.3028Z" fill="#707070"/>
<path d="M114.96 15.6786L115.345 15.2936H115.666C116.345 15.2936 116.685 14.9942 116.685 14.3953V7.71375H118.227V14.3953C118.227 14.9942 118.526 15.2936 119.125 15.2936H119.576V16.8296L119.191 17.2146C118.488 17.2146 117.953 17.0754 117.585 16.797C117.186 16.4649 116.924 15.9957 116.852 15.4811H116.775C116.665 16.08 116.468 16.5186 116.184 16.797C116.016 16.945 115.821 17.0582 115.61 17.1299C115.398 17.2016 115.174 17.2304 114.951 17.2146L114.96 15.6786Z" fill="#707070"/>
<path d="M119.199 15.6785L119.584 15.2935H120.959V16.8294L120.574 17.2144H119.199V15.6785Z" fill="#707070"/>
<path d="M120.573 15.6786L120.958 15.2936H123.45C123.718 15.2954 123.986 15.2784 124.252 15.2427C124.465 15.217 124.671 15.1557 124.864 15.0614C125.023 14.9834 125.158 14.8637 125.255 14.7151C125.355 14.5488 125.404 14.357 125.397 14.163V13.5702H125.32C125.071 14.2493 124.502 14.5888 123.611 14.5888C122.918 14.5888 122.375 14.4068 121.981 14.0428C121.782 13.8471 121.627 13.6113 121.526 13.351C121.426 13.0908 121.381 12.8121 121.396 12.5334C121.394 12.112 121.463 11.6933 121.6 11.2948C121.723 10.9358 121.911 10.6024 122.154 10.3109C122.385 10.0372 122.669 9.81385 122.989 9.65502C123.316 9.49677 123.674 9.4159 124.036 9.41871C124.427 9.40658 124.814 9.49755 125.158 9.68244C125.502 9.86733 125.791 10.1396 125.996 10.4719C126.463 11.1753 126.697 12.1518 126.697 13.4012C126.713 14.0449 126.644 14.688 126.493 15.314C126.389 15.7482 126.179 16.1498 125.882 16.4832C125.605 16.7714 125.252 16.9742 124.864 17.0679C124.397 17.1828 123.918 17.2368 123.438 17.2288H120.573V15.6786ZM124.016 12.9164C124.288 12.9193 124.561 12.9043 124.831 12.8715C125.018 12.8521 125.2 12.8025 125.371 12.7249C125.337 12.3389 125.16 11.9795 124.876 11.7165C124.601 11.4647 124.24 11.329 123.867 11.3376C123.565 11.3274 123.269 11.42 123.026 11.6004C122.919 11.677 122.832 11.7783 122.773 11.8957C122.714 12.0131 122.684 12.1432 122.686 12.2747C122.679 12.376 122.702 12.4772 122.752 12.5653C122.803 12.6535 122.878 12.7246 122.969 12.7697C123.211 12.8786 123.474 12.9288 123.739 12.9164H124.016ZM123.912 8.38185C123.812 8.38629 123.712 8.37053 123.619 8.33553C123.525 8.30053 123.439 8.24702 123.366 8.17815C123.229 7.98754 123.154 7.75836 123.154 7.52322C123.154 7.28807 123.229 7.05892 123.366 6.86831C123.439 6.79982 123.525 6.74655 123.619 6.71158C123.713 6.6766 123.812 6.66063 123.912 6.6646H124.169C124.269 6.6604 124.369 6.67627 124.462 6.71125C124.556 6.74624 124.642 6.79963 124.715 6.86831C124.853 7.05892 124.927 7.28807 124.927 7.52322C124.927 7.75836 124.853 7.98754 124.715 8.17815C124.642 8.24721 124.557 8.30087 124.463 8.33588C124.369 8.37089 124.269 8.38653 124.169 8.38185H123.912Z" fill="#707070"/>
<path d="M136.606 17.2204C135.826 17.2123 135.256 17.0214 134.896 16.648C134.71 16.4406 134.566 16.1983 134.473 15.9351C134.38 15.6718 134.341 15.3927 134.357 15.1141V15.0489H134.279C134.224 15.3083 134.145 15.562 134.043 15.8067C133.965 15.9941 133.849 16.1629 133.701 16.3017C133.561 16.4275 133.395 16.5195 133.214 16.5706C132.996 16.6306 132.771 16.6587 132.546 16.6541C131.935 16.6541 131.466 16.4911 131.158 16.1611C130.851 15.8311 130.696 15.3667 130.696 14.7657C130.668 14.1415 130.877 13.5297 131.281 13.0526C131.725 12.5699 132.259 12.1789 132.853 11.9016L134.291 11.1826V10.4757H135.834V14.5987C135.823 14.6958 135.833 14.794 135.863 14.887C135.893 14.9799 135.942 15.0656 136.007 15.1385C136.182 15.2592 136.394 15.3141 136.606 15.2933H136.991V16.8293L136.606 17.2204ZM132.969 14.727C133.32 14.7498 133.672 14.702 134.004 14.5865C134.098 14.54 134.176 14.466 134.228 14.3744C134.279 14.2827 134.301 14.1777 134.291 14.0731V12.5311L133.342 12.9813C133.11 13.0933 132.912 13.185 132.745 13.2767C132.596 13.3507 132.454 13.4386 132.322 13.5394C132.219 13.6152 132.132 13.7091 132.063 13.8165C132.007 13.9136 131.978 14.0241 131.979 14.1363C131.97 14.2235 131.984 14.3117 132.02 14.3918C132.056 14.4719 132.112 14.5411 132.183 14.5926C132.429 14.704 132.7 14.7503 132.969 14.727ZM132.918 9.44902C132.818 9.45322 132.719 9.43735 132.625 9.40237C132.531 9.36738 132.445 9.31399 132.373 9.24531C132.235 9.0547 132.161 8.82555 132.161 8.5904C132.161 8.35526 132.235 8.12608 132.373 7.93547C132.445 7.86641 132.531 7.81275 132.625 7.77774C132.718 7.74273 132.818 7.72709 132.918 7.73176H133.175C133.275 7.72744 133.375 7.74325 133.469 7.77824C133.563 7.81323 133.648 7.8667 133.721 7.93547C133.859 8.12608 133.933 8.35526 133.933 8.5904C133.933 8.82555 133.859 9.0547 133.721 9.24531C133.648 9.31361 133.562 9.36676 133.468 9.40172C133.375 9.43668 133.275 9.45277 133.175 9.44902H132.918ZM134.956 9.44902C134.856 9.45277 134.756 9.43668 134.662 9.40172C134.569 9.36676 134.483 9.31361 134.41 9.24531C134.272 9.0547 134.198 8.82555 134.198 8.5904C134.198 8.35526 134.272 8.12608 134.41 7.93547C134.482 7.8667 134.568 7.81323 134.662 7.77824C134.756 7.74325 134.856 7.72744 134.956 7.73176H135.212C135.312 7.72709 135.412 7.74273 135.506 7.77774C135.6 7.81275 135.686 7.86641 135.758 7.93547C135.896 8.12608 135.97 8.35526 135.97 8.5904C135.97 8.82555 135.896 9.0547 135.758 9.24531C135.685 9.31399 135.6 9.36738 135.506 9.40237C135.412 9.43735 135.312 9.45322 135.212 9.44902H134.956Z" fill="#707070"/>
<path d="M136.605 15.6786L136.99 15.2936H138.009V15.2285C137.66 14.728 137.476 14.1313 137.483 13.5214C137.478 12.7226 137.779 11.9522 138.324 11.3682C138.591 11.0903 138.911 10.8692 139.265 10.7184C139.632 10.5572 140.028 10.4759 140.429 10.4801C141.023 10.4549 141.611 10.602 142.123 10.9038C142.572 11.1995 142.946 11.5956 143.215 12.0608L141.84 13.2831C141.68 13.0116 141.456 12.7841 141.186 12.621C140.914 12.4772 140.608 12.407 140.3 12.4173C139.906 12.3931 139.515 12.4944 139.182 12.7066C139.05 12.7997 138.944 12.9244 138.873 13.0692C138.801 13.2141 138.768 13.3744 138.774 13.5357C138.766 13.7396 138.813 13.942 138.911 14.1214C139.009 14.3007 139.153 14.4503 139.329 14.5542C139.695 14.7884 140.215 14.9066 140.883 14.9066C141.119 14.906 141.354 14.889 141.588 14.8557C141.818 14.8249 142.046 14.7779 142.27 14.7151L143.515 14.3668L144.004 16.1024L142.115 16.6788C141.746 16.7916 141.391 16.8839 141.05 16.9559C140.676 17.0334 140.299 17.0912 139.919 17.129C139.512 17.1725 139.041 17.2024 138.506 17.2187C137.97 17.235 137.337 17.2438 136.605 17.2452V15.6786Z" fill="#707070"/>
<path d="M144.698 18.3754H145.513C146.18 18.4004 146.846 18.2959 147.473 18.0678C147.907 17.9103 148.275 17.6119 148.52 17.2204H147.029C146.336 17.2204 145.793 17.0167 145.399 16.6093C145.008 16.2019 144.814 15.6355 144.814 14.9083C144.812 14.4863 144.881 14.0669 145.018 13.6678C145.14 13.3068 145.328 12.9717 145.572 12.6798C145.801 12.4056 146.085 12.1822 146.405 12.0239C146.731 11.864 147.09 11.7824 147.452 11.7855C147.813 11.7741 148.171 11.8527 148.494 12.0141C148.817 12.1756 149.095 12.4148 149.302 12.7103C149.756 13.3269 150.004 14.1879 150.048 15.2933H150.704V16.8293L150.319 17.2143H149.881C149.69 18.1187 149.184 18.9263 148.455 19.4937C147.75 20.0302 146.81 20.2977 145.635 20.2964H144.686L144.698 18.3754ZM146.11 14.6517C146.103 14.7526 146.126 14.8534 146.177 14.9411C146.227 15.0289 146.302 15.0997 146.393 15.1446C146.634 15.2553 146.898 15.3063 147.163 15.2933H148.77V15.2546C148.779 15.0498 148.747 14.8452 148.675 14.6531C148.603 14.461 148.494 14.2853 148.353 14.1363C148.215 13.9963 148.049 13.8864 147.866 13.8135C147.684 13.7406 147.488 13.7062 147.291 13.7126C146.989 13.7023 146.692 13.7957 146.45 13.9774C146.343 14.054 146.256 14.1553 146.197 14.2727C146.138 14.3901 146.108 14.5202 146.11 14.6517Z" fill="#707070"/>
<path d="M150.325 15.6782L150.71 15.2932H151.826C151.818 15.242 151.814 15.1903 151.814 15.1384V14.9958C151.814 13.9583 152.413 13.0932 153.613 12.4006L154.427 11.924H156.122L157.141 14.6475C157.195 14.8586 157.32 15.0447 157.495 15.1751C157.692 15.2732 157.911 15.3175 158.131 15.3034H158.516V16.8292L158.131 17.2142C157.671 17.2363 157.212 17.1461 156.795 16.9514C156.449 16.7584 156.167 16.4707 155.98 16.1223L155.902 16.1345V17.2142H154.273C153.745 17.2399 153.222 17.108 152.769 16.8353C152.412 16.6054 152.134 16.2711 151.973 15.8779H151.857C151.618 16.7681 151.103 17.2142 150.317 17.2142L150.325 15.6782ZM152.973 14.8044C152.965 14.8834 152.982 14.9628 153.021 15.032C153.06 15.1012 153.119 15.1568 153.191 15.1914C153.357 15.263 153.537 15.2977 153.719 15.2932H155.607L154.963 13.5984L153.796 14.0608C153.576 14.142 153.37 14.2567 153.185 14.401C153.123 14.4485 153.072 14.5096 153.038 14.5794C153.003 14.6493 152.984 14.7262 152.983 14.8044H152.973Z" fill="#707070"/>
<path d="M158.135 15.6783L158.52 15.2933H159.406C159.885 15.2933 160.317 15.2933 160.698 15.275C161.061 15.2622 161.424 15.2296 161.783 15.1772C162.123 15.1265 162.458 15.0496 162.786 14.947C163.142 14.8305 163.489 14.6889 163.825 14.5233L164.301 14.2911V14.2279L162.246 13.7899L160.305 13.3153V14.2788H158.822V13.2888C158.822 12.6818 158.953 12.2364 159.215 11.9525C159.475 11.6714 159.875 11.5288 160.415 11.5288C160.483 11.529 160.551 11.5338 160.618 11.5431C160.692 11.5512 160.777 11.5634 160.875 11.5797C160.975 11.5981 161.091 11.6246 161.229 11.6571L161.743 11.7855L164.222 12.4292C164.584 12.5272 164.953 12.6 165.326 12.6472C165.714 12.6979 166.104 12.7238 166.495 12.7246H166.766V14.6516H165.868C165.861 14.7452 165.876 14.839 165.911 14.9259C165.946 15.0128 166.001 15.0905 166.072 15.1527C166.282 15.2645 166.52 15.3133 166.758 15.2933H167.145V16.8292L166.758 17.2142C166.117 17.2061 165.619 17.0581 165.263 16.7702C164.907 16.4823 164.686 16.0348 164.601 15.4277L164.55 15.4665C164.062 15.8052 163.553 16.112 163.026 16.3852C162.616 16.5972 162.189 16.7738 161.749 16.9128C161.368 17.0324 160.976 17.1143 160.58 17.1572C160.203 17.1939 159.81 17.2142 159.398 17.2142H158.127L158.135 15.6783ZM162.566 19.9826C162.466 19.9864 162.366 19.9703 162.272 19.9353C162.179 19.9004 162.093 19.8472 162.02 19.7789C161.882 19.5883 161.808 19.3591 161.808 19.124C161.808 18.8888 161.882 18.6597 162.02 18.4691C162.093 18.4003 162.178 18.3468 162.272 18.3119C162.366 18.2769 162.466 18.2611 162.566 18.2654H162.822C162.922 18.2607 163.022 18.2763 163.116 18.3114C163.21 18.3464 163.296 18.4 163.368 18.4691C163.507 18.6592 163.582 18.8885 163.582 19.124C163.582 19.3594 163.507 19.5888 163.368 19.7789C163.296 19.8476 163.21 19.901 163.116 19.936C163.022 19.971 162.922 19.9868 162.822 19.9826H162.566Z" fill="#707070"/>
<path d="M168.655 16.5015C168.471 16.7578 168.214 16.9524 167.917 17.0597C167.546 17.1787 167.156 17.2332 166.766 17.2206V15.6785L167.153 15.2935C167.393 15.3108 167.632 15.2622 167.846 15.153C168.014 15.0266 168.14 14.8518 168.207 14.6519L168.565 13.7657C168.673 13.5006 168.797 13.2427 168.938 12.9937C169.069 12.7611 169.234 12.549 169.427 12.3642C169.612 12.1867 169.827 12.0433 170.062 11.9405C170.527 11.7571 171.04 11.7359 171.518 11.8805C171.996 12.0251 172.411 12.3269 172.696 12.737C173.104 13.3699 173.307 14.2478 173.307 15.3709V15.7437L172.085 17.5547L168.655 16.5015ZM169.362 14.715L171.945 15.4993V15.3709C171.97 14.9365 171.838 14.5075 171.572 14.163C171.446 14.0177 171.289 13.9029 171.113 13.8274C170.936 13.7518 170.745 13.7175 170.553 13.7271C170.298 13.7204 170.048 13.7969 169.84 13.945C169.618 14.1208 169.458 14.3637 169.384 14.6376L169.362 14.715Z" fill="#707070"/>
<path d="M2.89059 32.6615L0 23.6985H1.97799L3.3143 28.0028L4.02116 30.816H4.05987L4.74024 28.0028L6.07656 23.6985H7.98936L5.07432 32.6615H2.89059Z" fill="#707070"/>
<path d="M8.81274 32.6612V31.107H9.96776V25.2484H8.81274V23.6941H13.0783V25.2484H11.9213V31.107H13.0783V32.6612H8.81274Z" fill="#707070"/>
<path d="M14.7078 32.6615V23.6985H16.6613V30.9321H20.0775V32.6656L14.7078 32.6615Z" fill="#707070"/>
<path d="M21.5234 32.6615V23.6985H23.4749V30.9321H26.8931V32.6656L21.5234 32.6615Z" fill="#707070"/>
<path d="M33.8496 32.6615L33.2059 30.5288H30.2134L29.5717 32.6615H27.5938L30.5475 23.6985H32.9634L35.8785 32.6615H33.8496ZM31.729 25.4667H31.6658L30.6758 28.8706H32.7271L31.729 25.4667Z" fill="#707070"/>
<path d="M40.0284 32.8162C39.3379 32.8354 38.6522 32.6961 38.024 32.4088C37.4944 32.1524 37.0192 31.7962 36.6245 31.3597L37.9079 30.0601C38.1837 30.3839 38.5275 30.643 38.9148 30.819C39.302 30.995 39.7233 31.0836 40.1486 31.0786C40.5268 31.1085 40.9036 31.0055 41.214 30.7873C41.3278 30.6929 41.4183 30.5737 41.4787 30.4388C41.5391 30.3039 41.5677 30.1569 41.5624 30.0091C41.5688 29.7878 41.4966 29.5713 41.3586 29.398C41.2201 29.233 40.9512 29.121 40.5234 29.0619L39.6373 28.9458C38.6867 28.8249 37.9907 28.5377 37.5493 28.0841C37.3237 27.8414 37.1488 27.5559 37.0351 27.2445C36.9214 26.9332 36.8712 26.6022 36.8873 26.2711C36.8826 25.8899 36.9619 25.5123 37.1195 25.165C37.2722 24.832 37.4977 24.5375 37.7795 24.3033C38.0914 24.0496 38.4498 23.8593 38.8347 23.7432C39.2966 23.6017 39.7777 23.5329 40.2607 23.5394C40.8716 23.5276 41.4788 23.637 42.0472 23.8613C42.5532 24.0715 43.0056 24.3924 43.3713 24.8004L42.0737 26.1143C41.8554 25.8631 41.5913 25.6557 41.2955 25.5032C40.9366 25.3348 40.5427 25.2545 40.1466 25.2689C39.8051 25.2442 39.4641 25.3238 39.1688 25.4971C39.0634 25.5668 38.9777 25.6624 38.92 25.7748C38.8622 25.8872 38.8342 26.0125 38.8388 26.1387C38.8281 26.2608 38.845 26.3838 38.8884 26.4984C38.9318 26.613 39.0005 26.7164 39.0894 26.8008C39.3323 26.9645 39.6125 27.0647 39.9042 27.0921L40.7903 27.2347C41.7151 27.38 42.4003 27.6652 42.8457 28.0903C43.2911 28.5153 43.5139 29.1176 43.5139 29.8971C43.5181 30.3025 43.4397 30.7045 43.2837 31.0786C43.1325 31.4349 42.9019 31.752 42.6094 32.0055C42.2872 32.2772 41.9129 32.4803 41.5094 32.6023C41.03 32.7509 40.5303 32.823 40.0284 32.8162Z" fill="#707070"/>
<path d="M47.8262 32.6612V31.107H48.9812V25.2484H47.8262V23.6941H52.0897V25.2484H50.9347V31.107H52.0897V32.6612H47.8262Z" fill="#707070"/>
<path d="M56.4593 28.4221L55.5976 26.6234H55.5589V32.6612H53.7256V23.6982H55.8543L58.309 27.9373L59.1686 29.736H59.2094V23.6941H61.0427V32.6572H58.9119L56.4593 28.4221Z" fill="#707070"/>
<path d="M69.8017 25.4276V32.6612H67.84V25.4276H65.4119V23.6941H72.2197V25.4276H69.8017Z" fill="#707070"/>
<path d="M78.9263 28.9867H75.5061V32.6534H73.5566V23.6903H75.5061V27.249H78.9223V23.6944H80.8758V32.6574H78.9223L78.9263 28.9867Z" fill="#707070"/>
<path d="M82.8579 32.6615V23.6985H88.9508V25.432H84.8094V27.2654H88.3682V28.9989H84.8094V30.9402H88.9508V32.6738L82.8579 32.6615Z" fill="#707070"/>
<path d="M95.1003 32.6612L93.0632 23.6982H94.9903L95.8377 28.0025L96.3144 30.4938H96.3531L96.9174 28.0025L97.9135 23.6941H100.044L101.046 27.9984L101.599 30.4897H101.637L102.114 27.9984L102.974 23.6941H104.823L102.743 32.6572H100.521L99.3903 27.8008L98.9524 25.835H98.9157L98.4655 27.8008L97.335 32.6572L95.1003 32.6612Z" fill="#707070"/>
<path d="M106.186 32.6615V23.6985H112.287V25.432H108.138V27.2654H111.696V28.9989H108.138V30.9402H112.287V32.6738L106.186 32.6615Z" fill="#707070"/>
<path d="M116.887 32.8162C116.196 32.8354 115.51 32.6961 114.882 32.4088C114.353 32.1524 113.877 31.7962 113.483 31.3597L114.766 30.0601C115.042 30.3839 115.386 30.643 115.773 30.819C116.16 30.995 116.581 31.0836 117.007 31.0786C117.385 31.1085 117.762 31.0055 118.072 30.7873C118.186 30.6929 118.276 30.5737 118.337 30.4388C118.397 30.3039 118.426 30.1569 118.421 30.0091C118.427 29.7878 118.355 29.5713 118.217 29.398C118.078 29.233 117.809 29.121 117.382 29.0619L116.495 28.9458C115.545 28.8249 114.849 28.5377 114.407 28.0841C114.182 27.8414 114.007 27.5559 113.893 27.2445C113.78 26.9332 113.729 26.6022 113.745 26.2711C113.741 25.8899 113.82 25.5123 113.978 25.165C114.13 24.8317 114.356 24.5371 114.638 24.3033C114.949 24.05 115.307 23.8598 115.691 23.7432C116.153 23.6022 116.634 23.5334 117.117 23.5394C117.728 23.5276 118.335 23.637 118.903 23.8613C119.409 24.0707 119.861 24.3917 120.225 24.8004L118.93 26.1143C118.711 25.8631 118.447 25.6557 118.152 25.5032C117.793 25.3348 117.399 25.2545 117.003 25.2689C116.661 25.2442 116.32 25.3238 116.025 25.4971C115.922 25.5674 115.839 25.6626 115.783 25.7737C115.727 25.8848 115.7 26.0083 115.705 26.1326C115.694 26.2547 115.711 26.3777 115.755 26.4923C115.798 26.6069 115.867 26.7103 115.956 26.7947C116.199 26.9584 116.479 27.0585 116.77 27.086L117.657 27.2286C118.581 27.3739 119.267 27.6591 119.712 28.0841C120.157 28.5092 120.38 29.1115 120.38 29.891C120.384 30.2964 120.306 30.6984 120.15 31.0725C119.999 31.4288 119.768 31.7459 119.476 31.9994C119.153 32.2707 118.779 32.4738 118.376 32.5962C117.894 32.7477 117.391 32.8219 116.887 32.8162Z" fill="#707070"/>
<path d="M125.738 25.4276V32.6612H123.784V25.4276H121.356V23.6941H128.166V25.4276H125.738Z" fill="#707070"/>
<path d="M135.436 32.8164C134.745 32.8356 134.06 32.6963 133.431 32.409C132.902 32.1526 132.427 31.7964 132.032 31.3599L133.315 30.0603C133.591 30.3841 133.935 30.6432 134.322 30.8192C134.709 30.9952 135.131 31.0838 135.556 31.0788C135.934 31.1087 136.311 31.0057 136.621 30.7875C136.735 30.6931 136.826 30.5739 136.886 30.439C136.947 30.3041 136.975 30.1571 136.97 30.0094C136.976 29.788 136.904 29.5715 136.766 29.3982C136.628 29.2332 136.359 29.1212 135.931 29.0621L135.045 28.946C134.094 28.8251 133.398 28.5379 132.957 28.0843C132.731 27.8416 132.556 27.5561 132.443 27.2447C132.329 26.9334 132.279 26.6024 132.295 26.2714C132.29 25.8901 132.369 25.5125 132.527 25.1652C132.68 24.8322 132.905 24.5377 133.187 24.3035C133.499 24.0498 133.857 23.8595 134.242 23.7434C135.296 23.4403 136.419 23.4832 137.446 23.8656C137.952 24.075 138.404 24.396 138.769 24.8047L137.473 26.1186C137.255 25.8674 136.991 25.66 136.695 25.5075C136.336 25.3391 135.942 25.2588 135.546 25.2732C135.204 25.2485 134.863 25.328 134.568 25.5013C134.466 25.5717 134.382 25.6669 134.326 25.778C134.271 25.8891 134.244 26.0126 134.248 26.1369C134.238 26.259 134.255 26.3819 134.298 26.4966C134.341 26.6112 134.41 26.7145 134.499 26.7989C134.742 26.9627 135.022 27.0628 135.314 27.0903L136.2 27.2328C137.125 27.3781 137.81 27.6634 138.255 28.0884C138.701 28.5135 138.923 29.1158 138.923 29.8953C138.928 30.3007 138.849 30.7026 138.693 31.0768C138.542 31.4331 138.311 31.7501 138.019 32.0036C137.697 32.2754 137.322 32.4785 136.919 32.6005C136.439 32.7499 135.939 32.8228 135.436 32.8164Z" fill="#707070"/>
<path d="M144.155 32.8164C143.597 32.8231 143.044 32.7207 142.526 32.5149C142.046 32.3256 141.619 32.0246 141.279 31.6369C140.918 31.2117 140.647 30.7176 140.482 30.1845C140.105 28.8707 140.105 27.4771 140.482 26.1633C140.647 25.6302 140.918 25.1361 141.279 24.7109C141.619 24.3231 142.046 24.0215 142.526 23.8309C143.569 23.4371 144.719 23.4371 145.762 23.8309C146.242 24.0215 146.669 24.3231 147.009 24.7109C147.37 25.1361 147.641 25.6302 147.806 26.1633C148.18 27.4775 148.18 28.8703 147.806 30.1845C147.641 30.7176 147.37 31.2117 147.009 31.6369C146.669 32.0246 146.242 32.3256 145.762 32.5149C145.251 32.7178 144.705 32.8202 144.155 32.8164ZM144.155 31.0808C144.414 31.0952 144.672 31.0506 144.911 30.9504C145.15 30.8502 145.363 30.6969 145.534 30.5023C145.864 30.118 146.029 29.5659 146.029 28.8462V27.5099C146.029 26.7915 145.864 26.2394 145.534 25.8537C145.354 25.6705 145.139 25.5249 144.902 25.4256C144.665 25.3263 144.411 25.2751 144.154 25.2751C143.897 25.2751 143.643 25.3263 143.406 25.4256C143.169 25.5249 142.954 25.6705 142.774 25.8537C142.444 26.2394 142.279 26.7915 142.279 27.5099V28.8482C142.279 29.5666 142.444 30.1186 142.774 30.5043C142.945 30.7004 143.158 30.8549 143.397 30.9562C143.636 31.0575 143.896 31.1029 144.155 31.089V31.0808Z" fill="#707070"/>
<path d="M156.426 26.7782H156.387L155.733 28.088L153.985 31.2597L152.276 28.1003L151.596 26.6865H151.557V32.6612H149.724V23.6982H151.793L153.989 27.8986H154.016L156.173 23.6941H158.255V32.6572H156.421L156.426 26.7782Z" fill="#707070"/>
<path d="M159.896 32.6612V31.107H161.051V25.2484H159.896V23.6941H164.159V25.2484H163.004V31.107H164.159V32.6612H159.896Z" fill="#707070"/>
<path d="M165.791 23.6945H169.17C169.722 23.6872 170.271 23.7832 170.788 23.9776C171.263 24.1565 171.69 24.4447 172.034 24.8189C172.395 25.2244 172.666 25.7012 172.831 26.2184C173.208 27.4976 173.208 28.8585 172.831 30.1377C172.666 30.6549 172.395 31.1317 172.034 31.5372C171.69 31.9114 171.263 32.1996 170.788 32.3785C170.271 32.5728 169.722 32.6689 169.17 32.6616H165.791V23.6945ZM169.17 30.9281C169.42 30.9423 169.67 30.9064 169.906 30.8224C170.142 30.7384 170.359 30.6082 170.543 30.4392C170.877 30.1133 171.044 29.5918 171.044 28.8707V27.4834C171.044 26.765 170.877 26.2428 170.543 25.9169C170.359 25.748 170.142 25.6177 169.906 25.5337C169.67 25.4497 169.42 25.4138 169.17 25.428H167.744V30.9281H169.17Z" fill="#707070"/>
<path d="M181.103 39.5853V39.1473C181.214 38.9688 181.38 38.8311 181.576 38.7551C181.773 38.679 181.988 38.6687 182.191 38.7257L182.205 37.7621C182.215 37.1123 182.708 36.6499 183.397 36.6234C183.319 35.7758 183.563 34.9301 184.081 34.2543V24.7005H182.144C181.983 24.695 181.828 24.6467 181.692 24.5608C181.557 24.4748 181.447 24.3543 181.374 24.2116C181.319 24.0662 181.302 23.9095 181.324 23.7558C181.345 23.602 181.405 23.4562 181.498 23.3316L184.786 19.2738C184.943 19.0792 185.141 18.9213 185.365 18.8111C185.59 18.701 185.835 18.6413 186.085 18.6362L187.342 18.6199V11.7366L185.678 11.7C185.533 11.679 185.396 11.6219 185.279 11.534C185.162 11.4461 185.068 11.3301 185.008 11.1968C184.966 11.054 184.957 10.9036 184.98 10.7567C185.004 10.6098 185.06 10.47 185.144 10.3474L188.434 6.29975C188.596 6.10027 188.8 5.93921 189.031 5.82823C189.263 5.71725 189.516 5.65913 189.773 5.65807L191.3 5.64583L191.29 3.94489C190.72 3.86341 190.272 3.48859 190.272 2.92636L190.251 1.15209C190.249 0.99734 190.278 0.843724 190.337 0.700717C190.397 0.557711 190.484 0.42834 190.595 0.320534C190.706 0.212728 190.838 0.128783 190.983 0.0738587C191.128 0.0189342 191.282 -0.00581571 191.437 0.00114923H198.363C198.659 0.00809764 198.94 0.131315 199.145 0.344082C199.351 0.55685 199.464 0.842018 199.461 1.13782L199.447 2.85303C199.447 3.42748 199.027 3.8512 198.428 3.93065L198.418 5.63566H208.234L211.039 2.5984C211.14 2.47811 211.266 2.38135 211.408 2.31497C211.55 2.24859 211.705 2.21421 211.862 2.21421C212.019 2.21421 212.174 2.24859 212.317 2.31497C212.459 2.38135 212.585 2.47811 212.685 2.5984L225.283 16.2182C225.395 16.3463 225.467 16.5052 225.488 16.6744C225.51 16.8436 225.48 17.0153 225.403 17.1675C225.323 17.2951 225.212 17.4006 225.081 17.4743C224.949 17.548 224.802 17.5875 224.651 17.5891H221.909V23.9366L223.912 27.3996C224.032 27.6028 224.07 27.8445 224.018 28.0749C223.966 28.3054 223.827 28.5069 223.631 28.6381L224.834 30.7648C225.091 31.2191 224.804 31.6693 224.427 31.9606L225.829 34.4173C225.904 34.5615 225.94 34.723 225.934 34.8856C225.927 35.0482 225.878 35.2063 225.792 35.3441C225.696 35.4642 225.574 35.5611 225.435 35.6274C225.297 35.6937 225.145 35.7278 224.991 35.7271H222.755V38.6829H225.242C225.331 38.6799 225.419 38.695 225.502 38.7274C225.585 38.7597 225.661 38.8086 225.724 38.8711C225.788 38.9336 225.838 39.0083 225.871 39.0908C225.905 39.1732 225.922 39.2616 225.92 39.3507C225.918 39.4397 225.898 39.5274 225.862 39.6086C225.825 39.6897 225.772 39.7625 225.707 39.8226C225.641 39.8827 225.564 39.9287 225.479 39.958C225.395 39.9872 225.306 39.999 225.217 39.9927H182.001C181.828 40.0143 181.653 39.9877 181.494 39.9158C181.336 39.8439 181.2 39.7295 181.103 39.5853ZM198.137 1.31912H191.569V2.631H198.137V1.31912ZM214.627 38.7053V33.9773C214.622 33.8882 214.635 33.799 214.666 33.7153C214.696 33.6315 214.744 33.5548 214.805 33.49C214.866 33.4252 214.94 33.3736 215.022 33.3383C215.104 33.303 215.192 33.2848 215.282 33.2848C215.371 33.2848 215.459 33.303 215.541 33.3383C215.623 33.3736 215.697 33.4252 215.758 33.49C215.819 33.5548 215.867 33.6315 215.898 33.7153C215.928 33.799 215.942 33.8882 215.937 33.9773V38.7053H219.505V35.7556L217.161 35.7373C217.012 35.7255 216.868 35.6788 216.741 35.601C216.613 35.5231 216.506 35.4162 216.427 35.2891C216.366 35.1572 216.334 35.0132 216.334 34.8675C216.334 34.7217 216.366 34.5778 216.427 34.4458L217.853 31.9667C217.742 31.9096 217.643 31.8301 217.564 31.7332C217.484 31.6362 217.425 31.524 217.391 31.4034C217.357 31.2828 217.348 31.1564 217.365 31.0322C217.382 30.908 217.424 30.7885 217.489 30.6813L218.644 28.6666C218.44 28.5302 218.297 28.3184 218.249 28.0777C218.2 27.8369 218.248 27.5866 218.383 27.3813L220.567 23.6718V17.1186L217.028 13.295C216.97 13.2315 216.925 13.1571 216.895 13.0761C216.866 12.995 216.852 12.909 216.856 12.8228C216.86 12.7367 216.88 12.6521 216.917 12.5739C216.953 12.4957 217.005 12.4254 217.068 12.3671C217.132 12.3088 217.206 12.2636 217.287 12.234C217.368 12.2044 217.454 12.1911 217.54 12.1948C217.626 12.1985 217.711 12.2191 217.789 12.2555C217.867 12.2919 217.938 12.3433 217.996 12.4068L221.579 16.2773L223.488 16.2589L211.83 3.65766L200.174 16.2671L202.068 16.2976L211.347 6.26919C211.41 6.20255 211.486 6.14945 211.57 6.11317C211.654 6.07689 211.745 6.05819 211.837 6.05819C211.929 6.05819 212.019 6.07689 212.104 6.11317C212.188 6.14945 212.264 6.20255 212.327 6.26919L215.894 10.1253C216.003 10.2553 216.057 10.4225 216.046 10.5918C216.034 10.7611 215.958 10.9194 215.832 11.0333C215.706 11.1472 215.541 11.208 215.371 11.2027C215.202 11.1975 215.041 11.1268 214.922 11.0053L211.838 7.66253L203.101 17.1145V38.7073H207.739V28.2939C207.723 28.1269 207.742 27.9582 207.797 27.7996C207.852 27.641 207.94 27.4961 208.057 27.375C208.173 27.254 208.314 27.1596 208.47 27.0984C208.626 27.0372 208.794 27.0107 208.962 27.0207H214.798C214.95 27.0198 215.101 27.0496 215.242 27.1083C215.383 27.1669 215.51 27.2533 215.617 27.3622C215.723 27.471 215.807 27.6003 215.862 27.7421C215.918 27.884 215.945 28.0356 215.941 28.1879V30.8239C215.944 30.9111 215.93 30.9982 215.9 31.0801C215.869 31.1619 215.823 31.2369 215.763 31.3006C215.703 31.3643 215.632 31.4155 215.552 31.4511C215.472 31.4868 215.386 31.5063 215.299 31.5084C215.209 31.5105 215.12 31.494 215.038 31.4601C214.955 31.4262 214.88 31.3755 214.817 31.3112C214.755 31.2469 214.707 31.1705 214.675 31.0866C214.644 31.0028 214.63 30.9133 214.635 30.8239L214.617 28.3346H209.063V38.6971L214.627 38.7053ZM197.086 3.94489H192.624V7.00048H197.086V3.94489ZM198.414 6.96584C198.444 7.80919 197.976 8.26957 197.31 8.32661H192.4C191.698 8.32661 191.253 7.71549 191.298 6.97604H189.577L186.821 10.3983H203.822L206.957 6.96992L198.414 6.96584ZM188.699 18.6362H201.771L201.793 17.6176H198.964C198.812 17.6068 198.667 17.5537 198.544 17.4645C198.421 17.3753 198.325 17.2535 198.268 17.1128C198.21 16.9721 198.193 16.8182 198.219 16.6684C198.244 16.5186 198.311 16.3788 198.412 16.265L202.569 11.7346H188.683V12.5494H196.354C196.649 12.5569 196.93 12.6804 197.135 12.8932C197.339 13.106 197.452 13.3908 197.448 13.6861V16.4871C197.452 16.7823 197.339 17.0672 197.135 17.28C196.93 17.4928 196.649 17.6163 196.354 17.6238H188.683C188.667 17.9612 188.671 18.2992 188.695 18.6362H188.699ZM193.201 13.8409H188.658V16.2854H193.197L193.201 13.8409ZM196.122 13.8409H194.519V16.2854H196.122V13.8409ZM192.659 26.9718H194.943C195.098 26.9626 195.254 26.9854 195.4 27.0388C195.546 27.0921 195.68 27.175 195.792 27.2821C195.905 27.3892 195.995 27.5184 196.056 27.6616C196.117 27.8048 196.148 27.959 196.146 28.1146V34.5049C196.14 34.7064 196.087 34.9035 195.99 35.0805C195.893 35.2574 195.756 35.4091 195.59 35.5234C195.761 35.8933 195.906 36.2744 196.024 36.6641C196.276 36.7357 196.496 36.8906 196.648 37.1034C196.8 37.3162 196.875 37.5743 196.861 37.8355L196.886 38.7114H201.789V24.7005H195.99C195.819 24.6963 195.656 24.6261 195.536 24.5046C195.415 24.3831 195.346 24.2197 195.344 24.0486C195.346 23.877 195.414 23.7127 195.534 23.5898C195.654 23.4669 195.816 23.3949 195.988 23.3886H201.789V19.9521H185.941L183.154 23.3846H192.838C193.006 23.3939 193.163 23.467 193.278 23.5888C193.394 23.7106 193.458 23.8718 193.458 24.0395C193.458 24.2071 193.394 24.3684 193.278 24.4902C193.163 24.612 193.006 24.685 192.838 24.6944H185.393V33.2847L186.307 33.081V28.1085C186.305 27.9543 186.335 27.8012 186.394 27.6588C186.453 27.5163 186.54 27.3873 186.651 27.2798C186.762 27.1723 186.893 27.0884 187.037 27.0334C187.181 26.9783 187.335 26.9532 187.489 26.9596H189.766C189.931 26.9496 190.095 26.9748 190.249 27.0335C190.402 27.0921 190.542 27.183 190.657 27.2998C190.773 27.4167 190.862 27.5569 190.92 27.7112C190.977 27.8654 191 28.03 190.989 28.1941V32.7224C191.127 32.7734 191.473 32.698 191.473 32.5921V28.1105C191.473 27.957 191.504 27.805 191.564 27.6637C191.625 27.5224 191.713 27.3947 191.823 27.2883C191.934 27.1819 192.065 27.099 192.209 27.0447C192.352 26.9903 192.506 26.9655 192.659 26.9718ZM222.378 27.4383L221.137 25.279L219.872 27.4566L222.378 27.4383ZM189.253 34.0078L189.66 33.5169V28.2837L187.623 28.302L187.634 33.3274C188.243 33.468 188.917 34.4152 189.259 34.0078H189.253ZM194.826 34.018V28.2918H192.789V32.8569C193.49 33.102 194.081 33.5897 194.454 34.2319C194.494 34.3012 194.759 34.3725 194.786 34.3073C194.818 34.2144 194.834 34.1164 194.833 34.018H194.826ZM223.264 30.7241L222.162 28.7828H220.086L218.98 30.7261L223.264 30.7241ZM224.282 34.4193L222.913 32.04H219.328L217.959 34.4275L224.282 34.4193ZM194.606 36.6356C194.588 36.4945 194.526 36.3629 194.427 36.2599C194.329 36.157 194.201 36.0881 194.061 36.0632C193.93 36.0218 193.813 35.947 193.72 35.8462C193.628 35.7455 193.563 35.6222 193.533 35.4888C193.471 35.1033 193.283 34.7492 192.999 34.4819C192.714 34.2147 192.349 34.0494 191.96 34.0119C191.587 33.9799 191.213 34.0659 190.891 34.2578C190.569 34.4496 190.315 34.7377 190.166 35.0813C189.705 36.0999 188.943 34.9449 188.129 35.6212C187.976 35.7382 187.859 35.8955 187.79 36.0754C187.722 36.2553 187.705 36.4507 187.742 36.6397L194.606 36.6356ZM186.413 36.5888C186.383 35.6578 186.733 35.1425 187.271 34.6006C186.965 34.4577 186.625 34.4036 186.29 34.4446C185.954 34.4855 185.637 34.6198 185.375 34.8321C185.112 35.0444 184.914 35.3263 184.804 35.6455C184.694 35.9647 184.676 36.3085 184.751 36.6377C185.307 36.6557 185.864 36.6394 186.417 36.5888H186.413ZM221.428 35.7495H220.817V38.7094H221.428V35.7495ZM195.558 37.9556H183.519V38.7094H195.556L195.558 37.9556Z" fill="#3A3A3A"/>
<path d="M215.777 24.6107H207.9C207.273 24.6107 206.731 24.2033 206.704 23.5494C206.682 23.1163 206.686 22.6824 206.714 22.2497C206.771 21.5571 207.381 21.1558 208.173 21.2557L208.185 15.941C208.183 15.7932 208.21 15.6464 208.264 15.5091C208.319 15.3718 208.401 15.2467 208.504 15.1412C208.608 15.0356 208.731 14.9517 208.867 14.8942C209.003 14.8367 209.15 14.8068 209.297 14.8063H214.288C214.452 14.7967 214.617 14.8221 214.77 14.8809C214.924 14.9397 215.063 15.0305 215.178 15.1473C215.294 15.2641 215.383 15.4042 215.441 15.5583C215.498 15.7123 215.522 15.8768 215.51 16.0408V21.2638C216.297 21.164 216.916 21.5653 216.969 22.2579C216.992 22.6935 216.992 23.1301 216.969 23.5657C216.953 24.2196 216.401 24.6107 215.777 24.6107ZM214.184 16.1162H209.499V21.2455H214.184V16.1162ZM215.673 22.5635H208.006V23.2968H215.673V22.5635Z" fill="#3A3A3A"/>
<path d="M210.832 34.7024C210.834 34.8706 210.772 35.0332 210.658 35.1573C210.545 35.2814 210.388 35.3576 210.221 35.3706C210.133 35.3767 210.045 35.3648 209.962 35.3358C209.879 35.3067 209.803 35.2611 209.738 35.2016C209.673 35.1422 209.621 35.0701 209.585 34.9899C209.549 34.9097 209.53 34.8229 209.528 34.735V33.2928C209.532 33.1288 209.597 32.9723 209.71 32.8533C209.823 32.7344 209.976 32.6616 210.139 32.6491C210.228 32.6423 210.318 32.654 210.402 32.6834C210.486 32.7128 210.564 32.7592 210.629 32.8198C210.695 32.8804 210.747 32.9538 210.783 33.0356C210.819 33.1173 210.838 33.2055 210.838 33.2948L210.832 34.7024Z" fill="#3A3A3A"/>
<path d="M200.174 35.6414H197.833C197.677 35.6503 197.522 35.6273 197.375 35.5737C197.229 35.5202 197.095 35.4372 196.982 35.33C196.869 35.2227 196.779 35.0935 196.717 34.9502C196.656 34.8069 196.624 34.6525 196.625 34.4966V28.1145C196.625 27.4158 197.173 26.9697 197.835 26.9697H200.121C200.274 26.9639 200.428 26.9894 200.572 27.0447C200.715 27.1 200.846 27.1839 200.957 27.2913C201.067 27.3987 201.154 27.5275 201.213 27.6697C201.272 27.8119 201.302 27.9646 201.3 28.1186V34.4925C201.303 34.6424 201.277 34.7914 201.221 34.9308C201.166 35.0702 201.084 35.1972 200.979 35.3042C200.874 35.4113 200.749 35.4962 200.61 35.5542C200.472 35.6121 200.323 35.6417 200.174 35.6414ZM199.982 28.2877H197.933V34.3296H199.97L199.982 28.2877Z" fill="#3A3A3A"/>
</svg>
