<svg width="242" height="40" viewBox="0 0 242 40" fill="none" xmlns="http://www.w3.org/2000/svg">
<path d="M6.48869 20.2545C5.86851 20.2618 5.25041 20.1814 4.65271 20.0158C4.14998 19.8793 3.67969 19.6435 3.2696 19.3222C2.89963 19.0266 2.60467 18.6477 2.40873 18.2166C2.20423 17.7479 2.10333 17.2406 2.11293 16.7294C2.11912 16.2896 2.17316 15.8518 2.27409 15.4238C2.38015 14.9425 2.52828 14.4715 2.71677 14.0162L3.953 14.3752C3.7826 14.7351 3.64602 15.11 3.545 15.4952C3.45514 15.8135 3.40511 16.1417 3.39608 16.4723C3.38831 16.7233 3.44753 16.9718 3.56764 17.1923C3.68774 17.4128 3.86441 17.5973 4.07947 17.7269C4.53235 18.0227 5.16882 18.1717 5.98277 18.1717H7.00276C7.88607 18.1717 8.58783 18.0432 9.10598 17.7922C9.62414 17.5413 9.92198 17.1802 9.9893 16.7171L8.02072 16.3826C7.23056 16.2534 6.63013 16.0045 6.21941 15.6359C6.01068 15.4389 5.84771 15.1985 5.74197 14.9317C5.63623 14.6649 5.5903 14.3782 5.60742 14.0917C5.61069 13.6374 5.69355 13.1872 5.85222 12.7616C6.01189 12.3183 6.24422 11.9046 6.53969 11.5376C6.83201 11.1723 7.18963 10.8644 7.59436 10.6297C8.00259 10.3931 8.46689 10.2705 8.93871 10.2747C9.44763 10.2636 9.94717 10.4128 10.3667 10.7011C10.7872 10.9977 11.126 11.3955 11.352 11.8578L9.97501 13.0818C9.83636 12.8446 9.65273 12.6367 9.43442 12.4698C9.182 12.2826 8.87334 12.1869 8.55927 12.1985C8.34918 12.1985 8.14118 12.24 7.94727 12.3209C7.75512 12.3995 7.57676 12.5084 7.41892 12.6432C7.26775 12.7716 7.14125 12.9265 7.04561 13.1002C6.95461 13.2608 6.90616 13.442 6.90485 13.6265C6.90299 13.7424 6.93553 13.8561 6.99835 13.9534C7.06118 14.0507 7.15145 14.1272 7.25776 14.1732C7.60283 14.3311 7.96915 14.4377 8.34507 14.4895L9.95258 14.7587C10.3577 14.7991 10.7314 14.9952 10.995 15.3055C11.2245 15.6706 11.3323 16.0992 11.303 16.5295C11.3132 17.0749 11.2017 17.6156 10.9766 18.1125C10.7591 18.5728 10.4345 18.9743 10.0301 19.2835C9.57898 19.6191 9.06803 19.8656 8.52459 20.0098C7.86053 20.185 7.17537 20.2674 6.48869 20.2545ZM5.34426 23.0208C5.24416 23.0248 5.14426 23.0088 5.05039 22.9738C4.95653 22.9387 4.87057 22.8854 4.79754 22.8168C4.72084 22.7268 4.6632 22.6222 4.62814 22.5093C4.59307 22.3964 4.5813 22.2775 4.59355 22.1599C4.58147 22.0426 4.59332 21.9241 4.62838 21.8116C4.66345 21.699 4.721 21.5947 4.79754 21.5051C4.87057 21.4365 4.95653 21.3831 5.05039 21.3481C5.14426 21.313 5.24416 21.2971 5.34426 21.3011H5.6013C5.7014 21.2971 5.8013 21.313 5.89517 21.3481C5.98903 21.3831 6.07498 21.4365 6.14801 21.5051C6.22415 21.595 6.28145 21.6993 6.3165 21.8118C6.35154 21.9242 6.36362 22.0426 6.35201 22.1599C6.36378 22.2775 6.35179 22.3962 6.31674 22.5091C6.2817 22.6219 6.22431 22.7265 6.14801 22.8168C6.07498 22.8854 5.98903 22.9387 5.89517 22.9738C5.8013 23.0088 5.7014 23.0248 5.6013 23.0208H5.34426ZM7.38424 23.0208C7.28416 23.0245 7.18433 23.0085 7.09049 22.9735C6.99666 22.9384 6.91068 22.8852 6.83752 22.8168C6.76122 22.7265 6.70384 22.6219 6.66879 22.5091C6.63375 22.3962 6.62176 22.2775 6.63353 22.1599C6.62192 22.0426 6.634 21.9242 6.66904 21.8118C6.70409 21.6993 6.76138 21.595 6.83752 21.5051C6.91068 21.4367 6.99666 21.3834 7.09049 21.3484C7.18433 21.3134 7.28416 21.2973 7.38424 21.3011H7.64128C7.74141 21.2968 7.84137 21.3127 7.93527 21.3478C8.02916 21.3828 8.11509 21.4363 8.18799 21.5051C8.26454 21.5947 8.32209 21.699 8.35716 21.8116C8.39222 21.9241 8.40407 22.0426 8.39199 22.1599C8.40423 22.2775 8.39247 22.3964 8.3574 22.5093C8.32233 22.6222 8.2647 22.7268 8.18799 22.8168C8.11509 22.8855 8.02916 22.9391 7.93527 22.9741C7.84137 23.0091 7.74141 23.025 7.64128 23.0208H7.38424Z" fill="#707070"/>
<path d="M10.9449 18.3255H11.5896C12.3015 18.3255 12.834 18.1663 13.191 17.8501C13.548 17.5339 13.7254 17.0056 13.7254 16.2671C13.724 16.0584 13.711 15.85 13.6867 15.6428C13.6602 15.4245 13.6255 15.192 13.5826 14.9431L13.3644 13.5273L18.1236 13.0133V14.3372C18.1164 14.5025 18.145 14.6674 18.2073 14.8207C18.2579 14.9303 18.3359 15.0252 18.4337 15.0961L18.9988 14.1189C19.2641 13.6458 19.5721 13.1979 19.9188 12.7807C20.2045 12.4378 20.5352 12.1352 20.9021 11.881C21.2346 11.6539 21.6018 11.4823 21.9894 11.3731C22.388 11.2632 22.7999 11.209 23.2134 11.2119C24.2252 11.2119 24.9841 11.4887 25.49 12.0422C25.9959 12.5957 26.2489 13.3655 26.2489 14.3515C26.2528 14.6369 26.2227 14.9218 26.1591 15.2001C26.3683 15.225 26.5788 15.2379 26.7895 15.2389H27.175V16.7832L26.7895 17.1687C26.5002 17.1701 26.2121 17.1331 25.9327 17.0586C25.6514 16.979 25.3905 16.8398 25.1677 16.6506C24.6237 16.9947 23.8437 17.1667 22.8278 17.1667H18.8907C18.195 17.1667 17.6667 16.9831 17.3076 16.6445C16.9486 16.3059 16.7466 15.7775 16.6956 15.0553L15.0351 15.2226C15.0514 15.4266 15.0677 15.6 15.08 15.7632C15.0922 15.9264 15.1004 16.0733 15.1004 16.2018C15.1076 16.7679 15.0292 17.3319 14.8678 17.8746C14.7282 18.3421 14.4966 18.777 14.1865 19.1537C13.8886 19.5077 13.512 19.7871 13.0869 19.9697C12.6122 20.1673 12.1016 20.2639 11.5875 20.2533H10.9307L10.9449 18.3255ZM19.5659 15.1614L19.6047 15.2389H22.8339C23.1745 15.2413 23.5149 15.2264 23.8539 15.194C24.0786 15.1747 24.2992 15.1224 24.5088 15.039C24.6579 14.9816 24.7831 14.8751 24.8637 14.7371C24.9374 14.5804 24.9724 14.4083 24.9657 14.2352C24.9756 14.0804 24.9481 13.9254 24.8856 13.7834C24.8231 13.6414 24.7275 13.5166 24.6067 13.4192C24.366 13.2397 23.9668 13.1499 23.4092 13.1499H23.0237C22.6831 13.1473 22.3427 13.1623 22.0037 13.1948C21.7395 13.2188 21.4796 13.2772 21.2305 13.3682C21.007 13.4518 20.7998 13.5741 20.6185 13.7293C20.4189 13.9078 20.2458 14.1139 20.1045 14.3413L19.5659 15.1614Z" fill="#707070"/>
<path d="M26.7949 15.624L27.1805 15.2384H28.5575V16.7827L28.1699 17.1683H26.7949V15.624Z" fill="#707070"/>
<path d="M28.1726 15.624L28.5582 15.2384H29.9331V16.7827L29.5476 17.1683H28.1726V15.624Z" fill="#707070"/>
<path d="M29.541 15.624L29.9266 15.2384H31.3036V16.7827L30.918 17.1683H29.541V15.624Z" fill="#707070"/>
<path d="M30.9241 15.624L31.3096 15.2384H32.6866V16.7827L32.3011 17.1683H30.9241V15.624Z" fill="#707070"/>
<path d="M32.3008 15.624L32.6863 15.2384H34.0633V16.7827L33.6757 17.1683H32.3008V15.624Z" fill="#707070"/>
<path d="M33.6765 15.624L34.0641 15.2384H35.4391V16.7827L35.0535 17.1683H33.6765V15.624Z" fill="#707070"/>
<path d="M35.0486 15.624L35.4341 15.2384H36.8111V16.7827L36.4256 17.1683H35.0486V15.624Z" fill="#707070"/>
<path d="M36.4297 15.624L36.8152 15.2384H38.1922V16.7827L37.8067 17.1683H36.4297V15.624Z" fill="#707070"/>
<path d="M37.8074 15.624L38.1929 15.2384H39.5679V16.7827L39.1823 17.1683H37.8074V15.624Z" fill="#707070"/>
<path d="M39.1821 15.624L39.5677 15.2384H40.9447V16.7827L40.5591 17.1683H39.1821V15.624Z" fill="#707070"/>
<path d="M40.5569 15.624L40.9424 15.2384H42.3194V16.7827L41.9339 17.1683H40.5569V15.624Z" fill="#707070"/>
<path d="M41.9355 15.624L42.3211 15.2384H43.6981V16.7827L43.3105 17.1683H41.9355V15.624Z" fill="#707070"/>
<path d="M43.313 15.624L43.6985 15.2384H45.0735V16.7827L44.6879 17.1683H43.313V15.624Z" fill="#707070"/>
<path d="M44.688 15.624L45.0735 15.2384H46.4505V16.7827L46.065 17.1683H44.688V15.624Z" fill="#707070"/>
<path d="M46.0647 15.624L46.4503 15.2384H47.8272V16.7827L47.4417 17.1683H46.0647V15.624Z" fill="#707070"/>
<path d="M47.4421 15.624L47.8277 15.2384H49.2047V16.7827L48.8171 17.1683H47.4421V15.624Z" fill="#707070"/>
<path d="M48.8169 15.624L49.2025 15.2384H50.5794V16.7827L50.1939 17.1683H48.8169V15.624Z" fill="#707070"/>
<path d="M50.1936 15.624L50.5792 15.2384H51.9561V16.7827L51.5706 17.1683H50.1936V15.624Z" fill="#707070"/>
<path d="M51.573 15.624L51.9586 15.2384H53.3355V16.7827L52.95 17.1683H51.573V15.624Z" fill="#707070"/>
<path d="M52.948 15.624L53.3336 15.2384H54.7105V16.7827L54.3229 17.1683H52.948V15.624Z" fill="#707070"/>
<path d="M54.3228 15.624L54.7104 15.2384H56.0853V16.7827L55.6997 17.1683H54.3228V15.624Z" fill="#707070"/>
<path d="M55.6995 15.624L56.085 15.2384H57.462V16.7827L57.0764 17.1683H55.6995V15.624Z" fill="#707070"/>
<path d="M57.0808 15.624L57.4664 15.2384H58.8434V16.7827L58.4558 17.1683H57.0808V15.624Z" fill="#707070"/>
<path d="M58.4519 15.624L58.8395 15.2384H60.2165V16.7827L59.8289 17.1683H58.4519V15.624Z" fill="#707070"/>
<path d="M59.8286 15.624L60.2142 15.2384H61.5912V16.7827L61.2056 17.1683H59.8286V15.624Z" fill="#707070"/>
<path d="M61.2051 15.624L61.5906 15.2384H62.9676V16.7827L62.5882 17.1683H61.2051V15.624Z" fill="#707070"/>
<path d="M62.5884 15.624L62.9739 15.2384H64.3448V16.7827L63.9572 17.1683H62.5884V15.624Z" fill="#707070"/>
<path d="M63.9575 15.624L64.3451 15.2384H65.7201V16.7827L65.3345 17.1683H63.9575V15.624Z" fill="#707070"/>
<path d="M65.3342 15.624L65.7198 15.2384H67.0968V16.7827L66.7112 17.1683H65.3342V15.624Z" fill="#707070"/>
<path d="M66.7119 15.624L67.0975 15.2384H68.4745V16.7827L68.0971 17.1683H66.7119V15.624Z" fill="#707070"/>
<path d="M68.0969 15.624L68.4825 15.2384H69.8513V16.7827L69.4637 17.1683H68.0969V15.624Z" fill="#707070"/>
<path d="M69.4634 15.624L69.851 15.2384H71.2259V16.7827L70.8404 17.1683H69.4634V15.624Z" fill="#707070"/>
<path d="M70.8405 15.6241L71.2261 15.2385H72.346C72.338 15.1872 72.3339 15.1354 72.3338 15.0835V14.9284C72.3338 13.8921 72.9335 13.0265 74.133 12.3315L74.949 11.8541H76.6646L77.6846 14.5817C77.7401 14.7922 77.8643 14.9781 78.0376 15.11C78.2348 15.208 78.4543 15.2523 78.674 15.2385H79.0596V16.7828L78.674 17.1684C78.213 17.1908 77.7535 17.0997 77.3358 16.9032C76.9899 16.7112 76.7066 16.4237 76.5198 16.075L76.4423 16.0872V17.1684H74.8103C74.2825 17.1945 73.759 17.0624 73.3068 16.789C72.9474 16.5605 72.6685 16.2252 72.5092 15.8301H72.3807C72.14 16.7209 71.6252 17.167 70.8364 17.1684L70.8405 15.6241ZM73.4925 14.7489C73.4847 14.8281 73.5017 14.9078 73.5412 14.9769C73.5806 15.0459 73.6406 15.101 73.7128 15.1345C73.8782 15.2081 74.0581 15.2437 74.2391 15.2385H76.1302L75.4876 13.5392L74.3166 14.0023C74.0972 14.0856 73.8911 14.2004 73.7046 14.343C73.6425 14.391 73.5921 14.4525 73.5571 14.5228C73.5221 14.5931 73.5035 14.6704 73.5027 14.7489H73.4925Z" fill="#707070"/>
<path d="M78.6614 15.6247L79.0469 15.2391H79.614C79.9404 15.2391 80.1567 15.1759 80.2628 15.0514C80.3845 14.8817 80.4416 14.674 80.4239 14.4659V7.64819H81.9682V14.4659C81.9682 15.3839 81.79 16.0639 81.4337 16.5059C81.0774 16.9479 80.4708 17.171 79.614 17.1751H78.6614V15.6247Z" fill="#707070"/>
<path d="M83.5125 7.64819H85.0547V17.1689H83.5125V7.64819Z" fill="#707070"/>
<path d="M93.7008 20.2545C93.0806 20.2618 92.4625 20.1814 91.8648 20.0158C91.3621 19.8793 90.8918 19.6434 90.4817 19.3222C90.1111 19.0271 89.8161 18.6481 89.6209 18.2165C89.411 17.7463 89.3059 17.236 89.3128 16.7212C89.3193 16.2815 89.3726 15.8439 89.4719 15.4156C89.5787 14.9343 89.7275 14.4632 89.9167 14.0079L91.1508 14.367C90.9813 14.7272 90.8447 15.1021 90.7428 15.4869C90.652 15.805 90.6019 16.1334 90.5939 16.4641C90.5862 16.7149 90.6452 16.9632 90.7649 17.1836C90.8846 17.4041 91.0607 17.5887 91.2753 17.7187C91.7295 18.0152 92.3646 18.1635 93.1806 18.1635H94.2006C94.8238 18.181 95.4452 18.0892 96.0366 17.8921C96.4517 17.7653 96.8091 17.4967 97.0464 17.1333L94.0109 16.6579V14.7281L95.5409 14.9586C95.8673 15.0117 96.159 15.0545 96.416 15.0871C96.6731 15.1218 96.9117 15.1503 97.13 15.1707C97.3483 15.1911 97.5503 15.2075 97.742 15.2157C97.9338 15.2238 98.1051 15.2299 98.2765 15.2299V16.0459L98.4948 16.3805C98.5063 16.942 98.3942 17.4992 98.1663 18.0125C97.9513 18.4846 97.6276 18.8991 97.2218 19.2222C96.7742 19.5708 96.2628 19.8286 95.7163 19.9811C95.0611 20.1684 94.3823 20.2605 93.7008 20.2545ZM92.5564 23.0207C92.4563 23.0249 92.3563 23.0091 92.2624 22.9741C92.1685 22.939 92.0826 22.8855 92.0097 22.8167C91.8718 22.6258 91.7975 22.3964 91.7975 22.1609C91.7975 21.9254 91.8718 21.6959 92.0097 21.505C92.0826 21.4362 92.1685 21.3828 92.2624 21.3477C92.3563 21.3127 92.4563 21.2968 92.5564 21.301H92.8134C92.9135 21.2972 93.0133 21.3133 93.1072 21.3484C93.201 21.3834 93.287 21.4366 93.3601 21.505C93.498 21.6959 93.5723 21.9254 93.5723 22.1609C93.5723 22.3964 93.498 22.6258 93.3601 22.8167C93.287 22.8851 93.201 22.9384 93.1072 22.9734C93.0133 23.0084 92.9135 23.0245 92.8134 23.0207H92.5564ZM94.5964 23.0207C94.4963 23.0245 94.3965 23.0084 94.3026 22.9734C94.2088 22.9384 94.1228 22.8851 94.0497 22.8167C93.9118 22.6258 93.8375 22.3964 93.8375 22.1609C93.8375 21.9254 93.9118 21.6959 94.0497 21.505C94.1228 21.4366 94.2088 21.3834 94.3026 21.3484C94.3965 21.3133 94.4963 21.2972 94.5964 21.301H94.8534C94.9535 21.297 95.0534 21.313 95.1473 21.348C95.2411 21.383 95.3271 21.4364 95.4001 21.505C95.538 21.6959 95.6122 21.9254 95.6122 22.1609C95.6122 22.3964 95.538 22.6258 95.4001 22.8167C95.3271 22.8853 95.2411 22.9387 95.1473 22.9737C95.0534 23.0087 94.9535 23.0247 94.8534 23.0207H94.5964Z" fill="#707070"/>
<path d="M97.8943 15.624L98.2798 15.2384H99.6568V16.7827L99.2692 17.1683H97.8943V15.624Z" fill="#707070"/>
<path d="M99.272 15.624L99.6575 15.2384H101.035V16.7827L100.647 17.1683H99.272V15.624Z" fill="#707070"/>
<path d="M100.647 15.624L101.034 15.2384H102.409V16.7827L102.024 17.1683H100.647V15.624Z" fill="#707070"/>
<path d="M102.023 15.624L102.409 15.2384H103.796V16.7827L103.411 17.1683H102.034L102.023 15.624Z" fill="#707070"/>
<path d="M103.4 15.624L103.786 15.2384H105.163V16.7827L104.775 17.1683H103.4V15.624Z" fill="#707070"/>
<path d="M104.776 15.624L105.163 15.2384H106.54V16.7827L106.153 17.1683H104.776V15.624Z" fill="#707070"/>
<path d="M106.152 15.624L106.538 15.2384H107.915V16.7827L107.529 17.1683H106.152V15.624Z" fill="#707070"/>
<path d="M107.529 15.624L107.915 15.2384H109.292V16.7827L108.906 17.1683H107.529V15.624Z" fill="#707070"/>
<path d="M108.907 15.624L109.292 15.2384H110.669V16.7827L110.282 17.1683H108.907V15.624Z" fill="#707070"/>
<path d="M110.281 15.624L110.669 15.2384H112.044V16.7827L111.658 17.1683H110.281V15.624Z" fill="#707070"/>
<path d="M111.658 15.624L112.044 15.2384H113.421V16.7827L113.035 17.1683H111.658V15.624Z" fill="#707070"/>
<path d="M113.035 15.624L113.42 15.2384H114.797V16.7827L114.412 17.1683H113.035V15.624Z" fill="#707070"/>
<path d="M114.404 15.624L114.79 15.2384H116.167V16.7827L115.779 17.1683H114.404V15.624Z" fill="#707070"/>
<path d="M115.787 15.624L116.175 15.2384H117.55V16.7827L117.164 17.1683H115.787V15.624Z" fill="#707070"/>
<path d="M117.164 15.624L117.55 15.2384H118.927V16.7827L118.541 17.1683H117.164V15.624Z" fill="#707070"/>
<path d="M118.542 15.624L118.927 15.2384H120.304V16.7827L119.918 17.1683H118.542V15.624Z" fill="#707070"/>
<path d="M119.912 15.624L120.297 15.2384H121.672V16.7827L121.287 17.1683H119.912V15.624Z" fill="#707070"/>
<path d="M121.293 15.624L121.679 15.2384H123.056V16.7827L122.67 17.1683H121.293V15.624Z" fill="#707070"/>
<path d="M122.67 15.6254L123.056 15.2398H124.076V15.1745C123.725 14.6736 123.54 14.0748 123.548 13.463C123.545 13.0578 123.622 12.656 123.772 12.2798C123.915 11.9216 124.123 11.5926 124.384 11.3087C124.652 11.0233 124.976 10.7966 125.336 10.6428C125.696 10.489 126.084 10.4115 126.475 10.4152C127.07 10.3884 127.66 10.5359 128.172 10.8395C128.622 11.1352 128.996 11.5321 129.266 11.9983L127.891 13.2223C127.73 12.9503 127.504 12.7225 127.234 12.5593C126.961 12.4143 126.655 12.3439 126.346 12.3553C125.952 12.3313 125.56 12.4327 125.226 12.6449C125.096 12.7388 124.992 12.8637 124.922 13.0084C124.853 13.1531 124.821 13.3129 124.829 13.4732C124.821 13.6757 124.869 13.8763 124.966 14.0541C125.064 14.2318 125.207 14.38 125.382 14.483C125.751 14.7196 126.27 14.8379 126.938 14.8379C127.175 14.8373 127.411 14.8202 127.646 14.7869C127.876 14.7564 128.104 14.7087 128.327 14.6442L129.576 14.2974L130.063 16.0334L128.172 16.6127C127.805 16.7249 127.448 16.8168 127.105 16.8902C126.731 16.9681 126.353 17.026 125.973 17.0636C125.565 17.1071 125.093 17.1371 124.557 17.1534C124.027 17.1717 123.39 17.1799 122.654 17.1799L122.67 15.6254Z" fill="#707070"/>
<path d="M131.161 7.64819H132.705V17.1689H131.161V7.64819Z" fill="#707070"/>
<path d="M132.705 18.3255H133.219C133.998 18.3255 134.57 18.1671 134.936 17.8502C135.301 17.5319 135.479 17.0056 135.471 16.2671C135.469 16.0585 135.456 15.8501 135.432 15.6429C135.406 15.4246 135.371 15.192 135.328 14.9432L135.059 13.2316L136.46 13.0133L136.654 14.2087C136.721 14.6167 136.776 15.0003 136.815 15.3471C136.848 15.6315 136.868 15.9175 136.872 16.2039C136.879 16.77 136.801 17.334 136.64 17.8767C136.5 18.3467 136.264 18.7823 135.946 19.1558C135.634 19.5137 135.242 19.7933 134.802 19.9718C134.302 20.1694 133.768 20.2658 133.231 20.2554H132.705V18.3255Z" fill="#707070"/>
<path d="M136.55 18.3255H137.065C137.847 18.3255 138.419 18.1671 138.782 17.8502C139.147 17.5319 139.325 17.0056 139.317 16.2671C139.316 16.0584 139.303 15.85 139.278 15.6429C139.251 15.4246 139.219 15.192 139.176 14.9431L138.905 13.2315L140.308 13.0133L140.5 14.2087C140.535 14.3984 140.563 14.578 140.584 14.7494C140.604 14.9207 140.624 15.0839 140.643 15.2389H141.826V16.7832L141.44 17.1688H140.643C140.542 18.0291 140.143 18.8272 139.517 19.4251C138.91 19.9799 138.094 20.2567 137.069 20.2554H136.54L136.55 18.3255ZM139.304 11.9831C139.204 11.9878 139.104 11.9721 139.01 11.937C138.916 11.9019 138.83 11.8482 138.758 11.7791C138.62 11.5882 138.546 11.3587 138.546 11.1232C138.546 10.8877 138.62 10.6582 138.758 10.4674C138.831 10.3986 138.917 10.3451 139.01 10.31C139.104 10.275 139.204 10.2591 139.304 10.2634H139.561C139.662 10.2596 139.761 10.2757 139.855 10.3107C139.949 10.3457 140.035 10.399 140.108 10.4674C140.246 10.6582 140.32 10.8877 140.32 11.1232C140.32 11.3587 140.246 11.5882 140.108 11.7791C140.035 11.848 139.949 11.9015 139.856 11.9365C139.762 11.9716 139.662 11.9874 139.561 11.9831H139.304Z" fill="#707070"/>
<path d="M141.44 15.6247L141.826 15.2391H142.391C142.717 15.2391 142.933 15.1759 143.041 15.0514C143.162 14.8813 143.219 14.674 143.202 14.4659V7.64819H144.745V14.4659C144.745 15.3839 144.567 16.0639 144.212 16.5059C143.857 16.9479 143.25 17.171 142.391 17.1751H141.44V15.6247Z" fill="#707070"/>
<path d="M146.289 7.64819H147.834V17.1689H146.289V7.64819Z" fill="#707070"/>
<path d="M157.185 17.3219C156.395 17.3319 155.606 17.2807 154.824 17.1689C154.281 17.097 153.755 16.9248 153.274 16.661C152.902 16.4485 152.604 16.1275 152.419 15.7409C152.23 15.2979 152.14 14.819 152.154 14.3374C152.159 13.9562 152.205 13.5767 152.291 13.2052C152.383 12.7872 152.509 12.3778 152.67 11.9812L153.904 12.3423C153.767 12.6131 153.653 12.8949 153.564 13.1848C153.488 13.4196 153.447 13.6643 153.441 13.911C153.433 14.1296 153.487 14.346 153.596 14.5353C153.718 14.7195 153.893 14.8619 154.098 14.9433C154.39 15.0609 154.697 15.1365 155.01 15.1677C155.476 15.2197 155.945 15.2435 156.414 15.2391H158.215C158.788 15.2391 159.263 15.2248 159.643 15.2003C159.943 15.1862 160.241 15.1384 160.53 15.0576C160.708 15.0155 160.867 14.9193 160.987 14.7821C161.077 14.6518 161.122 14.4957 161.116 14.3374V7.64819H162.658V14.3374C162.658 14.9494 163.003 15.2391 163.688 15.2391H164.074V16.7834L163.688 17.1689C162.993 17.1689 162.45 17.0282 162.056 16.7507C161.638 16.4259 161.36 15.9538 161.279 15.4308H161.201C161.146 15.7492 161.023 16.0519 160.84 16.3183C160.651 16.5735 160.399 16.7752 160.108 16.9037C159.73 17.0716 159.329 17.1803 158.919 17.2261C158.343 17.2964 157.764 17.3284 157.185 17.3219ZM156.067 13.1665L158.086 12.2158L158.06 12.126H157.04C156.787 12.1419 156.536 12.0738 156.326 11.9322C156.159 11.8037 156.075 11.5671 156.075 11.2243C156.07 11.0883 156.093 10.9526 156.144 10.8264C156.195 10.7002 156.272 10.5862 156.371 10.492C156.629 10.2559 156.914 10.0505 157.219 9.87996L158.068 9.39242L158.531 10.1636L156.948 11.0509L156.975 11.155H157.978C158.234 11.139 158.489 11.1994 158.711 11.3284C158.803 11.4022 158.875 11.4981 158.92 11.6073C158.966 11.7164 158.983 11.8352 158.97 11.9527C158.98 12.23 158.885 12.5009 158.704 12.7115C158.474 12.948 158.201 13.1396 157.901 13.2766L156.499 13.9845L156.067 13.1665Z" fill="#707070"/>
<path d="M163.682 15.624L164.067 15.2384H165.444V16.7827L165.057 17.1683H163.682V15.624Z" fill="#707070"/>
<path d="M165.057 15.624L165.444 15.2384H166.831V16.7827L166.444 17.1683H165.057V15.624Z" fill="#707070"/>
<path d="M166.433 15.624L166.821 15.2384H168.196V16.7827L167.81 17.1683H166.433V15.624Z" fill="#707070"/>
<path d="M167.811 15.624L168.197 15.2384H169.574V16.7827L169.188 17.1683H167.811V15.624Z" fill="#707070"/>
<path d="M169.188 15.624L169.573 15.2384H170.95V16.7827L170.563 17.1683H169.188V15.624Z" fill="#707070"/>
<path d="M170.562 15.624L170.95 15.2384H172.325V16.7827L171.939 17.1683H170.562V15.624Z" fill="#707070"/>
<path d="M171.932 15.624L172.317 15.2384H173.694V16.7827L173.309 17.1683H171.932V15.624Z" fill="#707070"/>
<path d="M173.317 15.624L173.702 15.2384H175.079V16.7827L174.694 17.1683H173.317V15.624Z" fill="#707070"/>
<path d="M174.693 15.624L175.079 15.2384H176.456V16.7827L176.068 17.1683H174.693V15.624Z" fill="#707070"/>
<path d="M176.068 15.624L176.456 15.2384H177.831V16.7827L177.445 17.1683H176.068V15.624Z" fill="#707070"/>
<path d="M177.439 15.624L177.825 15.2384H179.202V16.7827L178.816 17.1683H177.439V15.624Z" fill="#707070"/>
<path d="M178.823 15.624L179.208 15.2384H180.585V16.7827L180.199 17.1683H178.823V15.624Z" fill="#707070"/>
<path d="M180.199 15.624L180.585 15.2384H181.962V16.7827L181.574 17.1683H180.199V15.624Z" fill="#707070"/>
<path d="M181.575 15.624L181.96 15.2384H183.337V16.7827L182.952 17.1683H181.575V15.624Z" fill="#707070"/>
<path d="M182.947 15.624L183.333 15.2384H184.71V16.7827L184.324 17.1683H182.947V15.624Z" fill="#707070"/>
<path d="M184.328 15.624L184.714 15.2384H185.1C185.785 15.2384 186.13 14.9385 186.13 14.3367V12.5007H187.543V14.3367C187.543 14.9392 187.844 15.2397 188.445 15.2384H188.959V16.7827L188.574 17.1682C187.886 17.1682 187.366 17.0275 187.011 16.75C186.62 16.4118 186.366 15.9424 186.297 15.4301H186.211C186.091 16.0319 185.885 16.4705 185.599 16.75C185.246 17.05 184.789 17.2001 184.326 17.1682L184.328 15.624ZM186.707 11.4684C186.607 11.4722 186.507 11.4561 186.413 11.4211C186.319 11.386 186.234 11.3328 186.16 11.2644C186.022 11.0735 185.948 10.844 185.948 10.6085C185.948 10.3731 186.022 10.1436 186.16 9.95271C186.234 9.88431 186.319 9.83103 186.413 9.79602C186.507 9.76101 186.607 9.74495 186.707 9.7487H186.966C187.066 9.74495 187.166 9.76101 187.26 9.79602C187.354 9.83103 187.44 9.88431 187.513 9.95271C187.651 10.1436 187.725 10.3731 187.725 10.6085C187.725 10.844 187.651 11.0735 187.513 11.2644C187.44 11.3328 187.354 11.386 187.26 11.4211C187.166 11.4561 187.066 11.4722 186.966 11.4684H186.707Z" fill="#707070"/>
<path d="M188.574 15.6244L188.959 15.2388H189.345C190.03 15.2388 190.365 14.9389 190.365 14.3371V12.5011H191.778V14.3371C191.778 14.9396 192.079 15.2401 192.68 15.2388H193.194V16.7831L192.809 17.1686C192.121 17.1686 191.601 17.0279 191.246 16.7504C190.855 16.4122 190.601 15.9428 190.532 15.4305H190.455C190.334 16.0323 190.128 16.4709 189.843 16.7504C189.489 17.0504 189.032 17.2005 188.57 17.1686L188.574 15.6244ZM190.952 19.9349C190.852 19.9387 190.752 19.9226 190.659 19.8875C190.565 19.8525 190.479 19.7993 190.406 19.7309C190.267 19.5397 190.193 19.3099 190.193 19.074C190.193 18.8382 190.267 18.6083 190.406 18.4171C190.479 18.3487 190.565 18.2953 190.658 18.2603C190.752 18.2253 190.852 18.2093 190.952 18.2131H191.211C191.311 18.2093 191.411 18.2253 191.505 18.2603C191.599 18.2953 191.685 18.3487 191.758 18.4171C191.896 18.6083 191.97 18.8382 191.97 19.074C191.97 19.3099 191.896 19.5397 191.758 19.7309C191.685 19.7993 191.599 19.8525 191.505 19.8875C191.411 19.9226 191.311 19.9387 191.211 19.9349H190.952Z" fill="#707070"/>
<path d="M192.819 15.6247L193.205 15.2391H193.77C194.096 15.2391 194.312 15.1759 194.42 15.0514C194.541 14.8813 194.598 14.674 194.582 14.4659V7.64819H196.124V14.4659C196.124 15.3839 195.946 16.0639 195.591 16.5059C195.236 16.9479 194.629 17.171 193.77 17.1751H192.819V15.6247Z" fill="#707070"/>
<path d="M197.668 7.64819H199.212V17.1689H197.668V7.64819Z" fill="#707070"/>
<path d="M6.26477 32.6342L5.62014 30.4983H2.62341L1.98082 32.6342H0L2.95797 23.6581H5.37535L8.29659 32.6342H6.26477ZM4.14116 25.4288H4.07792L3.08649 28.8377H5.14483L4.14116 25.4288Z" fill="#707070"/>
<path d="M15.2427 31.2054H15.1794C15.1449 31.431 15.0656 31.6474 14.9461 31.8418C14.8267 32.0363 14.6695 32.2049 14.4838 32.3376C14.0121 32.6603 13.4469 32.8181 12.8763 32.7864C12.3807 32.7907 11.8899 32.6899 11.4361 32.4906C10.9846 32.2912 10.5843 31.9919 10.2651 31.6154C9.91004 31.1924 9.64302 30.7027 9.47973 30.1752C9.28082 29.5299 9.18512 28.8572 9.19617 28.1821C9.18562 27.5013 9.28552 26.8235 9.49197 26.1747C9.66552 25.6342 9.94811 25.1349 10.3222 24.7079C10.6759 24.3152 11.1139 24.0077 11.6034 23.8083C12.1302 23.596 12.6939 23.4906 13.2619 23.4982C13.9915 23.4783 14.7126 23.6589 15.3467 24.0204C15.952 24.3914 16.4318 24.9359 16.7237 25.5831L15.1284 26.497C14.9931 26.1486 14.7712 25.8404 14.4838 25.6015C14.1327 25.3372 13.6984 25.2076 13.2598 25.2363C12.9949 25.2228 12.7299 25.2624 12.4805 25.3528C12.231 25.4432 12.0022 25.5825 11.8073 25.7626C11.4456 26.1149 11.2654 26.6684 11.2668 27.4232V28.8634C11.2668 29.6101 11.447 30.1609 11.8073 30.5159C12.0008 30.6984 12.2293 30.8398 12.4789 30.9316C12.7285 31.0235 12.9942 31.0639 13.2598 31.0503C13.4895 31.0513 13.7185 31.0232 13.9412 30.9667C14.1445 30.9168 14.3367 30.8296 14.5083 30.7097C14.6638 30.6039 14.7935 30.4644 14.8877 30.3017C14.9811 30.1231 15.0275 29.9237 15.0224 29.7223V29.2714H13.3496V27.6394H16.893V32.6334H15.2447L15.2427 31.2054Z" fill="#707070"/>
<path d="M20.7485 32.635H18.7942V23.6589H23.0516C23.4347 23.6532 23.8151 23.7225 24.1716 23.8629C24.4961 23.9928 24.7879 24.1928 25.0263 24.4484C25.268 24.7102 25.454 25.0183 25.573 25.3542C25.7059 25.7301 25.7715 26.1265 25.7668 26.5251C25.7792 27.0842 25.638 27.6359 25.3588 28.1204C25.0791 28.5837 24.6461 28.9344 24.1349 29.1119L25.8974 32.637H23.7228L22.154 29.3424H20.7505L20.7485 32.635ZM22.8068 27.6941C23.0566 27.708 23.3026 27.6279 23.4963 27.4696C23.5836 27.3838 23.6512 27.2801 23.6945 27.1657C23.7379 27.0512 23.7558 26.9287 23.7473 26.8066V26.2395C23.7558 26.1177 23.7378 25.9956 23.6945 25.8815C23.6512 25.7673 23.5835 25.664 23.4963 25.5785C23.3033 25.4188 23.057 25.3379 22.8068 25.3521H20.7485V27.6941H22.8068Z" fill="#707070"/>
<path d="M27.1177 32.6342V31.0776H28.2764V25.2085H27.1177V23.6581H31.3894V25.2146H30.2307V31.0817H31.3894V32.6342H27.1177Z" fill="#707070"/>
<path d="M36.6501 32.7861C36.088 32.795 35.5292 32.6967 35.0039 32.4964C34.5256 32.3121 34.0978 32.0171 33.7554 31.6355C33.3928 31.2204 33.1211 30.734 32.9578 30.2075C32.7572 29.5598 32.6614 28.8842 32.6742 28.2062C32.6633 27.5244 32.759 26.845 32.9578 26.1927C33.1215 25.6511 33.3928 25.1481 33.7554 24.7137C34.0944 24.3176 34.5221 24.0072 35.0039 23.808C35.5262 23.5949 36.0861 23.4894 36.6501 23.4979C37.3705 23.4693 38.0842 23.6454 38.7085 24.0058C39.2924 24.3973 39.7451 24.9553 40.008 25.6073L38.3229 26.4824C38.2212 26.1354 38.0273 25.8223 37.7619 25.5766C37.4469 25.3281 37.0503 25.2066 36.6501 25.236C36.393 25.2247 36.1365 25.2687 35.8979 25.3652C35.6592 25.4616 35.4441 25.6082 35.267 25.7949C34.9202 26.1689 34.7468 26.7129 34.7468 27.4269V28.8672C34.7468 29.5785 34.9202 30.1225 35.267 30.4992C35.4444 30.6857 35.6595 30.832 35.8981 30.9284C36.1366 31.0249 36.3931 31.0691 36.6501 31.0582C37.0696 31.0792 37.4812 30.9391 37.8007 30.6665C38.0863 30.4071 38.3047 30.0823 38.4372 29.7199L40.0324 30.6461C39.7409 31.2787 39.2886 31.8238 38.7207 32.2271C38.1041 32.6213 37.3813 32.8164 36.6501 32.7861Z" fill="#707070"/>
<path d="M43.2491 23.6581V29.1661C43.2491 29.7999 43.3736 30.2759 43.6225 30.5941C43.8713 30.9124 44.2868 31.0688 44.8689 31.0634C45.4523 31.0634 45.8685 30.9069 46.1174 30.5941C46.3662 30.2813 46.4907 29.8053 46.4907 29.1661V23.6581H48.394V28.9621C48.4036 29.5402 48.3412 30.1172 48.2083 30.6798C48.1054 31.1224 47.8952 31.533 47.5963 31.8753C47.2989 32.1988 46.9219 32.4386 46.5029 32.5709C45.9743 32.7321 45.4234 32.8079 44.8709 32.7953C44.3184 32.808 43.7675 32.7322 43.2389 32.5709C42.8199 32.4386 42.4429 32.1988 42.1455 31.8753C41.8466 31.533 41.6365 31.1224 41.5335 30.6798C41.4007 30.1172 41.3383 29.5402 41.3479 28.9621V23.6581H43.2491Z" fill="#707070"/>
<path d="M50.3242 32.6342V23.6581H52.2806V30.9001H55.7016V32.6342H50.3242Z" fill="#707070"/>
<path d="M60.8875 25.388V32.6342H58.9312V25.3901H56.4995V23.6581H63.3192V25.3941L60.8875 25.388Z" fill="#707070"/>
<path d="M66.507 23.6581V29.1661C66.507 29.7999 66.6315 30.2759 66.8803 30.5941C67.1292 30.9124 67.5454 31.0688 68.1288 31.0634C68.7122 31.0634 69.1284 30.9069 69.3773 30.5941C69.6261 30.2813 69.7506 29.8053 69.7506 29.1661V23.6581H71.6539V28.9621C71.6629 29.5403 71.5998 30.1173 71.4662 30.6798C71.3642 31.1228 71.1539 31.5335 70.8542 31.8753C70.5561 32.1979 70.1793 32.4376 69.7608 32.5709C69.2321 32.7318 68.6813 32.8076 68.1288 32.7953C67.5763 32.8076 67.0255 32.7318 66.4968 32.5709C66.078 32.4381 65.7012 32.1983 65.4034 31.8753C65.1045 31.533 64.8943 31.1224 64.7914 30.6798C64.6595 30.117 64.5972 29.5401 64.6058 28.9621V23.6581H66.507Z" fill="#707070"/>
<path d="M75.5385 32.635H73.5842V23.6589H77.8417C78.2247 23.6532 78.6052 23.7225 78.9616 23.8629C79.2859 23.9933 79.5776 24.1932 79.8164 24.4484C80.058 24.7102 80.244 25.0183 80.3631 25.3542C80.4994 25.7295 80.5684 26.1259 80.5671 26.5251C80.5794 27.0842 80.4383 27.6359 80.1591 28.1204C79.8794 28.5837 79.4463 28.9344 78.9351 29.1119L80.6854 32.635H78.5108L76.942 29.3404H75.5385V32.635ZM77.5969 27.6941C77.8467 27.708 78.0926 27.6279 78.2864 27.4696C78.3736 27.3838 78.4413 27.2801 78.4846 27.1657C78.5279 27.0512 78.5459 26.9287 78.5373 26.8066V26.2395C78.5475 26.1182 78.5312 25.9961 78.4897 25.8816C78.4481 25.7671 78.3822 25.663 78.2966 25.5765C78.1035 25.4168 77.8572 25.3359 77.6071 25.3501H75.5385V27.692L77.5969 27.6941Z" fill="#707070"/>
<path d="M87.7863 32.6342L87.1437 30.4983H84.1449L83.5023 32.6342H81.5215L84.4795 23.6581H86.8989L89.8181 32.6342H87.7863ZM85.6626 25.4288H85.5994L84.608 28.8377H86.6602L85.6626 25.4288Z" fill="#707070"/>
<path d="M91.0671 32.6342V23.6581H93.0214V30.9001H96.4527V32.6342H91.0671Z" fill="#707070"/>
<path d="M100.92 23.6581H105.281C106.028 23.6581 106.609 23.8682 107.026 24.2885C107.237 24.5107 107.402 24.7735 107.509 25.061C107.616 25.3485 107.664 25.6547 107.65 25.9613C107.657 26.2589 107.611 26.5554 107.513 26.8364C107.435 27.056 107.313 27.2573 107.154 27.428C107.006 27.5799 106.825 27.6963 106.626 27.7687C106.417 27.8424 106.198 27.8837 105.977 27.8911V27.9666C106.207 27.9693 106.435 28.0085 106.652 28.0829C106.89 28.1623 107.11 28.287 107.301 28.4501C107.509 28.6302 107.677 28.851 107.797 29.0988C107.939 29.4051 108.009 29.7402 108.001 30.078C108.002 30.4175 107.943 30.7546 107.827 31.0736C107.718 31.3734 107.555 31.6501 107.344 31.8896C107.14 32.1201 106.891 32.3062 106.611 32.4363C106.322 32.5721 106.005 32.6418 105.685 32.6403H100.92V23.6581ZM102.876 27.3301H104.816C104.926 27.3391 105.036 27.3241 105.139 27.2862C105.242 27.2484 105.335 27.1886 105.413 27.111C105.491 27.0333 105.551 26.9397 105.588 26.8366C105.626 26.7336 105.641 26.6235 105.632 26.5141V26.1286C105.641 26.0191 105.626 25.909 105.588 25.806C105.551 25.7029 105.491 25.6093 105.413 25.5317C105.335 25.4541 105.242 25.3942 105.139 25.3564C105.036 25.3185 104.926 25.3036 104.816 25.3126H102.874L102.876 27.3301ZM102.876 30.9838H105.12C105.343 30.999 105.563 30.9257 105.732 30.7798C105.81 30.7017 105.87 30.6081 105.909 30.505C105.947 30.402 105.964 30.2919 105.957 30.1821V29.7455C105.963 29.6354 105.947 29.525 105.908 29.4217C105.87 29.3183 105.81 29.2243 105.732 29.1457C105.563 29.0006 105.343 28.9274 105.12 28.9417H102.876V30.9838Z" fill="#707070"/>
<path d="M115.033 32.6342L114.39 30.4983H111.393L110.749 32.6342H108.768L111.728 23.6581H114.145L117.066 32.6342H115.033ZM112.911 25.4288H112.846L111.856 28.8377H113.915L112.911 25.4288Z" fill="#707070"/>
<path d="M121.055 28.3868L120.192 26.5855H120.153V32.6342H118.317V23.6581H120.453L122.911 27.9034L123.772 29.7047H123.811V23.6581H125.647V32.6342H123.511L121.055 28.3868Z" fill="#707070"/>
<path d="M130.753 28.7214L129.584 30.1351V32.6342H127.627V23.6581H129.584V27.9299H129.659L130.934 26.1918L132.954 23.6581H135.167L132.152 27.3444L135.436 32.6342H133.133L130.753 28.7214Z" fill="#707070"/>
<path d="M143.219 32.7849C142.665 32.7923 142.115 32.6919 141.599 32.4891C141.119 32.2996 140.691 31.9973 140.351 31.6078C139.989 31.1833 139.717 30.689 139.553 30.1554C139.175 28.8397 139.175 27.4441 139.553 26.1284C139.717 25.5942 139.989 25.0991 140.351 24.6738C140.691 24.2854 141.119 23.9834 141.599 23.7925C142.644 23.3981 143.796 23.3981 144.841 23.7925C145.32 23.9841 145.747 24.2861 146.087 24.6738C146.451 25.0986 146.722 25.5938 146.885 26.1284C147.263 27.4441 147.263 28.8397 146.885 30.1554C146.722 30.6893 146.45 31.1838 146.087 31.6078C145.748 31.9968 145.321 32.299 144.841 32.4891C144.325 32.6918 143.774 32.7923 143.219 32.7849ZM143.219 31.0489C143.478 31.0627 143.738 31.0178 143.977 30.9175C144.216 30.8172 144.43 30.664 144.602 30.4695C144.933 30.0846 145.098 29.5318 145.098 28.811V27.4727C145.098 26.7526 144.933 26.1977 144.602 25.8122C144.421 25.6294 144.206 25.4842 143.968 25.3852C143.731 25.2862 143.476 25.2351 143.219 25.2351C142.962 25.2351 142.707 25.2862 142.47 25.3852C142.232 25.4842 142.017 25.6294 141.836 25.8122C141.506 26.1977 141.34 26.7526 141.34 27.4727V28.811C141.34 29.5304 141.506 30.0833 141.836 30.4695C142.008 30.664 142.222 30.8172 142.461 30.9175C142.701 31.0178 142.96 31.0627 143.219 31.0489Z" fill="#707070"/>
<path d="M148.802 32.6342V23.6581H154.759V25.3941H150.759V27.2302H154.168V28.9621H150.759V32.6342H148.802Z" fill="#707070"/>
<path d="M159.363 32.6342V23.6581H165.483V25.3941H161.324V27.2302H164.888V28.9621H161.324V30.9042H165.479V32.6342H159.363Z" fill="#707070"/>
<path d="M172.872 31.2054H172.806C172.772 31.4309 172.693 31.6472 172.574 31.8417C172.455 32.0362 172.298 32.2048 172.113 32.3376C171.64 32.6602 171.075 32.8179 170.503 32.7864C170.008 32.7905 169.517 32.6897 169.063 32.4906C168.612 32.2906 168.212 31.9914 167.892 31.6154C167.537 31.1928 167.271 30.703 167.109 30.1752C166.909 29.5301 166.813 28.8573 166.825 28.1821C166.814 27.5013 166.914 26.8232 167.121 26.1747C167.294 25.6338 167.576 25.1344 167.951 24.7079C168.304 24.3148 168.741 24.0072 169.23 23.8083C169.758 23.5961 170.322 23.4907 170.891 23.4982C171.62 23.4783 172.34 23.6589 172.974 24.0204C173.579 24.3914 174.059 24.9359 174.351 25.5831L172.755 26.497C172.622 26.1483 172.4 25.84 172.113 25.6015C171.761 25.338 171.327 25.2085 170.889 25.2363C170.624 25.2228 170.358 25.2624 170.109 25.3527C169.859 25.4431 169.63 25.5825 169.434 25.7626C169.075 26.1156 168.894 26.6684 168.894 27.4232V28.8634C168.894 29.6101 169.075 30.1609 169.434 30.5159C169.628 30.6984 169.857 30.8399 170.107 30.9318C170.357 31.0236 170.623 31.0639 170.889 31.0503C171.119 31.0512 171.348 31.0231 171.57 30.9667C171.773 30.9168 171.964 30.8296 172.135 30.7097C172.291 30.6034 172.421 30.4641 172.517 30.3017C172.61 30.1231 172.657 29.9237 172.651 29.7223V29.2715H170.979V27.6394H174.516V32.6334H172.87L172.872 31.2054Z" fill="#707070"/>
<path d="M178.622 32.6342V29.1213L175.546 23.6581H177.735L179.663 27.2342H179.683L181.535 23.6581H183.659L180.585 29.1131V32.6342H178.622Z" fill="#707070"/>
<path d="M184.771 32.6335V23.6574H189.017C189.404 23.649 189.789 23.7184 190.149 23.8614C190.472 23.9943 190.763 24.1938 191.004 24.4469C191.247 24.7075 191.433 25.016 191.55 25.3527C191.809 26.1099 191.809 26.9313 191.55 27.6885C191.433 28.0231 191.246 28.3295 191.004 28.5881C190.763 28.8412 190.472 29.0408 190.149 29.1736C189.789 29.3177 189.404 29.3871 189.017 29.3776H186.728V32.6335H184.771ZM186.728 27.6926H188.786C189.035 27.7062 189.281 27.6261 189.474 27.4682C189.561 27.3824 189.629 27.2787 189.672 27.1642C189.715 27.0497 189.733 26.9272 189.725 26.8052V26.238C189.733 26.1163 189.715 25.9941 189.672 25.88C189.628 25.7659 189.561 25.6625 189.474 25.5771C189.281 25.4176 189.036 25.3368 188.786 25.3506H186.728V27.6926Z" fill="#707070"/>
<path d="M196.954 25.388V32.6342H194.998V25.3901H192.568V23.6581H199.386V25.3941L196.954 25.388Z" fill="#707070"/>
<path d="M224.137 33.4496C223.143 32.1583 222.317 31.1077 220.873 30.5528C220.046 30.2256 219.201 29.9436 218.343 29.7082L216.283 29.1615C214.961 28.8126 213.684 28.27 212.815 27.1929C212.237 26.5335 211.805 25.7598 211.546 24.9223C211.297 24.1782 211.152 23.4031 211.116 22.6191L211.089 2.38623C211.169 2.30871 211.536 2.26791 211.536 2.38623L211.575 21.5298C211.575 22.2377 211.779 22.7069 212.285 23.1149C213.129 23.7962 214.19 24.1349 215.267 24.3756L219.361 25.2589C221.589 25.7404 223.209 27.3907 223.759 29.5919C224.059 30.7976 224.324 32.0216 224.137 33.4496Z" fill="#3A3A3A"/>
<path d="M224.755 32.6504C224.755 30.5961 225.077 28.9294 226.305 27.2606C227.231 25.9999 228.722 25.3981 230.252 25.0839L232.023 24.7208L234.426 24.1741C235.571 23.915 237.309 23.0888 237.319 21.6689L237.396 10.7671L237.447 2.45199C237.447 2.36223 237.651 2.32752 237.808 2.36628L237.753 22.9705C237.735 23.8341 237.545 24.6854 237.194 25.4751C236.844 26.2647 236.341 26.977 235.713 27.5707C234.781 28.45 233.859 28.8477 232.678 29.1415C230.981 29.5658 229.306 30.0065 227.698 30.7001C226.415 31.255 225.685 32.3035 224.797 33.4337C224.685 33.1685 224.767 32.9319 224.755 32.6504Z" fill="#3A3A3A"/>
<path d="M218.096 20.3063C221.221 20.8285 223.366 21.8995 223.706 25.341C223.813 25.8896 223.804 26.4546 223.68 26.9995C222.717 25.7347 221.691 24.9758 220.297 24.5801L215.918 23.3316C213.323 22.5931 212.317 20.0676 212.315 17.4339V2.58256C212.315 2.41323 212.456 2.29085 212.505 2.29697C212.567 2.32055 212.623 2.35908 212.667 2.40923C212.711 2.45939 212.742 2.51961 212.758 2.5846L212.802 17.2319C212.802 18.0602 212.919 18.6742 213.661 19.1536C214.522 19.7126 215.671 19.9003 216.721 20.0757L218.096 20.3063Z" fill="#3A3A3A"/>
<path d="M225.185 27.0301C224.898 23.7518 226.162 21.3181 229.398 20.6041L230.503 20.3573L231.68 20.1736C232.815 19.9941 235.905 19.5392 236.017 18.0541C236.142 16.4363 236.113 14.9124 236.121 13.2926L236.177 2.42751C236.177 2.30307 236.57 2.3337 236.57 2.46018V17.6991C236.57 20.1471 235.481 22.6155 233.053 23.3112L228.502 24.6168C227.639 24.8636 226.752 25.2982 226.152 25.9612L225.185 27.0301Z" fill="#3A3A3A"/>
<path d="M215.162 15.7688C217.963 16.6603 221.996 16.4012 222.865 19.8733C223.062 20.6241 223.131 21.4028 223.069 22.1765C222.515 21.589 222.107 20.9974 221.417 20.6159C219.173 19.3776 217.172 19.7815 215.356 18.5126C214.808 18.1216 214.362 17.6044 214.056 17.0047C213.75 16.405 213.593 15.7403 213.598 15.067L213.561 2.36792C213.702 2.32712 213.816 2.27612 213.843 2.31896C213.9 2.42923 213.936 2.54988 213.947 2.67392C213.932 4.96282 213.926 7.24153 213.967 9.51206L214.059 14.6509C214.067 15.167 214.679 15.6158 215.162 15.7688Z" fill="#3A3A3A"/>
<path d="M234.151 18.0196C231.356 20.4676 227.919 18.9029 225.923 22.1792C225.595 21.9079 225.987 20.1045 226.056 19.8209C226.988 15.9959 231.931 16.7364 234.287 15.5369C234.636 15.3594 234.952 14.6291 234.952 14.2047L234.93 2.62355C234.934 2.55771 234.954 2.49385 234.988 2.43712C235.021 2.3804 235.068 2.33243 235.124 2.29717C235.195 2.27473 235.34 2.47261 235.34 2.55013V4.69419L235.36 9.56573V13.6458C235.36 14.778 235.33 15.9184 234.871 16.9404C234.702 17.3431 234.458 17.7095 234.151 18.0196Z" fill="#3A3A3A"/>
<path d="M235.56 39.9959L233.39 38.2782C233.247 38.166 233.053 38.0232 232.908 37.9293C232.763 37.8355 232.474 38.0456 232.335 38.1558L230.022 39.9918L227.959 38.3904C227.71 38.193 227.452 38.0085 227.184 37.8375L224.438 39.9898L222.545 38.4985L221.692 37.8192L219.336 39.6348C219.071 39.8388 218.855 39.9755 218.577 39.7592L216.08 37.8294L214.328 39.184L213.308 40L210.511 37.8396L207.847 39.8796C207.783 39.7165 207.776 39.5364 207.827 39.3689C207.879 39.2014 207.986 39.0563 208.131 38.9575L210.517 37.1092L213.265 39.2166C213.701 38.9543 214.115 38.6583 214.503 38.3312L216.082 37.0889L218.875 39.2737L221.627 37.1215L224.032 38.9412C224.163 39.0411 224.465 39.286 224.603 39.1799L227.255 37.1154L229.975 39.288L232.794 37.1072L235.13 38.9432C235.393 39.1472 235.615 39.2798 235.909 39.0493L238.357 37.1276L240.97 39.1676C241.097 39.2676 241.046 39.7266 240.993 39.8878L238.341 37.8477L235.56 39.9959Z" fill="#3A3A3A"/>
<path d="M239.047 36.1267C238.816 35.9431 238.53 35.686 238.271 35.6942L235.579 37.7852L232.798 35.6065L231.274 36.7978C230.87 37.1511 230.435 37.4679 229.975 37.7444L228.367 36.5102L227.223 35.6228L224.446 37.7954L221.656 35.6085L218.89 37.773L217.912 37.0263L216.764 36.1307C216.548 35.9635 216.311 35.8207 216.058 35.6493L213.329 37.7709L210.505 35.6065L207.914 37.6465C207.79 37.469 207.749 37.0508 207.886 36.9447L210.526 34.8823L213.294 37.059L216.099 34.9007L218.853 37.0325L220.438 35.8472C220.819 35.5616 221.158 35.2617 221.617 34.8762L224.442 37.0386L226.05 35.8247L227.247 34.8823L229.899 36.9774C230.042 37.0916 230.393 36.7734 230.532 36.6714L232.776 34.8925L234.64 36.3205L235.597 37.0549L238.353 34.8721L240.77 36.753C241.052 36.9733 241.193 37.3017 240.942 37.6445L239.047 36.1267Z" fill="#3A3A3A"/>
<path d="M219.667 13.2774C221.731 13.7568 222.786 15.6418 222.464 17.7654C220.821 15.3439 218.357 16.1538 216.548 14.9746C215.036 13.9852 214.767 12.7898 214.779 11.0394L214.836 2.23474C215.369 3.12419 214.773 4.01569 215.13 4.89902L215.177 11.1476C215.187 12.5042 216.75 12.7531 217.859 12.955L219.667 13.2774Z" fill="#3A3A3A"/>
<path d="M226.399 17.7563C226.183 17.0893 226.582 15.5551 226.899 14.9676C228.155 12.6195 231.268 13.4233 233.325 12.2401C233.879 11.3874 233.671 10.1471 233.796 8.66601C233.975 6.50563 233.608 4.41053 233.983 2.23792L234.063 11.9505C234.062 12.8797 233.7 13.7721 233.053 14.4393C231.05 16.4242 228.365 15.0084 226.399 17.7563Z" fill="#3A3A3A"/>
<path d="M220.349 10.3985C221.573 10.782 222.305 13.0892 222.078 14.1541C220.155 11.6347 217.833 12.8261 216.613 10.9269C216.067 10.0782 215.93 9.13163 215.93 8.05858V2.5709C215.94 2.51366 215.963 2.45933 215.996 2.41147C216.029 2.36362 216.072 2.32339 216.122 2.29349C216.169 2.27513 216.309 2.40566 216.309 2.52194L216.328 8.39516C216.328 9.13773 216.903 9.47025 217.478 9.61917C218.47 9.86805 219.357 10.0904 220.349 10.3985Z" fill="#3A3A3A"/>
<path d="M228.002 13.0346C227.578 13.2875 227.301 13.7057 226.85 14.1219C226.607 12.9754 227.335 10.8048 228.649 10.3784C229.583 10.0765 230.536 9.85624 231.489 9.60124C232.101 9.43804 232.564 9.14427 232.564 8.4221V2.37342L232.904 2.34692L232.923 7.98551C232.923 9.00552 232.894 10.0133 232.311 10.8925C231.35 12.3593 229.526 12.1329 228.002 13.0346Z" fill="#3A3A3A"/>
<path d="M223.633 8.37224L223.798 5.88746L224.045 2.67239L224.282 0.612005C224.31 0.396906 224.38 0.189206 224.486 0C224.674 0.646813 224.79 1.31255 224.831 1.98493L225.075 4.97966L225.279 8.20086C225.312 8.72106 225.075 9.125 224.594 9.23516C224.471 9.25764 224.345 9.25168 224.225 9.21778C224.105 9.18389 223.994 9.12296 223.902 9.03963C223.809 8.9563 223.736 8.85281 223.69 8.73711C223.643 8.62142 223.624 8.49661 223.633 8.37224Z" fill="#3A3A3A"/>
</svg>
