<svg width="242" height="40" viewBox="0 0 242 40" fill="none" xmlns="http://www.w3.org/2000/svg">
<path d="M0.766846 18.3543H1.28204C2.06505 18.3543 2.63749 18.1949 3.00344 17.878C3.36939 17.5611 3.54726 17.0316 3.53908 16.2915C3.53864 16.0824 3.52567 15.8735 3.50024 15.6659C3.47366 15.4472 3.44095 15.2141 3.39802 14.9647L3.12611 13.2494L4.53267 13.0306L4.72485 14.2287C4.7596 14.4188 4.78822 14.5987 4.80867 14.7704C4.82911 14.9422 4.84956 15.1057 4.86796 15.2611H6.05372V16.8087L5.66528 17.1951H4.86796C4.76676 18.0573 4.3676 18.8571 3.73943 19.4563C3.13156 20.0123 2.3172 20.2897 1.29635 20.2884H0.766846V18.3543Z" fill="#707070"/>
<path d="M5.66455 15.6474L6.05299 15.261H6.42712C6.68321 15.2632 6.93921 15.2502 7.19378 15.2222C7.36299 15.2046 7.52811 15.159 7.6824 15.0873C7.79272 15.0358 7.88319 14.9496 7.94 14.8419C7.99079 14.7261 8.01522 14.6004 8.01154 14.4739C8.00955 14.3079 7.99863 14.142 7.97884 13.9771C7.9584 13.7727 7.9175 13.511 7.85821 13.1839L7.63742 11.9859L9.04398 11.7528L9.23616 12.9529C9.27909 13.1839 9.31384 13.4436 9.34042 13.7257C9.367 14.0078 9.37926 14.2593 9.37926 14.4739C9.37926 15.4103 9.14893 16.0979 8.68825 16.5368C8.22758 16.9756 7.47386 17.1951 6.42712 17.1951H5.66455V15.6474ZM7.91342 19.9673C7.81309 19.9713 7.71298 19.9553 7.61891 19.9202C7.52484 19.8851 7.4387 19.8316 7.36551 19.7629C7.28944 19.6722 7.23218 19.5673 7.19708 19.4543C7.16198 19.3412 7.14974 19.2224 7.16107 19.1046C7.14974 18.9868 7.16198 18.8679 7.19708 18.7548C7.23218 18.6418 7.28944 18.5369 7.36551 18.4463C7.43864 18.3774 7.52476 18.3239 7.61884 18.2888C7.71293 18.2537 7.81308 18.2377 7.91342 18.2418H8.17101C8.27135 18.2377 8.3715 18.2537 8.46558 18.2888C8.55967 18.3239 8.6458 18.3774 8.71892 18.4463C8.79549 18.5366 8.85306 18.6415 8.88819 18.7546C8.92331 18.8677 8.93528 18.9867 8.92336 19.1046C8.93528 19.2224 8.92331 19.3414 8.88819 19.4545C8.85306 19.5677 8.79549 19.6725 8.71892 19.7629C8.64573 19.8316 8.55959 19.8851 8.46552 19.9202C8.37145 19.9553 8.27133 19.9713 8.17101 19.9673H7.91342Z" fill="#707070"/>
<path d="M10.1523 18.3547H10.97C11.6387 18.3797 12.3059 18.2749 12.9347 18.046C13.3702 17.8879 13.7401 17.5885 13.9855 17.1955H12.4911C11.7946 17.1955 11.2494 16.9911 10.8555 16.5822C10.4616 16.1733 10.2661 15.6043 10.2688 14.8751C10.2665 14.4515 10.3356 14.0306 10.4732 13.63C10.5948 13.2673 10.7826 12.9304 11.0273 12.6364C11.2586 12.3624 11.5439 12.139 11.8655 11.9802C12.1924 11.8197 12.5522 11.7378 12.9163 11.741C13.2785 11.7295 13.6377 11.8084 13.9618 11.9704C14.2859 12.1324 14.5645 12.3726 14.7726 12.6691C15.2279 13.2879 15.4773 14.152 15.5209 15.2615H16.1772V16.8091L15.7908 17.1955H15.3533C15.1616 18.1032 14.6546 18.9137 13.9222 19.4832C13.2134 20.0216 12.2703 20.2901 11.0927 20.2887H10.1379L10.1523 18.3547ZM11.5711 14.6154C11.5638 14.7168 11.5868 14.8181 11.637 14.9065C11.6872 14.9949 11.7624 15.0665 11.8532 15.1122C12.0959 15.223 12.3616 15.2741 12.628 15.2615H14.2391V15.2226C14.2497 15.0177 14.219 14.8127 14.1487 14.6199C14.0785 14.427 13.9701 14.2503 13.8302 14.1002C13.6918 13.96 13.5259 13.8498 13.343 13.7767C13.1601 13.7035 12.964 13.6689 12.7671 13.675C12.4639 13.6647 12.1662 13.7577 11.9227 13.9387C11.8135 14.0145 11.7245 14.1157 11.6632 14.2336C11.6019 14.3515 11.5703 14.4826 11.5711 14.6154Z" fill="#707070"/>
<path d="M15.7991 15.6478L16.1855 15.2614H17.5655V16.809L17.1791 17.1954H15.7991V15.6478Z" fill="#707070"/>
<path d="M17.179 15.6478L17.5654 15.2614H18.9453V16.809L18.5589 17.1954H17.179V15.6478Z" fill="#707070"/>
<path d="M18.5591 15.6478L18.9455 15.2614H20.3234V16.809L19.937 17.1954H18.5591V15.6478Z" fill="#707070"/>
<path d="M19.9373 15.6478L20.3237 15.2614H21.7036V16.809L21.3172 17.1954H19.9373V15.6478Z" fill="#707070"/>
<path d="M21.3171 15.6478L21.7035 15.2614H23.0835V16.809L22.6971 17.1954H21.3171V15.6478Z" fill="#707070"/>
<path d="M22.6973 15.6478L23.0837 15.2614H24.4636V16.809L24.0752 17.1954H22.6973V15.6478Z" fill="#707070"/>
<path d="M24.0753 15.6478L24.4638 15.2614H25.8335V16.809L25.4471 17.1954H24.0671L24.0753 15.6478Z" fill="#707070"/>
<path d="M25.4556 15.6478L25.842 15.2614H27.2219V16.809L26.8356 17.1954H25.4556V15.6478Z" fill="#707070"/>
<path d="M26.8354 15.6478L27.2218 15.2614H28.6018V16.809L28.2154 17.1954H26.8354V15.6478Z" fill="#707070"/>
<path d="M28.2156 15.6478L28.602 15.2614H29.982V16.809L29.5935 17.1954H28.2156V15.6478Z" fill="#707070"/>
<path d="M29.5933 15.6478L29.9817 15.2614H31.3535V16.809L30.9671 17.1954H29.5872L29.5933 15.6478Z" fill="#707070"/>
<path d="M30.9729 15.6478L31.3593 15.2614H32.7393V16.809L32.3529 17.1954H30.9729V15.6478Z" fill="#707070"/>
<path d="M32.3528 15.6478L32.7392 15.2614H34.1192V16.809L33.7328 17.1954H32.3528V15.6478Z" fill="#707070"/>
<path d="M33.7329 15.6478L34.1193 15.2614H35.4993V16.809L35.1109 17.1954H33.7329V15.6478Z" fill="#707070"/>
<path d="M35.1105 15.6478L35.4969 15.2614H36.8728V16.809L36.4864 17.1954H35.1064L35.1105 15.6478Z" fill="#707070"/>
<path d="M36.491 15.6478L36.8774 15.2614H38.2573V16.809L37.871 17.1954H36.491V15.6478Z" fill="#707070"/>
<path d="M37.8711 15.6478L38.2575 15.2614H39.6375V16.809L39.249 17.1954H37.8711V15.6478Z" fill="#707070"/>
<path d="M39.2493 15.6478L39.6377 15.2614H41.0156V16.809L40.6293 17.1954H39.2493V15.6478Z" fill="#707070"/>
<path d="M40.6285 15.6478L41.0149 15.2614H42.3928V16.809L42.0065 17.1954H40.6265L40.6285 15.6478Z" fill="#707070"/>
<path d="M42.0093 15.6478L42.3957 15.2614H43.7757V16.809L43.3893 17.1954H42.0093V15.6478Z" fill="#707070"/>
<path d="M43.3884 15.6478L43.7748 15.2614H45.1548V16.809L44.7664 17.1954H43.3884V15.6478Z" fill="#707070"/>
<path d="M44.7666 15.6478L45.155 15.2614H46.533V16.809L46.1466 17.1954H44.7666V15.6478Z" fill="#707070"/>
<path d="M46.1467 15.6478L46.5331 15.2614H47.9131V16.809L47.5267 17.1954H46.1467V15.6478Z" fill="#707070"/>
<path d="M47.5266 15.6478L47.913 15.2614H49.293V16.809L48.9066 17.1954H47.5266V15.6478Z" fill="#707070"/>
<path d="M48.9067 15.6478L49.2931 15.2614H50.6731V16.809L50.2847 17.1954H48.9067V15.6478Z" fill="#707070"/>
<path d="M50.2849 15.6478L50.6734 15.2614H52.0513V16.809L51.6649 17.1954H50.2849V15.6478Z" fill="#707070"/>
<path d="M51.665 15.6478L52.0514 15.2614H53.4335V16.809L53.0471 17.1954H51.6671L51.665 15.6478Z" fill="#707070"/>
<path d="M53.0449 15.6478L53.4313 15.2614H54.8113V16.809L54.4249 17.1954H53.0449V15.6478Z" fill="#707070"/>
<path d="M54.425 15.6478L54.8114 15.2614H56.1914V16.809L55.803 17.1954H54.425V15.6478Z" fill="#707070"/>
<path d="M55.8022 15.6478L56.1886 15.2614H57.5686V16.809L57.1822 17.1954H55.8022V15.6478Z" fill="#707070"/>
<path d="M57.1824 15.6478L57.5688 15.2614H58.9528V16.809L58.5664 17.1954H57.1865L57.1824 15.6478Z" fill="#707070"/>
<path d="M58.5623 15.6478L58.9487 15.2614H60.3286V16.809L59.9402 17.1954H58.5623V15.6478Z" fill="#707070"/>
<path d="M59.9404 15.6478L60.3289 15.2614H61.7068V16.809L61.3204 17.1954H59.9404V15.6478Z" fill="#707070"/>
<path d="M61.3206 15.6478L61.707 15.2614H63.0869V16.809L62.7005 17.1954H61.3206V15.6478Z" fill="#707070"/>
<path d="M62.7004 15.6479L63.0868 15.2615H63.4732C64.1615 15.2615 64.5057 14.9603 64.5057 14.3578V12.5179H65.9225V14.3578C65.9225 14.9712 66.225 15.2615 66.8261 15.2615H67.3351V16.8091L66.9488 17.1955C66.2618 17.1955 65.7385 17.0544 65.3827 16.7764C64.9916 16.4369 64.7373 15.9668 64.6672 15.4536H64.5956C64.475 16.0568 64.2685 16.4963 63.9823 16.7764C63.6279 17.077 63.1702 17.2274 62.7066 17.1955L62.7004 15.6479ZM64.0641 11.4834C63.9638 11.4871 63.8637 11.471 63.7697 11.4359C63.6756 11.4008 63.5895 11.3475 63.5162 11.2789C63.378 11.0876 63.3036 10.8576 63.3036 10.6216C63.3036 10.3856 63.378 10.1557 63.5162 9.96437C63.589 9.89472 63.6749 9.84022 63.769 9.80407C63.863 9.76792 63.9633 9.75084 64.0641 9.75379H64.3237C64.4244 9.74975 64.5248 9.76573 64.6192 9.80083C64.7136 9.83592 64.8001 9.88943 64.8737 9.95823C65.0119 10.1495 65.0863 10.3795 65.0863 10.6155C65.0863 10.8515 65.0119 11.0815 64.8737 11.2728C64.8001 11.3416 64.7136 11.3951 64.6192 11.4302C64.5248 11.4653 64.4244 11.4813 64.3237 11.4772L64.0641 11.4834ZM66.1085 11.4834C66.0081 11.4876 65.908 11.4717 65.8139 11.4366C65.7198 11.4015 65.6336 11.3478 65.5606 11.2789C65.4224 11.0876 65.348 10.8576 65.348 10.6216C65.348 10.3856 65.4224 10.1557 65.5606 9.96437C65.6336 9.89544 65.7198 9.84183 65.8139 9.80672C65.908 9.77161 66.0081 9.7557 66.1085 9.75992H66.3661C66.4664 9.75616 66.5664 9.77228 66.6605 9.80737C66.7545 9.84246 66.8407 9.89582 66.914 9.96437C67.0522 10.1557 67.1266 10.3856 67.1266 10.6216C67.1266 10.8576 67.0522 11.0876 66.914 11.2789C66.8407 11.3475 66.7545 11.4008 66.6605 11.4359C66.5664 11.471 66.4664 11.4871 66.3661 11.4834H66.1085Z" fill="#707070"/>
<path d="M66.9548 15.648L67.3412 15.2616H69.5594C69.7688 15.2787 69.9792 15.245 70.1728 15.1634C70.231 15.126 70.2775 15.0731 70.3072 15.0106C70.3368 14.948 70.3483 14.8785 70.3404 14.8097C70.3434 14.7346 70.3311 14.6597 70.3044 14.5895C70.2777 14.5192 70.2371 14.455 70.185 14.4009C69.9962 14.2286 69.7834 14.0847 69.5533 13.9736L67.4782 12.8532V9.44926L73.6585 7.505V9.208L68.114 10.9478V11.0255L69.5451 11.8249C69.8865 12.0101 70.2145 12.2191 70.5264 12.4505C70.7672 12.6282 70.9819 12.8388 71.1643 13.0761C71.3177 13.2803 71.4353 13.5091 71.5119 13.7528C71.5885 14.0101 71.6257 14.2775 71.6223 14.546C71.6223 15.4551 71.4219 16.125 71.0212 16.5557C70.6205 16.9864 69.9608 17.2017 69.0422 17.2017H66.9548V15.648Z" fill="#707070"/>
<path d="M72.3828 7.15151H72.9246L72.9369 7.08812C72.7661 6.90146 72.6738 6.65617 72.6793 6.40324C72.6754 6.23438 72.7085 6.06672 72.7763 5.91202C72.8441 5.75733 72.945 5.61934 73.0718 5.50778C73.3509 5.2652 73.7123 5.13865 74.0817 5.1541C74.3304 5.15384 74.5763 5.20609 74.8034 5.30743C75.0339 5.40731 75.2424 5.55183 75.4167 5.73266L74.8034 6.59747C74.7125 6.50034 74.6026 6.42284 74.4806 6.36975C74.3586 6.31666 74.227 6.2891 74.094 6.28876C73.968 6.28218 73.8434 6.31818 73.7403 6.39098C73.6998 6.41811 73.6665 6.45454 73.643 6.49722C73.6195 6.53991 73.6066 6.5876 73.6054 6.63631C73.6054 6.92116 73.9018 7.0629 74.4947 7.06154H75.4474V8.1962H72.3828V7.15151ZM73.1433 9.2266H74.6951V17.1999H73.1433V9.2266Z" fill="#707070"/>
<path d="M82.8376 17.1956L82.4635 11.2667H78.853V9.3327H82.2181C82.6791 9.30713 83.1342 9.44626 83.502 9.72524C83.8155 9.98693 83.9934 10.436 84.0356 11.0725L84.4098 17.2058L82.8376 17.1956Z" fill="#707070"/>
<path d="M93.0741 20.2889C92.4492 20.2971 91.8262 20.2166 91.2239 20.0497C90.7201 19.9129 90.2488 19.6765 89.8378 19.3546C89.4664 19.0589 89.1707 18.6791 88.9751 18.2465C88.7701 17.7768 88.669 17.2685 88.6786 16.7561C88.6851 16.3155 88.7385 15.8769 88.8381 15.4477C88.946 14.9656 89.0951 14.4936 89.2838 14.037L90.5227 14.3968C90.3519 14.7575 90.215 15.1332 90.1138 15.5192C90.0227 15.838 89.9726 16.1671 89.9646 16.4985C89.9568 16.7498 90.0159 16.9986 90.1359 17.2196C90.2559 17.4405 90.4324 17.6256 90.6474 17.7558C91.104 18.0516 91.7405 18.2002 92.5569 18.2015H93.5791C94.285 18.225 94.9897 18.1268 95.6624 17.9112C96.1816 17.7163 96.4801 17.4519 96.5578 17.118L93.3726 16.5762V14.7362H94.1331C94.4068 14.7387 94.6802 14.7196 94.9509 14.679C95.1659 14.6481 95.3737 14.5789 95.5642 14.4745C95.7282 14.3837 95.8646 14.2502 95.9588 14.0881C96.0584 13.8994 96.107 13.688 96.0999 13.4748V13.025H96.0222C95.7728 13.7065 95.2017 14.0472 94.3089 14.0472C93.6118 14.0472 93.068 13.8632 92.6734 13.4993C92.4735 13.3031 92.3177 13.0665 92.2165 12.8052C92.1153 12.544 92.071 12.2642 92.0867 11.9844C92.0833 11.5608 92.1525 11.1397 92.2911 10.7394C92.4124 10.3772 92.6003 10.0409 92.8451 9.74781C93.0754 9.47212 93.361 9.24786 93.6834 9.08951C94.0102 8.92885 94.37 8.84692 94.7342 8.8503C95.1256 8.8387 95.5132 8.93027 95.858 9.11579C96.2029 9.30131 96.4929 9.57427 96.6989 9.90728C97.1664 10.6119 97.4008 11.5919 97.4022 12.8472C97.4221 13.3741 97.3387 13.8998 97.1568 14.3948C96.9933 14.7814 96.683 15.0873 96.2941 15.2453V15.323L96.5374 15.3884C96.9103 15.4766 97.2506 15.6687 97.5187 15.9424C97.764 16.2187 97.8929 16.5791 97.8785 16.9483C97.8889 17.445 97.7766 17.9365 97.5514 18.3794C97.3266 18.8024 97.0007 19.1634 96.6028 19.4302C96.1423 19.7349 95.6315 19.9557 95.094 20.0824C94.4317 20.2335 93.7533 20.3028 93.0741 20.2889ZM91.9272 23.0611C91.8268 23.0653 91.7267 23.0494 91.6326 23.0143C91.5385 22.9792 91.4523 22.9256 91.3793 22.8567C91.2411 22.6654 91.1667 22.4354 91.1667 22.1994C91.1667 21.9634 91.2411 21.7334 91.3793 21.5421C91.4523 21.4732 91.5385 21.4196 91.6326 21.3845C91.7267 21.3494 91.8268 21.3335 91.9272 21.3377H92.1848C92.2851 21.3337 92.3852 21.3497 92.4793 21.3848C92.5734 21.4199 92.6595 21.4734 92.7327 21.5421C92.8709 21.7334 92.9453 21.9634 92.9453 22.1994C92.9453 22.4354 92.8709 22.6654 92.7327 22.8567C92.6595 22.9254 92.5734 22.9789 92.4793 23.014C92.3852 23.0491 92.2851 23.0651 92.1848 23.0611H91.9272ZM93.9716 23.0611C93.8713 23.0649 93.7713 23.0488 93.6772 23.0137C93.5832 22.9786 93.497 22.9252 93.4237 22.8567C93.2855 22.6654 93.2111 22.4354 93.2111 22.1994C93.2111 21.9634 93.2855 21.7334 93.4237 21.5421C93.497 21.4736 93.5832 21.4202 93.6772 21.3851C93.7713 21.35 93.8713 21.3339 93.9716 21.3377H94.2292C94.3296 21.3335 94.4297 21.3494 94.5238 21.3845C94.6179 21.4196 94.7041 21.4732 94.7771 21.5421C94.9153 21.7334 94.9897 21.9634 94.9897 22.1994C94.9897 22.4354 94.9153 22.6654 94.7771 22.8567C94.7041 22.9256 94.6179 22.9792 94.5238 23.0143C94.4297 23.0494 94.3296 23.0653 94.2292 23.0611H93.9716ZM94.7199 12.3606C94.9932 12.3635 95.2663 12.3485 95.5376 12.3156C95.7245 12.2956 95.9068 12.2452 96.0774 12.1664C96.0454 11.776 95.869 11.4115 95.5826 11.1442C95.3066 10.8922 94.9443 10.756 94.5706 10.7639C94.2674 10.7536 93.9697 10.8466 93.7263 11.0276C93.6186 11.1043 93.5311 11.2059 93.4713 11.3237C93.4115 11.4416 93.3811 11.5722 93.3828 11.7043C93.376 11.8059 93.3994 11.9072 93.4499 11.9956C93.5005 12.084 93.576 12.1555 93.667 12.2011C93.9097 12.3119 94.1754 12.3631 94.4418 12.3504L94.7199 12.3606ZM94.6177 7.8097C94.5173 7.81392 94.4171 7.79802 94.323 7.7629C94.2289 7.72779 94.1428 7.67418 94.0698 7.60526C93.9304 7.41445 93.8552 7.18428 93.8552 6.94798C93.8552 6.71168 93.9304 6.48151 94.0698 6.2907C94.1425 6.22139 94.2286 6.16754 94.3228 6.1324C94.4169 6.09727 94.5173 6.08157 94.6177 6.08626H94.8753C94.9756 6.08192 95.0758 6.09776 95.1699 6.13288C95.2641 6.168 95.3502 6.22168 95.4232 6.2907C95.5614 6.482 95.6357 6.71198 95.6357 6.94798C95.6357 7.18397 95.5614 7.41396 95.4232 7.60526C95.3498 7.6738 95.2637 7.72717 95.1696 7.76226C95.0756 7.79734 94.9756 7.81346 94.8753 7.8097H94.6177Z" fill="#707070"/>
<path d="M106.161 20.2884C105.539 20.2959 104.92 20.2153 104.321 20.0492C103.817 19.9124 103.346 19.6761 102.935 19.3541C102.564 19.0579 102.267 18.6783 102.07 18.2461C101.866 17.7761 101.765 17.2679 101.774 16.7557C101.781 16.315 101.835 15.8764 101.935 15.4472C102.042 14.9649 102.191 14.4928 102.381 14.0366L103.608 14.3964C103.439 14.7578 103.302 15.1334 103.199 15.5188C103.109 15.8378 103.06 16.1668 103.051 16.4981C103.043 16.7494 103.102 16.9984 103.222 17.2194C103.342 17.4404 103.519 17.6254 103.734 17.7554C104.19 18.0511 104.825 18.1997 105.642 18.2011H106.674C107.38 18.2245 108.085 18.1263 108.757 17.9108C109.277 17.7159 109.575 17.4514 109.653 17.1175L106.468 16.5757V14.7358H107.228C107.797 14.7358 108.182 14.6676 108.383 14.5313C108.49 14.4498 108.573 14.3423 108.626 14.2192C108.679 14.096 108.7 13.9614 108.686 13.828C108.686 13.6992 108.674 13.5336 108.653 13.3312C108.633 13.1288 108.59 12.8651 108.531 12.538L108.312 11.34L109.716 11.1069L109.911 12.307C109.953 12.538 109.988 12.7976 110.013 13.0798C110.037 13.3619 110.052 13.6134 110.052 13.828C110.052 14.4564 109.828 14.9204 109.381 15.2203V15.298L109.626 15.3634C109.999 15.4511 110.339 15.6433 110.606 15.9174C110.853 16.1924 110.983 16.5535 110.967 16.9233C110.977 17.4201 110.864 17.9117 110.638 18.3544C110.415 18.7778 110.09 19.1389 109.692 19.4052C109.231 19.7099 108.72 19.9307 108.183 20.0574C107.521 20.2169 106.842 20.2945 106.161 20.2884ZM105.012 23.0607C104.912 23.0646 104.812 23.0486 104.719 23.0135C104.625 22.9784 104.539 22.9249 104.466 22.8562C104.327 22.6654 104.252 22.4352 104.252 22.1989C104.252 21.9626 104.327 21.7325 104.466 21.5417C104.539 21.473 104.625 21.4195 104.719 21.3844C104.812 21.3493 104.912 21.3333 105.012 21.3372H105.272C105.372 21.3335 105.472 21.3496 105.566 21.3847C105.66 21.4198 105.746 21.4731 105.82 21.5417C105.958 21.733 106.032 21.9629 106.032 22.1989C106.032 22.4349 105.958 22.6649 105.82 22.8562C105.746 22.9248 105.66 22.9781 105.566 23.0132C105.472 23.0483 105.372 23.0644 105.272 23.0607H105.012ZM107.056 23.0607C106.956 23.0647 106.856 23.0486 106.762 23.0135C106.668 22.9784 106.582 22.925 106.509 22.8562C106.37 22.6649 106.296 22.4349 106.296 22.1989C106.296 21.9629 106.37 21.733 106.509 21.5417C106.582 21.4729 106.668 21.4194 106.762 21.3843C106.856 21.3492 106.956 21.3332 107.056 21.3372H107.314C107.414 21.3332 107.515 21.3492 107.609 21.3843C107.703 21.4194 107.789 21.4729 107.862 21.5417C108 21.733 108.075 21.9629 108.075 22.1989C108.075 22.4349 108 22.6649 107.862 22.8562C107.789 22.925 107.703 22.9784 107.609 23.0135C107.515 23.0486 107.414 23.0647 107.314 23.0607H107.056ZM108.823 10.0908C108.723 10.095 108.622 10.0791 108.528 10.044C108.434 10.0089 108.348 9.95531 108.275 9.88638C108.137 9.69509 108.062 9.4651 108.062 9.22911C108.062 8.99311 108.137 8.7631 108.275 8.57181C108.348 8.50288 108.434 8.44929 108.528 8.41418C108.622 8.37907 108.723 8.36314 108.823 8.36736H109.08C109.181 8.36337 109.281 8.37941 109.375 8.41451C109.469 8.44961 109.555 8.50307 109.628 8.57181C109.767 8.7631 109.841 8.99311 109.841 9.22911C109.841 9.4651 109.767 9.69509 109.628 9.88638C109.555 9.95512 109.469 10.0086 109.375 10.0437C109.281 10.0788 109.181 10.0948 109.08 10.0908H108.823Z" fill="#707070"/>
<path d="M114.696 17.1959C113.828 17.1959 113.183 16.9914 112.762 16.5825C112.341 16.1736 112.13 15.5031 112.13 14.5708V7.66064H113.676V14.3132C113.676 14.7003 113.753 14.9559 113.909 15.0799C114.148 15.2273 114.428 15.2933 114.708 15.268H115.095V16.8156L114.708 17.202L114.696 17.1959Z" fill="#707070"/>
<path d="M114.709 15.6478L115.095 15.2614H116.475V16.809L116.087 17.1954H114.709V15.6478Z" fill="#707070"/>
<path d="M116.086 15.6478L116.475 15.2614H117.853V16.809L117.466 17.1954H116.086V15.6478Z" fill="#707070"/>
<path d="M117.466 15.6478L117.853 15.2614H119.233V16.809L118.854 17.1954H117.474L117.466 15.6478Z" fill="#707070"/>
<path d="M118.854 15.6478L119.241 15.2614H120.621V16.809L120.234 17.1954H118.854V15.6478Z" fill="#707070"/>
<path d="M120.226 15.6478L120.613 15.2614H121.993V16.809L121.604 17.1954H120.226V15.6478Z" fill="#707070"/>
<path d="M121.604 15.6478L121.993 15.2614H123.371V16.809L122.984 17.1954H121.604V15.6478Z" fill="#707070"/>
<path d="M122.984 15.6478L123.371 15.2614H124.751V16.809L124.375 17.1954H122.984V15.6478Z" fill="#707070"/>
<path d="M124.375 15.6478L124.761 15.2614H126.141V16.809L125.754 17.1954H124.375V15.6478Z" fill="#707070"/>
<path d="M125.745 15.6478L126.131 15.2614H127.511V16.809L127.123 17.1954H125.745V15.6478Z" fill="#707070"/>
<path d="M127.123 15.6478L127.511 15.2614H128.889V16.809L128.503 17.1954H127.123V15.6478Z" fill="#707070"/>
<path d="M128.503 15.6478L128.889 15.2614H130.269V16.809L129.883 17.1954H128.503V15.6478Z" fill="#707070"/>
<path d="M129.882 15.6478L130.268 15.2614H131.648V16.809L131.262 17.1954H129.882V15.6478Z" fill="#707070"/>
<path d="M131.262 15.6478L131.648 15.2614H133.028V16.809L132.64 17.1954H131.262V15.6478Z" fill="#707070"/>
<path d="M132.64 15.6478L133.029 15.2614H134.407V16.809L134.02 17.1954H132.64V15.6478Z" fill="#707070"/>
<path d="M134.02 15.6478L134.406 15.2614H135.786V16.809L135.4 17.1954H134.02V15.6478Z" fill="#707070"/>
<path d="M135.4 15.6478L135.787 15.2614H137.167V16.809L136.778 17.1954H135.4V15.6478Z" fill="#707070"/>
<path d="M136.78 15.6478L137.166 15.2614H138.546V16.809L138.158 17.1954H136.78V15.6478Z" fill="#707070"/>
<path d="M138.158 15.6478L138.544 15.2614H138.933C139.614 15.2614 139.955 14.9602 139.955 14.3578V12.5178H141.374V14.3578C141.374 14.9616 141.674 15.2628 142.275 15.2614H142.791V16.8091L142.404 17.1955C141.717 17.1955 141.196 17.0544 140.838 16.7764C140.448 16.4363 140.194 15.9664 140.123 15.4536H140.045C139.978 15.9462 139.764 16.4072 139.432 16.7764C139.139 17.0544 138.714 17.1955 138.154 17.1955L138.158 15.6478ZM140.544 19.9759C140.443 19.9799 140.343 19.9638 140.249 19.9287C140.155 19.8936 140.069 19.8402 139.996 19.7714C139.857 19.5798 139.783 19.3495 139.783 19.1131C139.783 18.8768 139.857 18.6465 139.996 18.4548C140.069 18.386 140.155 18.3325 140.249 18.2974C140.343 18.2623 140.443 18.2463 140.544 18.2504H140.801C140.902 18.2463 141.002 18.2623 141.096 18.2974C141.19 18.3325 141.276 18.386 141.349 18.4548C141.488 18.6465 141.562 18.8768 141.562 19.1131C141.562 19.3495 141.488 19.5798 141.349 19.7714C141.276 19.8402 141.19 19.8936 141.096 19.9287C141.002 19.9638 140.902 19.9799 140.801 19.9759H140.544Z" fill="#707070"/>
<path d="M144.308 16.4736C144.123 16.7303 143.865 16.9254 143.568 17.0338C143.194 17.1521 142.804 17.2067 142.413 17.1953V15.6476L142.799 15.2612C143.04 15.2791 143.282 15.2295 143.496 15.1181C143.665 14.9917 143.791 14.816 143.856 14.6152L144.218 13.7259C144.326 13.4606 144.451 13.2025 144.592 12.9531C144.723 12.7193 144.889 12.5064 145.083 12.3214C145.268 12.1426 145.484 11.9985 145.72 11.8961C146.186 11.7122 146.701 11.691 147.18 11.8361C147.66 11.9812 148.076 12.284 148.362 12.6955C148.771 13.3306 148.975 14.2118 148.975 15.3389V15.711L147.749 17.5306L144.308 16.4736ZM145.017 14.6806L147.61 15.4677V15.3389C147.635 14.9029 147.503 14.4722 147.235 14.1266C147.11 13.9805 146.952 13.865 146.775 13.7889C146.598 13.7127 146.406 13.6779 146.213 13.687C145.957 13.6808 145.706 13.7583 145.498 13.9078C145.274 14.0842 145.114 14.328 145.04 14.6029L145.017 14.6806Z" fill="#707070"/>
<path d="M158.926 17.1957C158.143 17.1957 157.572 16.9912 157.21 16.6212C157.023 16.4124 156.879 16.1687 156.787 15.9042C156.694 15.6397 156.655 15.3595 156.671 15.0797V15.0163H156.593C156.536 15.2765 156.456 15.531 156.354 15.7768C156.276 15.9648 156.16 16.1341 156.012 16.2736C155.872 16.4002 155.704 16.4926 155.522 16.5435C155.303 16.6039 155.077 16.6321 154.851 16.6273C154.234 16.6273 153.77 16.4617 153.459 16.1305C153.129 15.7421 152.962 15.2408 152.995 14.7321C152.968 14.1051 153.177 13.4909 153.581 13.0107C154.029 12.5276 154.565 12.136 155.162 11.8577L156.605 11.136V10.4266H158.153V14.5645C158.142 14.6619 158.152 14.7605 158.182 14.8539C158.212 14.9473 158.261 15.0333 158.327 15.1063C158.502 15.2266 158.714 15.2816 158.926 15.2616H159.312V16.8093L158.926 17.1957ZM155.276 14.6933C155.628 14.7163 155.982 14.6683 156.315 14.5522C156.41 14.5061 156.489 14.432 156.54 14.34C156.592 14.2479 156.615 14.1422 156.605 14.037V12.4894L155.65 12.9412C155.419 13.0516 155.219 13.1457 155.051 13.2377C154.902 13.3124 154.76 13.4007 154.626 13.5014C154.523 13.5763 154.435 13.6708 154.369 13.7794C154.311 13.8764 154.282 13.9877 154.285 14.1004C154.276 14.1879 154.29 14.2763 154.326 14.3567C154.362 14.437 154.418 14.5066 154.489 14.5583C154.732 14.6687 155 14.7151 155.266 14.6933H155.276ZM155.225 9.39412C155.125 9.398 155.025 9.38192 154.931 9.34683C154.837 9.31173 154.751 9.25832 154.677 9.18968C154.539 8.99806 154.464 8.76773 154.464 8.53138C154.464 8.29502 154.539 8.06469 154.677 7.87308C154.751 7.80453 154.837 7.75116 154.931 7.71608C155.025 7.68099 155.125 7.66487 155.225 7.66863H155.483C155.583 7.66441 155.683 7.68031 155.777 7.71543C155.871 7.75054 155.958 7.80415 156.031 7.87308C156.169 8.06469 156.244 8.29502 156.244 8.53138C156.244 8.76773 156.169 8.99806 156.031 9.18968C155.958 9.2586 155.871 9.31221 155.777 9.34733C155.683 9.38244 155.583 9.39834 155.483 9.39412H155.225ZM157.27 9.39412C157.169 9.39834 157.069 9.38244 156.975 9.34733C156.881 9.31221 156.795 9.2586 156.722 9.18968C156.583 8.99806 156.509 8.76773 156.509 8.53138C156.509 8.29502 156.583 8.06469 156.722 7.87308C156.795 7.80415 156.881 7.75054 156.975 7.71543C157.069 7.68031 157.169 7.66441 157.27 7.66863H157.527C157.627 7.66487 157.728 7.68099 157.822 7.71608C157.916 7.75116 158.002 7.80453 158.075 7.87308C158.213 8.06469 158.288 8.29502 158.288 8.53138C158.288 8.76773 158.213 8.99806 158.075 9.18968C158.002 9.25832 157.916 9.31173 157.822 9.34683C157.728 9.38192 157.627 9.398 157.527 9.39412H157.27Z" fill="#707070"/>
<path d="M158.925 15.648L159.312 15.2616H160.344V15.1962C160.175 14.9504 160.042 14.6811 159.95 14.3968C159.858 14.1003 159.812 13.7913 159.815 13.4809C159.812 13.0746 159.889 12.6718 160.042 12.2952C160.185 11.9358 160.393 11.6059 160.655 11.322C160.923 11.036 161.248 10.8088 161.609 10.6547C161.97 10.5006 162.358 10.4229 162.751 10.4266C163.347 10.3997 163.938 10.5475 164.452 10.8518C164.903 11.1483 165.279 11.5459 165.549 12.013L164.169 13.2397C164.008 12.9671 163.782 12.7388 163.511 12.5753C163.238 12.4299 162.931 12.3594 162.622 12.3708C162.226 12.3468 161.834 12.4484 161.499 12.6611C161.369 12.7552 161.264 12.8804 161.194 13.0254C161.125 13.1704 161.093 13.3305 161.101 13.4912C161.092 13.6958 161.138 13.899 161.236 14.0791C161.334 14.2592 161.478 14.4093 161.655 14.5134C162.024 14.7505 162.544 14.8691 163.215 14.8691C163.452 14.8684 163.689 14.8513 163.924 14.818C164.155 14.7874 164.383 14.7396 164.607 14.6749L165.858 14.3273L166.347 16.0671L164.452 16.6477C164.084 16.7602 163.726 16.8522 163.382 16.9258C163.007 17.0039 162.629 17.0619 162.248 17.0996C161.839 17.1432 161.366 17.1732 160.829 17.1895C160.292 17.2059 159.656 17.2147 158.921 17.2161L158.925 15.648Z" fill="#707070"/>
<path d="M167.037 18.3547H167.855C168.524 18.3797 169.191 18.2749 169.82 18.046C170.255 17.8879 170.625 17.5885 170.871 17.1955H169.376C168.68 17.1955 168.134 16.9911 167.741 16.5822C167.347 16.1733 167.151 15.6043 167.154 14.8751C167.151 14.4515 167.221 14.0306 167.358 13.63C167.48 13.2673 167.668 12.9304 167.912 12.6364C168.144 12.3624 168.429 12.139 168.75 11.9802C169.077 11.8197 169.437 11.7378 169.801 11.741C170.163 11.7295 170.523 11.8084 170.847 11.9704C171.171 12.1324 171.45 12.3726 171.658 12.6691C172.113 13.2879 172.362 14.152 172.406 15.2615H173.062V16.8091L172.676 17.1955H172.238C172.047 18.1032 171.54 18.9137 170.807 19.4832C170.097 20.0216 169.154 20.2901 167.978 20.2887H167.023L167.037 18.3547ZM168.456 14.6154C168.449 14.7168 168.472 14.8181 168.522 14.9065C168.572 14.9949 168.647 15.0665 168.738 15.1122C168.981 15.223 169.247 15.2741 169.513 15.2615H171.124V15.2226C171.135 15.0177 171.104 14.8127 171.034 14.6199C170.963 14.427 170.855 14.2503 170.715 14.1002C170.577 13.96 170.411 13.8498 170.228 13.7767C170.045 13.7035 169.849 13.6689 169.652 13.675C169.349 13.6647 169.051 13.7577 168.808 13.9387C168.699 14.0145 168.609 14.1157 168.548 14.2336C168.487 14.3515 168.455 14.4826 168.456 14.6154Z" fill="#707070"/>
<path d="M172.684 15.6478L173.07 15.2614H174.45V16.809L174.064 17.1954H172.684V15.6478Z" fill="#707070"/>
<path d="M174.065 15.6478L174.451 15.2614H175.573C175.564 15.2102 175.559 15.1582 175.559 15.1061V14.9507C175.559 13.9121 176.161 13.0446 177.364 12.3481L178.182 11.8698H179.883L180.905 14.6031C180.961 14.8144 181.087 15.0008 181.261 15.1327C181.458 15.2311 181.679 15.2755 181.899 15.2614H182.285V16.8091L181.899 17.1955C181.437 17.218 180.976 17.1267 180.558 16.9297C180.211 16.7374 179.927 16.4492 179.74 16.0997L179.662 16.1119V17.1955H178.027C177.497 17.2213 176.972 17.089 176.518 16.8152C176.159 16.5845 175.88 16.249 175.719 15.8543H175.604C175.363 16.7484 174.847 17.1955 174.056 17.1955L174.065 15.6478ZM176.733 14.7708C176.725 14.8499 176.742 14.9294 176.781 14.9986C176.82 15.0677 176.88 15.1231 176.951 15.1572C177.118 15.2308 177.299 15.2664 177.481 15.2614H179.37L178.726 13.5584L177.552 14.0225C177.332 14.1056 177.126 14.2206 176.939 14.364C176.876 14.4117 176.825 14.4731 176.789 14.5436C176.753 14.6141 176.734 14.6918 176.733 14.7708Z" fill="#707070"/>
<path d="M181.903 15.6476L182.289 15.2612H183.179C183.661 15.2612 184.093 15.2544 184.475 15.2408C184.839 15.2298 185.203 15.1977 185.564 15.1447C185.905 15.0942 186.242 15.0162 186.57 14.9117C186.929 14.7965 187.278 14.6544 187.615 14.4864L188.091 14.2554V14.19L186.028 13.7525L184.082 13.2761V14.2513H182.598V13.2577C182.598 12.6444 182.729 12.2007 182.993 11.9166C183.256 11.6324 183.655 11.4913 184.197 11.4913C184.265 11.4917 184.333 11.4958 184.401 11.5036L184.661 11.5424C184.759 11.5608 184.877 11.5854 185.014 11.6201L185.53 11.7489L188.018 12.3929C188.382 12.4922 188.753 12.566 189.128 12.6137C189.516 12.6641 189.908 12.6894 190.299 12.6894H190.559V14.6234H189.655C189.648 14.7173 189.663 14.8115 189.699 14.8987C189.734 14.9859 189.789 15.0638 189.86 15.1263C190.071 15.2407 190.311 15.2904 190.551 15.2694H190.937V16.8171L190.551 17.2035C189.905 17.1953 189.404 17.0467 189.048 16.7578C188.69 16.4695 188.47 16.0218 188.384 15.4105L188.333 15.4493C187.844 15.7888 187.333 16.0967 186.805 16.3714C186.393 16.5833 185.964 16.7597 185.521 16.8988C185.139 17.0191 184.746 17.1013 184.348 17.1442C183.954 17.1842 183.558 17.2039 183.162 17.2035H181.886L181.903 15.6476ZM186.349 19.9757C186.249 19.9795 186.149 19.9634 186.055 19.9283C185.961 19.8932 185.875 19.8398 185.802 19.7713C185.663 19.5797 185.589 19.3493 185.589 19.113C185.589 18.8766 185.663 18.6463 185.802 18.4547C185.875 18.386 185.961 18.3326 186.055 18.2975C186.149 18.2624 186.249 18.2463 186.349 18.2502H186.609C186.709 18.2463 186.809 18.2624 186.904 18.2975C186.998 18.3326 187.084 18.386 187.157 18.4547C187.295 18.6463 187.37 18.8766 187.37 19.113C187.37 19.3493 187.295 19.5797 187.157 19.7713C187.084 19.8398 186.998 19.8932 186.903 19.9283C186.809 19.9634 186.709 19.9795 186.609 19.9757H186.349Z" fill="#707070"/>
<path d="M192.454 16.4738C192.268 16.7301 192.009 16.9251 191.712 17.034C191.339 17.1522 190.95 17.2069 190.559 17.1955V15.6478L190.945 15.2614C191.186 15.2793 191.426 15.2298 191.64 15.1183C191.811 14.993 191.938 14.817 192.002 14.6154L192.362 13.7261C192.47 13.4608 192.595 13.2027 192.736 12.9533C192.868 12.7199 193.033 12.5071 193.227 12.3216C193.413 12.1432 193.629 11.9992 193.865 11.8963C194.331 11.7122 194.846 11.691 195.325 11.8361C195.805 11.9812 196.222 12.2841 196.508 12.6957C196.917 13.3308 197.121 14.212 197.121 15.3391V15.7112L195.895 17.5308L192.454 16.4738ZM193.161 14.6808L195.754 15.4679V15.3391C195.78 14.9031 195.647 14.4724 195.38 14.1268C195.254 13.9807 195.096 13.8652 194.919 13.7891C194.742 13.7129 194.55 13.6781 194.357 13.6872C194.101 13.6813 193.85 13.7588 193.642 13.908C193.419 14.085 193.259 14.3285 193.184 14.6031L193.161 14.6808Z" fill="#707070"/>
<path d="M0.00204018 23.6925H4.36689C5.11514 23.6925 5.6978 23.9031 6.11486 24.3242C6.32692 24.5469 6.49168 24.8103 6.5992 25.0984C6.70672 25.3865 6.75477 25.6935 6.74046 26.0006C6.74815 26.2989 6.70174 26.596 6.60349 26.8777C6.52511 27.0978 6.40268 27.2995 6.24366 27.4706C6.09507 27.6228 5.91408 27.7394 5.71416 27.812C5.50473 27.8849 5.28563 27.9263 5.06403 27.9347V28.0103C5.29436 28.013 5.52278 28.0524 5.74074 28.1269C5.97916 28.2064 6.19992 28.3314 6.39086 28.4949C6.59912 28.6754 6.76819 28.8966 6.88766 29.145C7.0307 29.4519 7.10068 29.7878 7.0921 30.1263C7.0935 30.4665 7.03467 30.8043 6.91833 31.124C6.80929 31.4244 6.64495 31.7018 6.43379 31.9418C6.22932 32.1728 5.97949 32.3593 5.69985 32.4897C5.40944 32.6258 5.0924 32.6956 4.77168 32.6941H0L0.00204018 23.6925ZM1.96264 27.3725H3.90894C4.0207 27.38 4.13281 27.3644 4.23831 27.3268C4.34381 27.2891 4.44046 27.2302 4.52226 27.1537C4.59879 27.0719 4.65769 26.9753 4.69532 26.8698C4.73295 26.7642 4.7485 26.6521 4.74101 26.5404V26.154C4.7485 26.0422 4.73295 25.9301 4.69532 25.8246C4.65769 25.7191 4.59879 25.6224 4.52226 25.5407C4.44046 25.4641 4.34381 25.4052 4.23831 25.3676C4.13281 25.33 4.0207 25.3144 3.90894 25.3219H1.96264V27.3725ZM1.96264 31.034H4.21151C4.43489 31.0493 4.65527 30.9758 4.82483 30.8296C4.9026 30.7514 4.96286 30.6575 5.00163 30.5542C5.04039 30.451 5.05679 30.3407 5.04972 30.2306V29.789C5.05656 29.6786 5.04007 29.5681 5.00132 29.4645C4.96257 29.3609 4.90244 29.2667 4.82483 29.1879C4.65483 29.0425 4.43478 28.9691 4.21151 28.9835H1.96264V31.034Z" fill="#707070"/>
<path d="M10.4595 23.6925V29.2125C10.4595 29.8476 10.5842 30.3246 10.8336 30.6436C11.083 30.9625 11.4994 31.1192 12.0828 31.1138C12.6675 31.1138 13.0845 30.957 13.334 30.6436C13.5834 30.3301 13.7081 29.853 13.7081 29.2125V23.6925H15.6114V29.008C15.6211 29.5873 15.5586 30.1655 15.4254 30.7294C15.3222 31.173 15.1116 31.5844 14.8121 31.9274C14.5137 32.2512 14.136 32.4915 13.7163 32.6246C13.1865 32.7862 12.6344 32.8621 12.0807 32.8495C11.5271 32.8618 10.975 32.7859 10.4452 32.6246C10.0257 32.491 9.64815 32.2507 9.34937 31.9274C9.05053 31.5839 8.84 31.1727 8.73605 30.7294C8.60214 30.1656 8.53896 29.5874 8.54796 29.008V23.6925H10.4595Z" fill="#707070"/>
<path d="M17.2019 32.6921V31.1322H18.3611V25.2524H17.2019V23.6925H21.4809V25.2524H20.3135V31.1322H21.4727V32.6921H17.2019Z" fill="#707070"/>
<path d="M23.1179 32.6926V23.6971H25.0785V30.9549H28.507V32.6967L23.1179 32.6926Z" fill="#707070"/>
<path d="M29.9529 23.693H33.3425C33.9007 23.6846 34.4555 23.781 34.9781 23.9772C35.4545 24.1575 35.8823 24.4466 36.2272 24.8215C36.5907 25.2274 36.8632 25.7063 37.0266 26.226C37.2273 26.8619 37.3233 27.5261 37.3108 28.1928C37.3234 28.8588 37.2274 29.5224 37.0266 30.1575C36.8637 30.6781 36.5911 31.1577 36.2272 31.5641C35.8819 31.9385 35.4543 32.2276 34.9781 32.4084C34.4552 32.6038 33.9006 32.7001 33.3425 32.6926H29.9529V23.693ZM33.3425 30.9507C33.5934 30.9646 33.8446 30.9286 34.0815 30.8447C34.3184 30.7608 34.5363 30.6308 34.7225 30.4621C35.0578 30.135 35.2255 29.6102 35.2255 28.8879V27.4956C35.2255 26.7746 35.0578 26.2506 34.7225 25.9235C34.5367 25.754 34.3189 25.6234 34.082 25.5391C33.845 25.4549 33.5936 25.4187 33.3425 25.4328H31.9114V30.9527L33.3425 30.9507Z" fill="#707070"/>
<path d="M38.5901 32.6921V31.1322H39.7493V25.2524H38.5901V23.6925H42.8691V25.2524H41.7099V31.1322H42.8691V32.6921H38.5901Z" fill="#707070"/>
<path d="M47.2533 28.4382L46.3905 26.633H46.3517V32.6926H44.5117V23.6971H46.6522L49.1055 27.9516L49.9683 29.7568H50.0071V23.6971H51.8471V32.6926H49.7168L47.2533 28.4382Z" fill="#707070"/>
<path d="M59.552 31.2611H59.4886C59.454 31.4872 59.3745 31.7041 59.2548 31.899C59.1351 32.0939 58.9775 32.2628 58.7915 32.3958C58.3187 32.7192 57.7524 32.8773 57.1805 32.8456C56.6838 32.8499 56.1919 32.7488 55.7371 32.5491C55.2847 32.3493 54.8834 32.0494 54.5636 31.6721C54.2077 31.2482 53.9401 30.7575 53.7765 30.2287C53.5779 29.5819 53.4827 28.9078 53.4944 28.2313C53.4828 27.5491 53.5829 26.8695 53.7908 26.2196C53.9632 25.6776 54.2458 25.1772 54.6208 24.7496C54.9753 24.3561 55.4142 24.0479 55.9047 23.848C56.4328 23.6357 56.9977 23.5301 57.5669 23.5373C58.2985 23.5186 59.0212 23.7011 59.6563 24.0648C60.2629 24.4366 60.7437 24.9822 61.0362 25.6308L59.4375 26.5467C59.3019 26.1975 59.0795 25.8887 58.7915 25.6492C58.4396 25.3843 58.0043 25.2545 57.5648 25.2832C57.2993 25.2697 57.0337 25.3095 56.7838 25.4C56.5338 25.4906 56.3044 25.6303 56.1092 25.8107C55.7466 26.1651 55.5661 26.7198 55.5674 27.4749V28.9182C55.5674 29.6665 55.748 30.2185 56.1092 30.5742C56.3031 30.7571 56.5321 30.8989 56.7822 30.9909C57.0324 31.083 57.2986 31.1234 57.5648 31.1099C57.7957 31.1107 58.0258 31.0826 58.2497 31.0261C58.4528 30.976 58.6448 30.8887 58.816 30.7685C58.9718 30.6624 59.1018 30.5227 59.1963 30.3596C59.2899 30.1806 59.3363 29.9808 59.3312 29.7789V29.3271H57.6568V27.6916H61.2018V32.7086H59.55L59.552 31.2611Z" fill="#707070"/>
<path d="M66.0246 32.8562C65.3315 32.8768 64.643 32.7368 64.0129 32.4473C63.4815 32.1906 63.0046 31.8338 62.6084 31.3964L63.8984 30.0921C64.1753 30.417 64.5203 30.6771 64.909 30.8538C65.2976 31.0304 65.7204 31.1194 66.1473 31.1143C66.6298 31.1143 66.9855 31.0162 67.2186 30.8199C67.3321 30.7252 67.4224 30.6058 67.4827 30.4707C67.5429 30.3357 67.5714 30.1887 67.5661 30.041C67.5726 29.8188 67.5002 29.6015 67.3617 29.4276C67.2247 29.262 66.9528 29.1476 66.5235 29.0883L65.6341 28.9738C64.6801 28.8525 63.9816 28.5642 63.5386 28.109C63.313 27.8649 63.1382 27.5782 63.0244 27.2658C62.9107 26.9534 62.8603 26.6215 62.8762 26.2895C62.8708 25.9069 62.9497 25.5279 63.1072 25.1793C63.2614 24.8451 63.4885 24.5496 63.7717 24.3145C64.0839 24.0599 64.443 23.8689 64.8286 23.7523C65.2922 23.6105 65.775 23.5416 66.2597 23.5479C66.8722 23.536 67.4809 23.6458 68.0507 23.8709C68.5593 24.0803 69.0137 24.4026 69.3795 24.8134L68.0772 26.13C67.8586 25.8774 67.5935 25.6692 67.2963 25.5167C66.9361 25.3477 66.5408 25.2671 66.1432 25.2815C65.8011 25.2569 65.4596 25.3367 65.1639 25.5105C65.0607 25.581 64.977 25.6765 64.9205 25.788C64.8641 25.8995 64.8367 26.0235 64.8409 26.1484C64.8302 26.2709 64.8472 26.3943 64.8907 26.5093C64.9343 26.6244 65.0032 26.7281 65.0924 26.8128C65.3362 26.9771 65.6174 27.0776 65.9101 27.1052L66.8015 27.2463C67.7297 27.3935 68.4173 27.6797 68.8643 28.1049C69.3114 28.5301 69.5349 29.1346 69.5349 29.9183C69.5394 30.326 69.4601 30.7303 69.3018 31.1061C69.1493 31.4644 68.9172 31.7832 68.6231 32.0384C68.3002 32.3107 67.9253 32.5145 67.5211 32.6374C67.0367 32.7875 66.5318 32.8613 66.0246 32.8562Z" fill="#707070"/>
<path d="M73.8513 32.6921V31.1322H75.0126V25.2524H73.8513V23.6925H78.1323V25.2524H76.9711V31.1322H78.1323V32.6921H73.8513Z" fill="#707070"/>
<path d="M82.515 28.4382L81.6462 26.633H81.6073V32.6926H79.7673V23.6971H81.9078L84.3612 27.9516L85.2239 29.7568H85.2627V23.6971H87.1027V32.6926H84.9765L82.515 28.4382Z" fill="#707070"/>
<path d="M95.0206 32.856C94.5495 32.8629 94.0806 32.789 93.6345 32.6373C93.2463 32.5043 92.8903 32.2912 92.5898 32.0117C92.2983 31.7362 92.0714 31.3997 91.9254 31.0263C91.7673 30.6148 91.6889 30.177 91.6944 29.7362C91.6947 29.2656 91.7685 28.7979 91.9131 28.3501C92.0622 27.8821 92.2725 27.436 92.5387 27.0232C93.1138 26.1251 93.8936 25.3762 94.8142 24.8378H97.4719C96.8354 25.2589 96.2964 25.6392 95.8548 25.9785C95.4629 26.2726 95.0939 26.5959 94.7508 26.9456C94.4885 27.2114 94.2592 27.508 94.0679 27.8288C93.9066 28.1067 93.7854 28.4061 93.7081 28.7181L93.8226 28.7569C93.9932 28.3838 94.2704 28.0696 94.6193 27.8538C94.9682 27.6381 95.3732 27.5305 95.7832 27.5446C96.1327 27.5427 96.4795 27.6065 96.8054 27.7327C97.11 27.8473 97.3882 28.0226 97.6232 28.2479C97.85 28.4722 98.0294 28.7399 98.1507 29.035C98.2843 29.3589 98.3504 29.7068 98.3449 30.0572C98.3486 30.4509 98.2648 30.8406 98.0995 31.198C97.9399 31.5409 97.7068 31.8445 97.4167 32.0873C97.1054 32.3423 96.7489 32.5365 96.3659 32.6597C95.9312 32.7984 95.4768 32.8647 95.0206 32.856ZM95.0206 31.3861C95.371 31.4096 95.7189 31.3122 96.0061 31.1101C96.1218 31.0117 96.2129 30.8876 96.2722 30.7477C96.3314 30.6079 96.3572 30.4561 96.3475 30.3046V30.1001C96.3575 29.9485 96.3319 29.7966 96.2726 29.6567C96.2133 29.5168 96.122 29.3928 96.0061 29.2946C95.7091 29.1128 95.3678 29.0166 95.0196 29.0166C94.6715 29.0166 94.3301 29.1128 94.0332 29.2946C93.9175 29.393 93.8264 29.5171 93.7671 29.6569C93.7078 29.7968 93.682 29.9485 93.6918 30.1001V30.3046C93.6825 30.4561 93.7085 30.6077 93.7677 30.7475C93.827 30.8872 93.9178 31.0113 94.0332 31.1101C94.3226 31.3083 94.6709 31.402 95.0206 31.3758V31.3861Z" fill="#707070"/>
<path d="M103.632 25.4323V32.6921H101.682V25.4323H99.2285V23.6925H106.061V25.4323H103.632Z" fill="#707070"/>
<path d="M112.799 29.0044H109.37V32.6843H107.406V23.6888H109.366V27.2605H112.795V23.6888H114.765V32.6843H112.805L112.799 29.0044Z" fill="#707070"/>
<path d="M123.397 32.8563C122.838 32.8649 122.282 32.7642 121.762 32.5598C121.28 32.3698 120.851 32.0669 120.51 31.6766C120.148 31.2507 119.876 30.7554 119.711 30.221C119.335 28.902 119.335 27.5043 119.711 26.1853C119.876 25.6503 120.148 25.1543 120.51 24.7276C120.852 24.3384 121.28 24.0357 121.762 23.8444C122.808 23.4492 123.963 23.4492 125.01 23.8444C125.491 24.0357 125.92 24.3384 126.261 24.7276C126.624 25.1543 126.896 25.6503 127.061 26.1853C127.44 27.5039 127.44 28.9024 127.061 30.221C126.896 30.7554 126.624 31.2507 126.261 31.6766C125.921 32.0669 125.492 32.3698 125.01 32.5598C124.497 32.7617 123.949 32.8623 123.397 32.8563ZM123.397 31.1165C123.657 31.1303 123.917 31.0853 124.157 30.9848C124.397 30.8842 124.611 30.7308 124.783 30.5358C125.113 30.1501 125.278 29.5961 125.278 28.8737V27.5326C125.278 26.8109 125.112 26.2548 124.783 25.8684C124.602 25.6852 124.386 25.5398 124.148 25.4405C123.91 25.3412 123.655 25.2901 123.397 25.2901C123.139 25.2901 122.884 25.3412 122.646 25.4405C122.408 25.5398 122.192 25.6852 122.011 25.8684C121.68 26.2548 121.514 26.8109 121.514 27.5326V28.8737C121.514 29.5947 121.68 30.1488 122.011 30.5358C122.184 30.729 122.399 30.8807 122.639 30.9794C122.879 31.0782 123.138 31.1215 123.397 31.1062V31.1165Z" fill="#707070"/>
<path d="M128.991 32.6926V23.6971H134.96V25.437H130.951V27.2769H134.368V29.0167H130.951V32.6967L128.991 32.6926Z" fill="#707070"/>
<path d="M143.183 32.8563C142.627 32.8636 142.075 32.7629 141.558 32.5598C141.076 32.3698 140.647 32.0669 140.307 31.6766C139.944 31.2507 139.672 30.7554 139.507 30.221C139.131 28.902 139.131 27.5043 139.507 26.1853C139.672 25.6503 139.944 25.1543 140.307 24.7276C140.648 24.3384 141.077 24.0357 141.558 23.8444C142.605 23.4492 143.76 23.4492 144.807 23.8444C145.288 24.0357 145.716 24.3384 146.058 24.7276C146.42 25.1543 146.692 25.6503 146.857 26.1853C147.236 27.5039 147.236 28.9024 146.857 30.221C146.692 30.7554 146.42 31.2507 146.058 31.6766C145.717 32.0669 145.288 32.3698 144.807 32.5598C144.29 32.763 143.738 32.8637 143.183 32.8563ZM143.183 31.1165C143.443 31.1305 143.702 31.0855 143.942 30.9849C144.182 30.8844 144.395 30.7308 144.567 30.5358C144.899 30.1501 145.064 29.5961 145.064 28.8737V27.5326C145.064 26.8109 144.899 26.2548 144.567 25.8684C144.386 25.685 144.171 25.5394 143.933 25.44C143.695 25.3406 143.44 25.2894 143.182 25.2894C142.925 25.2894 142.669 25.3406 142.432 25.44C142.194 25.5394 141.978 25.685 141.797 25.8684C141.466 26.2548 141.3 26.8109 141.3 27.5326V28.8737C141.3 29.5947 141.466 30.1488 141.797 30.5358C141.97 30.729 142.185 30.8807 142.425 30.9794C142.665 31.0782 142.924 31.1215 143.183 31.1062V31.1165Z" fill="#707070"/>
<path d="M152.418 32.8556C151.855 32.8645 151.295 32.766 150.768 32.5653C150.289 32.3805 149.86 32.0849 149.517 31.7025C149.154 31.2865 148.882 30.799 148.718 30.2714C148.517 29.6223 148.421 28.9453 148.434 28.2659C148.423 27.5826 148.519 26.9017 148.718 26.248C148.882 25.7052 149.154 25.2011 149.517 24.7658C149.857 24.3688 150.286 24.0578 150.768 23.8581C151.292 23.6445 151.853 23.5388 152.418 23.5473C153.14 23.5187 153.855 23.6952 154.481 24.0564C155.066 24.4487 155.52 25.0079 155.783 25.6613L154.095 26.5383C153.993 26.1905 153.799 25.8768 153.533 25.6306C153.217 25.3817 152.819 25.26 152.418 25.2892C152.161 25.2779 151.904 25.322 151.664 25.4186C151.425 25.5153 151.21 25.6622 151.032 25.8493C150.685 26.2235 150.509 26.7673 150.509 27.4849V28.9283C150.509 29.6418 150.685 30.1856 151.032 30.5638C151.21 30.7507 151.426 30.8973 151.665 30.9939C151.904 31.0905 152.161 31.1349 152.418 31.124C152.839 31.145 153.251 31.0046 153.571 30.7314C153.858 30.4715 154.076 30.146 154.209 29.7828L155.808 30.711C155.515 31.3487 155.06 31.898 154.487 32.3036C153.87 32.6945 153.148 32.8871 152.418 32.8556Z" fill="#707070"/>
<path d="M160.927 25.4323V32.6921H158.966V25.4323H156.53V23.6925H163.364V25.4323H160.927Z" fill="#707070"/>
<path d="M168.314 32.8563C167.758 32.8637 167.207 32.763 166.69 32.5598C166.209 32.3698 165.78 32.0669 165.439 31.6766C165.076 31.2512 164.804 30.7558 164.64 30.221C164.261 28.9024 164.261 27.5039 164.64 26.1853C164.804 25.6499 165.076 25.1538 165.439 24.7276C165.781 24.3384 166.209 24.0357 166.69 23.8444C167.737 23.4492 168.892 23.4492 169.939 23.8444C170.419 24.037 170.848 24.3395 171.19 24.7276C171.553 25.1543 171.825 25.6503 171.99 26.1853C172.366 27.5043 172.366 28.902 171.99 30.221C171.825 30.7554 171.553 31.2507 171.19 31.6766C170.849 32.0659 170.42 32.3686 169.939 32.5598C169.422 32.7629 168.87 32.8636 168.314 32.8563ZM168.314 31.1165C168.574 31.1303 168.833 31.0853 169.073 30.9848C169.313 30.8842 169.527 30.7308 169.7 30.5358C170.031 30.1501 170.197 29.5961 170.197 28.8737V27.5326C170.197 26.8109 170.031 26.2548 169.7 25.8684C169.518 25.6852 169.303 25.5398 169.065 25.4405C168.827 25.3412 168.571 25.2901 168.314 25.2901C168.056 25.2901 167.801 25.3412 167.563 25.4405C167.325 25.5398 167.109 25.6852 166.928 25.8684C166.596 26.2548 166.433 26.8109 166.433 27.5326V28.8737C166.433 29.5954 166.596 30.1494 166.928 30.5358C167.101 30.7289 167.316 30.8804 167.556 30.9792C167.796 31.0779 168.055 31.1214 168.314 31.1062V31.1165Z" fill="#707070"/>
<path d="M173.909 23.6925H178.28C179.028 23.6925 179.609 23.8969 180.026 24.3242C180.238 24.5469 180.403 24.8103 180.51 25.0984C180.618 25.3865 180.666 25.6935 180.652 26.0006C180.659 26.2987 180.613 26.5956 180.517 26.8777C180.438 27.0983 180.315 27.3001 180.155 27.4706C180.007 27.6231 179.827 27.7399 179.627 27.812C179.418 27.8849 179.199 27.9263 178.977 27.9347V28.0103C179.208 28.0132 179.436 28.0525 179.654 28.1269C179.892 28.2064 180.113 28.3314 180.304 28.4949C180.512 28.6754 180.681 28.8966 180.801 29.145C180.944 29.4519 181.014 29.7878 181.005 30.1263C181.007 30.4667 180.948 30.8047 180.83 31.124C180.722 31.4247 180.558 31.7022 180.347 31.9418C180.142 32.1722 179.892 32.3586 179.613 32.4897C179.322 32.6258 179.004 32.6956 178.683 32.6941H173.909V23.6925ZM175.87 27.3725H177.816C177.926 27.3811 178.036 27.3658 178.139 27.3278C178.242 27.2897 178.336 27.2298 178.413 27.1521C178.491 27.0743 178.551 26.9807 178.589 26.8775C178.627 26.7744 178.642 26.6643 178.634 26.5547V26.1683C178.642 26.0587 178.627 25.9486 178.589 25.8454C178.551 25.7423 178.491 25.6487 178.413 25.5709C178.336 25.4932 178.242 25.4333 178.139 25.3952C178.036 25.3572 177.926 25.3419 177.816 25.3505H175.87V27.3725ZM175.87 31.034H178.119C178.342 31.0488 178.562 30.9754 178.732 30.8296C178.809 30.751 178.869 30.6572 178.908 30.554C178.947 30.4508 178.963 30.3406 178.957 30.2306V29.789C178.963 29.6787 178.947 29.5682 178.908 29.4647C178.869 29.3612 178.809 29.2669 178.732 29.1879C178.562 29.043 178.342 28.9698 178.119 28.9835H175.87V31.034Z" fill="#707070"/>
<path d="M182.508 32.6926V23.6971H188.641V25.437H184.468V27.2769H188.04V29.0167H184.468V30.963H188.633V32.7049L182.508 32.6926Z" fill="#707070"/>
<path d="M192.295 32.692H190.334V23.6965H194.601C194.985 23.6908 195.366 23.7602 195.723 23.9009C196.049 24.0311 196.341 24.2315 196.58 24.4877C196.822 24.7505 197.009 25.0591 197.13 25.3954C197.262 25.7723 197.327 26.1695 197.322 26.5689C197.334 27.1292 197.193 27.6821 196.913 28.1677C196.633 28.6319 196.199 28.9835 195.687 29.1613L197.453 32.694H195.272L193.699 29.3923H192.295V32.692ZM194.358 27.7445C194.607 27.7585 194.853 27.6783 195.047 27.5196C195.134 27.4336 195.202 27.3297 195.245 27.2149C195.289 27.1002 195.307 26.9775 195.298 26.8552V26.2868C195.307 26.1648 195.289 26.0423 195.245 25.9279C195.202 25.8136 195.134 25.71 195.047 25.6244C194.854 25.4643 194.608 25.3832 194.358 25.3975H192.295V27.7445H194.358Z" fill="#707070"/>
<path d="M220.258 0C220.402 0.107202 220.517 0.249035 220.592 0.412354C220.667 0.575674 220.699 0.755186 220.686 0.934292V2.69454H223.523C224.024 2.69454 224.278 3.04209 224.278 3.51231V6.27843H225.625V3.35082C225.632 3.1742 225.707 3.00717 225.835 2.88508C225.963 2.76299 226.133 2.69539 226.31 2.69659H238.885C239.294 2.69659 239.552 3.05029 239.552 3.45304V38.6356L240.574 38.654C241.005 38.654 241.345 38.8952 241.338 39.3348C241.337 39.4253 241.318 39.5147 241.281 39.5976C241.245 39.6804 241.192 39.7551 241.126 39.8171C241.06 39.8791 240.982 39.9272 240.897 39.9585C240.812 39.9898 240.722 40.0036 240.631 39.9992H205.671C205.581 40.0036 205.491 39.9898 205.406 39.9585C205.321 39.9272 205.243 39.8791 205.177 39.8171C205.111 39.7551 205.058 39.6804 205.021 39.5976C204.985 39.5147 204.965 39.4253 204.964 39.3348C204.962 39.2447 204.978 39.1553 205.012 39.0718C205.046 38.9884 205.097 38.9128 205.161 38.8496C205.225 38.7864 205.301 38.737 205.385 38.7044C205.469 38.6718 205.559 38.6567 205.649 38.6601L206.747 38.6376V13.3746C206.735 13.2754 206.745 13.175 206.775 13.0797C206.805 12.9845 206.855 12.8968 206.921 12.8222C206.988 12.7477 207.069 12.6881 207.16 12.6472C207.251 12.6064 207.35 12.5854 207.45 12.5855H213.033V6.92857C213.033 6.55444 213.399 6.31522 213.712 6.29887L215.724 6.28661V3.35693C215.73 3.18814 215.799 3.02772 215.917 2.90734C216.036 2.78697 216.195 2.71542 216.364 2.70682L219.314 2.69454V0.940432C219.314 0.513146 219.43 0.216713 219.782 0.00409285L220.258 0ZM222.916 4.04795H217.075V6.29682H222.916V4.04795ZM233.257 20.6078V38.6519H238.2V4.05H226.956V20.661L229.205 20.6732C229.154 20.1376 229.446 19.7921 229.884 19.7962C230.321 19.8003 230.587 20.1315 230.544 20.6712H231.912C231.879 20.1499 232.143 19.8105 232.562 19.7962C232.981 19.7819 233.283 20.0844 233.259 20.6078H233.257ZM220.684 17.0771H222.712C222.888 17.0881 223.053 17.1667 223.173 17.2966C223.293 17.4264 223.359 17.5975 223.356 17.7742C223.35 17.9496 223.275 18.1157 223.149 18.2368C223.022 18.358 222.852 18.4246 222.677 18.4223L220.671 18.4407L220.684 20.6732H225.613V7.64412H214.381V12.5855H219.941C220.434 12.5855 220.698 12.9453 220.688 13.4748L222.708 13.4912C222.801 13.4939 222.892 13.516 222.977 13.5562C223.061 13.5965 223.136 13.6538 223.196 13.7247C223.257 13.7956 223.302 13.8783 223.329 13.9677C223.356 14.057 223.363 14.151 223.352 14.2435C223.324 14.4186 223.231 14.5768 223.091 14.6858C222.952 14.7948 222.776 14.8464 222.599 14.8303L220.671 14.8425L220.684 17.0771ZM215.53 35.068C215.709 35.0791 215.876 35.1597 215.996 35.2927C216.117 35.4256 216.18 35.6003 216.174 35.7795V38.6622L219.312 38.6478V13.9328H208.067V38.654H211.21V35.7918C211.205 35.6935 211.222 35.5955 211.257 35.5037C211.293 35.412 211.347 35.3286 211.416 35.2589C211.485 35.1892 211.568 35.1346 211.66 35.0985C211.752 35.0625 211.849 35.0459 211.948 35.0497L215.53 35.068ZM231.912 22.0205H220.667V38.6519H231.912V22.0205ZM214.381 37.6093V38.6315L214.82 38.6111V36.3949H212.584V38.5824C212.722 38.6372 212.875 38.6422 213.017 38.5967L213.04 37.5214C213.039 37.4317 213.056 37.3429 213.091 37.2603C213.126 37.1777 213.177 37.103 213.241 37.0406C213.306 36.9783 213.382 36.9298 213.466 36.8978C213.55 36.8659 213.639 36.8513 213.728 36.8549C213.822 36.8585 213.914 36.8814 213.999 36.9223C214.083 36.9631 214.158 37.0209 214.219 37.0921C214.28 37.1633 214.326 37.2464 214.353 37.3361C214.381 37.4258 214.389 37.5202 214.379 37.6134L214.381 37.6093Z" fill="#3A3A3A"/>
<path d="M233.252 12.3624C233.251 12.5314 233.185 12.6935 233.068 12.8158C232.952 12.9381 232.793 13.0114 232.624 13.0207C232.538 13.0277 232.45 13.0172 232.368 12.99C232.285 12.9628 232.209 12.9193 232.144 12.8622C232.078 12.805 232.025 12.7354 231.986 12.6573C231.948 12.5792 231.926 12.4942 231.921 12.4074V11.4833C231.917 11.3067 231.983 11.1357 232.105 11.0078C232.227 10.8798 232.395 10.8053 232.571 10.8005C232.658 10.7969 232.745 10.8106 232.826 10.8406C232.908 10.8707 232.983 10.9166 233.047 10.9756C233.111 11.0347 233.162 11.1058 233.198 11.1849C233.235 11.2639 233.255 11.3494 233.258 11.4363L233.252 12.3624Z" fill="#3A3A3A"/>
<path d="M233.252 7.86021C233.247 8.03154 233.176 8.19438 233.055 8.31509C232.933 8.4358 232.77 8.50515 232.598 8.50883C232.427 8.5125 232.261 8.45021 232.134 8.33483C232.007 8.21945 231.93 8.05979 231.917 7.88883V6.95454C231.921 6.7841 231.99 6.6215 232.109 6.50019C232.229 6.37888 232.391 6.30807 232.561 6.30236C232.733 6.29503 232.901 6.35508 233.028 6.46966C233.156 6.58425 233.235 6.74431 233.246 6.91569L233.252 7.86021Z" fill="#3A3A3A"/>
<path d="M233.246 16.8782C233.246 17.0544 233.176 17.2234 233.052 17.348C232.927 17.4726 232.758 17.5426 232.582 17.5426C232.405 17.5426 232.236 17.4726 232.112 17.348C231.987 17.2234 231.917 17.0544 231.917 16.8782V15.948C231.921 15.7707 231.995 15.602 232.122 15.4792C232.25 15.3563 232.422 15.2892 232.599 15.2927C232.776 15.2963 232.945 15.3701 233.068 15.498C233.191 15.6258 233.258 15.7973 233.254 15.9746L233.246 16.8782Z" fill="#3A3A3A"/>
<path d="M235.945 30.3557C235.932 30.5269 235.854 30.6866 235.726 30.8017C235.599 30.9167 235.432 30.9782 235.26 30.9735C235.088 30.9688 234.925 30.8981 234.804 30.7763C234.683 30.6544 234.614 30.4906 234.61 30.3189V29.45C234.609 29.3608 234.626 29.2723 234.66 29.1898C234.693 29.1073 234.744 29.0325 234.807 28.9697C234.87 28.9069 234.946 28.8576 235.028 28.8245C235.111 28.7915 235.2 28.7754 235.289 28.7774C235.466 28.7806 235.634 28.8531 235.758 28.9792C235.882 29.1054 235.951 29.2752 235.951 29.452L235.945 30.3557Z" fill="#3A3A3A"/>
<path d="M230.558 12.3131C230.563 12.4033 230.549 12.4935 230.518 12.5783C230.487 12.6631 230.439 12.7409 230.378 12.807C230.316 12.8731 230.242 12.9263 230.159 12.9633C230.077 13.0003 229.988 13.0204 229.898 13.0225C229.809 13.0244 229.72 13.0084 229.637 12.9753C229.554 12.9423 229.479 12.8929 229.416 12.8302C229.352 12.7674 229.302 12.6925 229.269 12.61C229.235 12.5275 229.218 12.439 229.219 12.3499V11.4789C229.214 11.3879 229.228 11.2968 229.259 11.2112C229.29 11.1256 229.339 11.0472 229.402 10.981C229.464 10.9148 229.54 10.862 229.623 10.826C229.707 10.7899 229.797 10.7714 229.889 10.7714C229.98 10.7714 230.07 10.7899 230.154 10.826C230.237 10.862 230.313 10.9148 230.376 10.981C230.438 11.0472 230.487 11.1256 230.518 11.2112C230.55 11.2968 230.563 11.3879 230.558 11.4789V12.3131Z" fill="#3A3A3A"/>
<path d="M235.953 12.313C235.958 12.4033 235.944 12.4936 235.912 12.5784C235.881 12.6632 235.833 12.741 235.771 12.8071C235.71 12.8732 235.635 12.9262 235.553 12.9632C235.47 13.0002 235.381 13.0203 235.291 13.0224C235.202 13.0244 235.113 13.0083 235.03 12.9751C234.947 12.9419 234.872 12.8924 234.808 12.8294C234.745 12.7664 234.695 12.6913 234.661 12.6085C234.628 12.5258 234.611 12.4371 234.612 12.3478V11.4809C234.61 11.3909 234.626 11.3014 234.66 11.2178C234.693 11.1342 234.743 11.0582 234.807 10.9945C234.87 10.9309 234.946 10.8808 235.03 10.8474C235.114 10.814 235.203 10.7979 235.293 10.8001C235.471 10.8039 235.64 10.8778 235.764 11.0056C235.887 11.1335 235.956 11.3051 235.953 11.483V12.313Z" fill="#3A3A3A"/>
<path d="M235.949 7.85881C235.95 7.94602 235.934 8.03262 235.902 8.11356C235.869 8.1945 235.821 8.26816 235.759 8.33021C235.698 8.39226 235.625 8.44149 235.545 8.47498C235.464 8.50848 235.378 8.52558 235.29 8.52529C235.204 8.52885 235.119 8.51524 235.038 8.48529C234.957 8.45534 234.883 8.40963 234.821 8.35082C234.758 8.29202 234.707 8.22132 234.672 8.14281C234.637 8.06431 234.618 7.97958 234.616 7.89357V6.94905C234.616 6.77174 234.686 6.6017 234.812 6.47633C234.937 6.35095 235.107 6.28052 235.284 6.28052C235.462 6.28052 235.632 6.35095 235.757 6.47633C235.882 6.6017 235.953 6.77174 235.953 6.94905L235.949 7.85881Z" fill="#3A3A3A"/>
<path d="M235.955 21.2968C235.96 21.3876 235.946 21.4783 235.915 21.5636C235.884 21.649 235.836 21.7272 235.774 21.7937C235.712 21.8602 235.637 21.9136 235.554 21.9508C235.471 21.988 235.382 22.0082 235.291 22.0103C235.201 22.0125 235.112 21.9966 235.029 21.9634C234.945 21.9303 234.87 21.8806 234.806 21.8173C234.743 21.7541 234.692 21.6786 234.659 21.5955C234.625 21.5124 234.609 21.4233 234.61 21.3336V20.4647C234.609 20.3753 234.626 20.2866 234.66 20.2038C234.694 20.1211 234.744 20.046 234.808 19.983C234.871 19.9201 234.947 19.8705 235.03 19.8374C235.113 19.8042 235.202 19.7881 235.291 19.7901C235.468 19.7933 235.637 19.8664 235.761 19.9935C235.885 20.1207 235.953 20.2915 235.951 20.4688L235.955 21.2968Z" fill="#3A3A3A"/>
<path d="M230.554 16.8378C230.556 16.9254 230.541 17.0127 230.509 17.0944C230.478 17.1761 230.43 17.2507 230.369 17.3138C230.308 17.3768 230.235 17.427 230.154 17.4615C230.074 17.496 229.987 17.514 229.899 17.5145C229.813 17.5186 229.726 17.5053 229.645 17.4753C229.563 17.4454 229.489 17.3994 229.426 17.3401C229.362 17.2808 229.312 17.2094 229.276 17.1302C229.241 17.0509 229.222 16.9654 229.221 16.8787V15.9341C229.23 15.764 229.304 15.604 229.428 15.4869C229.552 15.3698 229.716 15.3046 229.886 15.3046C230.057 15.3046 230.22 15.3698 230.344 15.4869C230.468 15.604 230.542 15.764 230.552 15.9341L230.554 16.8378Z" fill="#3A3A3A"/>
<path d="M230.554 7.85448C230.559 8.03124 230.494 8.20282 230.372 8.33145C230.251 8.46008 230.083 8.53523 229.907 8.54038C229.73 8.54553 229.558 8.48027 229.43 8.35892C229.301 8.23758 229.226 8.0701 229.221 7.89334V6.94881C229.23 6.7787 229.304 6.61866 229.428 6.50157C229.552 6.38448 229.716 6.31921 229.886 6.31921C230.057 6.31921 230.22 6.38448 230.344 6.50157C230.468 6.61866 230.542 6.7787 230.552 6.94881L230.554 7.85448Z" fill="#3A3A3A"/>
<path d="M235.949 25.8614C235.939 26.032 235.865 26.1926 235.741 26.31C235.617 26.4275 235.452 26.4929 235.281 26.4929C235.11 26.4929 234.946 26.4275 234.822 26.31C234.698 26.1926 234.623 26.032 234.614 25.8614V24.9169C234.614 24.7401 234.684 24.5706 234.809 24.4456C234.934 24.3206 235.103 24.2504 235.28 24.2504C235.457 24.2504 235.627 24.3206 235.752 24.4456C235.877 24.5706 235.947 24.7401 235.947 24.9169L235.949 25.8614Z" fill="#3A3A3A"/>
<path d="M235.951 16.842C235.952 16.9299 235.936 17.0171 235.903 17.0987C235.871 17.1802 235.822 17.2544 235.76 17.317C235.699 17.3796 235.625 17.4293 235.544 17.4633C235.463 17.4972 235.376 17.5147 235.288 17.5146C235.202 17.5179 235.116 17.504 235.035 17.4737C234.955 17.4434 234.881 17.3973 234.818 17.3381C234.755 17.2789 234.705 17.2078 234.67 17.129C234.635 17.0501 234.616 16.9651 234.614 16.8788V15.9343C234.614 15.7575 234.684 15.588 234.809 15.463C234.934 15.338 235.103 15.2678 235.28 15.2678C235.457 15.2678 235.627 15.338 235.752 15.463C235.877 15.588 235.947 15.7575 235.947 15.9343L235.951 16.842Z" fill="#3A3A3A"/>
<path d="M214.378 23.0958C214.383 23.1855 214.369 23.2752 214.339 23.3597C214.309 23.4442 214.262 23.5219 214.202 23.5883C214.141 23.6546 214.068 23.7083 213.987 23.7463C213.906 23.7842 213.817 23.8057 213.728 23.8093C213.641 23.8132 213.554 23.7998 213.472 23.77C213.391 23.7402 213.316 23.6945 213.252 23.6356C213.188 23.5767 213.136 23.5058 213.099 23.4268C213.063 23.3479 213.042 23.2625 213.039 23.1756V22.2249C213.042 22.1382 213.063 22.053 213.1 21.9743C213.137 21.8955 213.188 21.8248 213.252 21.7661C213.316 21.7075 213.391 21.662 213.473 21.6323C213.554 21.6026 213.641 21.5893 213.728 21.5932C213.903 21.5985 214.069 21.6725 214.189 21.7991C214.31 21.9257 214.377 22.0948 214.374 22.2699L214.378 23.0958Z" fill="#3A3A3A"/>
<path d="M214.366 31.1879C214.388 31.8012 214.531 32.7744 213.726 32.7989C213.638 32.803 213.551 32.7896 213.469 32.7595C213.387 32.7294 213.312 32.6832 213.248 32.6236C213.184 32.5639 213.132 32.4921 213.096 32.4123C213.06 32.3326 213.041 32.2464 213.039 32.159V31.2002C213.047 31.0304 213.119 30.8701 213.241 30.7521C213.364 30.6341 213.527 30.5675 213.696 30.5659C213.866 30.5644 214.03 30.628 214.155 30.7436C214.279 30.8593 214.355 31.0183 214.366 31.1879Z" fill="#3A3A3A"/>
<path d="M214.374 18.6374C214.378 18.8122 214.312 18.9814 214.192 19.1079C214.071 19.2344 213.905 19.3078 213.73 19.3121C213.558 19.3216 213.389 19.2623 213.26 19.1474C213.131 19.0324 213.053 18.8711 213.043 18.6988C213.029 18.3737 213.029 18.0241 213.043 17.697C213.056 17.5269 213.134 17.3682 213.26 17.2538C213.387 17.1395 213.553 17.0782 213.723 17.0826C213.894 17.0871 214.056 17.157 214.176 17.2778C214.297 17.3986 214.366 17.5612 214.37 17.7317L214.374 18.6374Z" fill="#3A3A3A"/>
<path d="M214.374 27.6201C214.377 27.7073 214.362 27.7942 214.331 27.8758C214.3 27.9573 214.253 28.032 214.193 28.0954C214.133 28.1588 214.061 28.2097 213.981 28.2454C213.901 28.281 213.815 28.3005 213.728 28.3029C213.556 28.3108 213.388 28.2509 213.26 28.1362C213.132 28.0215 213.054 27.8611 213.043 27.6896C213.029 27.3625 213.029 27.0149 213.043 26.6878C213.06 26.5209 213.139 26.3666 213.265 26.2557C213.391 26.1448 213.554 26.0857 213.722 26.0901C213.889 26.0945 214.049 26.1621 214.169 26.2794C214.289 26.3967 214.36 26.555 214.368 26.7226L214.374 27.6201Z" fill="#3A3A3A"/>
<path d="M217.073 23.0959C217.075 23.184 217.06 23.2716 217.028 23.3538C216.996 23.436 216.949 23.5111 216.888 23.5749C216.827 23.6387 216.755 23.6899 216.674 23.7256C216.593 23.7612 216.507 23.7807 216.419 23.7829C216.331 23.785 216.243 23.7698 216.161 23.7381C216.079 23.7064 216.003 23.6588 215.94 23.598C215.876 23.5373 215.825 23.4645 215.789 23.384C215.753 23.3035 215.734 23.2167 215.732 23.1287V22.2638C215.732 22.1761 215.749 22.0891 215.783 22.008C215.816 21.9269 215.865 21.8532 215.927 21.7911C215.99 21.7291 216.063 21.6798 216.144 21.6462C216.225 21.6126 216.312 21.5953 216.4 21.5953C216.488 21.5953 216.575 21.6126 216.656 21.6462C216.737 21.6798 216.811 21.7291 216.873 21.7911C216.935 21.8532 216.984 21.9269 217.018 22.008C217.051 22.0891 217.069 22.1761 217.069 22.2638L217.073 23.0959Z" fill="#3A3A3A"/>
<path d="M211.671 27.6627C211.671 27.84 211.601 28.0101 211.475 28.1354C211.35 28.2608 211.18 28.3312 211.003 28.3312C210.825 28.3312 210.655 28.2608 210.53 28.1354C210.404 28.0101 210.334 27.84 210.334 27.6627V26.7223C210.334 26.5455 210.404 26.376 210.529 26.251C210.654 26.126 210.824 26.0558 211 26.0558C211.177 26.0558 211.347 26.126 211.472 26.251C211.597 26.376 211.667 26.5455 211.667 26.7223L211.671 27.6627Z" fill="#3A3A3A"/>
<path d="M211.672 32.1139C211.676 32.2844 211.614 32.4499 211.5 32.5767C211.386 32.7036 211.228 32.7822 211.059 32.7968C210.97 32.8052 210.881 32.7959 210.797 32.7695C210.713 32.743 210.634 32.7 210.567 32.6428C210.499 32.5857 210.443 32.5156 210.403 32.4367C210.363 32.3578 210.339 32.2717 210.333 32.1834C210.318 31.8522 210.318 31.5067 210.333 31.1735C210.352 31.0043 210.434 30.8488 210.564 30.7388C210.694 30.6287 210.861 30.5725 211.031 30.5817C211.201 30.5908 211.361 30.6646 211.478 30.788C211.595 30.9113 211.661 31.0749 211.662 31.245L211.672 32.1139Z" fill="#3A3A3A"/>
<path d="M211.672 23.1306C211.679 23.3057 211.617 23.4765 211.499 23.606C211.381 23.7356 211.217 23.8135 211.042 23.8229C210.867 23.8323 210.695 23.7725 210.564 23.6563C210.433 23.5401 210.353 23.377 210.341 23.2022C210.325 22.8689 210.325 22.5234 210.341 22.1922C210.352 22.0268 210.425 21.8716 210.545 21.7578C210.666 21.644 210.825 21.5801 210.991 21.5789C211.08 21.577 211.169 21.5931 211.252 21.6262C211.335 21.6594 211.411 21.7089 211.475 21.7718C211.538 21.8348 211.588 21.9099 211.622 21.9926C211.656 22.0754 211.673 22.1641 211.672 22.2536V23.1306Z" fill="#3A3A3A"/>
<path d="M217.071 32.1161C217.073 32.2062 217.057 32.2958 217.024 32.3795C216.99 32.4632 216.94 32.5393 216.877 32.6031C216.813 32.667 216.737 32.7172 216.653 32.7509C216.57 32.7845 216.48 32.8009 216.39 32.7989C216.212 32.7951 216.043 32.7209 215.919 32.5925C215.796 32.4642 215.729 32.2921 215.732 32.114V31.2492C215.732 31.1614 215.749 31.0745 215.783 30.9934C215.816 30.9123 215.866 30.8386 215.928 30.7765C215.99 30.7144 216.063 30.6652 216.144 30.6316C216.226 30.598 216.313 30.5807 216.4 30.5807C216.488 30.5807 216.575 30.598 216.656 30.6316C216.737 30.6652 216.811 30.7144 216.873 30.7765C216.935 30.8386 216.984 30.9123 217.018 30.9934C217.052 31.0745 217.069 31.1614 217.069 31.2492L217.071 32.1161Z" fill="#3A3A3A"/>
<path d="M217.066 18.6752C217.057 18.8454 216.983 19.0054 216.859 19.1225C216.735 19.2396 216.571 19.3048 216.401 19.3048C216.23 19.3048 216.067 19.2396 215.943 19.1225C215.819 19.0054 215.745 18.8454 215.735 18.6752V17.7266C215.745 17.5565 215.819 17.3965 215.943 17.2794C216.067 17.1623 216.23 17.097 216.401 17.097C216.571 17.097 216.735 17.1623 216.859 17.2794C216.983 17.3965 217.057 17.5565 217.066 17.7266V18.6752Z" fill="#3A3A3A"/>
<path d="M211.672 18.6754C211.672 18.8522 211.601 19.0217 211.476 19.1467C211.351 19.2717 211.182 19.3419 211.005 19.3419C210.828 19.3419 210.659 19.2717 210.534 19.1467C210.409 19.0217 210.339 18.8522 210.339 18.6754V17.7268C210.339 17.55 210.409 17.3805 210.534 17.2555C210.659 17.1305 210.828 17.0603 211.005 17.0603C211.182 17.0603 211.351 17.1305 211.476 17.2555C211.601 17.3805 211.672 17.55 211.672 17.7268V18.6754Z" fill="#3A3A3A"/>
<path d="M217.07 27.6299C217.066 27.8015 216.996 27.9648 216.875 28.086C216.753 28.2073 216.59 28.2773 216.418 28.2815C216.247 28.2857 216.08 28.2238 215.953 28.1086C215.826 27.9934 215.748 27.8338 215.735 27.6627V26.7222C215.745 26.5521 215.819 26.3921 215.943 26.275C216.067 26.1579 216.23 26.0927 216.401 26.0927C216.571 26.0927 216.735 26.1579 216.859 26.275C216.983 26.3921 217.057 26.5521 217.066 26.7222L217.07 27.6299Z" fill="#3A3A3A"/>
<path d="M224.269 36.5688C224.273 36.6574 224.26 36.7458 224.229 36.8292C224.199 36.9125 224.153 36.9891 224.093 37.0545C224.033 37.1199 223.961 37.1729 223.88 37.2104C223.8 37.2479 223.713 37.2692 223.624 37.2731C223.536 37.277 223.447 37.2634 223.364 37.2331C223.281 37.2028 223.204 37.1563 223.139 37.0964C223.073 37.0365 223.02 36.9643 222.983 36.884C222.945 36.8036 222.924 36.7166 222.92 36.628V24.065C222.916 23.8861 222.983 23.7129 223.107 23.5835C223.231 23.4541 223.4 23.3791 223.579 23.3751C223.758 23.371 223.932 23.4382 224.061 23.5618C224.19 23.6855 224.265 23.8554 224.269 24.0344V36.5688Z" fill="#3A3A3A"/>
<path d="M229.662 36.5685C229.668 36.6588 229.656 36.7493 229.626 36.8348C229.597 36.9202 229.55 36.999 229.49 37.0663C229.43 37.1337 229.357 37.1884 229.275 37.2272C229.193 37.266 229.105 37.2881 229.014 37.2922C228.924 37.2961 228.834 37.2818 228.75 37.2502C228.666 37.2187 228.588 37.1705 228.523 37.1085C228.458 37.0465 228.405 36.972 228.369 36.8895C228.333 36.8069 228.314 36.7179 228.313 36.6278V24.0648C228.317 23.8917 228.388 23.7269 228.511 23.6045C228.633 23.4821 228.798 23.4115 228.971 23.4073C229.144 23.4031 229.312 23.4656 229.441 23.5819C229.569 23.6982 229.648 23.8594 229.66 24.0321L229.662 36.5685Z" fill="#3A3A3A"/>
<path d="M226.966 36.591C226.968 36.6823 226.951 36.773 226.917 36.8577C226.882 36.9423 226.831 37.0192 226.767 37.0835C226.702 37.1479 226.625 37.1984 226.54 37.232C226.455 37.2657 226.364 37.2817 226.273 37.2792C226.181 37.2768 226.092 37.2558 226.009 37.2175C225.926 37.1793 225.851 37.1246 225.79 37.0568C225.729 36.989 225.682 36.9095 225.653 36.8231C225.623 36.7367 225.612 36.6452 225.618 36.5542V24.0648C225.615 23.974 225.631 23.8835 225.664 23.799C225.697 23.7145 225.748 23.6378 225.812 23.5735C225.876 23.5093 225.953 23.459 226.037 23.4257C226.122 23.3923 226.212 23.3768 226.303 23.3799C226.482 23.3837 226.652 23.4581 226.775 23.5869C226.899 23.7156 226.967 23.8882 226.964 24.0668L226.966 36.591Z" fill="#3A3A3A"/>
<path d="M222.711 11.2358H217.365C217.275 11.2429 217.183 11.2315 217.097 11.2023C217.011 11.1732 216.931 11.1269 216.864 11.0663C216.796 11.0056 216.741 10.9319 216.702 10.8495C216.664 10.7671 216.642 10.6777 216.639 10.5867C216.636 10.4958 216.651 10.4051 216.684 10.3202C216.716 10.2353 216.766 10.1579 216.83 10.0927C216.893 10.0274 216.969 9.97573 217.053 9.94065C217.137 9.90558 217.227 9.88787 217.318 9.88857H222.711C222.884 9.89806 223.046 9.97316 223.164 10.0985C223.283 10.2237 223.349 10.3897 223.349 10.5622C223.349 10.7347 223.283 10.9007 223.164 11.026C223.046 11.1512 222.884 11.2263 222.711 11.2358Z" fill="#3A3A3A"/>
</svg>
