<svg preserveAspectRatio="none" width="100%" height="100%" overflow="visible" style="display: block;" viewBox="0 0 32 32" fill="none" xmlns="http://www.w3.org/2000/svg">
<g id="arrow-down">
<path id="Vector" d="M15.9998 28.3328C15.7465 28.3328 15.4932 28.2395 15.2932 28.0395L7.19983 19.9462C6.81316 19.5595 6.81316 18.9195 7.19983 18.5328C7.5865 18.1462 8.2265 18.1462 8.61316 18.5328L15.9998 25.9195L23.3865 18.5328C23.7732 18.1462 24.4132 18.1462 24.7998 18.5328C25.1865 18.9195 25.1865 19.5595 24.7998 19.9462L16.7065 28.0395C16.5065 28.2395 16.2532 28.3328 15.9998 28.3328Z" fill="var(--fill-0, #CD0001)"/>
<path id="Vector_2" d="M16 28.1067C15.4533 28.1067 15 27.6533 15 27.1067V4.66667C15 4.12 15.4533 3.66667 16 3.66667C16.5467 3.66667 17 4.12 17 4.66667V27.1067C17 27.6533 16.5467 28.1067 16 28.1067Z" fill="var(--fill-0, #CD0001)"/>
<path id="Vector_3" opacity="0" d="M32 0H0V32H32V0Z" fill="var(--fill-0, #CD0001)"/>
</g>
</svg>
