<svg width="48" height="43" viewBox="0 0 48 43" fill="none" xmlns="http://www.w3.org/2000/svg">
<path d="M47.9656 23.7576C47.9479 20.8272 45.6004 18.3472 42.5062 17.9895L42.1516 17.9478L42.0921 17.5964C40.336 7.46591 31.4006 0 21.167 0C20.9584 0 20.755 1.78244e-06 20.5485 0.00834475C10.1448 0.314949 1.37536 8.31273 0.147901 18.6132C-0.204476 21.5777 0.0745158 24.5833 0.966564 27.4324C1.85861 30.2814 3.34351 32.9094 5.32365 35.1437C7.31697 37.3841 9.76192 39.1773 12.4978 40.4053C15.2336 41.6333 18.1984 42.2683 21.1972 42.2686C21.3013 42.2604 21.3983 42.2126 21.4683 42.1351C21.5553 42.0533 21.6075 41.9414 21.6143 41.8222C21.6016 41.7064 21.5462 41.5994 21.4588 41.5223C21.3715 41.4451 21.2585 41.4034 21.1419 41.4051C10.9114 41.4051 2.25868 33.7462 1.01453 23.5949C0.358122 18.3301 1.81165 13.0194 5.05772 8.82269C8.27212 4.62476 12.9971 1.84605 18.2281 1.07729C23.4127 0.302758 28.6954 1.57424 32.9597 4.62305C37.2724 7.67215 40.2223 12.2864 41.1796 17.4806L41.2662 17.9426L40.8052 18.0344C37.8643 18.6215 35.7995 20.9794 35.7807 23.7701L35.7452 29.2775C35.7942 30.0879 36.371 30.6156 37.2157 30.6218L39.0397 30.6375L39.0605 34.6765C39.0586 34.7936 39.0974 34.9076 39.1702 34.9993C39.2431 35.091 39.3455 35.1545 39.4599 35.1791C39.5915 35.1762 39.7185 35.1304 39.8218 35.0488C39.8574 35.0251 39.8856 34.9918 39.9032 34.9529L39.9543 30.6103L43.9495 30.626L43.9787 34.8298C43.9787 34.9487 44.2311 35.176 44.4073 35.1812C44.5617 35.147 44.7034 35.07 44.8161 34.9591L44.8464 30.6448L46.5609 30.6249C47.3952 30.6145 47.9729 30.0795 48 29.2921L47.9656 23.7576ZM46.6099 29.6843L37.247 29.7062C37.1738 29.7063 37.1014 29.692 37.0338 29.6642C36.9661 29.6363 36.9047 29.5954 36.8529 29.5438C36.8011 29.4922 36.7599 29.4309 36.7318 29.3634C36.7037 29.2958 36.6892 29.2234 36.689 29.1503L36.6734 24.108C36.6681 23.4228 36.7992 22.7433 37.059 22.1091C37.3188 21.475 37.7021 20.8988 38.1866 20.4142C39.148 19.4485 40.4501 18.8987 41.8127 18.8833C42.4952 18.8719 43.1731 18.9965 43.8069 19.2499C44.4408 19.5032 45.0178 19.8802 45.5044 20.3589C46.0019 20.8465 46.3975 21.4281 46.6682 22.0699C46.9389 22.7118 47.0793 23.401 47.0812 24.0976V29.2171C47.0807 29.3408 47.0313 29.4593 46.9438 29.5468C46.8563 29.6343 46.7378 29.6837 46.614 29.6843H46.6099Z" fill="#031286"/>
<path d="M28.7684 19.0593L24.8441 19.0374L26.8506 9.6516C27.0049 8.92994 26.7588 8.32716 26.1925 8.03307L26.131 8.00178C25.9489 7.91467 25.7499 7.8684 25.548 7.86621C25.1549 7.86621 24.7721 8.05184 24.4311 8.41372L12.6321 20.9375C12.4518 21.1364 12.3337 21.3838 12.2926 21.649C12.2514 21.9143 12.289 22.1858 12.4006 22.4299C12.5077 22.6546 12.6744 22.8457 12.8826 22.9823C13.0907 23.1189 13.3323 23.1958 13.5811 23.2047L17.519 23.2694L15.4895 32.8346C15.3633 33.4301 15.7555 34.0287 16.1903 34.2414L16.2081 34.2498L16.2529 34.2706C16.8547 34.5387 17.4241 34.4125 17.9028 33.9046L29.732 21.3422C29.9195 21.1392 30.0414 20.8844 30.0816 20.611C30.1218 20.3377 30.0784 20.0585 29.9573 19.8102C29.8421 19.592 29.6717 19.4079 29.4631 19.2761C29.2544 19.1444 29.0149 19.0696 28.7684 19.0593ZM29.0813 20.6768L26.6305 23.2715L17.1926 33.2424C17.1365 33.3013 17.0628 33.3404 16.9827 33.3539C16.9025 33.3673 16.8201 33.3544 16.7479 33.317C16.6756 33.2796 16.6175 33.2198 16.5823 33.1465C16.547 33.0732 16.5365 32.9905 16.5522 32.9107L18.2865 24.2101L18.4617 23.3633C18.5128 23.1203 18.4158 22.7 18.3334 22.602C18.2187 22.4695 17.8402 22.312 17.521 22.3068L13.7834 22.2411C13.691 22.2398 13.601 22.2115 13.5244 22.1599C13.4477 22.1082 13.3878 22.0353 13.352 21.9501C13.3161 21.8649 13.3059 21.7711 13.3225 21.6802C13.3391 21.5892 13.3819 21.5051 13.4455 21.4381L25.279 8.99877C25.3326 8.94197 25.4032 8.90421 25.4803 8.89123C25.5573 8.87826 25.6364 8.89077 25.7057 8.92688C25.775 8.96298 25.8305 9.0207 25.864 9.09127C25.8975 9.16184 25.907 9.24141 25.8911 9.31788L23.8982 19.0687C23.8751 19.1795 23.8791 19.2942 23.9098 19.4031C23.9405 19.5121 23.9969 19.612 24.0745 19.6944C24.1532 19.784 24.2519 19.8537 24.3626 19.8979C24.4733 19.9421 24.5929 19.9596 24.7117 19.9489H24.7408L28.8018 20.025C28.8765 20.0269 28.949 20.0501 29.0109 20.092C29.0727 20.1338 29.1213 20.1926 29.1507 20.2612C29.1801 20.3299 29.1892 20.4055 29.1769 20.4792C29.1646 20.5529 29.1314 20.6215 29.0813 20.6768Z" fill="#031286"/>
</svg>
