<svg preserveAspectRatio="none" width="100%" height="100%" overflow="visible" style="display: block;" viewBox="0 0 150 20.6911" fill="none" xmlns="http://www.w3.org/2000/svg">
<g id="Group 2">
<path id="Vector" d="M9.40741 0C14.5429 0 17.9103 3.08098 18.5085 8.04621H16.1686C15.7127 4.18597 13.344 1.99762 9.4146 1.99762C4.73501 1.99762 2.33737 5.47908 2.33737 10.3309C2.33737 15.1828 4.73501 18.6932 9.4146 18.6932C13.3512 18.6932 15.72 16.4663 16.1686 12.6133H18.5085C17.9103 17.6075 14.5429 20.6908 9.40741 20.6908C3.50004 20.6908 0 16.2105 0 10.3309C0 4.45129 3.50969 0 9.40741 0Z" fill="var(--fill-0, #CD1417)"/>
<path id="Vector_2" d="M30.7477 2.28232V18.4085H35.2295V20.4061H23.902V18.4085H28.4079V2.28232H23.902V0.284647H35.2295V2.28232H30.7477Z" fill="var(--fill-0, #CD1417)"/>
<path id="Vector_3" d="M44.3017 0.284647L50.5226 19.7499H51.1787L57.4262 0.284647H59.7395L53.2604 20.4061H48.4674L41.9619 0.284647H44.3017Z" fill="var(--fill-0, #CD1417)"/>
<path id="Vector_4" d="M73.3489 2.28232V18.4085H77.8282V20.4061H66.5007V18.4085H71.0091V2.28232H66.5007V0.284647H77.8282V2.28232H73.3489Z" fill="var(--fill-0, #CD1417)"/>
<path id="Vector_5" d="M85.3614 18.978V0.282313H87.7012V18.6908L97.8322 18.4037V20.4014L87.103 20.6885C85.991 20.7175 85.3638 20.0588 85.3638 18.9755" fill="var(--fill-0, #CD1417)"/>
<path id="Vector_6" d="M111.41 2.28232V18.4085H115.89V20.4061H104.562V18.4085H109.07V2.28232H104.562V0.284647H115.89V2.28232H111.41Z" fill="var(--fill-0, #CD1417)"/>
<path id="Vector_7" d="M135.551 12.5288H127.475L124.964 20.4038H122.632L129.144 0.284647H133.937L140.416 20.4038H138.103L135.551 12.5288ZM134.922 10.5312L131.841 0.94094H131.185L128.131 10.5312H134.922Z" fill="var(--fill-0, #CD1417)"/>
<path id="Vector_8" d="M145.262 18.3216C145.258 18.6341 145.316 18.9443 145.433 19.234C145.55 19.5237 145.724 19.7868 145.945 20.0077C146.166 20.2287 146.429 20.4031 146.719 20.5204C147.009 20.6378 147.319 20.6957 147.631 20.6908C147.943 20.693 148.252 20.6333 148.54 20.515C148.829 20.3967 149.091 20.2223 149.311 20.0019C149.532 19.7814 149.706 19.5194 149.824 19.2309C149.942 18.9425 150.002 18.6334 150 18.3216H145.262Z" fill="var(--fill-0, #CD1417)"/>
</g>
</svg>
