<svg preserveAspectRatio="none" width="100%" height="100%" overflow="visible" style="display: block;" viewBox="0 0 1024 192" fill="none" xmlns="http://www.w3.org/2000/svg">
<g id="Layer_1" clip-path="url(#clip0_0_109)">
<path id="Vector" d="M64.2797 2.18089e-06C99.3381 2.18089e-06 122.321 21.0771 126.408 55.0275H110.431C107.312 28.6847 91.149 13.6563 64.2725 13.6563C32.3263 13.6563 15.9624 37.4632 15.9624 70.6378C15.9624 104.006 32.3263 127.806 64.2725 127.806C91.149 127.806 107.298 112.591 110.431 86.2481H126.401C122.314 120.392 99.3309 141.47 64.2725 141.47C23.9508 141.47 -0.00711094 110.831 -0.00711094 70.6378C5.99298e-05 30.6746 23.9579 2.18089e-06 64.2797 2.18089e-06Z" fill="var(--fill-0, #CD0001)"/>
<path id="Vector_2" d="M209.963 15.5887V125.859H240.547V139.508H163.216V125.859H193.994V15.5887H163.216V1.93961H240.547V15.5887H209.963Z" fill="var(--fill-0, #CD0001)"/>
<path id="Vector_3" d="M302.482 1.93961L344.919 135.026H349.393L392.082 1.93961H407.857L363.642 139.516H330.921L286.512 1.93961H302.482Z" fill="var(--fill-0, #CD0001)"/>
<path id="Vector_4" d="M500.763 15.5887V125.859H531.361V139.508H454.016V125.859H484.787V15.5887H454.016V1.93961H531.361V15.5887H500.763Z" fill="var(--fill-0, #CD0001)"/>
<path id="Vector_5" d="M582.755 129.76V1.93961H598.768V127.806L667.916 125.859V139.508L594.673 141.462C587.043 141.664 582.755 137.174 582.755 129.76Z" fill="var(--fill-0, #CD0001)"/>
<path id="Vector_6" d="M760.585 15.5887V125.859H791.169V139.508H713.846V125.859H744.616V15.5887H713.846V1.93961H791.169V15.5887H760.585Z" fill="var(--fill-0, #CD0001)"/>
<path id="Vector_7" d="M925.365 85.659H870.242L853.104 139.537H837.127L881.544 1.93961H914.286L958.501 139.501H942.725L925.365 85.659ZM921.062 72.0099L900.023 6.44382H895.541L874.703 72.0099H921.062Z" fill="var(--fill-0, #CD0001)"/>
<path id="Vector_8" d="M991.667 125.27C991.767 134.544 998.737 141.462 1007.83 141.462C1009.96 141.481 1012.07 141.074 1014.04 140.267C1016.01 139.46 1017.8 138.268 1019.3 136.761C1020.81 135.254 1022 133.461 1022.8 131.489C1023.61 129.516 1024.02 127.402 1024 125.27H991.667Z" fill="var(--fill-0, #CD0001)"/>
<path id="Vector_9" d="M779.595 171.289C779.595 183.056 772.568 184.938 765.971 184.938H757.315V157.64H765.971C772.568 157.662 779.595 159.558 779.595 171.289ZM776.426 171.289C776.426 161.232 770.789 160.37 765.956 160.37H760.471V182.252H765.956C770.789 182.252 776.426 181.39 776.426 171.289Z" fill="var(--fill-0, #CD0001)"/>
<path id="Vector_10" d="M792.503 165.327C797.91 165.327 801.466 168.775 801.466 174.666V175.901H786.279C786.472 179.543 788.215 182.675 792.962 182.675C796.131 182.675 798.261 181.131 798.957 178.186H802.119C801.402 181.167 799.071 185.312 792.962 185.312C786.085 185.312 783.188 180.585 783.188 175.054C783.188 168.89 787.053 165.327 792.503 165.327ZM798.376 173.531C798.376 170.434 796.325 167.999 792.503 167.999C788.681 167.999 786.279 170.434 786.279 173.531H798.376Z" fill="var(--fill-0, #CD0001)"/>
<path id="Vector_11" d="M823.216 165.729L816.956 184.967H810.545L804.206 165.729H807.296L813.284 184.076H814.216L820.161 165.729H823.216Z" fill="var(--fill-0, #CD0001)"/>
<path id="Vector_12" d="M834.646 165.327C840.06 165.327 843.617 168.775 843.617 174.666V175.901H828.429C828.622 179.543 830.365 182.675 835.112 182.675C838.282 182.675 840.404 181.131 841.107 178.186H844.269C843.552 181.167 841.222 185.312 835.112 185.312C828.235 185.312 825.338 180.585 825.338 175.054C825.367 168.89 829.203 165.327 834.646 165.327ZM840.526 173.531C840.526 170.434 838.475 167.999 834.646 167.999C830.817 167.999 828.429 170.434 828.429 173.531H840.526Z" fill="var(--fill-0, #CD0001)"/>
<path id="Vector_13" d="M846.162 182.252H851.569V158.861L847.589 159.213V156.498L852.071 156.11C853.85 155.959 854.703 156.965 854.703 158.782V182.252H860.074V184.96H846.162V182.252Z" fill="var(--fill-0, #CD0001)"/>
<path id="Vector_14" d="M872.436 165.327C878.539 165.327 882.519 169.738 882.519 175.312C882.519 180.887 878.539 185.369 872.436 185.369C866.334 185.369 862.275 180.951 862.275 175.312C862.275 169.673 866.291 165.327 872.436 165.327ZM872.436 182.632C876.954 182.632 879.392 179.342 879.392 175.312C879.392 171.282 876.954 168.035 872.436 168.035C867.919 168.035 865.438 171.325 865.438 175.312C865.438 179.299 867.876 182.632 872.436 182.632Z" fill="var(--fill-0, #CD0001)"/>
<path id="Vector_15" d="M890.321 165.729V168.552L889.819 170.758H890.708C891.518 167.74 894.071 165.341 898.474 165.341C904.039 165.341 907.631 169.651 907.631 175.398C907.631 181.145 904.046 185.384 898.474 185.384C894.071 185.384 891.518 182.984 890.708 180.003H889.819L890.321 182.158V192.029H887.151V165.729H890.321ZM897.549 182.647C901.529 182.647 904.462 180.398 904.462 175.37C904.462 170.341 901.529 168.049 897.549 168.049C893.569 168.049 890.321 170.205 890.321 175.37C890.321 180.535 893.605 182.632 897.549 182.632V182.647Z" fill="var(--fill-0, #CD0001)"/>
<path id="Vector_16" d="M941.592 172.834V184.953H938.423V173.574C938.423 169.853 937.613 168.035 934.486 168.035C930.657 168.035 928.377 171.44 928.377 176.476V184.953H925.214V173.574C925.214 169.853 924.397 168.035 921.27 168.035C917.441 168.035 915.161 171.44 915.161 176.476V184.953H911.998V165.729H915.161V169.019L914.666 171.174H915.555C916.322 167.69 918.33 165.327 922.432 165.327C925.91 165.327 927.76 167.726 928.169 171.174H928.749C929.524 167.69 931.532 165.327 935.626 165.327C939.721 165.327 941.592 168.538 941.592 172.834Z" fill="var(--fill-0, #CD0001)"/>
<path id="Vector_17" d="M955.16 165.327C960.574 165.327 964.13 168.775 964.13 174.666V175.901H948.942C949.136 179.543 950.871 182.675 955.626 182.675C958.795 182.675 960.918 181.131 961.613 178.186H964.783C964.066 181.167 961.728 185.312 955.626 185.312C948.749 185.312 945.852 180.585 945.852 175.054C945.881 168.89 949.746 165.327 955.16 165.327ZM961.033 173.531C961.033 170.434 958.989 167.999 955.16 167.999C951.33 167.999 948.942 170.434 948.942 173.531H961.033Z" fill="var(--fill-0, #CD0001)"/>
<path id="Vector_18" d="M972.37 176.433V184.953H969.2V165.729H972.37V169.055L971.868 171.261H972.757C973.531 167.776 975.962 165.341 980.136 165.341C984.438 165.341 987.307 167.855 987.307 173.2V184.967H984.18V173.631C984.18 169.608 982.595 168.057 979.311 168.057C975.238 168.035 972.37 171.246 972.37 176.433Z" fill="var(--fill-0, #CD0001)"/>
<path id="Vector_19" d="M1004.37 182.252V184.96L997.109 185.348C995.295 185.463 994.485 184.493 994.485 182.711V168.423H990.232V165.729H994.485V160.772L997.611 159.802V165.729H1003.6V168.437H997.611V182.683L1004.37 182.252Z" fill="var(--fill-0, #CD0001)"/>
<path id="Vector_20" d="M1016.43 185.341C1010.2 185.341 1007.66 182.467 1007.66 177.87H1010.83C1010.83 181.196 1012.76 182.747 1016.46 182.747C1019.44 182.747 1020.83 182.029 1020.83 180.075C1020.83 177.561 1018.24 177.13 1015.09 176.167C1011.46 175.003 1008.53 173.883 1008.53 170.42C1008.53 167.36 1011.11 165.348 1015.52 165.348C1021.5 165.348 1023.32 168.638 1023.32 171.814H1020.16C1020.16 169.22 1018.57 167.942 1015.52 167.942C1013.37 167.942 1011.69 168.559 1011.69 170.305C1011.69 172.159 1013.01 172.74 1016.1 173.746C1019.88 174.989 1023.99 175.837 1023.99 179.982C1024 182.862 1022.19 185.341 1016.43 185.341Z" fill="var(--fill-0, #CD0001)"/>
</g>
<defs>
<clipPath id="clip0_0_109">
<rect width="1024" height="192" fill="white"/>
</clipPath>
</defs>
</svg>
