<svg width="48" height="48" viewBox="0 0 48 48" fill="none" xmlns="http://www.w3.org/2000/svg">
<path d="M2.80273 44.4395H17.9336V33.6035C18.0064 32.0206 18.6913 30.528 19.8438 29.4404C20.8546 28.4866 22.1556 27.9094 23.5293 27.7949L23.4043 27.8145L23.1348 27.8555C21.7305 28.0562 20.4417 28.7452 19.4941 29.8008C18.5466 30.8563 18.0008 32.2113 17.9521 33.6289L17.9512 33.6377V44.4424L18.4541 44.4404L23.4814 44.418L23.9795 44.415V27.7754C23.9935 27.7753 24.0075 27.7754 24.0215 27.7754V28.3145L24.0156 43.9414V44.4414H30.042L30.041 43.9404L30.0166 33.5674C30.0086 30.7435 27.778 28.3122 24.8721 27.8623H24.8711L24.5967 27.8203L24.333 27.7803C25.8304 27.8568 27.2491 28.4883 28.3086 29.5566C29.3511 30.6079 29.9684 32.0031 30.0488 33.4746L30.0576 33.7695V44.4395H45.1875V18.71H2.80273V44.4395ZM24.1006 0.500977C24.6344 0.514212 25.1598 0.640725 25.6416 0.871094C26.1226 1.10115 26.5503 1.42954 26.8955 1.83594V1.83691C27.242 2.2471 27.4976 2.7263 27.6465 3.24219C27.7952 3.75772 27.8343 4.29872 27.7598 4.83008C27.6832 5.36342 27.4946 5.8744 27.207 6.33008C26.9194 6.7859 26.5385 7.17594 26.0898 7.47461V7.47559L26.0254 7.51758L25.8906 7.6084L25.834 7.75977L24.2744 11.9521L24.0234 12.627H44.5303L44.7861 12.6416C44.8768 12.6508 44.9667 12.6644 45.0557 12.6816C44.9085 12.6564 44.756 12.6426 44.5986 12.6426H3.39551L3.38867 12.6436C3.13992 12.6468 2.89412 12.6859 2.65625 12.7549C2.87184 12.6892 3.09471 12.6454 3.32227 12.6289H23.9746L23.7021 11.9443L21.9834 7.62793L21.9316 7.49512L21.8164 7.41016L21.7617 7.37012L21.7598 7.36816L21.6006 7.24512C21.2366 6.94803 20.9306 6.58544 20.6982 6.17578C20.4328 5.70779 20.2696 5.18902 20.2197 4.65332C20.1698 4.11605 20.2341 3.57388 20.4092 3.06348C20.5842 2.55324 20.8654 2.08587 21.2344 1.69238L21.2334 1.69141C21.6001 1.30266 22.0456 0.99627 22.5391 0.791016C22.9712 0.61131 23.4327 0.513167 23.8994 0.500977H24.1006ZM1.85352 13.1338C1.89443 13.1064 1.9364 13.0809 1.97852 13.0557C1.93662 13.0814 1.89395 13.1058 1.85352 13.1338ZM22.459 8.75488L23.5342 11.3262L24.0137 12.4736L24.4619 11.3135L25.4434 8.76953L25.7021 8.09863L24.9834 8.08984L22.9268 8.0625L22.165 8.05176L22.459 8.75488ZM23.9971 0.520508C22.9963 0.521598 22.0368 0.919319 21.3291 1.62695C20.6214 2.33461 20.2237 3.29414 20.2227 4.29492V4.2959C20.2234 5.29684 20.6205 6.25692 21.3281 6.96484C22.0358 7.6728 22.9961 8.07117 23.9971 8.07227H23.998C24.9992 8.07149 25.959 7.6728 26.667 6.96484C27.3749 6.25687 27.7737 5.2971 27.7744 4.2959V4.29492C27.7733 3.29408 27.3747 2.33461 26.667 1.62695C25.9591 0.919297 24.999 0.521281 23.998 0.520508H23.9971ZM2.76465 18.6553L2.46973 18.5225L2.3291 18.459L2.32422 18.457L2.09473 18.3457C1.57335 18.0643 1.14348 17.6355 0.861328 17.1104C0.538894 16.5101 0.428104 15.8185 0.545898 15.1475V15.1455C0.66116 14.4747 0.998095 13.8617 1.50293 13.4053C1.59834 13.319 1.70007 13.2409 1.80469 13.168C1.73731 13.2167 1.67216 13.2685 1.60938 13.3232L1.40918 13.5156C0.834729 14.1056 0.516632 14.899 0.524414 15.7227V15.7324C0.566394 17.1233 1.67292 18.6786 3.46289 18.6738V18.6748H44.5771C44.9472 18.6733 45.3136 18.5977 45.6543 18.4531C45.995 18.3085 46.3033 18.0971 46.5615 17.832L46.5605 17.8311C47.1381 17.2452 47.4656 16.4585 47.4717 15.6357V15.6279C47.4637 14.6447 46.89 13.5568 45.9434 13.0059C46.1056 13.096 46.2609 13.2004 46.4053 13.3203C46.9329 13.7584 47.2949 14.3641 47.4316 15.0361L47.4326 15.041C47.5795 15.7246 47.4845 16.4381 47.1641 17.0596C46.8836 17.6036 46.4456 18.048 45.9102 18.3359L45.6758 18.4492L45.6699 18.4512L45.5283 18.5146L45.2314 18.6465V44.4131L45.7266 44.4189L47.4541 44.4375L47.4648 44.4385L47.4756 44.4375C47.4772 44.4374 47.4789 44.4379 47.4805 44.4385C47.482 44.4391 47.4832 44.4403 47.4844 44.4414C47.4855 44.4425 47.4867 44.4438 47.4873 44.4453L47.4883 44.4502V47.4697C47.4882 47.4705 47.4875 47.4715 47.4873 47.4727C47.4867 47.4773 47.486 47.4835 47.4844 47.4902H0.554688C0.539083 47.4902 0.527051 47.4867 0.517578 47.4854H1.01465L46.9805 47.4775H47.4805V44.459H46.9805L1.01465 44.4678H0.514648V47.4844C0.512115 47.484 0.509885 47.4838 0.507812 47.4834C0.507159 47.4775 0.505859 47.4701 0.505859 47.4609V44.4453L0.507812 44.4434C0.508572 44.4426 0.509799 44.4418 0.510742 44.4414H0.542969L2.27051 44.4209L2.76465 44.415V18.6553Z" stroke="#031286"/>
<path d="M10.376 39.1364H14.9004V34.6041H10.376V39.1364ZM5.81836 39.1305H10.3438V34.6041H5.81836V39.1305ZM10.375 30.5573L10.376 34.0973V34.5973H14.8984V30.0573H10.374L10.375 30.5573ZM5.81836 34.5944H10.3516V30.0563H5.81836V34.5944ZM5.80957 30.0592L5.80859 30.0446V30.0426L5.80957 30.0406L5.81152 30.0397H14.8662C14.8835 30.0422 14.8962 30.0448 14.9053 30.0475L14.9092 30.0778V39.1481C14.9007 39.151 14.8915 39.1533 14.8818 39.1559H5.80859L5.80957 39.1471V30.0592Z" stroke="#031286"/>
<path d="M42.1528 30.0382C42.1665 30.0406 42.1765 30.0427 42.1831 30.045C42.184 30.0507 42.186 30.0585 42.186 30.0695V39.1241C42.186 39.1333 42.1836 39.1408 42.1831 39.1466C42.1775 39.1488 42.1704 39.1509 42.1616 39.1534H33.0903C33.0882 39.1446 33.0854 39.1342 33.0854 39.1232V30.0743C33.0855 30.061 33.0877 30.0486 33.0903 30.0382H42.1528ZM33.0981 39.13H37.6196V34.6036H33.0981V39.13ZM37.6519 39.13H42.1782V34.6036H37.6519V39.13ZM37.6431 34.6027H42.1772V30.0548H37.6431V34.6027ZM33.0972 34.5939H37.6196V30.0607H33.0972V34.5939Z" stroke="#031286"/>
<path d="M27.7925 21.7139H27.7944C27.9926 21.713 28.1891 21.7512 28.3726 21.8262C28.5561 21.9012 28.7229 22.0118 28.8638 22.1514C29.0046 22.2909 29.1171 22.4568 29.1938 22.6396C29.2705 22.8224 29.3101 23.0186 29.311 23.2168V23.2197C29.3131 23.423 29.275 23.6251 29.1987 23.8135C29.1225 24.0018 29.0095 24.1729 28.8667 24.3174L28.8638 24.3203C28.7287 24.4592 28.5677 24.5702 28.3892 24.6455C28.2106 24.7208 28.0185 24.7591 27.8247 24.7588H27.8237L20.2563 24.7656H20.2476C19.8502 24.7735 19.4646 24.627 19.1743 24.3555C18.9203 24.1179 18.757 23.8012 18.7075 23.46L18.6929 23.3125C18.6847 23.1001 18.7191 22.8877 18.7935 22.6885C18.8682 22.4885 18.9821 22.3049 19.1284 22.1494L19.1304 22.1475C19.2537 22.0151 19.4031 21.9095 19.5688 21.8369C19.7347 21.7643 19.9142 21.7263 20.0952 21.7256L20.0942 21.7246H20.1479C19.9759 21.7355 19.8064 21.7739 19.647 21.8408C19.4532 21.9222 19.278 22.0429 19.1323 22.1943L19.1313 22.1953C18.9894 22.3438 18.8784 22.5197 18.8062 22.7119C18.7339 22.9043 18.7013 23.1101 18.7104 23.3154V23.3242L18.7114 23.333C18.7424 23.7216 18.9202 24.0843 19.2085 24.3467C19.4951 24.6075 19.87 24.749 20.2573 24.7451V24.7461L27.7905 24.7451C27.9888 24.7458 28.185 24.7071 28.3677 24.6299C28.4791 24.5828 28.5831 24.5207 28.6792 24.4482H28.7153L28.8638 24.292C29.0056 24.1422 29.116 23.9654 29.189 23.7725C29.2619 23.5795 29.2959 23.3741 29.2886 23.168C29.2767 22.8065 29.1157 22.4536 28.8716 22.1914C28.6227 21.9241 28.2579 21.7208 27.8218 21.7207H23.3013L27.7925 21.7139Z" stroke="#031286"/>
</svg>
