<svg preserveAspectRatio="none" width="100%" height="100%" overflow="visible" style="display: block;" viewBox="0 0 59.5 59.525" fill="none" xmlns="http://www.w3.org/2000/svg">
<g id="Shipment-Clock--Streamline-Ultimate.svg">
<path id="Vector" d="M35.7998 13.875V22.292C32.2656 23.5213 29.1025 25.6341 26.6162 28.4346C24.137 31.2272 22.4173 34.6069 21.6123 38.25H3.6748C2.96542 38.2499 2.28482 37.9684 1.7832 37.4668C1.28159 36.9652 1.00005 36.2846 1 35.5752V13.875H35.7998Z" stroke="var(--stroke-0, #CD1417)" stroke-width="2"/>
<path id="Vector_2" d="M24.7314 1L24.9844 1.0166C25.5709 1.08493 26.1195 1.35182 26.5371 1.77637L26.5478 1.78711L33.0527 8.2002H21.25V1H24.7314Z" stroke="var(--stroke-0, #CD1417)" stroke-width="2"/>
<path id="Vector_3" d="M15.5501 1V8.2002H3.74733L10.2522 1.78711L10.2571 1.78125L10.263 1.77637C10.6803 1.35204 11.2286 1.0851 11.8147 1.0166L12.0686 1H15.5501Z" stroke="var(--stroke-0, #CD1417)" stroke-width="2"/>
<path id="Vector_4" d="M42.9496 26.875C47.2086 26.8815 51.2909 28.578 54.3002 31.5918C57.3096 34.6057 59.0004 38.691 59.0004 42.9502C59.0003 46.1305 58.0568 49.2398 56.2894 51.8838C54.522 54.5277 52.0094 56.5878 49.0707 57.8037C46.132 59.0196 42.8985 59.3361 39.7797 58.7138C36.6609 58.0916 33.7963 56.559 31.5492 54.3086C29.3021 52.058 27.7732 49.1911 27.1557 46.0713C26.5381 42.9514 26.8601 39.7181 28.0805 36.7812C29.3009 33.8444 31.3655 31.3356 34.0121 29.5722C36.6588 27.8089 39.7693 26.8702 42.9496 26.875ZM47.5961 31.6816C45.3704 30.757 42.9201 30.5135 40.556 30.9824C38.1919 31.4514 36.0201 32.6121 34.3158 34.3164C32.6117 36.0206 31.4517 38.1926 30.9828 40.5566C30.514 42.9206 30.7573 45.371 31.682 47.5967C32.6067 49.8221 34.1712 51.7229 36.1771 53.0586C38.1833 54.3944 40.5414 55.1047 42.9516 55.0996C46.1712 55.0926 49.2569 53.8107 51.5336 51.5342C53.8104 49.2573 55.0931 46.1711 55.1 42.9512C55.1051 40.541 54.3948 38.1829 53.059 36.1767C51.7232 34.1707 49.8217 32.6063 47.5961 31.6816Z" stroke="var(--stroke-0, #CD1417)"/>
<path id="Vector_5" d="M41.2998 37.75C41.6976 37.75 42.0791 37.9082 42.3604 38.1895C42.6417 38.4708 42.7998 38.8522 42.7998 39.25V42.2754C42.7999 42.7062 42.9717 43.1192 43.2764 43.4238C43.5811 43.7285 43.9939 43.9003 44.4248 43.9004H46.25C46.6477 43.9004 47.0293 44.0577 47.3105 44.3389C47.5919 44.6202 47.75 45.0026 47.75 45.4004C47.7499 45.7981 47.5918 46.1797 47.3105 46.4609C47.0293 46.7421 46.6477 46.9004 46.25 46.9004H41.25C40.8523 46.9004 40.4707 46.7421 40.1895 46.4609C39.9082 46.1797 39.7501 45.7981 39.75 45.4004V40.25H39.7998V39.25C39.7998 38.8522 39.958 38.4708 40.2393 38.1895C40.5205 37.9082 40.9021 37.7501 41.2998 37.75Z" stroke="var(--stroke-0, #CD1417)" stroke-width="2"/>
</g>
</svg>
