<svg preserveAspectRatio="none" width="100%" height="100%" overflow="visible" style="display: block;" viewBox="0 0 54.3 60" fill="none" xmlns="http://www.w3.org/2000/svg">
<g id="Group">
<path id="Vector" d="M50.9316 0.5V5.2002H49.0811V2.34961H45.2314V6.2002H48.0811V57.6309H53.7998V59.5H0.5V57.6309H6.21875V6.2002H9.08789V2.34961H5.21875V5.2002H3.36914V0.5H50.9316ZM8.08789 57.6309H17.6562V48.0625H8.08789V57.6309ZM19.5059 57.6309H26.2246V42.3438H19.5059V57.6309ZM28.0752 57.6309H34.7939V42.3438H28.0752V57.6309ZM36.6436 57.6309H46.2314V48.0625H36.6436V57.6309ZM8.08789 46.2129H17.6562V42.3438H8.08789V46.2129ZM36.6436 46.2129H46.2314V42.3438H36.6436V46.2129ZM8.08789 40.4941H46.2314V8.06836H8.08789V40.4941ZM10.9375 6.2002H14.7871V2.34961H10.9375V6.2002ZM16.6562 6.2002H20.5059V2.34961H16.6562V6.2002ZM22.3564 6.2002H26.2246V2.34961H22.3564V6.2002ZM28.0752 6.2002H31.9434V2.34961H28.0752V6.2002ZM33.7939 6.2002H37.6436V2.34961H33.7939V6.2002ZM39.5127 6.2002H43.3623V2.34961H39.5127V6.2002Z" stroke="var(--stroke-0, #CD1417)"/>
<path id="Vector_2" d="M42.8625 25.7063H34.2938V37.1437H42.8625V25.7063ZM40.0125 31.425H37.1438V28.575H40.0125V31.425Z" fill="var(--fill-0, #CD1417)"/>
<path id="Vector_3" d="M42.8625 22.8562V11.4188H34.2938V22.8562H42.8625ZM37.1438 14.2875H40.0125V17.1375H37.1438V14.2875Z" fill="var(--fill-0, #CD1417)"/>
<path id="Vector_4" d="M31.4438 25.7063H22.8563V37.1437H31.4438V25.7063ZM28.575 31.425H25.725V28.575H28.575V31.425Z" fill="var(--fill-0, #CD1417)"/>
<path id="Vector_5" d="M31.4438 22.8562V11.4188H22.8563V22.8562H31.4438ZM25.725 14.2875H28.575V17.1375H25.725V14.2875Z" fill="var(--fill-0, #CD1417)"/>
<path id="Vector_6" d="M20.0062 25.7063H11.4375V37.1437H20.0062V25.7063ZM17.1563 31.425H14.2875V28.575H17.1563V31.425Z" fill="var(--fill-0, #CD1417)"/>
<path id="Vector_7" d="M20.0062 22.8562V11.4188H11.4375V22.8562H20.0062ZM14.2875 14.2875H17.1563V17.1375H14.2875V14.2875Z" fill="var(--fill-0, #CD1417)"/>
</g>
</svg>
