<svg width="105" height="102" viewBox="0 0 105 102" fill="none" xmlns="http://www.w3.org/2000/svg">
<g clip-path="url(#clip0_458_586)">
<path d="M52.4987 45.1735C44.9384 45.1815 37.6901 48.1778 32.3442 53.5048C26.9982 58.8318 23.9913 66.0545 23.9832 73.588C23.9919 81.1211 26.9992 88.3431 32.345 93.6695C37.6909 98.996 44.9389 101.992 52.4987 102C60.0599 101.991 67.3088 98.9936 72.6544 93.6651C78 88.3365 81.0057 81.1122 81.0117 73.5778C81.0009 66.0465 77.9932 58.8269 72.648 53.5021C67.3029 48.1774 60.0568 45.1822 52.4987 45.1735ZM67.6926 94.9878C63.2663 98.1091 57.9799 99.7904 52.5574 99.8015H52.4936C47.0884 99.8034 41.814 98.1447 37.3891 95.0514L37.2309 94.9396V94.5507C37.1875 93.13 37.1468 91.7855 37.2029 90.3012C37.3478 86.335 39.0571 82.5859 41.9597 79.8682C44.8135 77.1687 48.5995 75.6655 52.5344 75.6695H52.5906C60.9259 75.7 67.7615 82.2979 67.8278 90.38L67.866 94.8735L67.6926 94.9878ZM70.6921 92.4869L69.9932 93.1528L70.0442 92.1921C70.1948 89.7745 69.8465 87.3518 69.0209 85.0735C68.1953 82.7952 66.9099 80.7097 65.244 78.9456C63.6204 77.2228 61.6598 75.8498 59.4831 74.9113C57.3064 73.9728 54.9598 73.4886 52.588 73.4888C50.2103 73.4625 47.8526 73.9241 45.6616 74.8449C43.4707 75.7658 41.4935 77.1261 39.853 78.8414C36.4505 82.3767 34.7058 87.1115 34.9456 92.1667L34.9915 93.1147L34.3003 92.4615C31.7823 90.0894 29.7674 87.2379 28.3751 84.0759C26.9828 80.9139 26.2412 77.5058 26.1945 74.0531C26.1172 70.5783 26.7405 67.1233 28.0272 63.8928C29.314 60.6623 31.238 57.7219 33.6856 55.2457C36.1291 52.749 39.0497 50.7654 42.2753 49.4122C45.5008 48.059 48.9658 47.3635 52.4656 47.3669H52.5217C55.9953 47.3564 59.4359 48.0376 62.6417 49.3705C65.8474 50.7034 68.7535 52.6611 71.1894 55.1287C73.6554 57.5975 75.5997 60.5339 76.9074 63.7643C78.2151 66.9946 78.8597 70.4534 78.803 73.9362C78.7667 77.4134 78.0301 80.8481 76.6369 84.0365C75.2436 87.2248 73.2221 90.1018 70.6921 92.4971V92.4869Z" fill="#CD0001"/>
<path d="M74.931 16.6802C74.7853 16.3565 74.5233 16.099 74.1964 15.9584L59.8902 13.5668L53.8479 0.691294C53.74 0.50776 53.5925 0.35047 53.416 0.230886C53.2395 0.111303 53.0385 0.0324398 52.8276 0C52.6036 0.0232756 52.389 0.101958 52.2032 0.228901C52.0175 0.355843 51.8665 0.52705 51.7641 0.72691L45.2218 13.2821L31.0354 15.0332C30.8351 15.0741 30.6464 15.1587 30.4828 15.2809C30.3192 15.403 30.1847 15.5597 30.0891 15.7398C30.0476 15.9551 30.0552 16.177 30.1113 16.389C30.1673 16.6011 30.2704 16.7979 30.413 16.9648L40.4114 27.0802L37.7026 41.0994C37.6886 41.4734 37.8089 41.8402 38.0419 42.1338C38.2204 42.299 38.9397 42.4617 39.1106 42.388L52.0981 35.9324L64.8817 42.9446C65.0832 43.0538 65.7336 42.881 65.8866 42.7387C66.1135 42.4716 66.2492 42.1397 66.2743 41.7907L64.142 27.5733L74.5306 17.895C74.6775 17.7308 74.7889 17.5382 74.8578 17.3292C74.9267 17.1202 74.9516 16.8992 74.931 16.6802ZM62.4637 26.1144C62.1264 26.434 61.917 26.8648 61.8745 27.3267L63.7441 39.7803L53.0317 33.9221C52.7893 33.7691 52.5128 33.6782 52.2267 33.6573C51.9406 33.6365 51.6537 33.6864 51.3916 33.8026L40.3196 39.2822L42.6814 26.8972C42.6327 26.5096 42.4862 26.1406 42.2555 25.8247L33.5248 16.9623L46.0838 15.3815C46.2972 15.3072 46.4937 15.1915 46.6618 15.0409C46.83 14.8904 46.9665 14.7081 47.0633 14.5046L52.7536 3.63443L58.1583 15.0714C58.4347 15.3704 58.7873 15.5892 59.1786 15.7042L71.3653 17.7781L62.4637 26.1144Z" fill="#CD0001"/>
<path d="M26.8935 41.9813L19.9151 37.5031L19.6752 29.2608C19.6625 28.8466 19.3386 28.2773 19.0351 28.1324C18.8275 28.0675 18.6076 28.0512 18.3926 28.0847C18.1776 28.1182 17.9734 28.2006 17.7956 28.3256L11.3094 33.6273L3.06081 31.2636C2.67529 31.2542 2.29901 31.3822 1.99972 31.6245C1.82681 31.9098 1.75243 32.2436 1.788 32.575L4.90488 40.5936L0.0230175 47.8294C-0.0225285 48.1866 0.0331027 48.5493 0.183675 48.8766C0.417841 49.113 0.727056 49.2611 1.05857 49.2959L9.58523 48.8105L14.8189 55.4999C14.9794 55.6461 15.1714 55.7537 15.3801 55.8144C15.5888 55.8752 15.8086 55.8876 16.0228 55.8506C16.348 55.6653 16.6039 55.3799 16.7523 55.0373L18.8667 46.9272L26.7531 44.0781C26.9762 43.9947 27.1714 43.8508 27.3165 43.6626C27.4617 43.4744 27.551 43.2494 27.5745 43.0132C27.5418 42.8026 27.464 42.6015 27.3466 42.4235C27.2291 42.2454 27.0746 42.0946 26.8935 41.9813ZM17.497 45.0922C17.2008 45.3025 16.9773 45.5991 16.8569 45.9411L15.1557 52.2949L11.1461 47.2118C10.9369 46.9577 10.4218 46.5993 10.2509 46.5968L3.33878 46.8941L7.02953 41.3866C7.1883 41.0728 7.24355 40.717 7.18758 40.37L4.75182 34.0644L11.0416 35.8282C11.4038 35.9299 12.0363 35.8562 12.2454 35.6859L17.4767 31.4746L17.7318 37.742C17.7598 38.4714 18.0277 38.9213 18.6883 39.3458L23.9272 42.7133L17.497 45.0922Z" fill="#CD0001"/>
<path d="M104.727 45.5522L99.2637 39.2263L101.365 31.2611C101.416 31.0333 101.411 30.7968 101.352 30.5711C101.293 30.3454 101.181 30.1368 101.026 29.9623C100.84 29.8636 100.636 29.804 100.426 29.787C100.215 29.7699 100.004 29.7958 99.8044 29.8632L92.1679 33.0605L84.9931 28.4857C84.8695 28.429 84.7335 28.4045 84.5978 28.4145C84.3072 28.402 84.018 28.4613 83.7561 28.5874C83.5395 28.809 83.4054 29.0977 83.3761 29.4057L84.0468 37.9174L77.7469 43.0132C77.547 43.1631 77.3879 43.3604 77.2841 43.5873C77.1803 43.8141 77.1351 44.0633 77.1526 44.3119C77.2267 44.4972 77.339 44.6648 77.4822 44.8041C77.6254 44.9433 77.7964 45.051 77.9841 45.1201L86.1638 47.0593L89.3776 55.1923C89.4541 55.3371 90.0535 55.5989 90.2881 55.5939C90.636 55.52 90.9502 55.3353 91.1834 55.0677L95.6112 47.8472L103.862 47.4304C104.094 47.3984 104.314 47.3128 104.506 47.1803C104.698 47.0479 104.855 46.8724 104.967 46.668C105.037 46.2791 104.951 45.8783 104.727 45.5522ZM95.0169 45.7123C94.7852 45.7426 94.563 45.8229 94.3656 45.9476C94.1683 46.0722 94.0006 46.2382 93.8743 46.4341L90.4845 51.8883L88.0105 45.7403C87.8107 45.414 87.5073 45.1635 87.1484 45.0286L80.7336 43.5037L86.2812 38.8883L85.8144 31.6576L91.2957 35.1395C91.5152 35.257 91.7584 35.324 92.0073 35.3354C92.2563 35.3469 92.5047 35.3025 92.7342 35.2056L98.6541 32.7682L97.0217 39.0992C96.9615 39.477 97.0231 39.8641 97.1977 40.2048L101.572 45.3158L95.0169 45.7123Z" fill="#CD0001"/>
<path d="M52.4961 52.8744C48.2035 52.8744 44.7092 56.9815 44.7092 62.024C44.7092 67.0664 48.2035 71.1735 52.4961 71.1735C56.7888 71.1735 60.2831 67.0664 60.2831 62.024C60.2831 56.9815 56.7913 52.8744 52.4961 52.8744ZM52.4961 68.9954C49.2314 68.9954 46.5736 65.8719 46.5736 62.0316C46.5736 58.1913 49.2314 55.0677 52.4961 55.0677C55.7609 55.0677 58.4186 58.1913 58.4186 62.0316C58.4186 65.8719 55.7634 69.0031 52.4987 69.0031L52.4961 68.9954Z" fill="#CD0001"/>
</g>
<defs>
<clipPath id="clip0_458_586">
<rect width="105" height="102" fill="white"/>
</clipPath>
</defs>
</svg>
