<svg preserveAspectRatio="none" width="100%" height="100%" overflow="visible" style="display: block;" viewBox="0 0 244 33.6577" fill="none" xmlns="http://www.w3.org/2000/svg">
<g id="Group 2">
<path id="Vector" d="M15.3028 0C23.6565 0 29.1341 5.01174 30.1072 13.0885H26.3011C25.5595 6.8092 21.7063 3.24948 15.3145 3.24948C7.70231 3.24948 3.80213 8.91267 3.80213 16.805C3.80213 24.6974 7.70231 30.4077 15.3145 30.4077C21.7181 30.4077 25.5712 26.7852 26.3011 20.5177H30.1072C29.1341 28.6416 23.6565 33.6572 15.3028 33.6572C5.69342 33.6572 0 26.3692 0 16.805C0 7.2408 5.70911 0 15.3028 0Z" fill="var(--fill-0, #CD1417)"/>
<path id="Vector_2" d="M50.017 3.71242V29.9444H57.3074V33.1939H38.8813V29.9444H46.2109V3.71242H38.8813V0.462863H57.3074V3.71242H50.017Z" fill="var(--fill-0, #CD1417)"/>
<path id="Vector_3" d="M72.0643 0.462863L82.1838 32.1264H83.2511L93.4137 0.462863H97.1766L86.6373 33.1939H78.8407L68.2583 0.462863H72.0643Z" fill="var(--fill-0, #CD1417)"/>
<path id="Vector_4" d="M119.315 3.71242V29.9444H126.601V33.1939H108.175V29.9444H115.509V3.71242H108.175V0.462863H126.601V3.71242H119.315Z" fill="var(--fill-0, #CD1417)"/>
<path id="Vector_5" d="M138.855 30.8706V0.458891H142.661V30.4034L159.141 29.9364V33.1861L141.688 33.6531C139.879 33.7002 138.859 32.6287 138.859 30.8666" fill="var(--fill-0, #CD1417)"/>
<path id="Vector_6" d="M181.229 3.71242V29.9444H188.515V33.1939H170.089V29.9444H177.422V3.71242H170.089V0.462863H188.515V3.71242H181.229Z" fill="var(--fill-0, #CD1417)"/>
<path id="Vector_7" d="M220.498 20.3802H207.361L203.276 33.1901H199.482L210.076 0.462863H217.873L228.412 33.1901H224.649L220.498 20.3802ZM219.473 17.1307L214.463 1.53044H213.396L208.428 17.1307H219.473Z" fill="var(--fill-0, #CD1417)"/>
<path id="Vector_8" d="M236.294 29.8033C236.286 30.3116 236.38 30.8163 236.571 31.2875C236.762 31.7587 237.045 32.1867 237.404 32.5461C237.764 32.9056 238.192 33.1892 238.663 33.3801C239.134 33.571 239.639 33.6651 240.147 33.6572C240.654 33.6609 241.156 33.5637 241.626 33.3713C242.095 33.1789 242.521 32.8951 242.879 32.5365C243.238 32.1779 243.522 31.7518 243.714 31.2825C243.906 30.8133 244.004 30.3105 244 29.8033H236.294Z" fill="var(--fill-0, #CD1417)"/>
</g>
</svg>
