<svg width="48" height="35" viewBox="0 0 48 35" fill="none" xmlns="http://www.w3.org/2000/svg">
<g clip-path="url(#clip0_458_443)">
<path d="M47.8843 34.3445C47.8378 34.3049 47.7836 34.2751 47.7251 34.257C47.6666 34.239 47.605 34.233 47.544 34.2394C47.3082 34.2588 47.0707 34.2427 46.8397 34.1916L46.5309 34.1204V2.14029C46.5309 1.92756 46.4111 1.71136 46.181 1.70615H43.4199C43.3204 1.70518 43.2244 1.74271 43.1524 1.8108C43.0804 1.87889 43.0379 1.97217 43.034 2.07082L43.0235 4.19288H39.8163L39.8022 2.08472C39.7952 0.89953 38.804 0.00607853 37.4996 0.00607853L25.8917 0.0147591C25.2356 0.0147591 24.7229 0.21186 24.2793 0.636444L24.0002 0.903004L23.7229 0.632968C23.2855 0.20491 22.7728 0.0138945 22.0607 0.0130262L10.5613 0C9.39685 0 8.21227 0.734556 8.19915 2.14202L8.17988 4.19375H4.97963L4.97523 2.12379C4.97844 2.07042 4.97068 2.01696 4.95237 1.96667C4.93406 1.91639 4.90558 1.87033 4.86873 1.83133C4.83188 1.79232 4.78744 1.76119 4.73805 1.73981C4.68867 1.71844 4.63541 1.70728 4.58153 1.70702H1.86942C1.76488 1.7055 1.66387 1.74443 1.58774 1.81555C1.55067 1.85043 1.52138 1.89264 1.50179 1.93945C1.48219 1.98627 1.47271 2.03664 1.47398 2.08732V34.2003L1.1013 34.2246C0.89348 34.2403 0.684949 34.245 0.476628 34.2385H0.452151C0.3261 34.2339 0.20305 34.2774 0.10831 34.3601C0.0747508 34.3918 0.0481803 34.4301 0.0302629 34.4726C0.0123455 34.515 0.00347422 34.5607 0.00420467 34.6067C0.00219312 34.6567 0.0103666 34.7067 0.0282552 34.7535C0.0461438 34.8004 0.0733747 34.8432 0.10831 34.8793C0.154368 34.9211 0.208327 34.9533 0.267052 34.9742C0.325776 34.995 0.388109 35.0041 0.450399 35.0009H47.5606C47.6231 35.0037 47.6854 34.9941 47.744 34.9727C47.8026 34.9512 47.8563 34.9183 47.9018 34.8758C47.9365 34.8408 47.9636 34.7991 47.9813 34.7532C47.9991 34.7073 48.0072 34.6584 48.0051 34.6093C48.0047 34.5592 47.9938 34.5098 47.973 34.4642C47.9522 34.4186 47.922 34.3778 47.8843 34.3445ZM4.21061 34.2524H2.22377V2.45287H4.21061V34.2524ZM43.0253 4.94393V8.1218H37.7454C37.133 8.11573 36.7069 7.68246 36.7061 7.06773V6.0258C36.7061 5.44667 37.0735 5.01513 37.6247 4.95262H37.6702L43.0253 4.94393ZM24.3782 2.2523C24.3782 1.4066 24.9819 0.769287 25.778 0.769287H37.5993C37.7897 0.767078 37.9787 0.802483 38.1551 0.873438C38.3316 0.944393 38.4921 1.04948 38.6273 1.18258C38.7655 1.322 38.8744 1.48728 38.9477 1.66884C39.021 1.85039 39.0572 2.04458 39.0542 2.24014L39.049 4.17986L38.6623 4.19028C38.3613 4.19896 38.1094 4.20677 37.8075 4.19635C36.8671 4.16423 36.0578 4.84321 35.9642 5.73927C35.9426 5.99713 35.9356 6.256 35.9432 6.51464C35.9432 6.68222 35.9432 6.85587 35.9432 7.0356C35.9338 7.27667 35.9732 7.51715 36.0592 7.74281C36.1451 7.96846 36.2758 8.1747 36.4436 8.34929C36.602 8.51372 36.792 8.64493 37.0023 8.73516C37.2127 8.82539 37.4392 8.87281 37.6684 8.8746L39.0551 8.89283V23.3278L37.7935 23.3383C36.8058 23.3469 36.0193 24.0381 35.9624 24.9446C35.9362 25.3691 35.9423 25.779 35.9484 26.214V26.2904C35.9519 26.7529 36.1398 27.1952 36.4709 27.5206C36.8021 27.846 37.2496 28.0281 37.7157 28.0269L39.056 28.0339V30.0378C39.0525 30.4174 38.898 30.7801 38.6261 31.0471C38.3542 31.314 37.987 31.4634 37.6045 31.4627H25.8917C25.6909 31.4669 25.4912 31.4315 25.3043 31.3587C25.1173 31.2858 24.9467 31.1768 24.8025 31.0381C24.6641 30.8951 24.5555 30.7264 24.483 30.5416C24.4104 30.3568 24.3755 30.1597 24.38 29.9614L24.3782 2.2523ZM43.0297 24.0893L43.0253 27.2698H37.6728C37.1278 27.2307 36.7157 26.8131 36.7105 26.2991V25.0887C36.7105 24.5842 37.07 24.1857 37.6098 24.098L37.6413 24.0928L43.0297 24.0893ZM8.94805 2.17676C8.94837 1.98883 8.98636 1.80284 9.0598 1.62961C9.13323 1.45639 9.24063 1.2994 9.37579 1.16777C9.51094 1.03614 9.67112 0.932511 9.84701 0.862908C10.0229 0.793304 10.211 0.75912 10.4003 0.762344H22.2112C23.0169 0.762344 23.6241 1.40052 23.6241 2.24622V30.0639C23.6253 30.2596 23.5827 30.4532 23.4995 30.6306C23.4163 30.8081 23.2945 30.965 23.1429 31.0902C22.855 31.3283 22.4914 31.4575 22.1167 31.4548H10.3986C9.61121 31.4548 8.95941 30.8375 8.95591 30.0786L8.94454 28.0347L10.3338 28.0139C10.7647 28.0077 11.1778 27.8424 11.4924 27.5502C11.8071 27.258 12.0007 26.8599 12.0355 26.4336C12.0687 25.9422 12.0705 25.4492 12.0407 24.9576C12.0162 24.5262 11.8269 24.1204 11.5114 23.8227C11.1951 23.5222 10.7761 23.3513 10.3382 23.3443L8.94629 23.3235V8.88589L10.2227 8.87547C11.2673 8.86765 12.06 8.09402 12.06 7.06859V6.02667C12.06 5.00471 11.2804 4.2033 10.2831 4.19549L8.94365 4.18941L8.94805 2.17676ZM4.97873 4.94393H10.2988C10.7748 4.97172 11.2709 5.31903 11.277 5.85388L11.2909 7.09377C11.2962 7.58522 10.9812 7.97246 10.4703 8.10618L10.4205 8.1192H4.97087L4.97873 4.94393ZM4.96297 8.86678H8.18954V23.3339H4.96211L4.96297 8.86678ZM10.2918 24.0824C10.556 24.0849 10.8086 24.1905 10.9949 24.3764C11.1812 24.5623 11.2863 24.8135 11.2874 25.0757L11.2927 26.2088C11.2927 26.8096 10.8649 27.2507 10.2674 27.2602H4.97788L4.96912 24.078L10.2918 24.0824ZM43.027 34.2411H4.97437L4.96997 28.02L8.18689 28.0139V29.9788C8.18404 30.2744 8.23993 30.5676 8.35131 30.8417C8.4627 31.1158 8.62739 31.3655 8.83604 31.5764C9.02396 31.7691 9.24879 31.9225 9.49728 32.0278C9.74577 32.1331 10.0129 32.188 10.2831 32.1894L22.1097 32.2076C22.4068 32.2135 22.7022 32.161 22.9789 32.0533C23.2556 31.9456 23.5082 31.7847 23.7221 31.5799L23.9932 31.3281L24.2654 31.5781C24.4846 31.7864 24.7433 31.9494 25.0266 32.0574C25.3099 32.1655 25.612 32.2166 25.9154 32.2076H37.5512C38.131 32.2168 38.6924 32.006 39.1207 31.6181C39.5387 31.2281 39.787 30.6917 39.8128 30.1229V28.0165L43.0297 28.0226L43.027 34.2411ZM43.0375 23.3356H39.811V8.87025H43.0375V23.3356ZM45.7768 34.2507H43.7899V2.45894H45.7768V34.2507Z" fill="#031286"/>
</g>
<defs>
<clipPath id="clip0_458_443">
<rect width="48" height="35" fill="white"/>
</clipPath>
</defs>
</svg>
