<svg width="48" height="35" viewBox="0 0 48 35" fill="none" xmlns="http://www.w3.org/2000/svg">
<path d="M47.8241 11.51L43.3356 1.88266C42.9951 1.15558 42.3991 0.70435 41.6584 0.611549C40.9313 0.521303 40.2409 0.805667 39.7164 1.4127L39.5163 1.64427L39.3239 1.40503C38.8131 0.771609 38.132 0.446382 37.3564 0.468518C36.6131 0.488951 35.9465 0.861855 35.4774 1.51657L35.2509 1.83413L35.0509 1.49954C34.1995 0.0785857 32.4235 -0.414363 31.0043 0.376568C29.585 1.1675 29.0878 2.84557 29.8055 4.37805L32.3401 9.79367L13.1398 18.7519L10.7559 13.6683C10.5937 13.3198 10.3938 12.9901 10.16 12.6849L10.1549 12.6781C10.1293 12.6432 10.1029 12.61 10.0782 12.5785L10.0467 12.5411C9.93356 12.4009 9.80912 12.2702 9.67466 12.1503C8.69132 11.3185 7.14692 11.287 6.0827 12.0745C5.03465 12.8501 4.62004 14.203 5.027 15.5158L5.13683 15.8717L4.76477 15.8461C3.85805 15.784 3.03561 16.1696 2.56821 16.8763C2.1008 17.5829 2.04716 18.4488 2.43539 19.2916L2.60566 19.6526H2.20808C1.41459 19.6526 0.738594 19.9983 0.353771 20.5968C-0.0523367 21.2311 -0.111926 21.9667 0.191165 22.6146L4.63791 32.1705C4.97847 32.9018 5.56591 33.3624 6.29128 33.468C7.01666 33.5735 7.69181 33.3053 8.29629 32.6642L8.5517 32.3901L8.71006 32.7307C9.10425 33.5778 9.80749 34.0929 10.6887 34.1712C11.5205 34.2495 12.3063 33.8715 12.8503 33.1342L13.0776 32.8235L13.2751 33.1538C14.1265 34.579 15.9068 35.0694 17.3269 34.2717C18.7333 33.4816 19.2297 31.7873 18.5077 30.2438L15.4291 23.655L34.632 14.7036L37.8417 21.5376C38.4964 22.9296 40.2145 23.5409 41.6729 22.8998C43.1109 22.2681 43.8013 20.6504 43.2862 19.1375L43.1585 18.7655L43.5502 18.8004C43.9799 18.8452 44.4137 18.7721 44.8049 18.5887C45.1962 18.4054 45.53 18.1189 45.7706 17.76C46.2567 17.0142 46.2882 16.1177 45.8557 15.3004C45.7712 15.1282 45.7025 14.9486 45.6505 14.764L45.5518 14.4465L45.8838 14.4337C46.6305 14.4039 47.2681 14.0633 47.6334 13.4972C48.0429 12.8723 48.1136 12.1307 47.8241 11.51ZM7.85357 31.875C7.79376 32.0382 7.70237 32.188 7.58463 32.3158C7.46688 32.4436 7.32508 32.547 7.16736 32.62C6.98473 32.7043 6.78616 32.7484 6.58503 32.7494C6.06483 32.7494 5.58464 32.4412 5.33007 31.898L0.866302 22.337C0.785074 22.1684 0.739807 21.9848 0.733358 21.7978C0.726909 21.6108 0.759424 21.4244 0.828847 21.2507C0.897099 21.0802 0.99943 20.9254 1.12957 20.7959C1.25972 20.6663 1.41493 20.5647 1.58571 20.4972C2.29151 20.2188 3.00326 20.5398 3.35658 21.2958L7.79483 30.798C7.87569 30.9646 7.92251 31.1457 7.9326 31.3306C7.94269 31.5155 7.91583 31.7006 7.85357 31.875ZM11.5903 33.2806C11.3728 33.3914 11.1319 33.4481 10.8879 33.4458C10.7048 33.4471 10.5227 33.4183 10.349 33.3607C10.1591 33.2993 9.98387 33.1996 9.83407 33.0678C9.68426 32.936 9.56309 32.7749 9.47801 32.5944L3.00753 18.7442C2.93076 18.5775 2.88846 18.397 2.88319 18.2135C2.87793 18.0301 2.90979 17.8474 2.97687 17.6766C3.13075 17.2628 3.43766 16.9239 3.83422 16.7298C4.02238 16.6411 4.22626 16.5905 4.43409 16.581C4.64192 16.5715 4.84959 16.6033 5.04506 16.6745C5.24053 16.7458 5.41994 16.8551 5.57291 16.9961C5.72588 17.1371 5.84938 17.3071 5.93627 17.4961L12.3003 31.1207C12.6996 31.9678 12.4067 32.8558 11.5903 33.2806ZM17.8845 30.6661C18.4337 31.8401 17.9841 33.1393 16.839 33.6876C16.5369 33.8324 16.206 33.9072 15.871 33.9064C15.6128 33.9065 15.3566 33.8624 15.1133 33.7761C14.8354 33.678 14.58 33.5253 14.3621 33.3268C14.1442 33.1284 13.9683 32.8883 13.8447 32.6208L5.79833 15.4C5.67559 15.138 5.60656 14.8541 5.5953 14.565C5.58404 14.276 5.6308 13.9875 5.7328 13.7168C5.83822 13.4342 5.99837 13.1752 6.20407 12.9546C6.40977 12.734 6.65697 12.5561 6.93152 12.4312C8.08174 11.9204 9.36987 12.4312 9.92752 13.6232L9.97691 13.7279L17.8845 30.6661ZM15.1337 23.0037L13.4531 19.4006L32.5631 10.4884L34.2463 14.0931L15.1337 23.0037ZM42.5907 20.9442C42.4846 21.2267 42.3232 21.4852 42.1159 21.7045C41.9086 21.9238 41.6595 22.0995 41.3834 22.2212C41.0979 22.3457 40.7899 22.4103 40.4784 22.4111C39.627 22.4111 38.8208 21.9139 38.4198 21.0566L30.393 3.86467C29.8438 2.69147 30.5207 1.41099 31.4998 0.952101C32.0539 0.700544 32.6843 0.674893 33.257 0.880588C33.5143 0.971227 33.751 1.11204 33.9534 1.29488C34.1558 1.47771 34.3199 1.69891 34.4362 1.94566L42.5319 19.2576C42.6552 19.5205 42.7239 19.8056 42.734 20.0957C42.7441 20.3859 42.6953 20.6751 42.5907 20.9459V20.9442ZM45.3015 17.0925C45.133 17.4838 44.8169 17.7928 44.422 17.9524C44.2272 18.0264 44.0207 18.0647 43.8124 18.0657C43.2054 18.0657 42.6579 17.7251 42.3753 17.1181L36.0257 3.52837C35.6298 2.68466 35.9286 1.77538 36.7357 1.36672C36.9294 1.27017 37.1405 1.21391 37.3565 1.20132C37.5725 1.18874 37.7888 1.2201 37.9924 1.2935C38.194 1.36549 38.3787 1.47823 38.5348 1.62471C38.6909 1.77119 38.8152 1.94826 38.8999 2.14488L39.5444 3.61777L44.1206 13.3907C44.2704 13.71 44.4211 14.014 44.5667 14.3085C44.8426 14.8662 45.1039 15.3932 45.3389 15.9789C45.408 16.1578 45.4403 16.3488 45.4339 16.5404C45.4275 16.732 45.3824 16.9204 45.3015 17.0942V17.0925ZM46.6109 13.4869C46.3783 13.6216 46.1134 13.6905 45.8446 13.6862C45.7164 13.6869 45.5886 13.67 45.4649 13.6359C45.3382 13.6046 45.2199 13.5457 45.1185 13.4635C45.0171 13.3812 44.9351 13.2776 44.8783 13.16L40.1174 2.99626C40.0614 2.8736 40.0324 2.74032 40.0324 2.60548C40.0324 2.47063 40.0614 2.33736 40.1174 2.2147C40.2734 1.85497 40.5645 1.57092 40.9279 1.42377C41.2523 1.3018 41.6112 1.30916 41.9304 1.44432C42.2495 1.57949 42.5045 1.83213 42.6426 2.14999L47.1549 11.8089C47.4622 12.4781 47.1166 13.16 46.6109 13.4869Z" fill="#031286"/>
</svg>
