<svg width="48" height="62" viewBox="0 0 48 62" fill="none" xmlns="http://www.w3.org/2000/svg">
<path d="M45.0819 22.0758C45.4636 22.0751 45.8414 21.9984 46.1933 21.8504C46.5451 21.7023 46.864 21.4858 47.1315 21.2134C47.6887 20.6508 48.0009 19.8907 47.9999 19.0989C47.9879 17.4375 46.6406 16.134 44.9338 16.1461L39.2125 16.1355V15.5404C39.2441 13.984 38.7132 12.4685 37.7172 11.2721L37.249 10.6981L37.909 10.3644C39.4436 9.58652 40.4057 8.37217 40.7667 6.75456L40.7818 6.7017C41.3452 4.94815 41.0174 3.16138 39.8756 1.80204C38.7337 0.4427 36.9424 -0.227912 35.2734 0.0696326C33.2163 0.433633 31.7104 1.84433 31.1425 3.93469C30.6425 5.77131 30.8042 7.19106 31.6696 8.53379L32.1227 9.22856L31.3223 9.43396C30.4009 9.66958 29.7696 10.1892 29.0385 10.7933C28.8482 10.9443 28.6519 11.112 28.4465 11.2721C27.5991 11.9276 26.7065 12.5 25.8441 13.0543C25.3215 13.3866 24.7868 13.7325 24.2627 14.092C23.8027 14.3946 23.4654 14.851 23.311 15.3795C23.1566 15.908 23.1952 16.4741 23.4199 16.9768L25.406 21.4158L25.3879 21.5774C25.2827 22.3102 25.1155 23.0327 24.888 23.7372C24.6373 24.5891 24.4001 25.3986 24.3926 26.2354L24.2974 36.7567L24.5497 37.8547L24.5814 43.141L16.6247 43.1108L15.4164 42.8661L12.7777 42.8858C12.3386 42.8826 11.9031 42.9665 11.4966 43.1326C11.09 43.2987 10.7205 43.5438 10.4093 43.8536C10.098 44.1634 9.85127 44.5319 9.68331 44.9377C9.51534 45.3435 9.42947 45.7785 9.43068 46.2177V53.6548C9.44271 53.8509 9.51263 54.0391 9.63157 54.1955C9.7962 54.3269 10.0454 54.3465 10.4396 54.3737H10.4985C13.3396 54.5489 15.7517 52.7878 16.3649 50.0903L16.4706 49.6266H27.8952C30.2695 49.6266 32.1771 48.3035 33.0048 46.0893L33.3069 45.2616L33.9579 45.8582C34.0711 45.9624 34.4442 46.3309 34.4442 46.7146L34.4261 54.0898L34.3566 54.2196C34.1225 54.6622 34.0877 54.8736 34.0877 54.9612L34.1029 57.911C34.1119 59.5211 35.1677 60.7807 36.8654 61.2142H45.1574C45.473 61.0284 45.5757 60.746 45.6029 60.0814C45.7087 57.4231 44.2194 55.1999 41.8089 54.4175L41.3965 54.2846L41.389 43.9083C41.3756 42.7579 41.1944 41.6156 40.8513 40.5175L39.3409 35.8082L37.1025 26.3592L37.9438 22.106L45.0819 22.0758ZM11.3126 53.0974L10.6813 53.1382V46.2071C10.6778 45.9368 10.7285 45.6686 10.8305 45.4182C10.9324 45.1679 11.0836 44.9405 11.2749 44.7496C11.7061 44.3367 12.282 44.1095 12.8789 44.1167H12.9031L15.2336 44.1394V48.8397C15.2427 51.1642 13.5994 52.9539 11.3126 53.0974ZM32.2632 4.46332C32.8568 2.17963 34.8022 0.87165 36.888 1.35195C37.3749 1.45846 37.8351 1.66279 38.2407 1.95254C38.6462 2.24229 38.9887 2.61142 39.2472 3.03753C39.8197 3.99208 39.9571 5.17622 39.6354 6.37395C39.4838 6.9461 39.2278 7.48529 38.8802 7.96437C38.5537 8.41406 38.1364 8.7902 37.6553 9.06846C37.1165 9.37896 36.5055 9.54202 35.8836 9.54121C35.531 9.53788 35.1805 9.48707 34.8414 9.39017C32.7888 8.82529 31.6787 6.70472 32.2632 4.46181V4.46332ZM24.5723 16.5463C24.2989 16.0071 24.6539 15.2489 25.1266 14.9801L27.2517 13.7808L25.9272 19.2333L24.5723 16.5463ZM32.017 44.3871C32.0168 44.9119 31.913 45.4316 31.7116 45.9163C31.5102 46.4009 31.2152 46.8411 30.8434 47.2115C30.4715 47.5819 30.0302 47.8753 29.5448 48.0749C29.0594 48.2745 28.5393 48.3763 28.0145 48.3745H16.4993L16.4842 44.3826H25.1765C25.2681 44.3784 25.358 44.3558 25.4407 44.3162C25.5235 44.2766 25.5975 44.2208 25.6582 44.152C25.7189 44.0832 25.7652 44.003 25.7943 43.9159C25.8233 43.8289 25.8346 43.737 25.8274 43.6455L25.838 37.7248L32.0185 37.7369L32.017 44.3871ZM32.1182 36.4637L25.5692 36.4848V27.0012L33.6467 27.0117L32.1182 36.4637ZM40.2154 55.4068C42.4628 55.4793 44.153 57.0863 44.3236 59.3217L44.372 59.9621H37.4046C37.1346 59.9613 36.8675 59.9068 36.6189 59.8018C36.3702 59.6968 36.1449 59.5433 35.9561 59.3504C35.5744 58.971 35.3574 58.4567 35.352 57.9186V55.4053H40.2124L40.2154 55.4068ZM39.6868 41.031C39.9801 41.9332 40.1329 42.8751 40.1399 43.8237L40.1489 54.1547H35.6948V46.3189C35.6829 46.1526 35.6426 45.9896 35.5755 45.8371L33.2691 42.6094V37.6372L38.3048 36.731L39.6868 41.031ZM37.9634 35.4834L33.4126 36.3353L34.9608 27.0012H35.9229L37.9634 35.4834ZM30.8993 18.2546C31.5684 20.5201 33.5591 22.0305 35.9667 22.0879L36.6751 22.106L35.9531 25.7506H25.7278L28.4359 14.166C28.5772 13.5393 28.8425 12.9472 29.216 12.4246C29.5895 11.9019 30.0637 11.4592 30.6108 11.1226C31.1552 10.7878 31.7609 10.5651 32.3925 10.4676C33.024 10.3701 33.6687 10.3997 34.2886 10.5547C36.8563 11.183 38.4286 13.8186 37.8033 16.4331C37.7473 16.6673 37.7807 16.9139 37.897 17.1248C37.9741 17.2074 38.0677 17.2729 38.1718 17.3169C38.2759 17.3609 38.3881 17.3824 38.5011 17.3801H45.0396C45.4895 17.3839 45.9202 17.5631 46.2401 17.8796C46.5599 18.1961 46.7437 18.6248 46.7523 19.0747C46.758 19.3013 46.7181 19.5267 46.6351 19.7376C46.5521 19.9486 46.4276 20.1407 46.269 20.3026C46.0977 20.4731 45.8939 20.6075 45.6698 20.698C45.4457 20.7886 45.2057 20.8333 44.964 20.8298H36.0709C34.2222 20.8298 32.6982 19.7211 32.094 17.9374C32.0542 17.7807 31.9556 17.6452 31.8187 17.5592C31.6818 17.4732 31.517 17.4431 31.3585 17.4752C31.2735 17.496 31.1934 17.5333 31.1229 17.5852C31.0524 17.637 30.9928 17.7023 30.9477 17.7773C30.9074 17.8485 30.8823 17.9272 30.874 18.0086C30.8657 18.09 30.8743 18.1722 30.8993 18.25V18.2546Z" fill="#031286"/>
<path d="M28.8542 59.9636H14.1264C13.9721 59.9571 13.8207 60.0072 13.7008 60.1046C13.5809 60.202 13.5008 60.3398 13.4755 60.4922C13.4498 60.6342 13.406 60.8879 13.9286 61.2081H29.1563C29.6517 60.8668 29.6094 60.604 29.5883 60.5073C29.5339 60.1629 29.2666 59.9636 28.8542 59.9636Z" fill="#031286"/>
<path d="M9.84088 59.9864C9.68795 59.9921 9.54283 60.0556 9.43489 60.1641C9.32696 60.2726 9.26424 60.418 9.25937 60.571C9.2352 60.873 9.49651 61.08 9.7578 61.2114H10.0251C10.5296 60.867 10.4858 60.6072 10.4677 60.5151C10.4472 60.365 10.3717 60.2278 10.2559 60.1302C10.1402 60.0325 9.99227 59.9813 9.84088 59.9864Z" fill="#031286"/>
<path d="M16.2791 33.6573C16.404 33.5181 16.4686 33.3351 16.4588 33.1483C16.4437 32.9172 16.2307 32.5804 15.8894 32.5804H0.634503C0.550326 32.579 0.46674 32.5948 0.388844 32.6267C0.310948 32.6587 0.24037 32.7061 0.181387 32.7662C0.122343 32.8257 0.0758662 32.8965 0.0447297 32.9743C0.0135931 33.0522 -0.00157827 33.1355 0.000129744 33.2193C0.00284819 33.3787 0.0673795 33.5308 0.180097 33.6435C0.292814 33.7562 0.444902 33.8207 0.604284 33.8235H15.8849C15.9586 33.8256 16.032 33.8119 16.1001 33.7832C16.1681 33.7546 16.2291 33.7116 16.2791 33.6573Z" fill="#031286"/>
<path d="M9.97449 26.9951H18.1578C18.5459 26.9241 18.7619 26.6734 18.7408 26.3215C18.7264 26.1645 18.6539 26.0185 18.5373 25.9122C18.4207 25.806 18.2687 25.7473 18.111 25.7476H9.90804C9.83577 25.7475 9.76424 25.7624 9.69797 25.7912C9.6317 25.8201 9.57211 25.8623 9.52289 25.9152C9.40259 26.0387 9.33398 26.2035 9.33107 26.3759C9.33057 26.4594 9.34708 26.5421 9.37956 26.6191C9.41203 26.696 9.4598 26.7656 9.51997 26.8235C9.58015 26.8814 9.65147 26.9265 9.72961 26.956C9.80774 26.9855 9.89105 26.9988 9.97449 26.9951Z" fill="#031286"/>
<path d="M5.06367 26.983C5.39817 26.983 5.66934 26.7119 5.66934 26.3774C5.66934 26.0429 5.39817 25.7717 5.06367 25.7717C4.72917 25.7717 4.45801 26.0429 4.45801 26.3774C4.45801 26.7119 4.72917 26.983 5.06367 26.983Z" fill="#031286"/>
</svg>
