<svg width="293" height="154" viewBox="0 0 293 154" fill="none" xmlns="http://www.w3.org/2000/svg">
<path d="M292.38 143.403C292.268 143.261 292.127 143.146 291.965 143.065C291.804 142.984 291.627 142.94 291.446 142.937H275.104V137.225C275.104 136.407 274.549 135.741 273.86 135.741H262.384L262.357 113.897L263.298 114.112C269.553 115.527 274.985 114.494 279.453 111.051C283.661 107.815 286.155 102.773 286.308 97.226L286.339 96.0975L285.735 91.8206L285.551 91.702L283.16 86.683L283.573 86.3004C288.619 81.6027 290.907 74.8967 289.847 67.8922C288.944 61.9015 285.038 56.5994 278.864 52.9728L278.504 52.7624V52.3416C278.386 49.4572 276.519 46.7908 274.522 44.3731C274.14 43.8796 273.707 43.3938 273.306 42.9194C272.904 42.4451 272.583 42.074 272.254 41.6647C270.134 39.3885 266.963 38.5163 266.963 38.5163L265.919 38.2447C263.489 37.5782 260.947 37.4295 258.457 37.8085C255.966 38.1874 253.583 39.0854 251.462 40.4444C249.361 41.8015 247.569 43.5851 246.201 45.6795C244.834 47.7738 243.922 50.1322 243.524 52.6017L243.455 52.9843L243.103 53.1564C240.237 54.579 237.75 56.662 235.845 59.2338C233.941 61.8056 232.675 64.7928 232.151 67.9496C231.003 74.8355 233.261 81.3923 238.467 86.4228L238.918 86.8513L238.589 87.3792C234.645 93.7601 234.879 101.679 239.182 107.543C243.486 113.408 250.777 115.959 258.206 114.184L259.155 113.959V135.764H259.04C259.006 135.71 258.975 135.657 258.937 135.607L146.055 0.502468C145.936 0.346238 145.782 0.219634 145.606 0.132482C145.43 0.0453295 145.236 0 145.039 0C144.843 0 144.649 0.0453295 144.473 0.132482C144.296 0.219634 144.143 0.346238 144.023 0.502468L31.4586 135.228C31.3306 135.387 31.2298 135.565 31.1602 135.756H30.5252L30.4946 113.913L31.4356 114.127C37.6941 115.542 43.1263 114.51 47.5945 111.067C49.6951 109.419 51.4006 107.322 52.586 104.93C53.7715 102.538 54.407 99.9108 54.4459 97.2413L54.4765 96.1128L53.8721 91.8359L53.6923 91.7173L51.2976 86.6982L51.7107 86.3157C56.7603 81.618 59.048 74.9119 57.9883 67.9075C57.0817 61.9168 53.1797 56.6146 47.0053 52.9881L46.6419 52.7777V52.3569C46.5272 49.4725 44.6565 46.8061 42.6634 44.3884C42.2579 43.8949 41.8448 43.4091 41.4431 42.9347C41.0414 42.4604 40.7239 42.0893 40.3911 41.68C38.2756 39.4038 35.1004 38.5316 35.1004 38.5316L34.0599 38.26C31.63 37.5929 29.0871 37.444 26.596 37.8229C24.1048 38.2019 21.7212 39.1002 19.5996 40.4596C17.499 41.8173 15.707 43.6011 14.3396 45.6954C12.9722 47.7897 12.0598 50.1478 11.6617 52.617L11.5967 52.9996L11.2447 53.1717C8.37836 54.5944 5.8908 56.6773 3.98671 59.2491C2.08262 61.8209 0.816421 64.8081 0.292352 67.9649C-0.855293 74.8507 1.40175 81.4076 6.60823 86.4381L7.05583 86.8666L6.72684 87.3945C2.78659 93.7754 3.01992 101.694 7.32359 107.559C11.6273 113.423 18.9186 115.975 26.3477 114.2L27.2965 113.974V135.779H21.7763C21.0915 135.779 20.533 136.445 20.533 137.264V142.975H7.84002C7.61442 142.982 7.39486 143.05 7.20391 143.17C7.01295 143.29 6.8575 143.459 6.7536 143.66C4.53864 147.543 6.49348 152.841 6.57764 153.07C6.65871 153.33 6.81735 153.558 7.03215 153.724C7.24695 153.89 7.50757 153.987 7.77885 154H291.396C292.119 154 292.708 153.3 292.716 152.435L292.777 144.566C292.791 144.143 292.649 143.73 292.38 143.403ZM253.574 73.5922L259.147 77.7352L259.121 90.0073L257.973 89.3455C256.252 88.3547 255.536 88.6263 255.096 88.9629C254.931 89.1139 254.799 89.2969 254.707 89.5008C254.615 89.7047 254.565 89.9252 254.561 90.1488C254.539 90.3699 254.562 90.593 254.628 90.8052C254.693 91.0173 254.801 91.2142 254.943 91.3845L259.151 95.5696V110.344L258.658 110.539C256.989 111.177 255.219 111.506 253.432 111.51C251.116 111.5 248.836 110.932 246.786 109.854C244.735 108.776 242.975 107.22 241.654 105.317C237.866 99.9842 238.272 92.6928 242.625 87.5514C242.744 87.4079 242.832 87.2413 242.882 87.0622C242.933 86.883 242.946 86.6952 242.92 86.5108C242.839 85.931 242.536 85.4054 242.074 85.0457C236.99 81.1169 234.477 75.0994 235.364 68.9557C235.78 66.0073 236.961 63.2194 238.79 60.87C240.619 58.5207 243.032 56.692 245.789 55.5665C246.228 55.2507 246.562 54.8093 246.745 54.3002C246.971 50.6796 248.562 47.2793 251.197 44.7858C253.831 42.2922 257.314 40.8911 260.942 40.8652H261.076C264.651 40.8895 268.092 42.2345 270.737 44.6416C273.381 47.0488 275.043 50.3484 275.402 53.9062C275.437 54.2596 275.556 54.5994 275.749 54.8975C275.942 55.1956 276.203 55.4433 276.511 55.62C279.202 56.7401 281.559 58.5356 283.353 60.8329C285.147 63.1302 286.318 65.8516 286.752 68.7338C287.228 71.7733 286.868 74.8851 285.709 77.7353C284.551 80.5854 282.638 83.0663 280.176 84.9118C279.927 85.0762 279.713 85.29 279.549 85.54C279.386 85.79 279.275 86.0709 279.224 86.3654C279.209 86.6547 279.253 86.9441 279.354 87.2157C279.454 87.4874 279.609 87.7356 279.809 87.9454C284.017 92.9185 284.185 100.363 280.226 105.665C278.271 108.279 275.486 110.151 272.328 110.974C269.169 111.797 265.825 111.522 262.843 110.194L262.392 109.992V96.35L267.437 91.0861C267.564 90.939 267.655 90.7637 267.701 90.5748C267.747 90.3858 267.747 90.1887 267.701 89.9996C267.658 89.7336 267.554 89.4809 267.399 89.2603C267.244 89.0397 267.042 88.857 266.806 88.7258C266.041 88.3662 265.303 88.6684 263.746 89.9729L262.495 91.0134L262.349 78.1598L268.398 73.6993C268.707 73.4447 268.937 73.1058 269.058 72.7236C269.18 72.3415 269.188 71.9323 269.082 71.5455C268.989 71.3429 268.852 71.1633 268.681 71.0193C268.511 70.8752 268.311 70.7702 268.095 70.7116C267.896 70.6419 267.684 70.6157 267.473 70.6349C267.263 70.654 267.059 70.718 266.875 70.8225L262.407 73.749L262.357 59.4493C262.357 58.4662 261.718 57.6819 260.869 57.6246C260.647 57.6153 260.426 57.6513 260.219 57.7302C260.012 57.8091 259.823 57.9294 259.664 58.0837C259.509 58.2195 259.384 58.3858 259.297 58.572C259.209 58.7583 259.161 58.9605 259.155 59.1663L259.105 73.3205L255.345 70.8837C254.924 70.6595 254.434 70.6008 253.972 70.7192C253.796 70.7486 253.628 70.8128 253.478 70.908C253.327 71.0033 253.197 71.1277 253.096 71.2739C252.923 71.6618 252.876 72.0941 252.962 72.5099C253.048 72.9257 253.262 73.3042 253.574 73.5922ZM21.7036 73.5922L27.2773 77.7352L27.2505 90.0073L26.1029 89.3455C24.3814 88.3547 23.6623 88.6263 23.2262 88.9629C23.0606 89.1135 22.9276 89.2964 22.8355 89.5004C22.7434 89.7044 22.6941 89.9251 22.6906 90.1488C22.6682 90.3699 22.6905 90.5933 22.7562 90.8055C22.822 91.0178 22.9297 91.2147 23.0731 91.3845L27.2812 95.5696V110.344L26.7877 110.539C25.1192 111.177 23.3484 111.506 21.562 111.51C19.2461 111.5 16.9668 110.932 14.9171 109.854C12.8674 108.776 11.1078 107.219 9.78723 105.317C6 99.9842 6.40164 92.6928 10.755 87.5514C10.8743 87.4081 10.9624 87.2416 11.0137 87.0625C11.0651 86.8833 11.0786 86.6954 11.0534 86.5108C11.0166 86.2191 10.9226 85.9376 10.7769 85.6823C10.6312 85.4269 10.4366 85.2028 10.2042 85.0227C5.12012 81.0939 2.60677 75.0764 3.49428 68.9327C3.90988 65.9839 5.09158 63.1957 6.92143 60.8463C8.75128 58.4969 11.1653 56.6685 13.9226 55.5435C14.3605 55.2272 14.6926 54.7858 14.8751 54.2773C15.1025 50.6566 16.6944 47.2568 19.3296 44.7635C21.9649 42.2702 25.4476 40.8689 29.0753 40.8422H29.2054C32.7817 40.8664 36.2229 42.2113 38.868 44.6184C41.513 47.0255 43.1753 50.3251 43.5356 53.8833C43.57 54.2364 43.6883 54.5761 43.8806 54.8742C44.0729 55.1723 44.3337 55.4202 44.6412 55.5971C47.3329 56.7166 49.6902 58.5119 51.4849 60.8092C53.2796 63.1066 54.451 65.8282 54.8859 68.7109C55.3614 71.7508 55.0003 74.8628 53.841 77.7129C52.6818 80.5631 50.7684 83.0438 48.306 84.8888C48.0568 85.0532 47.844 85.2671 47.6808 85.5172C47.5176 85.7672 47.4075 86.0481 47.3573 86.3425C47.3414 86.6319 47.3852 86.9215 47.4858 87.1932C47.5865 87.465 47.742 87.7132 47.9426 87.9224C52.1506 92.8956 52.3189 100.34 48.3596 105.642C46.4037 108.256 43.618 110.127 40.459 110.95C37.3 111.773 33.9552 111.499 30.9728 110.171L30.5252 109.969L30.5022 96.327L35.548 91.0631C35.6763 90.9167 35.7676 90.7416 35.8142 90.5525C35.8608 90.3635 35.8614 90.166 35.8158 89.9767C35.7721 89.7107 35.6689 89.4579 35.5139 89.2373C35.3589 89.0168 35.1561 88.8341 34.9206 88.7028C34.1555 88.3432 33.4172 88.6454 31.8603 89.9499L30.6093 90.9905L30.506 78.1368L36.5503 73.6763C36.8612 73.4225 37.0918 73.0839 37.214 72.7016C37.3362 72.3193 37.3449 71.9097 37.2389 71.5226C37.1452 71.32 37.0082 71.1404 36.8377 70.9963C36.6672 70.8522 36.4673 70.7472 36.2519 70.6886C36.0524 70.6187 35.8402 70.5924 35.6297 70.6115C35.4192 70.6306 35.2152 70.6948 35.0316 70.7996L30.5634 73.7261L30.5137 59.4264C30.5137 58.4433 29.871 57.659 29.0256 57.6016C28.8035 57.5928 28.582 57.6288 28.3743 57.7077C28.1665 57.7866 27.9769 57.9067 27.8167 58.0607C27.6627 58.1968 27.5383 58.3632 27.4515 58.5494C27.3646 58.7357 27.317 58.9379 27.3117 59.1433L27.262 73.2976L23.4977 70.8608C23.0765 70.6366 22.5867 70.5779 22.1244 70.6963C21.9491 70.7266 21.7815 70.7913 21.6312 70.8865C21.4809 70.9816 21.3508 71.1055 21.2484 71.2509C21.0689 71.6396 21.0162 72.0749 21.0979 72.4951C21.1797 72.9153 21.3915 73.2991 21.7036 73.5922ZM146.357 5.7166L174.111 38.9333L161.303 42.8888C160.599 43.1069 160.175 43.9676 160.358 44.8016C160.402 45.115 160.553 45.4036 160.785 45.6189C161.017 45.8342 161.316 45.963 161.632 45.9837C161.744 45.9837 161.855 45.9669 161.961 45.9339L176.272 41.5078L184.378 51.2131L155.469 60.0423C154.765 60.2565 154.341 61.1173 154.521 61.955C154.564 62.2696 154.714 62.5596 154.946 62.7763C155.178 62.993 155.478 63.1231 155.794 63.1448C155.905 63.1451 156.014 63.1283 156.12 63.095L186.548 53.8029L210.507 82.494L160.488 89.0318C159.765 89.1275 159.241 89.904 159.341 90.7724C159.346 91.1269 159.483 91.4668 159.725 91.7262C159.966 91.9856 160.296 92.1461 160.649 92.1764H160.794L212.917 85.3593L241.722 119.838L203.812 121.017C203.081 121.017 202.507 121.782 202.527 122.631C202.546 123.48 203.131 124.161 203.843 124.161H203.877L244.293 122.906L255.005 135.737H170.308L146.368 77.0504L146.357 5.7166ZM144.961 81.4612L167.095 135.741H119.854L144.961 81.4612ZM71.3966 92.2643L92.2761 95.2214C92.3283 95.2252 92.3807 95.2252 92.4329 95.2214C92.7843 95.1914 93.1122 95.0326 93.3536 94.7756C93.5951 94.5186 93.7331 94.1815 93.7413 93.8289C93.8254 92.9644 93.309 92.1802 92.5936 92.0769L73.7761 89.3991L77.9841 84.3456L122.578 92.1228C122.641 92.1283 122.705 92.1283 122.769 92.1228C123.114 92.0952 123.436 91.9428 123.677 91.6942C123.917 91.4455 124.058 91.1177 124.074 90.7724C124.177 89.9117 123.691 89.1122 122.96 88.9859L80.3138 81.6027L123.236 30.2303L137.826 36.7107C137.97 36.7763 138.127 36.8103 138.285 36.8101C138.574 36.7931 138.85 36.684 139.072 36.4989C139.295 36.3137 139.452 36.0621 139.521 35.7811C139.653 35.4071 139.648 34.9987 139.508 34.6278C139.368 34.2569 139.102 33.9473 138.756 33.7536L125.298 27.7782L143.733 5.71278V77.0389L141.858 81.0901L108.534 73.2058C107.823 73.0375 107.13 73.5883 107.004 74.4453C106.878 75.3022 107.326 76.1285 108.041 76.2968L140.535 83.9898L125.872 115.68L91.8247 113.894C91.0979 113.855 90.482 114.529 90.4514 115.397C90.4208 116.265 90.9831 117.004 91.7099 117.042L124.429 118.763L116.576 135.737H35.0928L71.3966 92.2643ZM23.0042 138.698H116.805H116.828C117.035 138.843 117.281 138.92 117.534 138.92C117.786 138.92 118.033 138.843 118.24 138.698H168.583C168.793 138.849 169.044 138.932 169.302 138.935C169.525 138.934 169.743 138.874 169.933 138.759C169.964 138.759 169.987 138.717 170.014 138.698H272.621V142.906H23.0042V138.698ZM290.077 150.79H8.68549C8.39475 149.643 8.05425 147.68 8.60512 146.074H290.115L290.077 150.79Z" fill="#CD0001"/>
<path d="M179.474 124.165H200.151C200.882 124.165 201.471 123.457 201.471 122.585C201.471 121.713 200.882 121.009 200.151 121.009H179.474C178.747 121.009 178.158 121.717 178.158 122.585C178.158 123.454 178.747 124.165 179.474 124.165Z" fill="#CD0001"/>
</svg>
