<svg width="48" height="48" viewBox="0 0 48 48" fill="none" xmlns="http://www.w3.org/2000/svg">
<path d="M45.0832 43.6597H41.8033L38.0766 40.1697C37.9832 40.0734 37.856 40.017 37.7219 40.0125C37.5877 40.0079 37.457 40.0556 37.3573 40.1454C37.2532 40.2527 37.1946 40.3961 37.1937 40.5456C37.1913 40.5993 37.2004 40.6528 37.2204 40.7027C37.2404 40.7525 37.2709 40.7975 37.3097 40.8345L41.4041 44.6633L45.1795 44.6853C45.4264 44.6867 45.6703 44.7401 45.8952 44.842C46.1201 44.944 46.321 45.0922 46.4848 45.277C46.6669 45.4806 46.8048 45.7198 46.8897 45.9794C46.9746 46.239 47.0046 46.5135 46.9778 46.7853L46.9593 46.9675H41.0097C40.7072 46.9489 40.4216 46.8216 40.2056 46.609L22.4543 29.7602V29.6755C22.4392 28.9655 22.431 28.2589 22.4902 27.4131L22.5204 26.9873L35.1912 38.8482C35.3652 39.0095 35.6297 39.1638 35.9093 38.977C35.9739 38.929 36.0273 38.8677 36.0662 38.7972C36.105 38.7268 36.1283 38.6488 36.1344 38.5686C36.1422 38.5078 36.1357 38.4459 36.1156 38.388C36.0954 38.33 36.0622 38.2775 36.0184 38.2345L22.4287 25.5138L22.438 25.4152C22.459 25.2322 22.4417 25.0468 22.3872 24.8708C22.3327 24.6948 22.2421 24.5321 22.1213 24.3931C21.9986 24.2628 21.8501 24.1596 21.6853 24.0898C21.5205 24.0201 21.343 23.9855 21.1641 23.9881L19.8345 23.9777V19.5515L21.069 19.5398C21.3304 19.5466 21.5881 19.4762 21.8098 19.3376C22.0316 19.199 22.2077 18.9981 22.3162 18.7602C22.4286 18.5187 22.4644 18.2487 22.4188 17.9863C22.3731 17.7239 22.2483 17.4818 22.0609 17.2925L11.7431 6.9526L11.728 5.71349H16.6311C17.398 5.71349 17.999 5.13338 17.999 4.40824V1.97178C17.999 1.24084 17.3968 0.667692 16.6276 0.667692H11.8069L11.7628 0.523825C11.6874 0.275538 11.5308 -0.0145184 11.2013 0.000564504C10.9112 0.0156474 10.7151 0.2384 10.7151 0.556301V6.95957L6.52441 11.1433C6.42791 11.236 6.37147 11.3628 6.36714 11.4965C6.3628 11.6303 6.41091 11.7604 6.50121 11.8592C6.59212 11.9543 6.71597 12.011 6.84735 12.0176C6.97873 12.0243 7.10769 11.9805 7.20779 11.8951L11.2326 7.86106L21.2685 17.9631C21.3141 18.0089 21.3452 18.0673 21.3577 18.1307C21.3702 18.1942 21.3636 18.2599 21.3388 18.3196C21.314 18.3793 21.272 18.4303 21.2182 18.4662C21.1644 18.5021 21.1011 18.5212 21.0365 18.5212H1.42872C1.36429 18.521 1.30134 18.5018 1.24778 18.466C1.19422 18.4302 1.15242 18.3793 1.12764 18.3198C1.10285 18.2603 1.09618 18.1949 1.10847 18.1316C1.12075 18.0684 1.15144 18.0101 1.19668 17.9643L5.20293 13.9035C5.29537 13.8114 5.34997 13.688 5.35599 13.5577C5.362 13.4273 5.31898 13.2995 5.23541 13.1992C5.1903 13.1482 5.13522 13.107 5.07356 13.078C5.01191 13.0491 4.94497 13.0331 4.8769 13.031C4.80463 13.0288 4.7327 13.0416 4.66562 13.0686C4.59853 13.0955 4.53774 13.1361 4.48707 13.1876L0.435576 17.2554C0.00629367 17.687 -0.110891 18.2137 0.107231 18.7393C0.207451 18.977 0.374699 19.1803 0.588556 19.3246C0.802413 19.4688 1.05363 19.5476 1.31154 19.5515L2.60751 19.5805V26.2691C2.60751 26.5789 2.79546 26.8005 3.07159 26.8214C3.34773 26.8423 3.54845 26.6648 3.61574 26.3735V19.5572H18.8146V32.5239H3.63314L3.61922 29.15C3.61228 29.0247 3.56011 28.9063 3.4724 28.8167C3.38469 28.727 3.26741 28.6723 3.14237 28.6627C3.0728 28.6596 3.00331 28.6705 2.93798 28.6946C2.87264 28.7187 2.81275 28.7556 2.76182 28.8031C2.71051 28.8577 2.67071 28.9222 2.6448 28.9925C2.61889 29.0629 2.60739 29.1377 2.61099 29.2126V46.9814H0.644414C0.448337 46.9814 0.10607 47.0336 0.019053 47.3712C-0.0552012 47.659 0.193086 47.8875 0.345075 47.9966H48V46.0416C47.5928 44.5716 46.4778 43.662 45.0832 43.6597ZM11.728 1.67243H16.9942V4.69946H11.728V1.67243ZM7.53845 46.9698H3.62155V33.5112H7.53845V46.9698ZM13.8976 46.9698H8.55132V44.1945H13.8976V46.9698ZM13.8976 43.1817H8.55132V40.7545H13.8976V43.1817ZM13.8976 39.7428H8.55132V37.3063H13.8976V39.7428ZM13.8976 36.2946H8.55132V33.5112H13.8976V36.2946ZM18.8239 46.9686H14.9105V33.5101H18.8239V46.9686ZM19.8356 25.0033H20.9959C21.0534 25.0033 21.1104 25.0147 21.1635 25.0367C21.2167 25.0588 21.2649 25.0911 21.3056 25.1318C21.3462 25.1726 21.3784 25.221 21.4003 25.2742C21.4222 25.3274 21.4334 25.3843 21.4333 25.4419V30.1466C21.4333 30.2961 21.3738 30.4396 21.2681 30.5453C21.1624 30.651 21.0189 30.7105 20.8694 30.7105H19.8368L19.8356 25.0033ZM19.8356 46.9675V31.7512L21.1676 31.7268C21.3695 31.7235 21.5685 31.6775 21.7514 31.5919C21.9344 31.5063 22.0972 31.3831 22.2292 31.2302L22.3696 31.084L24.2131 32.8244V46.9698L19.8356 46.9675ZM25.2237 46.9675L25.233 33.8117L31.3764 39.6128L31.3856 46.9443L25.2237 46.9675ZM32.3881 46.9675L32.4055 40.6025L39.0825 46.9431L32.3881 46.9675Z" fill="#031286"/>
<path d="M11.5062 21.6887C10.8894 21.649 10.2712 21.7412 9.69278 21.9593C9.11439 22.1774 8.58915 22.5163 8.15207 22.9533C7.71499 23.3904 7.37611 23.9157 7.15804 24.494C6.93996 25.0724 6.84769 25.6907 6.8874 26.3075C6.96005 27.3587 7.41069 28.348 8.15606 29.0927C8.90143 29.8375 9.89116 30.2872 10.9424 30.359C11.5591 30.3982 12.1772 30.3055 12.7553 30.0871C13.3335 29.8686 13.8584 29.5295 14.2951 29.0922C14.7319 28.6549 15.0704 28.1295 15.2881 27.5511C15.5058 26.9727 15.5977 26.3546 15.5577 25.7378C15.4846 24.6877 15.0343 23.6993 14.2896 22.9552C13.545 22.211 12.5565 21.7612 11.5062 21.6887ZM11.4935 29.3461C11.0112 29.3854 10.5261 29.3193 10.0719 29.1525C9.61774 28.9856 9.20526 28.722 8.8631 28.3798C8.52095 28.0377 8.2573 27.6252 8.09044 27.171C7.92358 26.7168 7.85751 26.2317 7.89679 25.7494C7.96408 24.9628 8.30739 24.2252 8.86601 23.6672C9.42463 23.1092 10.1626 22.7668 10.9493 22.7004C11.4312 22.6618 11.9157 22.7284 12.3693 22.8956C12.8229 23.0628 13.2347 23.3265 13.5762 23.6686C13.9178 24.0107 14.1809 24.423 14.3473 24.8768C14.5138 25.3307 14.5796 25.8153 14.5402 26.2971C14.4731 27.0828 14.1306 27.8197 13.5732 28.3775C13.0158 28.9354 12.2792 29.2784 11.4935 29.3461Z" fill="#031286"/>
</svg>
