<svg width="48" height="31" viewBox="0 0 48 31" fill="none" xmlns="http://www.w3.org/2000/svg">
<g clip-path="url(#clip0_458_427)">
<path d="M46.8399 18.9038L46.5615 18.5529L46.9558 18.3299C47.1248 18.2393 47.2723 18.1141 47.3886 17.9628C47.5049 17.8114 47.5872 17.6373 47.6301 17.452C47.6668 17.27 47.664 17.0824 47.6219 16.9017C47.5797 16.7209 47.4992 16.551 47.3856 16.4033L45.8873 14.3761L46.2027 14.1422C46.8518 13.6743 46.9811 12.9048 46.5182 12.2709L45.0277 10.2437L45.3431 10.0098C45.9795 9.54195 46.1223 8.77551 45.6838 8.18138L42.8772 4.38191C42.7604 4.21945 42.607 4.08611 42.429 3.99245C42.2511 3.8988 42.0535 3.84741 41.852 3.84236C41.6526 3.83726 41.455 3.87931 41.2754 3.96502C41.0959 4.05074 40.9396 4.17763 40.8197 4.33513L38.9775 6.78884L35.8365 0.497463C35.6591 0.1427 35.1638 -0.0202648 34.7664 0.0015667C34.3973 0.0226185 33.9265 0.198055 33.7128 0.62533L28.6878 10.7123L26.158 5.64424C25.9119 5.15069 25.4876 4.86455 24.994 4.85675C24.4758 4.84973 24.0413 5.12574 23.7992 5.61383L22.4302 8.37708C22.1561 8.9464 21.8237 9.48643 21.4382 9.98872L21.1164 10.3996L19.8759 8.71235L20.1716 8.47844C20.7529 8.02232 20.8712 7.31358 20.4587 6.75609L17.8468 3.22016C17.7304 3.05791 17.5758 2.92609 17.3964 2.83604C17.217 2.74598 17.0181 2.7004 16.8169 2.70322C16.4352 2.7079 16.0796 2.90672 15.8162 3.26382L13.2406 6.74907C12.8282 7.30734 12.9441 8.02154 13.5237 8.48546L13.8139 8.71937L12.411 10.6413C12.0167 11.1778 12.15 11.8888 12.7201 12.3286L13.023 12.5625L11.7147 14.3012L11.5617 14.3293C8.46799 14.8844 4.0794 15.9004 1.69939 18.3058C0.566958 19.448 -0.0197842 20.8062 0.00308529 22.2339C0.0259548 23.6615 0.684461 25.0579 1.85869 26.1706C3.63384 27.8539 6.06351 28.6508 8.20142 29.2652C8.41197 29.326 8.59572 29.2153 8.63831 29.1092C8.6577 29.066 8.66773 29.0193 8.66773 28.972C8.66773 28.9247 8.6577 28.878 8.63831 28.8348C8.61241 28.7902 8.57749 28.7514 8.53569 28.7208C8.49389 28.6902 8.44611 28.6685 8.39541 28.657C5.77172 27.9171 3.13071 26.9495 1.58426 24.8911C0.331957 23.2249 0.338262 21.0706 1.60082 19.4051C2.26088 18.5342 3.11889 17.827 4.22609 17.2422C6.66051 15.9565 10.2029 15.031 14.7563 14.4923C18.305 14.072 21.3356 11.9847 22.8726 8.90962L24.3868 5.87893C24.4649 5.7519 24.5688 5.64226 24.692 5.55692C24.747 5.51992 24.8096 5.49548 24.8753 5.48536C24.9411 5.47525 25.0083 5.47972 25.0721 5.49844C25.271 5.55198 25.4409 5.68045 25.5452 5.85632L28.3156 11.4241L27.2825 13.4732C27.269 13.5027 27.2616 13.5346 27.2606 13.567C27.2597 13.5994 27.2652 13.6316 27.277 13.6619C27.3047 13.743 27.3624 13.8107 27.4386 13.8513C27.5128 13.8838 27.5964 13.8884 27.6737 13.8641C27.751 13.8398 27.8166 13.7884 27.8582 13.7196L29.1058 11.329L34.2317 1.01596C34.323 0.843981 34.476 0.711908 34.6607 0.645603C34.9351 0.567633 35.2719 0.778149 35.3886 1.01362L39.748 9.78522C39.8489 9.9895 40.0634 9.9778 40.2125 9.90607C40.2795 9.87488 40.3939 9.67216 40.3308 9.54429L39.3064 7.4508L41.3071 4.74369C41.4593 4.53785 41.7274 4.51602 41.8354 4.51602C41.9299 4.51032 42.0244 4.5271 42.111 4.56495C42.1976 4.6028 42.2737 4.66062 42.333 4.73356L45.1452 8.53458C45.211 8.63911 45.2523 8.75691 45.266 8.87931C45.2796 9.00171 45.2653 9.12557 45.2241 9.24177C45.1958 9.31009 45.1499 9.36988 45.0909 9.41516C45.032 9.46045 44.962 9.48965 44.8881 9.49985L44.5301 9.54663C44.2651 9.58094 44.1263 9.65111 44.0853 9.70257C44.0443 9.75403 44.0254 9.97157 44.0853 10.0511L45.9701 12.5984C46.0418 12.695 46.2595 12.9882 46.1278 13.2939C45.9961 13.5995 45.6712 13.6416 45.407 13.679C45.2493 13.7009 45.0395 13.7305 44.9646 13.7999C44.9212 13.877 44.8923 13.9613 44.8794 14.0486L47.1191 17.1495L47.0166 17.3584C46.9621 17.4666 46.8846 17.5619 46.7893 17.6375C46.6939 17.7132 46.5832 17.7675 46.4645 17.7966C46.3269 17.8335 46.183 17.8417 46.0419 17.8208C45.9009 17.7998 45.7658 17.7502 45.6452 17.675L44.3787 16.8376C43.9957 16.595 43.683 16.2584 43.471 15.8606L41.7361 12.3754C41.6954 12.3034 41.6289 12.2493 41.5497 12.2237C41.4704 12.1981 41.3844 12.203 41.3086 12.2374C41.2718 12.255 41.2388 12.2798 41.2118 12.3102C41.1847 12.3406 41.164 12.376 41.1509 12.4144C41.1361 12.4543 41.1297 12.4969 41.1321 12.5394C41.1346 12.5819 41.1458 12.6235 41.1651 12.6615L42.9095 16.1702C43.2659 16.8875 43.7415 17.1916 44.344 17.5736C44.993 17.9876 45.7296 18.4578 46.4906 19.5229C47.6585 21.1602 47.6293 23.2654 46.4172 24.8833C45.7248 25.8064 44.8061 26.5511 43.6074 27.1608C41.0523 28.4598 37.3506 29.3798 32.6032 29.896C27.4907 30.4527 22.4042 30.508 17.0551 30.0659C15.4242 29.931 13.7524 29.7158 11.6334 29.3642C11.6035 29.3592 11.5731 29.3566 11.5427 29.3564C11.4032 29.3564 11.2589 29.411 11.2202 29.5708C11.2081 29.6171 11.2058 29.6654 11.2134 29.7126C11.221 29.7598 11.2384 29.805 11.2644 29.8453C11.2897 29.8826 11.3229 29.914 11.3617 29.9374C11.4005 29.9608 11.444 29.9757 11.4891 29.9809C13.6183 30.3334 15.3044 30.5517 16.9502 30.6889C22.2214 31.1444 27.5251 31.0854 32.7846 30.5127C37.2008 30.0285 40.774 29.1732 43.4 27.9685C46.0261 26.7639 47.5402 25.0673 47.9952 22.796V21.4705C47.7287 20.4749 47.429 19.6492 46.8399 18.9038ZM20.4469 11.1458C18.8973 12.6615 17.0141 13.5839 15 13.8116L12.7643 14.065L13.9307 12.3964C13.9602 12.341 13.9779 12.2801 13.9826 12.2176C13.9874 12.1551 13.9791 12.0923 13.9582 12.0331C13.9511 12.0206 13.8794 11.9115 13.4851 11.8639L13.2335 11.8343C13.1605 11.8252 13.0912 11.7972 13.0326 11.7531C12.974 11.709 12.9282 11.6504 12.8999 11.5832C12.8636 11.476 12.8519 11.3623 12.8655 11.2501C12.8792 11.1379 12.9179 11.0301 12.9788 10.9345L14.7137 8.58682C14.7542 8.53341 14.7807 8.47099 14.791 8.40505C14.8014 8.3391 14.7951 8.27167 14.7729 8.20867C14.7011 8.0808 14.5363 8.05273 14.2958 8.02154C14.0821 7.99503 13.7895 7.95838 13.6696 7.68081C13.5498 7.40324 13.7485 7.12177 13.8273 7.01963L16.4502 3.5219C16.4966 3.45983 16.5571 3.40939 16.6269 3.37463C16.6966 3.33987 16.7735 3.32176 16.8516 3.32176C16.9297 3.32176 17.0067 3.33987 17.0764 3.37463C17.1461 3.40939 17.2066 3.45983 17.253 3.5219L19.8752 7.03054C19.9501 7.13112 20.1488 7.39701 20.0242 7.68315C19.8996 7.9693 19.6094 7.99503 19.3933 8.02232C19.1772 8.04961 19.0069 8.0769 18.9304 8.17826C18.9054 8.2318 18.8925 8.29006 18.8925 8.34901C18.8925 8.40797 18.9054 8.46623 18.9304 8.51977L20.6874 10.9119L20.4469 11.1458Z" fill="#031286"/>
<path d="M41.9576 23.4915C40.0429 25.4407 35.1117 26.3155 33.0803 26.6009C27.0586 27.4484 20.9459 27.4484 14.9242 26.6009C12.9164 26.3179 8.03578 25.4524 6.08398 23.5359C5.26936 22.7367 5.25831 21.6179 6.05638 20.8156C6.61628 20.2526 7.33074 19.8019 8.30625 19.3965C12.3392 17.7217 18.1393 17.2289 22.2945 17.1104H22.3079C22.3982 17.1074 22.486 17.1396 22.5524 17.2001C22.5825 17.2297 22.6064 17.265 22.6227 17.3038C22.6389 17.3426 22.6472 17.3842 22.647 17.4262C22.647 17.6165 22.5027 17.7381 22.2709 17.7451C16.3027 17.9221 11.6634 18.6854 8.48134 20.0156C7.77159 20.3111 6.1242 21.1072 6.1037 22.1309C6.07768 23.4034 8.58936 24.3741 9.09327 24.5565C10.8992 25.2076 12.7769 25.6575 15.0039 25.9717C20.9162 26.8057 26.9177 26.8149 32.8327 25.999C35.1354 25.6817 37.0667 25.2193 38.9097 24.5558C39.5752 24.3148 41.7573 23.4369 41.8953 22.2502C42.0246 21.1274 40.0579 20.2308 39.4506 19.9828C36.2355 18.6659 31.5875 17.912 25.6351 17.7428C25.4056 17.7357 25.2581 17.6118 25.2589 17.427C25.2583 17.3843 25.2664 17.3419 25.2828 17.3023C25.2992 17.2628 25.3235 17.227 25.3543 17.197C25.3888 17.1654 25.4295 17.1411 25.4738 17.1257C25.5182 17.1102 25.5653 17.104 25.6122 17.1073C28.6814 17.1939 38.9325 17.7194 41.9773 20.8686C42.7257 21.6381 42.7162 22.718 41.9576 23.4915Z" fill="#031286"/>
<path d="M18.9369 20.8959C18.9269 20.9859 18.8812 21.0683 18.8099 21.1251C18.7851 21.1467 18.7556 21.1622 18.7237 21.1706C18.6919 21.179 18.6584 21.18 18.6261 21.1735C17.3825 20.9497 16.3211 20.9505 15.2864 21.1735C15.2063 21.1902 15.1228 21.175 15.054 21.1312C14.9852 21.0874 14.9367 21.0185 14.9189 20.9396C14.9091 20.8992 14.9075 20.8573 14.9143 20.8163C14.9211 20.7754 14.936 20.7361 14.9583 20.701C14.9835 20.6622 15.0164 20.6289 15.0551 20.6031C15.0937 20.5774 15.1373 20.5597 15.1831 20.5513C15.7529 20.4272 16.3346 20.3644 16.918 20.3641C17.4901 20.3647 18.0607 20.4235 18.6206 20.5396C18.8296 20.5863 18.9432 20.715 18.9369 20.8959Z" fill="#031286"/>
<path d="M37.2804 21.8783C37.2638 22.0257 37.2315 22.0873 37.2157 22.099C37.1369 22.1621 36.7426 22.1192 36.4271 22.0849C35.756 22.0116 34.8381 21.9111 33.6268 22.1629C33.5478 22.1795 33.4653 22.1649 33.3971 22.1222C33.3289 22.0795 33.2803 22.0121 33.2616 21.9344C33.2516 21.8942 33.2497 21.8523 33.2562 21.8114C33.2627 21.7704 33.2775 21.7311 33.2995 21.6959C33.3261 21.6553 33.3609 21.6206 33.4015 21.5938C33.4422 21.567 33.488 21.5486 33.5361 21.5399C34.1015 21.4175 34.6788 21.3561 35.2576 21.3567C35.8346 21.3575 36.41 21.4158 36.9752 21.5306C37.0601 21.5419 37.1379 21.5835 37.1941 21.6475C37.2503 21.7115 37.2809 21.7936 37.2804 21.8783Z" fill="#031286"/>
<path d="M25.2529 23.3316C25.2419 23.4876 25.2095 23.5429 25.1977 23.5531C25.1189 23.6186 24.6946 23.5741 24.3855 23.5414C23.7081 23.4704 22.7791 23.373 21.582 23.6248C21.5127 23.6314 21.443 23.616 21.3831 23.5808C21.3233 23.5456 21.2764 23.4925 21.2492 23.4291C21.2347 23.3828 21.2298 23.334 21.2348 23.2858C21.2398 23.2376 21.2547 23.1908 21.2784 23.1484C21.3039 23.1107 21.3369 23.0786 21.3754 23.0539C21.4139 23.0293 21.4571 23.0126 21.5023 23.0049C22.0718 22.8788 22.6536 22.815 23.2373 22.8147C23.8233 22.8154 24.4076 22.8781 24.9801 23.0018C25.0578 23.0157 25.128 23.0566 25.178 23.117C25.228 23.1775 25.2546 23.2536 25.2529 23.3316Z" fill="#031286"/>
<path d="M23.1906 13.4779C23.2071 13.5364 23.2076 13.5983 23.192 13.6571C23.1764 13.7159 23.1452 13.7696 23.1017 13.8126C23.0582 13.8556 23.004 13.8864 22.9445 13.9018C22.885 13.9172 22.8225 13.9168 22.7632 13.9004C22.7068 13.8849 22.6553 13.8552 22.6138 13.8142C22.5724 13.7732 22.5424 13.7224 22.5266 13.6665C22.5103 13.6079 22.51 13.5461 22.5257 13.4873C22.5415 13.4285 22.5727 13.3749 22.6162 13.3319C22.6598 13.289 22.7141 13.2582 22.7735 13.2427C22.833 13.2273 22.8956 13.2277 22.9548 13.2439C23.0111 13.2596 23.0624 13.2894 23.1037 13.3304C23.145 13.3713 23.1749 13.4221 23.1906 13.4779Z" fill="#031286"/>
<path d="M38.2584 15.4762C38.2749 15.5348 38.2754 15.5967 38.2597 15.6555C38.2441 15.7143 38.213 15.768 38.1695 15.811C38.126 15.854 38.0717 15.8848 38.0122 15.9002C37.9527 15.9156 37.8902 15.9152 37.8309 15.8988C37.7745 15.8833 37.7231 15.8536 37.6816 15.8126C37.6402 15.7716 37.6101 15.7207 37.5944 15.6649C37.5778 15.6063 37.5773 15.5443 37.5929 15.4854C37.6086 15.4265 37.6398 15.3728 37.6834 15.3298C37.727 15.2867 37.7814 15.256 37.841 15.2406C37.9006 15.2252 37.9633 15.2258 38.0226 15.2423C38.0789 15.258 38.1302 15.2877 38.1715 15.3287C38.2128 15.3697 38.2427 15.4205 38.2584 15.4762Z" fill="#031286"/>
<path d="M35.5542 13.0467C35.5705 13.1053 35.5709 13.167 35.5552 13.2257C35.5395 13.2844 35.5083 13.3379 35.4649 13.3808C35.4214 13.4237 35.3672 13.4544 35.3078 13.4698C35.2484 13.4853 35.1859 13.4848 35.1268 13.4685C35.0705 13.4527 35.0192 13.4229 34.9778 13.382C34.9364 13.341 34.9062 13.2903 34.8902 13.2346C34.8737 13.1761 34.8732 13.1142 34.8888 13.0554C34.9044 12.9966 34.9356 12.9429 34.9791 12.8999C35.0226 12.8569 35.0768 12.8261 35.1363 12.8107C35.1958 12.7952 35.2584 12.7957 35.3176 12.812C35.3741 12.8278 35.4255 12.8577 35.4669 12.8988C35.5084 12.9399 35.5384 12.9908 35.5542 13.0467Z" fill="#031286"/>
</g>
<defs>
<clipPath id="clip0_458_427">
<rect width="48" height="31" fill="white"/>
</clipPath>
</defs>
</svg>
