<svg width="48" height="48" viewBox="0 0 48 48" fill="none" xmlns="http://www.w3.org/2000/svg">
<g clip-path="url(#clip0_458_447)">
<path d="M47.4246 46.9639H39.4632L39.4727 39.6375L39.7694 39.7146C42.1039 40.3073 44.404 39.5106 45.7737 37.6233C47.0792 35.8308 47.1291 33.4195 45.9137 31.4776L45.8105 31.314L45.9505 31.1789C47.5813 29.614 48.2744 27.5607 47.9029 25.3948C47.7332 24.4257 47.3375 23.5102 46.7478 22.7222C46.1581 21.9342 45.391 21.2959 44.5085 20.8591L44.3993 20.8057L44.3779 20.6872C44.2604 19.932 43.9857 19.2098 43.5715 18.5672C43.1573 17.9246 42.6129 17.3759 41.9734 16.9564C41.3201 16.5304 40.5847 16.2461 39.8146 16.1218C39.0445 15.9974 38.2568 16.0358 37.5025 16.2344L37.1844 16.315L37.2058 15.989C37.4538 12.1171 35.4552 8.68034 31.9907 7.01944L31.872 6.96254L31.8542 6.83688C31.6069 4.93741 30.6728 3.19381 29.2278 1.93454C27.7828 0.675271 25.9267 -0.0127588 24.0091 5.37035e-05H23.9877C20.0165 0.0107233 16.7349 2.88914 16.1854 6.84399L16.1676 6.96966L16.0489 7.02656C14.3789 7.81462 12.9879 9.09093 12.0604 10.6864C11.1329 12.2818 10.7126 14.1211 10.8552 15.9605L10.8801 16.2925L10.5573 16.2083C9.80345 16.0016 9.01448 15.9554 8.24161 16.0729C7.46874 16.1903 6.72919 16.4687 6.07097 16.89C5.41926 17.3107 4.86328 17.8635 4.43904 18.5125C4.0148 19.1615 3.73177 19.8923 3.60824 20.6575L3.58691 20.7761L3.47889 20.8294C2.58972 21.2704 1.81807 21.916 1.22734 22.7129C0.63662 23.5099 0.243715 24.4356 0.0809387 25.4138C-0.275118 27.5477 0.425099 29.5796 2.04041 31.1386L2.17926 31.2714L2.07721 31.435C0.854748 33.4124 0.927153 35.8664 2.26237 37.685C3.59758 39.5035 5.85975 40.2931 8.16344 39.7418L8.45893 39.6719V46.9639L0.417987 46.9781C0.362842 46.9822 0.30926 46.9983 0.261053 47.0253C0.212846 47.0524 0.171186 47.0897 0.139064 47.1346C0.0909225 47.1915 0.0547104 47.2574 0.0324909 47.3284C0.0102713 47.3995 0.00251347 47.4743 0.00971578 47.5484C0.0412542 47.6793 0.116522 47.7957 0.223095 47.8782C0.329667 47.9607 0.461181 48.0046 0.596016 48.0024H47.4293C47.5058 48.0075 47.5824 47.996 47.654 47.9686C47.7255 47.9411 47.7902 47.8985 47.8435 47.8436C47.9467 47.7212 47.9974 47.5632 47.9848 47.4037C47.9681 47.1453 47.7344 46.9639 47.4246 46.9639ZM11.5471 26.527C11.5181 26.4642 11.4756 26.4085 11.4227 26.3639C11.3698 26.3192 11.3077 26.2867 11.2409 26.2685C11.179 26.2468 11.1132 26.2387 11.0479 26.2446C10.9826 26.2506 10.9193 26.2704 10.8623 26.3029L9.47605 27.2098L9.46063 22.7784C9.46063 22.4737 9.26004 22.2307 8.99893 22.2129C8.93005 22.2101 8.86136 22.2213 8.79691 22.2458C8.73246 22.2702 8.67361 22.3074 8.62392 22.3552C8.57591 22.3971 8.5372 22.4487 8.51022 22.5064C8.48325 22.5642 8.46857 22.6269 8.46722 22.6907L8.45181 27.077L7.28396 26.3219C7.15327 26.2524 7.00132 26.2342 6.8579 26.2709C6.74825 26.2904 6.65064 26.3521 6.5861 26.4428C6.53209 26.5631 6.5171 26.6973 6.54327 26.8266C6.56945 26.9558 6.63549 27.0737 6.73208 27.1636L8.46131 28.4487V32.2518L8.10525 32.0467C7.57117 31.7396 7.34804 31.8238 7.21274 31.9281C7.16136 31.9748 7.12014 32.0315 7.09156 32.0947C7.06298 32.1579 7.04767 32.2263 7.04659 32.2956C7.04017 32.3646 7.04793 32.4341 7.06936 32.5C7.09079 32.5658 7.12541 32.6266 7.17118 32.6786L8.46131 33.9803V38.5587L8.3082 38.6191C7.79057 38.817 7.24117 38.919 6.68694 38.9203C5.96939 38.9174 5.26311 38.7418 4.62785 38.4086C3.99258 38.0753 3.44703 37.5941 3.03736 37.0057C1.86237 35.3531 1.98702 33.0935 3.33766 31.5002C3.37465 31.4558 3.40199 31.4042 3.41793 31.3487C3.43386 31.2932 3.43803 31.2349 3.43021 31.1777C3.40661 30.9953 3.31196 30.8296 3.16676 30.7166C1.58825 29.499 0.809663 27.6342 1.08501 25.7303C1.21384 24.8166 1.5803 23.9526 2.14779 23.2246C2.71529 22.4965 3.46398 21.9298 4.3192 21.581C4.45552 21.4832 4.55897 21.3464 4.61591 21.1886C4.68647 20.0666 5.18035 19.013 5.99795 18.2403C6.81554 17.4677 7.89603 17.0334 9.02153 17.0251H9.06187C10.1716 17.0327 11.2394 17.4496 12.06 18.1958C12.8807 18.942 13.3963 19.9648 13.5078 21.0677C13.5187 21.1768 13.5554 21.2817 13.6149 21.3738C13.6743 21.4659 13.7547 21.5426 13.8496 21.5976C14.6849 21.9445 15.4164 22.5008 15.9734 23.2127C16.5305 23.9247 16.8941 24.7681 17.0292 25.6615C17.1765 26.6036 17.0643 27.5679 16.7047 28.4511C16.3451 29.3343 15.7516 30.1031 14.9879 30.6751C14.9105 30.726 14.8445 30.7923 14.7938 30.8698C14.7432 30.9473 14.709 31.0343 14.6935 31.1255C14.6885 31.2152 14.7022 31.305 14.7334 31.3892C14.7646 31.4734 14.8129 31.5503 14.8751 31.6152C16.1806 33.1563 16.2328 35.4633 15.0044 37.1064C14.3976 37.9164 13.5334 38.4964 12.5533 38.7514C11.5732 39.0064 10.5355 38.9213 9.61021 38.5101L9.4713 38.4472L9.46423 34.2209L11.0297 32.5885C11.0695 32.5431 11.0978 32.4888 11.1123 32.4302C11.1267 32.3716 11.1269 32.3104 11.1127 32.2518C11.0992 32.1693 11.0672 32.091 11.0191 32.0227C10.971 31.9543 10.9081 31.8977 10.835 31.857C10.5977 31.7456 10.3674 31.8404 9.88554 32.2435L9.49743 32.5659L9.46539 28.5826L11.3406 27.2003C11.4369 27.1204 11.5078 27.014 11.5445 26.8944C11.5812 26.7748 11.5821 26.6471 11.5471 26.527ZM9.47489 46.9639L9.46423 39.6505L9.75619 39.7169C11.6979 40.1556 13.3832 39.8355 14.7694 38.7685C15.421 38.2575 15.9501 37.6075 16.3179 36.866C16.6856 36.1245 16.8829 35.3103 16.8951 34.4829L16.9046 34.1332L17.2274 34.2695C19.0996 35.0849 21.2099 35.1695 23.1415 34.5066L23.456 34.4035L23.4667 46.958L9.47489 46.9639ZM27.4391 15.3559C27.3597 15.2541 27.2433 15.1877 27.1151 15.171C27.0465 15.1568 26.9758 15.1566 26.9071 15.1702C26.8384 15.1838 26.7731 15.2111 26.7151 15.2504L24.4957 16.871L24.4839 9.53746C24.4839 9.28613 24.18 9.04903 23.9985 9.04784C23.9323 9.04374 23.866 9.05284 23.8034 9.07463C23.7409 9.09641 23.6833 9.13043 23.6341 9.1747C23.5182 9.3105 23.4602 9.48629 23.4727 9.66431L23.4632 16.8094L21.1749 15.1923C21.0907 15.1505 20.994 15.1408 20.9031 15.1651C20.7655 15.1827 20.6389 15.2497 20.5471 15.3536C20.4355 15.5231 20.4628 15.9036 20.6372 16.034L23.4584 18.1454L23.4501 24.8495L22.0508 23.5703C21.906 23.4387 21.5405 23.4423 21.4028 23.5442C21.2921 23.6556 21.2277 23.8047 21.2224 23.9615C21.2067 24.052 21.2267 24.145 21.2782 24.2211L23.4572 26.4155V33.282L23.316 33.346C22.4319 33.7412 21.4742 33.9457 20.5055 33.9459C19.1563 33.9453 17.8365 33.5519 16.7076 32.8137L16.6518 32.777L15.9088 31.2216L16.0358 31.103C17.6036 29.6472 18.3134 27.5678 17.9847 25.3972C17.7034 23.5407 16.4927 21.8976 14.5772 20.7737L14.4644 20.7085V20.5781C14.4217 19.5016 13.5874 18.5224 12.8515 17.6582C12.607 17.3701 12.3768 17.0986 12.1797 16.8283L12.1584 16.7975L12.1465 16.7619C10.905 13.0015 13.5648 9.19011 16.7385 7.81492C17.0459 7.68215 17.1158 7.52565 17.1384 7.28381C17.4553 3.76285 20.4616 1.00062 23.9901 1.00062C25.7332 1.00941 27.4093 1.67259 28.6857 2.85851C29.962 4.04444 30.7452 5.66638 30.8798 7.40236C30.9341 7.55313 31.0341 7.68325 31.1658 7.77461C32.4641 8.30882 33.601 9.17094 34.4652 10.2764C35.3293 11.3819 35.8909 12.6927 36.0949 14.0803C36.2992 15.5328 36.1077 17.0134 35.5407 18.3663C34.9736 19.7193 34.0519 20.8945 32.8726 21.7683C32.8007 21.817 32.7395 21.8799 32.693 21.9531C32.6464 22.0263 32.6155 22.1083 32.6019 22.1939C32.5956 22.2724 32.6058 22.3513 32.6317 22.4256C32.6577 22.4999 32.6989 22.568 32.7527 22.6255C33.7613 23.8168 34.3338 25.3158 34.3756 26.8754C34.4175 28.4351 33.9262 29.9626 32.9829 31.2062C32.0367 32.4539 30.6925 33.3418 29.1726 33.7231C27.6527 34.1045 26.0481 33.9564 24.6239 33.3033L24.485 33.2393V26.4262L26.6973 24.2188C26.7471 24.1478 26.7672 24.0601 26.7531 23.9746C26.7491 23.8098 26.6834 23.6525 26.5691 23.5336C26.4505 23.4387 26.0541 23.4387 25.9235 23.562L24.4934 24.9111L24.4839 18.1917L27.3323 16.0577C27.4284 15.971 27.4916 15.8538 27.511 15.7259C27.5305 15.598 27.5051 15.4673 27.4391 15.3559ZM38.4365 46.9699H24.4839V34.3975L24.7996 34.5042C26.7388 35.1792 28.861 35.1017 30.7457 34.2873L31.0626 34.1557L31.0768 34.4971C31.1492 36.2386 31.9076 37.7525 33.2132 38.765C34.6053 39.8426 36.3073 40.1698 38.1362 39.7134L38.4342 39.6387L38.4365 46.9699ZM41.0013 32.2897C40.9911 32.1412 40.926 32.0017 40.8185 31.8985C40.5895 31.7503 40.3676 31.7479 39.8608 32.1546L39.4738 32.4664L39.4668 28.4973L41.3206 27.1114C41.4761 26.9929 41.5105 26.6194 41.4393 26.4878C41.3522 26.3718 41.2255 26.2916 41.0832 26.2626C40.9874 26.2318 40.8835 26.2386 40.7925 26.2816L39.4869 27.1505L39.4727 22.8294C39.4727 22.4939 39.2543 22.2591 39.0454 22.2271C38.9681 22.2199 38.8902 22.2285 38.8163 22.2523C38.7424 22.2762 38.6742 22.3148 38.6157 22.3658C38.5712 22.3998 38.5347 22.4431 38.5086 22.4926C38.4826 22.5422 38.4677 22.5968 38.465 22.6527L38.4294 27.1577L37.1239 26.2792C37.0335 26.2398 36.9319 26.2344 36.8378 26.2638C36.6935 26.2912 36.564 26.3699 36.4735 26.4855C36.4011 26.6135 36.4331 27.0047 36.5803 27.115L38.4425 28.4996L38.4329 32.4118L38.0556 32.138C37.5571 31.7823 37.3363 31.7823 37.1417 31.9151C37.0843 31.956 37.0367 32.0091 37.0024 32.0706C36.9681 32.1321 36.948 32.2005 36.9435 32.2707C36.9346 32.3501 36.9436 32.4304 36.9697 32.5058C36.9957 32.5813 37.0383 32.65 37.0942 32.707L38.4425 34.0383V38.5492L38.2929 38.6097C37.7536 38.8275 37.1775 38.9402 36.5957 38.9416C35.5158 38.9375 34.474 38.5429 33.663 37.8308C33.0537 37.3037 32.5986 36.6217 32.3462 35.8571C32.0938 35.0926 32.0533 34.2739 32.2293 33.4883L32.2483 33.4041L32.3147 33.3519C35.7234 30.6774 36.4355 26.0101 33.9763 22.4927L33.847 22.3089L34.0238 22.1702C35.6712 20.8662 36.4604 19.0583 36.9649 17.6321L36.9957 17.5444L37.0764 17.5017C38.3214 16.8307 39.9711 16.9089 41.2779 17.6985C41.8751 18.0577 42.3795 18.552 42.7506 19.1415C43.1217 19.731 43.3489 20.3993 43.4142 21.0926C43.4324 21.2122 43.4793 21.3256 43.5508 21.4232C43.6223 21.5208 43.7163 21.5998 43.8249 21.6533C44.6578 22.0154 45.3833 22.5857 45.9314 23.3094C46.4794 24.0331 46.8313 24.8857 46.9534 25.7848C47.2074 27.7623 46.4169 29.5951 44.7826 30.8114C44.7338 30.8471 44.6933 30.8929 44.6638 30.9457C44.6343 30.9985 44.6166 31.057 44.6117 31.1172C44.6035 31.2076 44.6134 31.2986 44.6407 31.3851C44.668 31.4716 44.7122 31.5518 44.7708 31.6211C45.4141 32.3829 45.7803 33.3397 45.8101 34.3358C45.8398 35.332 45.5312 36.3089 44.9346 37.1076C44.3432 37.9137 43.4983 38.4984 42.535 38.7681C41.5717 39.0378 40.5457 38.977 39.621 38.5954L39.4738 38.535L39.4608 34.0941L40.9515 32.5659C40.9781 32.5257 40.9963 32.4804 41.0049 32.4329C41.0134 32.3855 41.0122 32.3367 41.0013 32.2897Z" fill="#031286"/>
</g>
<defs>
<clipPath id="clip0_458_447">
<rect width="48" height="48" fill="white"/>
</clipPath>
</defs>
</svg>
