<svg preserveAspectRatio="none" width="100%" height="100%" overflow="visible" style="display: block;" viewBox="0 0 48 48" fill="none" xmlns="http://www.w3.org/2000/svg">
<g id="Memori-Logo Streamline Logos">
<path id="Vector" d="M24 3C35.5977 3 45 12.4023 45 24C45 35.5977 35.5977 45 24 45C12.4023 45 3 35.5977 3 24C3 12.4023 12.4023 3 24 3ZM24.0117 7.91602C23.6453 7.91605 23.2858 8.01663 22.9727 8.20703C22.6595 8.39749 22.4049 8.67062 22.2363 8.99609L22.2354 8.99805L18.6133 16.0205L10.8027 17.293C10.4405 17.3521 10.1018 17.5101 9.82324 17.749C9.54463 17.988 9.33723 18.2994 9.22363 18.6484C9.11016 18.9973 9.09423 19.3705 9.17871 19.7275C9.2632 20.0843 9.44458 20.411 9.70215 20.6719V20.6729L15.2695 26.3096L14.0791 34.1211C14.0238 34.4837 14.0696 34.8549 14.2109 35.1934C14.3524 35.532 14.5849 35.8254 14.8818 36.041C15.1787 36.2565 15.5289 36.3863 15.8945 36.416C16.2597 36.4456 16.6257 36.3733 16.9531 36.209L16.9541 36.21L24.0127 32.6738L31.0928 36.2129V36.2119C31.4208 36.376 31.7878 36.4473 32.1533 36.417C32.5187 36.3866 32.8687 36.2559 33.165 36.04C33.4615 35.8241 33.693 35.531 33.834 35.1924C33.9573 34.8962 34.0071 34.5753 33.9805 34.2568L33.9648 34.1201L32.7715 26.3086L38.3242 20.6699L38.3252 20.6689C38.5819 20.4079 38.7618 20.0811 38.8457 19.7246C38.9296 19.3682 38.9142 18.9956 38.8008 18.6475C38.6873 18.2992 38.48 17.9887 38.2021 17.75C37.9242 17.5113 37.5861 17.3526 37.2246 17.293H37.2227L29.4248 16.0205L25.7881 8.99609C25.6195 8.6706 25.364 8.3975 25.0508 8.20703C24.7377 8.01672 24.3781 7.91599 24.0117 7.91602Z" stroke="var(--stroke-0, #CD1417)" stroke-width="2"/>
</g>
</svg>
