<svg width="330" height="154" viewBox="0 0 330 154" fill="none" xmlns="http://www.w3.org/2000/svg">
<path d="M323.074 141.994L328.274 142.106C329.162 142.125 329.957 143.063 329.957 144.005V152.173C329.956 152.641 329.776 153.091 329.453 153.43C329.131 153.77 328.691 153.973 328.224 153.999H1.93005C1.68109 154.008 1.43262 153.968 1.19959 153.88C0.966559 153.792 0.753736 153.658 0.573643 153.485C0.39355 153.313 0.249903 153.107 0.15135 152.878C0.0527978 152.649 0.00135935 152.403 0 152.153L0.0308167 143.796C0.0519125 143.278 0.277376 142.789 0.657894 142.437C1.03841 142.085 1.543 141.898 2.06123 141.916L6.48111 141.889C5.87894 139.651 7.34965 137.829 8.23361 136.277C7.87848 133.575 8.19114 130.946 9.8587 128.688C11.3371 126.688 13.8693 125.565 16.5019 125.241C17.6599 118.96 23.1876 115.39 29.5375 116.39V95.024C26.9128 96.0892 24.0541 96.4452 21.2484 96.0563C18.4427 95.6674 15.7887 94.5472 13.5527 92.8083C5.78623 86.8869 3.87938 75.8239 9.15227 67.5517C6.41541 64.7623 4.57795 61.2162 3.87744 57.3716C3.17693 53.5271 3.6455 49.5608 5.22263 45.9853C7.05617 41.7392 10.1481 38.3038 14.4869 36.4664C14.2433 33.5535 14.7679 30.6277 16.0081 27.9807C17.2482 25.3338 19.1607 23.0582 21.5547 21.3811C24.1008 19.5576 27.1231 18.5157 30.252 18.3827C33.3808 18.2497 36.4806 19.0314 39.1722 20.6323C41.7611 22.1475 43.8835 24.3453 45.3077 26.9853C46.7319 29.6253 47.4029 32.6061 47.2475 35.6017C54.1031 38.0529 58.2875 44.4799 58.8819 51.5825C59.349 57.141 57.3031 62.5799 53.5279 66.7835C55.4258 69.7218 56.4703 73.1294 56.5453 76.6265C56.6203 80.1236 55.7227 83.5728 53.9526 86.5897C49.5984 94.1516 40.917 98.3244 32.2318 94.7885V117.1C33.3903 117.711 34.4967 118.416 35.5398 119.208L38.184 104.223C38.4118 103.211 39.1954 102.293 40.3612 102.293H66.5288V60.0709C66.5288 59.2139 67.374 58.7584 68.0534 58.7546L73.2917 58.7352L73.3147 51.6713C73.3522 51.2884 73.5314 50.9333 73.817 50.6755C74.1026 50.4178 74.474 50.2759 74.8587 50.2778H91.3491C91.5424 50.2641 91.7365 50.289 91.9202 50.3508C92.1039 50.4127 92.2736 50.5103 92.4193 50.6381C92.565 50.7659 92.684 50.9213 92.7693 51.0953C92.8546 51.2693 92.9046 51.4585 92.9163 51.652L92.955 58.7546H101.609V9.48044C101.609 8.90528 101.995 8.00589 102.532 7.99817L107.936 7.91321L107.959 1.5827C107.959 0.567491 108.677 -0.00384066 109.661 1.94337e-05H129.035C129.227 0.00179485 129.416 0.0425214 129.592 0.119658C129.768 0.196794 129.926 0.308758 130.057 0.448793C130.188 0.588828 130.289 0.754012 130.354 0.934321C130.419 1.11463 130.447 1.30629 130.436 1.49774V7.90553L135.79 7.9634C136.149 7.9634 136.84 8.54631 136.84 9.01724V58.7546H147.286C147.892 58.7546 148.382 59.4107 148.444 60.0284V93.0013H167.968V58.9205C168.092 58.0636 168.651 57.4344 169.47 57.4267L175.194 57.3881V35.1269C174.291 35.0574 172.813 34.9802 172.762 33.9419C172.654 31.6258 172.681 29.3831 172.693 27.0477C172.711 26.7078 172.851 26.3857 173.086 26.1394C173.321 25.8932 173.636 25.7389 173.974 25.7044L176.217 25.6195L176.279 20.2771C176.279 19.5051 177.128 19.0303 177.904 19.0303H248.262C249.362 19.0303 249.837 19.7483 249.837 20.6863V25.6658L252.153 25.7122C252.503 25.7106 252.84 25.8435 253.095 26.0834C253.35 26.3233 253.503 26.6519 253.523 27.0014V33.3513C253.523 35.7754 250.848 34.5363 250.848 35.5824L250.868 59.0209L257.796 59.0441C258.372 59.0441 259.186 59.5266 259.194 60.2407L259.244 65.7954C259.244 65.915 259.549 66.3049 259.707 66.3049H274.499C272.06 62.8308 270.434 59.0286 270.284 54.7246C270.014 47.097 274.557 39.3112 281.883 36.7288C281.56 33.1232 282.409 29.5095 284.304 26.4251C286.2 23.3407 289.04 20.9503 292.402 19.6093C295.25 18.4629 298.367 18.1575 301.383 18.7295C304.399 19.3015 307.187 20.7269 309.418 22.8364C311.33 24.5731 312.806 26.7368 313.725 29.1515C314.644 31.5662 314.98 34.1637 314.706 36.7327C317.458 37.7983 319.876 39.5784 321.712 41.8898C327.707 49.4633 327.267 60.2484 320.627 67.5479C322.024 69.6275 322.99 71.9659 323.468 74.425C323.946 76.8842 323.926 79.4142 323.41 81.8656C322.894 84.3171 321.892 86.6403 320.464 88.6981C319.035 90.7558 317.208 92.5065 315.092 93.8467C312.98 95.2122 310.583 96.0768 308.086 96.3745C305.589 96.6722 303.056 96.3951 300.682 95.5644C300.511 95.5041 300.336 95.4589 300.157 95.4293C300.064 95.4293 300.041 95.7497 300.041 95.908V119.289L301.416 121.933C302.831 121.601 304.303 121.585 305.725 121.888C307.147 122.19 308.485 122.803 309.643 123.683C310.801 124.562 311.75 125.687 312.423 126.976C313.096 128.265 313.476 129.686 313.536 131.139C313.536 131.332 313.988 131.525 314.25 131.525C319.562 131.923 323.368 136.408 323.074 141.994ZM110.491 2.61718V7.9364H127.827V2.5979L110.491 2.61718ZM125.511 50.6059C126.109 50.6059 126.572 51.4551 126.572 51.8488V58.7468H134.185V10.5728H104.176V58.7468H108.114L108.175 51.8643C108.175 51.1733 108.947 50.5943 109.611 50.5943L125.511 50.6059ZM32.2047 43.1791L32.2665 58.577L37.0452 53.8252C37.2915 53.5411 37.6398 53.3653 38.0146 53.3357C38.3894 53.3061 38.7607 53.425 39.0486 53.6669C39.3133 53.9311 39.4683 54.2856 39.4827 54.6593C39.497 55.033 39.3696 55.3982 39.1259 55.6819L32.2241 62.5606L32.2472 77.7848L37.0761 73.0678C37.3416 72.8712 37.6622 72.7629 37.9925 72.758C38.3228 72.7532 38.6463 72.8521 38.9174 73.0408C39.3575 73.3882 39.5892 74.4304 39.1221 74.8936L32.2318 81.7491V91.6503C34.3957 92.8109 36.8349 93.3599 39.2874 93.2381C41.7399 93.1164 44.113 92.3286 46.1513 90.9593C53.8252 85.8871 56.2416 75.3105 50.8877 67.9377C50.2893 67.1116 50.0731 66.3705 50.8528 65.583C56.5464 59.8354 58.0173 51.4281 53.694 44.3525C50.0462 38.3771 45.0743 38.2381 44.5918 37.5047C44.3911 37.1959 44.4103 36.5552 44.4527 36.0881C45.2247 27.951 38.5894 20.8368 30.3172 21.2383C28.4681 21.3439 26.6588 21.8182 24.9956 22.6331C23.3325 23.448 21.8491 24.5871 20.6325 25.9836C19.4159 27.38 18.4906 29.0055 17.9112 30.7646C17.3318 32.5237 17.1099 34.381 17.2585 36.2271C17.328 37.0261 17.6869 38.1571 16.745 38.5083C13.6763 39.6895 11.0167 41.5154 9.21786 44.3564C7.19131 47.5525 5.9561 51.3046 6.34597 55.072C7.22994 63.68 12.3097 65.8455 12.3329 67.1309C12.2892 67.6535 12.0979 68.1529 11.781 68.5708C6.25722 76.3488 9.02477 88.0565 17.8181 92.1521C19.65 93.034 21.663 93.4751 23.6959 93.4403C25.7287 93.4054 27.7251 92.8955 29.5258 91.9514V81.6642L22.7167 75.1021C22.5856 74.9693 22.4824 74.8117 22.4134 74.6384C22.3444 74.4651 22.3109 74.2798 22.3149 74.0933C22.3188 73.9068 22.3603 73.7231 22.4366 73.5529C22.5129 73.3827 22.6225 73.2295 22.7591 73.1025C23.0247 72.8794 23.3619 72.7598 23.7087 72.7654C24.0555 72.7711 24.3886 72.9018 24.6467 73.1334L29.4911 77.7655L29.522 62.5567L22.8209 55.9946C22.5557 55.7588 22.3708 55.4458 22.2926 55.0996C22.2144 54.7535 22.2465 54.3915 22.3846 54.0645C22.6123 53.6245 23.6624 53.0069 24.1565 53.4778L29.4988 58.5616L29.5412 43.1598C29.5412 42.4688 30.3943 41.9207 30.8923 41.9438C31.2265 41.9425 31.5484 42.0702 31.7907 42.3003C32.0331 42.5304 32.1772 42.8452 32.1932 43.1791H32.2047ZM300.034 44.0746L300.065 58.9012L304.87 54.188C305.108 53.9403 305.421 53.7788 305.761 53.7292C306.101 53.6795 306.448 53.7446 306.746 53.914C307.167 54.1803 307.595 55.3499 307.132 55.844L300.065 62.908L300.088 78.1824L304.72 73.6661C305.349 73.0562 306.322 72.9365 306.889 73.6313C307.391 74.2412 307.244 75.0557 306.642 75.6463L300.08 82.1043V92.3297C302.144 93.354 304.433 93.8408 306.735 93.745C309.038 93.6491 311.279 92.9738 313.25 91.7815C321.191 87.0297 323.576 76.5419 318.222 68.9877C317.836 68.4588 317.489 67.9879 317.508 67.3857C317.508 66.9573 317.894 66.44 318.28 66.0463C323.742 60.4453 324.842 52.3082 320.774 45.4063C319.035 42.4043 316.264 40.1376 312.976 39.0295C311.818 38.6435 311.78 37.9641 311.927 36.8794C313.019 28.8504 306.692 21.3811 298.466 21.3541C296.539 21.3591 294.634 21.765 292.872 22.5459C291.11 23.3268 289.53 24.4657 288.232 25.8902C286.933 27.3147 285.946 28.9936 285.331 30.8204C284.717 32.6471 284.489 34.5816 284.663 36.5011C284.74 37.331 285.242 38.6126 284.145 38.9137C280.684 39.8302 277.694 42.0175 275.773 45.0396C273.668 48.2826 272.755 52.1567 273.193 55.9982C273.63 59.8398 275.39 63.4097 278.17 66.0965C278.537 66.4516 278.973 66.9379 278.965 67.3664C278.957 67.7949 278.598 68.3276 278.274 68.7869C273.256 75.9937 275.271 85.9489 281.995 90.9246C286.539 94.2867 292.31 94.7847 297.293 92.0208L297.324 82.1004L290.194 75.2603C289.789 74.8743 290.132 73.7163 290.507 73.4345C290.771 73.2738 291.076 73.1913 291.386 73.1968C291.695 73.2023 291.997 73.2954 292.256 73.4654L297.297 78.2673L297.32 62.9543L290.129 55.9753C289.546 55.4117 289.839 54.3077 290.391 53.9294C291.094 53.4508 291.804 53.7557 292.41 54.3154L297.285 58.9282L297.32 43.762C297.32 42.9899 298.169 42.4457 298.752 42.4997C299.501 42.5692 300.022 43.1482 300.022 44.0746H300.034ZM178.827 21.6861V25.716H247.297V21.6822L178.827 21.6861ZM251.01 28.2791H175.225V32.5252H251.01V28.2791ZM225.202 80.4174L225.321 95.271C225.866 94.2404 226.298 93.561 227.313 93.561H238.122V67.9107C238.139 67.4911 238.314 67.0934 238.611 66.7971C238.909 66.5008 239.308 66.3278 239.727 66.3126L248.254 66.2856V35.1076H177.769V65.2858L184.366 65.3283C185.281 65.3746 185.837 66.0656 185.798 67.0267V99.3242L200.574 99.355V80.761C200.71 77.6151 202.027 74.6361 204.262 72.4181C206.497 70.2002 209.487 68.9063 212.633 68.7947C219.192 68.5862 225.128 73.7279 225.182 80.429L225.202 80.4174ZM90.3686 52.9374H75.8354V58.7623H90.3686V52.9374ZM124.006 53.1574H110.762V58.7507H124.006V53.1574ZM173.886 99.0926C173.886 99.4091 175.229 99.4091 175.229 99.0926L175.202 60.1828L170.531 60.1403V92.7157C170.828 93.4336 173.751 92.3297 173.797 94.5917L173.886 99.0926ZM110.553 61.3948H69.1112V67.432H110.553V61.3948ZM145.923 61.3948H113.159V67.432H145.923V61.3948ZM256.731 66.2817L256.708 61.6998H250.895L250.953 66.3319L256.731 66.2817ZM177.761 67.957V99.3589H183.227V67.957H177.761ZM290.986 107.106L291.016 113.483C293.296 113.896 295.452 114.82 297.324 116.185V95.0549C291.387 97.7299 284.89 96.7495 279.876 92.8006C276.435 89.9941 274.067 86.0869 273.171 81.7378C272.275 77.3887 272.907 72.8638 274.958 68.9259H240.746V99.3705H282.161C282.398 99.3487 282.637 99.3772 282.862 99.4541C283.088 99.5309 283.294 99.6545 283.468 99.8166C283.642 99.9787 283.78 100.176 283.873 100.395C283.966 100.614 284.011 100.85 284.007 101.088V105.454H289.225C290.152 105.442 290.958 105.944 290.966 107.102L290.986 107.106ZM105.462 93.5958C106.562 93.5958 107.183 94.6225 107.199 95.4447L107.261 99.3705L110.538 99.3126V70.0839H69.1189V102.293H93.4837L93.5724 95.2479C93.6236 94.7937 93.8376 94.3734 94.1746 94.0647C94.5117 93.756 94.9491 93.5798 95.406 93.5687L105.462 93.5958ZM134.764 88.5506V99.3589L145.958 99.3357V70.1032H113.159V99.3357H119.288L119.254 89.5967C119.254 85.285 122.253 81.8186 126.487 81.4673C128.517 81.319 130.523 81.9779 132.069 83.3008C133.615 84.6236 134.577 86.5034 134.744 88.5313L134.764 88.5506ZM222.697 99.3589L222.716 81.753C222.806 79.1378 221.873 76.5906 220.116 74.6514C218.359 72.7122 215.916 71.5335 213.305 71.3655C208.202 71.4311 203.358 75.1098 203.307 80.4329L203.134 99.3473L222.697 99.3589ZM132.158 99.3589L132.073 88.5506C132.054 85.7868 129.248 83.9185 126.723 84.1231C124.11 84.3315 121.879 86.3426 121.886 89.1412V99.3743L132.158 99.3589ZM148.455 95.6185L148.432 99.3627H150.331L150.354 95.6185H148.455ZM171.4 99.301L171.357 95.6301H164.722L164.749 99.3242L171.4 99.301ZM162.135 95.9234H152.871V122.987H162.135V95.9234ZM150.285 122.967V108.04H106.28C106.087 108.062 105.892 108.043 105.707 107.986C105.522 107.929 105.35 107.834 105.203 107.707C105.056 107.581 104.937 107.426 104.853 107.251C104.768 107.077 104.721 106.887 104.713 106.693L104.686 96.128L96.07 96.1743V102.273L101.598 102.312C103.261 102.424 103.84 103.586 104.142 105.049L107.82 122.967H150.285ZM237.388 96.1202H227.803V122.998H237.373L237.388 96.1202ZM107.284 101.91V105.5H150.293V101.91H107.284ZM164.691 101.91V105.504H225.233V101.914L164.691 101.91ZM240.009 101.91V105.5H281.385V101.91H240.009ZM112.194 141.924L112.248 138.408L108.388 138.199C107.901 138.141 107.616 136.779 107.666 136.346L105.238 123.77L101.354 104.991H40.7123L35.3082 136.288C35.1615 137.145 35.4009 137.898 34.486 138.28L31.1162 138.388C30.9539 139.564 30.9539 140.756 31.1162 141.932L112.194 141.924ZM220.072 123.01L225.209 122.983V108.06H164.699V122.967H169.4C172.419 119.502 176.112 116.689 180.254 114.698C184.396 112.707 188.9 111.58 193.491 111.387C203.655 110.877 213.309 115.556 220.083 122.99L220.072 123.01ZM288.395 113.387L288.372 108.06H240.009L240.048 122.994H276.441C277.842 117.32 282.682 113.796 288.407 113.367L288.395 113.387ZM216.242 122.967C210.643 117.401 203.135 114.174 195.244 113.942C186.998 113.942 179.12 116.895 173.098 122.96L216.242 122.967ZM320.399 142.075C320.828 137.408 317.28 133.787 313.034 134.185C312.463 134.355 311.703 134.351 311.309 133.996C311.031 133.748 310.923 133.042 310.954 132.567C311.077 131.352 310.901 130.126 310.443 128.994C309.985 127.862 309.258 126.858 308.325 126.071C306.356 124.504 303.755 123.928 301.408 124.859C300.842 125.114 300.201 125.147 299.613 124.951C299.227 124.778 299.107 124.067 298.949 123.469C297.463 117.856 291.441 114.865 285.917 116.567C282.084 117.725 279.247 120.813 278.753 124.824C278.68 125.411 278.579 126.148 278.22 126.368C277.946 126.504 277.647 126.582 277.342 126.597C277.036 126.613 276.731 126.565 276.444 126.457C274.013 125.77 271.426 126.719 269.821 128.387C268.945 129.279 268.306 130.375 267.96 131.576C267.614 132.777 267.573 134.045 267.84 135.265C267.843 135.494 267.792 135.72 267.692 135.926C267.592 136.131 267.446 136.311 267.265 136.451C266.828 136.618 266.358 136.683 265.891 136.64C265.169 136.581 264.443 136.683 263.764 136.937C263.085 137.191 262.471 137.592 261.965 138.11C261.459 138.629 261.074 139.253 260.836 139.937C260.599 140.622 260.515 141.35 260.591 142.071L320.399 142.075ZM28.4026 141.92L28.4759 137.705C28.4991 136.389 29.549 135.655 30.7688 135.671C31.4264 135.676 32.0838 135.642 32.7375 135.57L34.9222 122.581C33.5605 120.733 31.5574 119.46 29.3058 119.012C27.0542 118.565 24.7166 118.974 22.7514 120.161C21.6658 120.811 20.7597 121.723 20.1153 122.812C19.4709 123.901 19.1085 125.134 19.0611 126.399C18.9376 129.784 15.1007 125.87 11.8042 130.398C11.1581 131.242 10.7499 132.243 10.6222 133.298C10.4946 134.353 10.6521 135.423 11.0784 136.397C11.7539 138.01 8.29912 137.852 9.08272 141.913L28.4026 141.92ZM115.015 142.086H257.997C257.843 137.713 260.73 134.339 265.042 134.138C264.926 130.757 266.285 127.962 268.674 125.646H108.345L110.244 135.632L112.325 135.682C116.077 135.771 114.182 139.952 115.015 142.086ZM2.53988 144.561V151.304H327.398V144.584L2.53988 144.561Z" fill="#CD0001"/>
<path d="M222.785 59.4492L222.959 45.217C222.994 42.1289 225.982 39.9056 228.78 39.9403C231.799 39.975 234.57 42.376 234.593 45.5722L234.652 60.6574C234.637 61.0428 234.471 61.4068 234.189 61.6695C233.906 61.9322 233.531 62.0722 233.146 62.0586H192.553C191.654 62.0586 191.125 61.2866 191.129 60.4567L191.229 45.4409C191.229 42.2293 194.248 39.8978 197.135 39.9518C198.676 39.9679 200.149 40.5872 201.239 41.6768C202.329 42.7665 202.948 44.2397 202.964 45.7806L203.002 59.4029H207.063L207.214 45.1205C207.249 42.0788 210.229 39.9364 212.961 39.9133C215.841 39.8901 218.717 42.2293 218.752 45.3174L218.84 59.4067L222.785 59.4492ZM200.459 59.4492V46.24C200.459 44.3099 199.138 42.6539 197.151 42.5613C195.329 42.4764 193.761 44.1362 193.761 46.0122V59.4338L200.459 59.4492ZM216.25 59.3952L216.208 45.5954C216.208 43.8004 214.316 42.4494 212.819 42.5536C211.984 42.6016 211.197 42.9615 210.614 43.562C210.032 44.1624 209.695 44.9597 209.673 45.796V59.4453L216.25 59.3952ZM232.096 59.3952L232.065 45.7999C232.065 43.9046 230.224 42.4841 228.56 42.5922C227.699 42.6553 226.895 43.0464 226.314 43.685C225.733 44.3235 225.419 45.1607 225.437 46.0238V59.4531L232.096 59.3952Z" fill="#CD0001"/>
<path d="M168.629 132.679H154.157C153.977 132.677 153.799 132.638 153.634 132.566C153.469 132.494 153.319 132.39 153.195 132.259C153.071 132.129 152.974 131.975 152.909 131.806C152.845 131.638 152.815 131.458 152.822 131.278C152.863 130.914 153.044 130.58 153.327 130.347C153.61 130.114 153.973 130.001 154.339 130.031H168.575C168.909 130.035 169.23 130.163 169.475 130.391C169.72 130.619 169.871 130.929 169.899 131.263C169.933 131.934 169.463 132.475 168.629 132.679Z" fill="#CD0001"/>
<path d="M135.932 135.378H122.947C122.612 135.399 122.281 135.29 122.023 135.075C121.765 134.859 121.6 134.553 121.561 134.219C121.551 134.034 121.579 133.848 121.645 133.674C121.711 133.5 121.812 133.342 121.943 133.21C122.073 133.077 122.23 132.974 122.403 132.906C122.576 132.838 122.761 132.807 122.947 132.814H136.021C136.337 132.846 136.635 132.98 136.867 133.197C137.099 133.414 137.254 133.701 137.307 134.015C137.316 134.197 137.287 134.38 137.221 134.55C137.155 134.721 137.054 134.875 136.924 135.004C136.795 135.133 136.639 135.232 136.468 135.297C136.297 135.361 136.115 135.389 135.932 135.378Z" fill="#CD0001"/>
<path d="M215.902 133.366H202.226C202.053 133.379 201.879 133.357 201.714 133.302C201.549 133.247 201.397 133.16 201.266 133.046C201.135 132.932 201.028 132.793 200.951 132.637C200.874 132.481 200.828 132.312 200.817 132.139C200.798 131.32 201.361 130.799 202.234 130.795H215.987C216.303 130.811 216.604 130.935 216.84 131.146C217.076 131.356 217.233 131.641 217.284 131.953C217.3 132.14 217.275 132.328 217.212 132.505C217.149 132.682 217.048 132.842 216.917 132.976C216.786 133.111 216.627 133.215 216.452 133.282C216.277 133.349 216.089 133.378 215.902 133.366Z" fill="#CD0001"/>
<path d="M251.586 133.366H237.925C237.589 133.362 237.266 133.232 237.022 133.001C236.777 132.77 236.628 132.455 236.605 132.12C236.607 131.769 236.747 131.433 236.995 131.184C237.243 130.936 237.578 130.795 237.929 130.792H251.582C252.134 130.792 252.694 131.514 252.763 131.95C252.787 132.121 252.774 132.296 252.726 132.462C252.678 132.629 252.597 132.784 252.486 132.917C252.375 133.05 252.238 133.159 252.083 133.236C251.928 133.313 251.759 133.358 251.586 133.366Z" fill="#CD0001"/>
<path d="M157.854 139.303L146.66 139.326C146.311 139.33 145.975 139.195 145.724 138.953C145.474 138.71 145.328 138.378 145.32 138.029C145.335 137.681 145.481 137.35 145.73 137.105C145.979 136.86 146.311 136.719 146.66 136.709H157.769C158.077 136.729 158.369 136.85 158.599 137.054C158.83 137.259 158.986 137.534 159.043 137.836C159.093 138.408 158.707 139.303 157.854 139.303Z" fill="#CD0001"/>
<path d="M188.461 139.311H177.819C177.642 139.321 177.465 139.294 177.298 139.234C177.132 139.173 176.979 139.079 176.85 138.957C176.721 138.835 176.618 138.688 176.548 138.525C176.478 138.363 176.441 138.187 176.441 138.01C176.462 137.655 176.618 137.322 176.876 137.077C177.134 136.833 177.475 136.696 177.831 136.694H188.465C188.816 136.699 189.152 136.837 189.405 137.081C189.658 137.325 189.809 137.655 189.828 138.006C189.826 138.182 189.789 138.356 189.718 138.517C189.648 138.679 189.547 138.825 189.419 138.946C189.292 139.068 189.142 139.163 188.977 139.225C188.813 139.288 188.637 139.317 188.461 139.311Z" fill="#CD0001"/>
<path d="M235.677 139.326H225.486C225.151 139.352 224.817 139.255 224.547 139.052C224.278 138.85 224.092 138.556 224.023 138.226C224.002 138.046 224.016 137.863 224.067 137.688C224.118 137.514 224.203 137.352 224.318 137.211C224.433 137.07 224.575 136.954 224.736 136.87C224.897 136.786 225.074 136.735 225.255 136.721H235.677C236.549 136.721 237.171 137.254 237.156 138.045C237.14 138.836 236.553 139.326 235.677 139.326Z" fill="#CD0001"/>
<path d="M98.32 133.231H44.1899V135.883H98.32V133.231Z" fill="#CD0001"/>
<path d="M261.545 93.7813L255.978 93.8199C255.264 93.8199 254.488 93.2833 254.488 92.5113V84.8722C254.94 82.4828 257.26 81.1395 259.622 81.6914C260.458 81.8588 261.21 82.3085 261.754 82.9649C262.297 83.6214 262.598 84.4447 262.606 85.2968V92.5615C262.602 92.9977 262.035 93.7774 261.545 93.7813ZM260.032 91.1873L259.989 85.2659C259.989 84.6676 259.059 84.158 258.572 84.1542C258.086 84.1503 257.047 84.6483 257.047 85.2582L257.017 91.2182L260.032 91.1873Z" fill="#CD0001"/>
<path d="M82.0855 87.1223H76.6118C76.2719 87.0939 75.9544 86.9411 75.7201 86.6933C75.4858 86.4454 75.3511 86.1199 75.3418 85.779V78.0588C75.3425 77.6901 75.4791 77.3346 75.7255 77.0604C75.972 76.7862 76.3111 76.6125 76.6776 76.5726H82.0276C82.4006 76.5975 82.7493 76.7664 83 77.0437C83.2507 77.3211 83.3838 77.6851 83.3709 78.0588V85.748C83.3773 86.0993 83.2467 86.4392 83.0068 86.6957C82.7668 86.9523 82.4363 87.1053 82.0855 87.1223ZM80.8541 84.509V79.1511H77.9436V84.5012L80.8541 84.509Z" fill="#CD0001"/>
<path d="M97.333 87.1261L91.5429 87.103C90.8519 87.103 90.5083 86.0685 90.5083 85.5126L90.5547 77.8195C90.5547 77.1015 91.3267 76.5765 91.9675 76.5803L97.1747 76.5997C97.5519 76.6165 97.9083 76.7778 98.1699 77.0501C98.4314 77.3225 98.5782 77.685 98.5798 78.0627V85.7828C98.576 86.3271 97.997 87.13 97.333 87.1261ZM96.0052 84.5206L95.9705 79.1589H93.0677V84.5051L96.0052 84.5206Z" fill="#CD0001"/>
<path d="M125.086 28.3717H109.645C109.446 28.3698 109.25 28.3281 109.068 28.2489C108.885 28.1697 108.721 28.0547 108.583 27.9107C108.446 27.7667 108.34 27.5967 108.269 27.4107C108.199 27.2247 108.167 27.0264 108.174 26.8277L108.202 18.2159C108.228 17.8489 108.388 17.5043 108.651 17.247C108.914 16.9897 109.262 16.8373 109.63 16.8185H125.221C125.604 16.8163 125.972 16.9634 126.248 17.2287C126.524 17.4939 126.686 17.8564 126.699 18.239V26.9474C126.69 27.148 126.64 27.3446 126.554 27.5257C126.467 27.7068 126.345 27.8686 126.194 28.0015C126.044 28.1344 125.868 28.2356 125.678 28.2992C125.487 28.3628 125.286 28.3875 125.086 28.3717ZM110.745 19.4935V25.7469H124.059V19.4935H110.745Z" fill="#CD0001"/>
<path d="M125.511 45.1904L109.473 45.2174C109.107 45.1856 108.767 45.0183 108.518 44.7483C108.269 44.4784 108.131 44.1252 108.129 43.7583L108.164 35.6096C108.182 35.2227 108.345 34.8568 108.62 34.5844C108.896 34.312 109.263 34.153 109.65 34.1389H125.361C125.713 34.1547 126.045 34.3047 126.29 34.5581C126.535 34.8116 126.673 35.1492 126.677 35.5015V43.7544C126.673 44.0901 126.556 44.4145 126.344 44.6752C126.132 44.9358 125.839 45.1173 125.511 45.1904ZM110.739 36.7869V42.5771H124.083V36.7869H110.739Z" fill="#CD0001"/>
<path d="M137.744 114.448H121.813C121.484 114.429 121.174 114.29 120.94 114.057C120.707 113.825 120.567 113.515 120.547 113.186C120.571 112.853 120.713 112.54 120.947 112.302C121.181 112.065 121.492 111.918 121.825 111.889H137.859C138.539 111.889 139.102 112.661 139.095 113.205C139.053 113.539 138.894 113.847 138.647 114.074C138.4 114.302 138.079 114.434 137.744 114.448Z" fill="#CD0001"/>
<path d="M268.632 114.452H252.836C252.492 114.455 252.16 114.326 251.907 114.092C251.655 113.858 251.501 113.537 251.478 113.194C251.496 112.846 251.645 112.518 251.895 112.275C252.144 112.033 252.477 111.893 252.825 111.885H268.423C268.754 111.856 269.084 111.951 269.348 112.152C269.613 112.352 269.794 112.644 269.855 112.97C269.881 113.149 269.869 113.331 269.82 113.505C269.771 113.679 269.686 113.841 269.571 113.981C269.455 114.12 269.313 114.234 269.151 114.315C268.989 114.397 268.812 114.443 268.632 114.452Z" fill="#CD0001"/>
</svg>
