<svg preserveAspectRatio="none" width="100%" height="100%" overflow="visible" style="display: block;" viewBox="0 0 16 16" fill="none" xmlns="http://www.w3.org/2000/svg">
<g id="Vector">
<path d="M16 8.184C16 7.6402 15.955 7.09346 15.8591 6.55848H8.16118V9.63903H12.5694C12.3865 10.6326 11.7987 11.5115 10.9381 12.07V14.0688H13.568C15.1124 12.6755 16 10.6179 16 8.184Z" fill="var(--fill-0, #CD1417)"/>
<path d="M8.16117 16C10.3623 16 12.2185 15.2916 13.571 14.0688L10.941 12.07C10.2093 12.5579 9.26472 12.8342 8.16417 12.8342C6.03504 12.8342 4.22977 11.4262 3.58204 9.5332H0.868142V11.5938C2.25358 14.2951 5.07543 16 8.16117 16Z" fill="var(--fill-0, #CD1417)"/>
<path d="M3.57905 9.5332C3.23718 8.53966 3.23718 7.46382 3.57905 6.47029V4.40973H0.86815C-0.289378 6.67017 -0.289386 9.33332 0.868142 11.5938L3.57905 9.5332Z" fill="var(--fill-0, #CD1417)"/>
<path d="M8.16117 3.16633C9.3247 3.14869 10.4492 3.57786 11.2919 4.36563L13.6219 2.08167C12.1465 0.723645 10.1883 -0.0229765 8.16117 0.000539092C5.07543 0.000539092 2.25359 1.70543 0.86815 4.40973L3.57905 6.47029C4.22378 4.57434 6.03204 3.16633 8.16117 3.16633Z" fill="var(--fill-0, #CD1417)"/>
</g>
</svg>
