<svg width="48" height="37" viewBox="0 0 48 37" fill="none" xmlns="http://www.w3.org/2000/svg">
<path d="M47.9882 33.9894C47.8975 33.866 47.7433 33.7009 47.5174 33.6982L46.4163 33.6855V15.6217L42.7999 15.609L42.7954 11.0339L37.6016 12.7791V4.12769L37.5971 4.11771C37.0366 3.02291 35.6415 2.23559 34.8606 1.86461C32.5285 0.756204 29.363 0.153928 25.1824 0.0233134C21.683 -0.0855318 16.7768 0.13488 13.2829 1.80928C12.3332 2.2628 11.0625 3.02472 10.4021 4.06419L10.3958 4.07598L10.3912 12.7773L5.19932 11.0348V15.5991L1.58204 15.6154V33.6855L0.437337 33.6982C0.378705 33.6988 0.320783 33.711 0.266934 33.7342C0.213085 33.7575 0.164397 33.7911 0.123703 33.8334C0.0830086 33.8756 0.0511324 33.9255 0.0299204 33.9801C0.00870828 34.0348 -0.00141009 34.0931 0.000157982 34.1517V36.1545C-0.000198596 36.2464 0.0177335 36.3374 0.0529286 36.4223C0.0881237 36.5071 0.139878 36.5842 0.205151 36.6488C0.269814 36.7138 0.346704 36.7653 0.431402 36.8003C0.516101 36.8353 0.60692 36.8532 0.698577 36.8529L47.3651 36.774C47.5335 36.774 47.695 36.7071 47.814 36.588C47.9331 36.469 48 36.3075 48 36.1391V34.003L47.9882 33.9894ZM2.35121 33.6946V16.3909H3.38523V33.6946H2.35121ZM4.1544 33.6946V16.39H5.19841V33.6955L4.1544 33.6946ZM5.96849 33.6946V12.1033L10.3958 13.5882V33.6891L5.96849 33.6946ZM34.125 33.6882L31.051 33.6946V28.6587C32.1857 28.7575 33.285 28.9308 34.1259 29.0687L34.125 33.6882ZM34.125 18.3492V22.8708C33.112 22.6207 32.0865 22.4242 31.0528 22.2822V17.639C32.0892 17.8105 33.1136 18.0483 34.1195 18.351L34.125 18.3492ZM34.125 28.2741L31.0492 27.8741V23.0668C32.0837 23.2134 33.1094 23.4175 34.1213 23.6781L34.125 28.2741ZM31.0482 16.8453V11.8639C32.0918 12.0578 33.1191 12.3307 34.1213 12.6802V17.5302C33.1088 17.2452 32.0814 17.0163 31.0437 16.8444L31.0482 16.8453ZM13.8707 23.679C14.9548 23.395 16.0549 23.1757 17.1651 23.0223V27.8405C15.9442 27.9639 14.9237 28.0999 13.8725 28.2786L13.8707 23.679ZM17.1678 33.6928L13.8797 33.6982L13.8725 29.0669C14.9292 28.8854 15.9777 28.7439 17.166 28.6242L17.1678 33.6928ZM13.8707 12.6675C14.9457 12.3015 16.0454 12.0124 17.1614 11.8022V16.7864C16.0512 16.9695 14.9524 17.2166 13.8707 17.5265V12.6675ZM13.8707 18.3483C14.9505 18.0215 16.0507 17.766 17.1641 17.5837V22.2259C15.8734 22.4246 14.853 22.6223 13.8688 22.8609L13.8707 18.3483ZM13.1033 33.6882L11.1541 33.6982V29.6873C11.7935 29.4907 12.4441 29.3326 13.1024 29.2138L13.1033 33.6882ZM36.837 18.5406L34.8878 17.7696V12.9623C35.5656 13.2106 36.2187 13.5216 36.8388 13.8911L36.837 18.5406ZM11.1495 4.32814C12.0666 2.98118 14.4348 2.1331 15.1405 1.90543C16.6086 1.43627 18.1226 1.12551 19.6567 0.978433C22.8322 0.654432 26.0346 0.699478 29.1997 1.11267C30.5848 1.29408 35.2225 2.056 36.837 4.29912V12.9895C34.6728 11.8312 32.0487 11.1019 28.5829 10.6956C26.771 10.5056 24.9496 10.4217 23.128 10.4443C20.3542 10.4706 15.1233 10.8398 11.1459 13.0076L11.1495 4.32814ZM11.1495 13.9065C11.7639 13.5224 12.4173 13.2047 13.0988 12.9587V17.766C12.4756 17.9918 11.8879 18.2304 11.1495 18.5578V13.9065ZM11.1495 23.7661V19.4241C11.7704 19.0863 12.4226 18.8095 13.097 18.5978V23.0713L11.1495 23.7661ZM13.1006 28.412L11.1486 28.8927V24.6006C11.7754 24.3074 12.4271 24.0709 13.096 23.894L13.1006 28.412ZM17.9297 11.6607C19.6277 11.375 21.4 11.2317 23.4989 11.2072V16.2866C21.6356 16.2952 19.7748 16.423 17.9279 16.6694L17.9297 11.6607ZM23.5016 27.5457L22.2599 27.572C20.6798 27.5974 19.302 27.6628 17.9306 27.7752V22.9144C19.7786 22.693 21.6378 22.5785 23.4989 22.5715L23.5016 27.5457ZM17.9306 22.1298V17.463C19.7755 17.2013 21.6364 17.0682 23.4998 17.0648V21.7969L22.5021 21.8241C20.9756 21.8486 19.4513 21.9507 17.9351 22.1298H17.9306ZM19.8826 33.6882L17.9306 33.6973V28.5517L19.8816 28.4265L19.8826 33.6882ZM23.5007 33.6882L20.6517 33.6964V28.3857L23.4998 28.3213L23.5007 33.6882ZM27.5634 33.6882L24.269 33.6928V28.3194L27.567 28.4038L27.5634 33.6882ZM30.2845 27.7925L27.0427 27.611L24.2708 27.5439V22.5733C26.6609 22.6051 28.5185 22.7221 30.2827 22.9525L30.2845 27.7925ZM24.2708 17.0658C26.6237 17.0975 28.4813 17.2327 30.2818 17.503V22.1633C28.7534 21.9892 27.5607 21.8958 26.4269 21.8613L24.2681 21.7951L24.2708 17.0658ZM26.2391 16.3528L24.2717 16.2875V11.2081C26.5221 11.2335 28.4351 11.3895 30.2827 11.7042V16.7111C28.9425 16.5259 27.5938 16.4087 26.2418 16.3601L26.2391 16.3528ZM30.2845 33.6774L28.3344 33.6846V28.4319L30.2882 28.5852L30.2845 33.6774ZM36.8379 23.7452L34.8869 23.0695V18.5941C35.5576 18.8074 36.2088 19.0778 36.8334 19.4023L36.8379 23.7452ZM36.8379 33.6792L34.8887 33.6864V29.2201C35.5478 29.3335 36.1992 29.4883 36.8388 29.6836L36.8379 33.6792ZM34.8896 28.4129V23.8858C35.5579 24.0624 36.2098 24.2964 36.8379 24.5851V28.8655L34.8896 28.4129ZM37.5989 13.5782L42.0271 12.0924V33.6801L37.5998 33.6855L37.5989 13.5782ZM42.7963 33.6846V16.39H43.8403V33.6955L42.7963 33.6846ZM44.6104 33.6846V16.3909H45.6444V33.6955L44.6104 33.6846ZM47.2281 34.452V35.9558H0.76479V34.4629L47.2281 34.452Z" fill="#031286"/>
<path d="M26.054 7.56906C26.3043 7.56906 26.5692 7.31963 26.6798 7.07835L27.9969 4.21753C28.0509 4.10156 28.0734 3.97337 28.0619 3.84593C28.0504 3.7185 28.0055 3.59635 27.9316 3.4919C27.7502 3.23702 27.4862 3.20255 27.2495 3.20255H20.8938L20.7269 2.43701C20.5827 1.78031 20.0711 1.80208 19.4788 1.81931C19.3754 1.81931 19.2675 1.82657 19.1577 1.82657C19.11 1.82718 19.063 1.83756 19.0195 1.85706C18.9759 1.87656 18.9369 1.90477 18.9047 1.93995C18.8305 2.01847 18.7904 2.12313 18.7931 2.23111C18.7983 2.33466 18.8442 2.43197 18.9208 2.50181C18.9974 2.57164 19.0986 2.60834 19.2022 2.6039L19.9931 2.61207L20.9727 6.90692C21.0362 7.17903 21.3065 7.56362 21.6512 7.56362L26.054 7.56906ZM21.7238 6.8008L21.0652 3.94724H27.2631L25.9669 6.79536L21.7238 6.8008Z" fill="#031286"/>
<path d="M22.2078 7.89478C22.0182 7.89478 21.8363 7.97005 21.7021 8.10406C21.5679 8.23808 21.4924 8.41988 21.4922 8.60953C21.4924 8.79917 21.5679 8.98097 21.7021 9.11498C21.8363 9.249 22.0182 9.32428 22.2078 9.32428C22.3974 9.32428 22.5792 9.24897 22.7132 9.11493C22.8473 8.98089 22.9226 8.79909 22.9226 8.60953C22.9226 8.41996 22.8473 8.23816 22.7132 8.10412C22.5792 7.97008 22.3974 7.89478 22.2078 7.89478Z" fill="#031286"/>
<path d="M25.4511 7.89355C25.2617 7.89403 25.0801 7.96949 24.9462 8.10343C24.8123 8.23737 24.7368 8.41889 24.7363 8.60831C24.7366 8.7978 24.8119 8.97946 24.9459 9.11345C25.0799 9.24744 25.2616 9.32282 25.4511 9.32306C25.6407 9.32306 25.8226 9.24778 25.9568 9.11376C26.091 8.97975 26.1665 8.79795 26.1667 8.60831C26.1663 8.41873 26.0907 8.23707 25.9565 8.10311C25.8224 7.96915 25.6406 7.89379 25.4511 7.89355Z" fill="#031286"/>
</svg>
