<svg preserveAspectRatio="none" width="100%" height="100%" overflow="visible" style="display: block;" viewBox="0 0 228 228" fill="none" xmlns="http://www.w3.org/2000/svg">
<g id="message">
<path id="Vector" d="M114 216.695C107.445 216.695 101.27 213.37 96.8997 207.575L82.6497 188.575C82.3647 188.195 81.2247 187.72 80.7497 187.625H75.9997C36.3847 187.625 11.8748 176.89 11.8748 123.5V75.9998C11.8748 34.0098 34.0097 11.8748 75.9997 11.8748H152C193.99 11.8748 216.125 34.0098 216.125 75.9998V123.5C216.125 165.49 193.99 187.625 152 187.625H147.25C146.49 187.625 145.825 188.005 145.35 188.575L131.1 207.575C126.73 213.37 120.555 216.695 114 216.695ZM75.9997 26.1248C41.9897 26.1248 26.1247 41.9898 26.1247 75.9998V123.5C26.1247 166.44 40.8497 173.375 75.9997 173.375H80.7497C85.5947 173.375 91.1047 176.13 94.0497 180.025L108.3 199.025C111.625 203.395 116.375 203.395 119.7 199.025L133.95 180.025C137.085 175.845 142.025 173.375 147.25 173.375H152C186.01 173.375 201.875 157.51 201.875 123.5V75.9998C201.875 41.9898 186.01 26.1248 152 26.1248H75.9997Z" fill="var(--fill-0, #CD1417)"/>
<path id="Vector_2" d="M114 114C108.68 114 104.5 109.725 104.5 104.5C104.5 99.2753 108.775 95.0003 114 95.0003C119.225 95.0003 123.5 99.2753 123.5 104.5C123.5 109.725 119.32 114 114 114Z" fill="var(--fill-0, #CD1417)"/>
<path id="Vector_3" d="M152 114C146.68 114 142.5 109.725 142.5 104.5C142.5 99.2749 146.775 94.9999 152 94.9999C157.225 94.9999 161.5 99.2749 161.5 104.5C161.5 109.725 157.32 114 152 114Z" fill="var(--fill-0, #CD1417)"/>
<path id="Vector_4" d="M76.0003 114C70.6803 114 66.5003 109.725 66.5003 104.5C66.5003 99.2753 70.7753 95.0003 76.0003 95.0003C81.2253 95.0003 85.5003 99.2753 85.5003 104.5C85.5003 109.725 81.3203 114 76.0003 114Z" fill="var(--fill-0, #CD1417)"/>
<g id="Vector_5" opacity="0">
</g>
</g>
</svg>
