<svg preserveAspectRatio="none" width="100%" height="100%" overflow="visible" style="display: block;" viewBox="0 0 92 102" fill="none" xmlns="http://www.w3.org/2000/svg">
<path id="Vector" d="M45.8373 12.8775C54.9541 12.8775 63.5431 14.8325 71.6049 18.7425C79.6664 22.6524 86.3563 28.2624 91.6745 35.5725C91.9277 35.9976 92.033 36.3375 91.991 36.5925C91.9487 36.8475 91.8011 37.1025 91.5478 37.3575C91.2946 37.6125 90.978 37.74 90.5982 37.74C90.2183 37.74 89.8594 37.5276 89.5219 37.1025C84.5413 30.1326 78.1892 24.7776 70.4653 21.0375C62.7413 17.2974 54.5319 15.4275 45.8373 15.4275C37.1424 15.4275 28.9966 17.3188 21.3992 21.1012C13.8019 24.8836 7.4707 30.2175 2.40582 37.1025C2.06817 37.5276 1.75161 37.7826 1.45615 37.8675C1.16069 37.9524 0.844138 37.9101 0.506488 37.74C0.168837 37.5699 0 37.2937 0 36.9112C0 36.5287 0.084406 36.1674 0.253244 35.8275C5.48696 28.5174 12.1135 22.8651 20.133 18.87C28.1522 14.875 36.7205 12.8775 45.8373 12.8775ZM45.8373 25.1175C57.3176 25.1175 67.1731 28.9425 75.4035 36.5925C83.6339 44.2425 87.7492 53.6775 87.7492 64.8975C87.7492 68.8074 86.314 72.1224 83.444 74.8424C80.5738 77.5625 77.1129 78.9224 73.061 78.9224C68.9245 78.9224 65.3791 77.5625 62.4248 74.8424C59.4702 72.1224 57.993 68.8074 57.993 64.8975C57.993 61.5825 56.7901 58.82 54.3843 56.61C51.9785 54.3999 49.1295 53.295 45.8373 53.295C42.5451 53.295 39.6748 54.3999 37.227 56.61C34.7789 58.82 33.555 61.5825 33.555 64.8975C33.555 73.7375 36.214 81.1111 41.5321 87.0187C46.8503 92.9263 53.4766 97.07 61.4118 99.4499C61.9183 99.62 62.2348 99.8324 62.3615 100.087C62.4881 100.342 62.5091 100.64 62.4248 100.98C62.3402 101.405 62.1715 101.702 61.9183 101.872C61.665 102.043 61.3272 102.043 60.9053 101.872C52.2104 99.6623 45.0563 95.285 39.4429 88.7399C33.8292 82.1949 31.0225 74.2475 31.0225 64.8975C31.0225 60.9024 32.4787 57.545 35.391 54.825C38.3033 52.1049 41.7854 50.745 45.8373 50.745C49.8892 50.745 53.3713 52.1049 56.2836 54.825C59.1959 57.545 60.6521 60.9024 60.6521 64.8975C60.6521 68.1275 61.897 70.8474 64.3874 73.0575C66.8776 75.2675 69.7688 76.3725 73.061 76.3725C76.2686 76.3725 79.0756 75.2675 81.4814 73.0575C83.8872 70.8474 85.0901 68.1275 85.0901 64.8975C85.0901 54.4425 81.2281 45.6876 73.5042 38.6325C65.7802 31.5774 56.5579 28.05 45.8373 28.05C35.1165 28.05 25.8943 31.5774 18.1704 38.6325C10.4464 45.6876 6.58434 54.4425 6.58434 64.8975C6.58434 66.9375 6.81649 69.5938 7.28076 72.8662C7.74504 76.1386 8.73692 79.8575 10.2564 84.0224C10.4252 84.4475 10.4252 84.7663 10.2564 84.9787C10.0875 85.1911 9.87652 85.3824 9.62327 85.5524C9.28562 85.7225 8.92685 85.7649 8.54698 85.6799C8.16712 85.595 7.89278 85.34 7.72394 84.9149C6.62656 81.6849 5.7613 78.3913 5.12819 75.0337C4.49508 71.6761 4.17852 68.2974 4.17852 64.8975C4.17852 53.9325 8.31484 44.5612 16.5876 36.7837C24.8601 29.0062 34.61 25.1175 45.8373 25.1175ZM45.8373 0C51.3241 0 56.7055 0.680008 61.9816 2.04C67.2574 3.39999 72.3013 5.31249 77.1129 7.7775C77.5348 7.9475 77.767 8.2025 77.8093 8.54249C77.8514 8.88249 77.7881 9.17999 77.6194 9.43499C77.4505 9.68999 77.2183 9.90248 76.923 10.0725C76.6275 10.2425 76.2686 10.2425 75.8467 10.0725C71.2037 7.77749 66.3501 5.97125 61.2852 4.65375C56.2203 3.33624 51.0708 2.6775 45.8373 2.6775C40.6035 2.6775 35.4963 3.29376 30.516 4.52625C25.5355 5.75874 20.7661 7.60749 16.2077 10.0725C15.7856 10.2425 15.469 10.2637 15.2581 10.1362C15.0469 10.0087 14.8569 9.81749 14.6883 9.56249C14.5194 9.39249 14.435 9.13748 14.435 8.79749C14.435 8.4575 14.5617 8.2025 14.8149 8.03249C19.6265 5.39751 24.6701 3.39999 29.9462 2.04C35.2221 0.680008 40.5192 0 45.8373 0ZM45.8373 37.995C53.6033 37.995 60.2932 40.5876 65.9069 45.7725C71.5203 50.9574 74.3272 57.3324 74.3272 64.8975C74.3272 65.3225 74.2216 65.6413 74.0107 65.8537C73.7995 66.0661 73.4829 66.1725 73.061 66.1725C72.6389 66.1725 72.3013 66.0661 72.048 65.8537C71.7948 65.6413 71.6682 65.3225 71.6682 64.8975C71.6682 58.0125 69.1145 52.2324 64.0075 47.5575C58.9004 42.8826 52.8435 40.545 45.8373 40.545C38.8308 40.545 32.8162 42.8826 27.7937 47.5575C22.7708 52.2324 20.2596 58.0125 20.2596 64.8975C20.2596 72.1224 21.5046 78.2849 23.995 83.3849C26.4851 88.4849 30.1782 93.5849 35.0744 98.6849C35.412 99.0249 35.5596 99.3436 35.5176 99.6412C35.4753 99.9388 35.3277 100.215 35.0744 100.47C34.9055 100.64 34.6312 100.789 34.2514 100.916C33.8715 101.044 33.5127 100.895 33.1751 100.47C28.2789 95.3699 24.4592 90.0149 21.7158 84.4049C18.9722 78.7949 17.6006 72.2925 17.6006 64.8975C17.6006 57.3324 20.365 50.9574 25.8943 45.7725C31.4234 40.5876 38.0711 37.995 45.8373 37.995ZM45.7107 63.495C46.1326 63.495 46.4491 63.6225 46.6603 63.8775C46.8713 64.1325 46.9769 64.4724 46.9769 64.8975C46.9769 71.7825 49.4881 77.4562 54.5109 81.9187C59.5335 86.3812 65.3371 88.6124 71.9214 88.6124C72.5966 88.6124 73.3986 88.5699 74.3272 88.4849C75.2556 88.4 76.2686 88.2725 77.3662 88.1024C77.7881 88.0175 78.1259 88.0813 78.3791 88.2937C78.6324 88.5061 78.801 88.7399 78.8856 88.9949C78.97 89.3349 78.9489 89.6324 78.8223 89.8874C78.6957 90.1424 78.4212 90.3125 77.9993 90.3974C76.4798 90.8225 75.1503 91.0561 74.0107 91.0987C72.8711 91.1413 72.1747 91.1624 71.9214 91.1624C64.4928 91.1624 58.0563 88.6762 52.6116 83.7037C47.1668 78.7312 44.4444 72.4625 44.4444 64.8975C44.4444 64.4724 44.5498 64.1325 44.761 63.8775C44.972 63.6225 45.2885 63.495 45.7107 63.495Z" fill="var(--fill-0, #CD1417)"/>
</svg>
