<svg width="303" height="154" viewBox="0 0 303 154" fill="none" xmlns="http://www.w3.org/2000/svg">
<path d="M301.878 142.493C301.307 141.807 300.201 141.722 299.877 141.722L297.14 141.672L297.117 136.63C297.126 136.108 296.932 135.603 296.577 135.221C296.222 134.839 295.733 134.609 295.212 134.579L292.128 134.513C291.874 131.125 289.854 128.453 286.762 127.424C286.773 126.338 286.554 125.262 286.121 124.266C285.688 123.269 285.05 122.375 284.249 121.642C283.268 120.668 282.06 119.955 280.734 119.566C279.408 119.178 278.006 119.127 276.655 119.418C276.372 118.993 276.199 118.504 276.154 117.995V70.2789C280.541 71.1848 284.434 74.1956 288.038 79.4614C288.259 79.7481 288.561 79.9607 288.906 80.0709C289.25 80.1811 289.62 80.1836 289.966 80.0781C290.502 79.9471 290.899 79.4382 291.122 78.5978C291.846 75.7921 291.639 72.8271 290.531 70.1495C289.424 67.4719 287.476 65.2269 284.981 63.7526L285.914 63.6061C285.993 63.5942 286.073 63.5865 286.153 63.583H286.851H287.553C289.227 63.6318 290.89 63.8711 292.51 64.2961L293.069 64.4773C293.616 64.6661 294.196 64.7396 294.773 64.6932C295.167 64.5931 295.507 64.3462 295.725 64.0031C295.824 63.8692 295.895 63.7161 295.932 63.5535C295.969 63.391 295.972 63.2225 295.941 63.0587C295.12 59.7242 291.986 57.1452 289.553 55.9502C286.898 54.6833 283.904 54.3088 281.019 54.8824C282.603 52.4538 284.823 50.4146 287.796 48.6529L287.93 48.5757L287.984 48.383C288.011 48.2866 288.038 48.1864 288.058 48.1402C288.152 47.8985 288.194 47.6394 288.181 47.3802C288.168 47.1209 288.099 46.8675 287.981 46.6368C287.885 46.4431 287.746 46.2733 287.576 46.1399C287.406 46.0065 287.209 45.9129 286.998 45.8658C280.83 44.5011 274.743 47.1186 271.674 52.4191C270.664 50.8772 269.724 49.5858 268.39 48.5218C266.78 47.2293 264.907 46.3042 262.902 45.8114C260.897 45.3187 258.808 45.2701 256.783 45.6692C256.364 45.7192 255.977 45.9188 255.694 46.2311C255.411 46.5435 255.25 46.9476 255.241 47.3692C255.191 47.9551 255.603 48.6105 256.289 49.0345C258.763 50.5209 260.86 52.5577 262.419 54.9865H262.399C261.005 54.7032 259.578 54.6111 258.159 54.7128C255.8 54.9249 253.536 55.7402 251.584 57.0803C249.631 58.4204 248.056 60.2402 247.011 62.3648C246.859 62.6703 246.794 63.0114 246.823 63.3511C246.851 63.6908 246.972 64.0163 247.172 64.2922C247.423 64.5341 247.734 64.7054 248.072 64.7887C248.411 64.872 248.765 64.8642 249.1 64.7664C252.269 63.8759 254.682 63.448 257.862 63.8412C251.656 67.488 251.101 73.8987 251.081 75.7915C251.081 77.5532 251.428 79.55 252.276 80.0319C252.758 80.3094 253.768 80.3441 254.246 79.7659C256.05 77.5801 257.916 75.325 260.356 73.4978C262.324 71.9565 264.597 70.8525 267.025 70.2596C267.089 70.2552 267.154 70.2552 267.218 70.2596C267.221 70.3071 267.221 70.3548 267.218 70.4023V111.758C266.97 111.843 266.706 111.868 266.447 111.831C264.161 111.68 261.886 112.261 259.952 113.489C258.017 114.717 256.524 116.529 255.688 118.662C254.504 118.33 253.265 118.239 252.045 118.396C250.825 118.553 249.649 118.954 248.587 119.576C247.57 120.185 246.688 120.997 245.996 121.96C245.304 122.923 244.816 124.018 244.563 125.177H230.161C229.891 124.175 230.13 123.138 230.878 122.093C232.482 119.885 234.781 118.279 237.405 117.531C240.03 116.782 242.829 116.935 245.357 117.964C245.569 118.038 245.795 118.065 246.019 118.042C246.243 118.019 246.459 117.948 246.652 117.833C246.836 117.745 247 117.62 247.132 117.465C247.265 117.311 247.364 117.13 247.423 116.935C247.514 116.539 247.456 116.123 247.26 115.768C247.063 115.412 246.743 115.141 246.359 115.008C239.239 112.251 230.778 115.235 227.501 121.653C227.081 122.516 226.898 123.476 226.973 124.433C227.002 124.669 226.987 124.908 226.926 125.138C226.86 125.172 226.785 125.185 226.711 125.177H224.201C224.028 125.177 223.985 125.138 223.985 125.138C223.926 124.897 223.912 124.648 223.943 124.402C224.07 122.922 223.647 121.446 222.755 120.258C216.403 111.573 203.23 109.684 193.994 116.141C191.65 117.775 190.027 119.668 189.033 121.923C188.749 122.687 188.626 123.5 188.67 124.313C188.679 124.589 188.662 124.865 188.62 125.138L185.721 125.192C185.604 125.14 185.502 125.059 185.424 124.957C185.424 124.387 185.424 123.889 185.424 123.45C185.451 121.407 185.463 120.366 183.131 118.053C176.192 111.153 164.222 110.601 155.449 113.115C152.228 114.015 149.245 115.614 146.713 117.798C145.75 118.635 144.709 119.66 144.296 120.921C144.017 121.893 143.925 122.91 144.027 123.916C144.057 124.417 144.084 124.938 143.953 125.073C143.875 125.126 143.781 125.15 143.687 125.142H140.85H140.784C140.75 124.923 140.744 124.7 140.765 124.479C140.893 123.199 140.577 121.915 139.871 120.84C138.355 118.546 136.32 116.642 133.93 115.281C124.293 109.73 111.549 112.078 105.512 120.516C104.766 121.499 104.387 122.711 104.44 123.943C104.463 124.343 104.41 124.743 104.282 125.123L101.275 125.146H101.21C101.194 124.972 101.194 124.796 101.21 124.622C101.344 123.066 100.892 121.516 99.9417 120.277C96.6765 115.698 91.2411 113.238 85.4086 113.693C81.1991 114.025 77.6371 115.582 75.1006 118.199C74.7816 118.547 74.4879 118.916 74.2217 119.306C74.0598 119.533 73.9017 119.749 73.7398 119.953C72.3135 119.703 70.9912 119.568 69.4685 120.019C69.4071 120.016 69.3479 119.994 69.2989 119.957L67.2212 109.996C67.2195 109.976 67.2195 109.955 67.2212 109.934H254.732C254.9 109.938 255.067 109.901 255.219 109.828C255.371 109.755 255.504 109.648 255.607 109.514C255.755 109.308 255.86 109.074 255.915 108.826C255.97 108.578 255.974 108.322 255.927 108.073C255.769 107.371 255.156 106.935 254.277 106.935H240.766C240.692 106.82 240.653 106.686 240.654 106.55L240.712 103.331C240.852 103.283 240.999 103.255 241.147 103.246H254.254C255.168 103.246 255.846 102.718 255.938 101.932C255.97 101.689 255.952 101.443 255.886 101.208C255.82 100.973 255.707 100.753 255.553 100.563C255.437 100.429 255.293 100.323 255.131 100.251C254.969 100.179 254.793 100.143 254.616 100.147H240.908C240.826 100.136 240.747 100.104 240.681 100.054V96.3304C240.694 96.2358 240.712 96.1419 240.735 96.049C240.792 96.0447 240.85 96.0447 240.908 96.049H254.462C254.671 96.0568 254.879 96.0187 255.071 95.9375C255.264 95.8562 255.436 95.7337 255.576 95.5787C255.724 95.4003 255.831 95.1925 255.892 94.9691C255.952 94.7457 255.964 94.5119 255.927 94.2835C255.864 93.8941 255.658 93.5422 255.349 93.2964C255.04 93.0505 254.651 92.9283 254.258 92.9536H240.908C240.839 92.9487 240.77 92.9357 240.704 92.915C240.679 92.7878 240.664 92.6589 240.658 92.5295L240.688 88.9714H259.547C259.571 89.0308 259.588 89.0929 259.597 89.1564V106.249C259.588 106.636 259.724 107.011 259.979 107.302C260.234 107.592 260.589 107.777 260.973 107.818C261.448 107.846 261.917 107.693 262.284 107.39C262.399 107.303 262.493 107.191 262.56 107.063C262.626 106.935 262.664 106.794 262.669 106.65L262.704 87.9769C262.718 87.6778 262.674 87.3788 262.573 87.0969C262.472 86.8151 262.316 86.5561 262.114 86.3347C261.934 86.1604 261.721 86.0241 261.487 85.9341C261.253 85.844 261.004 85.8019 260.753 85.8104H240.708V80.5947C240.708 79.6502 240.049 78.6672 238.965 78.6672L233.877 78.621V48.8456C233.883 48.6027 233.835 48.3614 233.736 48.1393C233.638 47.9173 233.491 47.72 233.306 47.5619C232.837 47.1964 232.249 47.0178 231.656 47.0608L231.587 44.0424C231.585 43.7935 231.532 43.5477 231.432 43.3199C231.331 43.0921 231.186 42.8872 231.003 42.7176C230.821 42.548 230.606 42.4174 230.372 42.3337C230.138 42.2499 229.889 42.2148 229.64 42.2306H206.665C206.216 42.2385 205.786 42.4102 205.455 42.7134C205.124 43.0166 204.916 43.4303 204.869 43.8766L204.818 47.0492L201.611 47.1225C201.234 47.1771 200.888 47.3605 200.63 47.6416C200.373 47.9226 200.221 48.284 200.2 48.6644V93.2195L192.726 93.2658L192.683 88.6784C192.683 87.3369 191.82 86.5235 190.332 86.4117C190.196 83.6018 189.251 80.8911 187.609 78.6065C185.967 76.3219 183.7 74.561 181.08 73.5363C180.085 73.1648 179.067 72.8622 178.031 72.6304L177.418 72.4801V66.3469C177.426 65.9391 177.276 65.5439 177.001 65.2432C176.725 64.9425 176.344 64.7594 175.938 64.7317C175.456 64.729 174.992 64.9064 174.634 65.229C174.514 65.3426 174.418 65.4794 174.352 65.6311C174.285 65.7828 174.251 65.9463 174.249 66.1118L174.214 72.4107C174.172 72.4526 174.125 72.49 174.076 72.5225C170.517 72.8661 167.189 74.44 164.666 76.9731C162.142 79.5062 160.581 82.84 160.252 86.4002C159.574 86.3768 158.911 86.597 158.382 87.0209C158.189 87.1862 158.033 87.3906 157.925 87.6205C157.817 87.8503 157.758 88.1006 157.754 88.3546L157.681 91.5928L156.567 87.8149C156.081 86.1689 156.15 85.9338 156.597 84.4034C156.74 83.9138 156.917 83.3047 157.122 82.4759C157.229 82.1076 157.259 81.7209 157.209 81.3405C157.158 80.9601 157.029 80.5945 156.829 80.267C156.358 79.5963 155.36 79.496 154.951 79.496L152.793 79.4344V45.646C152.793 45.2104 152.793 44.7825 152.766 44.3546C152.689 43.2925 152.738 42.225 152.912 41.1743L154.512 33.5532C154.573 33.3028 154.578 33.0421 154.526 32.7896C154.475 32.537 154.369 32.2989 154.215 32.0922C154.024 31.8608 153.786 31.6725 153.517 31.5397C153.248 31.4068 152.954 31.3323 152.654 31.3212C152.507 31.3212 152.457 31.0513 152.457 30.8817L152.488 25.2343C152.532 24.5286 152.333 23.829 151.923 23.2529C151.513 22.6767 150.918 22.2589 150.237 22.0694L150.202 19.078C150.204 18.3051 149.994 17.5464 149.593 16.8854C149.193 16.2244 148.618 15.6866 147.931 15.331V1.69227C147.931 0.651439 147.338 0.00385492 146.39 0C145.988 0.00371511 145.603 0.164127 145.318 0.447136C145.035 0.732049 144.877 1.11748 144.878 1.51881V15.3965C143.533 16.1983 142.739 17.4126 142.697 18.7618L142.596 22.0925C141.189 22.6206 140.391 23.6923 140.387 25.0646V31.2325C139.835 31.3284 139.317 31.5632 138.88 31.9148C138.032 32.786 138.63 35.1105 139.266 37.5661C139.62 38.95 139.987 40.3763 139.99 41.2553L140.083 79.4189C139.233 79.4964 138.38 79.526 137.527 79.5076C137.192 79.5102 136.862 79.5868 136.56 79.7321C136.258 79.8774 135.992 80.0877 135.781 80.348C135.601 80.5665 135.475 80.8237 135.412 81.0994C135.35 81.375 135.352 81.6615 135.418 81.9362L136.428 86.273L134.254 92.8495C133.838 94.1139 134.304 95.0969 135.642 95.7676L135.603 99.1754H116.599L116.541 96.9357C116.553 96.6888 116.513 96.4421 116.426 96.211C116.338 95.9798 116.204 95.7692 116.032 95.5921C115.859 95.4149 115.652 95.2752 115.424 95.1814C115.195 95.0875 114.949 95.0417 114.702 95.0468L110.346 94.962V34.6248C110.337 34.1995 110.168 33.7932 109.873 33.4868C109.578 33.1803 109.179 32.9962 108.754 32.9711L105.485 32.9017L105.462 28.5418C105.473 28.2896 105.433 28.0377 105.345 27.8012C105.257 27.5646 105.122 27.3481 104.949 27.1645C104.776 26.9809 104.567 26.8338 104.336 26.732C104.105 26.6303 103.856 26.5758 103.604 26.5719H91.3183C90.7531 26.604 90.2169 26.8332 89.8032 27.2196C89.5088 27.679 89.3585 28.216 89.3715 28.7615C89.3833 29.0148 89.4573 29.2613 89.587 29.4792C89.7168 29.697 89.8983 29.8795 90.1155 30.0105H89.9882L80.4204 29.9874C78.5662 29.9874 78.4004 32.0343 78.3387 32.8092C78.3387 32.8477 78.3387 32.894 78.3387 32.9364C78.2809 32.9398 78.223 32.9398 78.1652 32.9364H73.2155C73.0016 32.9348 72.7896 32.9759 72.5918 33.0571C72.394 33.1384 72.2142 33.2582 72.0632 33.4096C71.9121 33.561 71.7927 33.741 71.7119 33.9391C71.6311 34.1371 71.5905 34.3493 71.5926 34.5631L71.6157 72.4493C71.6093 72.616 71.6375 72.7822 71.6986 72.9375C71.7596 73.0927 71.8521 73.2336 71.9704 73.3513C72.4599 73.8293 73.2965 73.8023 73.8978 73.783H74.1677H87.9605V77.4182L81.1682 77.4761C81.0024 77.4831 80.8402 77.5264 80.693 77.603C80.5457 77.6796 80.4172 77.7876 80.3163 77.9194C80.0205 78.2586 79.8683 78.6997 79.8922 79.1491C79.9502 79.5247 80.1406 79.8672 80.4291 80.1146C80.7175 80.3621 81.085 80.4982 81.4651 80.4983L87.9876 80.5446V106.939H83.7973V85.5675C83.7753 85.1096 83.5819 84.6766 83.2556 84.3546C82.9293 84.0325 82.4938 83.8449 82.0356 83.829L76.7851 83.802L76.7351 78.6479C76.7351 77.6418 76.0412 76.601 74.9079 76.601H59.5691C59.113 76.6252 58.6809 76.8133 58.3523 77.1305C58.0237 77.4478 57.8207 77.873 57.7805 78.328L57.7188 83.8174H45.9651C45.724 83.8162 45.485 83.8638 45.2627 83.9573C45.0404 84.0508 44.8394 84.1883 44.6716 84.3615C44.5038 84.5347 44.3727 84.74 44.2863 84.9652C44.1999 85.1903 44.1599 85.4306 44.1688 85.6716V101.388H36.1852V70.2751C42.1642 71.3082 46.6205 76.9595 48.2858 79.3881C48.4933 79.6922 48.7906 79.9239 49.1361 80.051C49.4816 80.1782 49.8581 80.1944 50.2132 80.0974C50.5043 79.9931 50.7637 79.8156 50.9663 79.582C51.1688 79.3484 51.3077 79.0665 51.3697 78.7636C52.7845 72.5957 50.5641 67.0562 45.4139 63.7796C48.1123 63.3941 50.8493 63.6909 53.8947 64.6508C54.2213 64.7633 54.5719 64.7869 54.9107 64.7191C55.2494 64.6514 55.564 64.4948 55.8222 64.2653C56.0288 64.0082 56.1672 63.7031 56.2245 63.3783C56.2818 63.0535 56.2562 62.7194 56.1499 62.4072C53.7406 56.7867 47.7538 53.7182 41.5243 54.8786C42.9891 52.5656 45.1055 50.6382 47.9889 48.8957C48.2446 48.7015 48.4452 48.444 48.571 48.1486C48.6967 47.8531 48.7433 47.53 48.706 47.2111C48.4477 45.6962 46.578 45.646 45.5719 45.6191H45.1286C42.5468 45.4398 39.966 45.9815 37.6741 47.1836C35.3822 48.3857 33.4695 50.2009 32.1492 52.4268C31.3966 51.1444 30.4645 49.9761 29.3813 48.9574C26.1701 46.0393 21.7293 44.8519 17.2036 45.6961C16.8607 45.7568 16.5424 45.9148 16.2868 46.1513C16.0312 46.3878 15.849 46.6928 15.7619 47.03C15.6846 47.3842 15.7198 47.7537 15.8629 48.0869C16.006 48.4201 16.2497 48.7002 16.5598 48.888C19.0934 50.4549 21.2506 52.5608 22.8781 55.0559C19.8676 54.3445 16.7049 54.6732 13.905 55.9885C11.1052 57.3037 8.83298 59.528 7.45841 62.2993C7.28631 62.6003 7.2026 62.9437 7.21692 63.2901C7.23124 63.6365 7.34299 63.9718 7.53935 64.2576C7.78152 64.5348 8.10088 64.7335 8.45659 64.8283C8.8123 64.923 9.18817 64.9096 9.53617 64.7895C12.3302 63.8444 15.2989 63.5298 18.229 63.8682C15.9778 65.1343 14.1654 67.0557 13.0326 69.3769L12.9131 69.6236C11.4399 72.5452 11.0717 75.9005 11.8761 79.072C11.9699 79.37 12.1416 79.6375 12.3733 79.8469C12.6051 80.0563 12.8886 80.2 13.1945 80.2632C13.4845 80.2894 13.7766 80.2497 14.049 80.1469C14.3214 80.044 14.567 79.8808 14.7673 79.6695C18.0671 75.5486 21.8757 71.5742 27.3459 70.3136V101.353L17.1766 101.388C15.7542 101.388 14.8328 102.101 14.6517 103.316L10.6349 123.889L8.61489 134.517C8.25202 134.565 7.88564 134.58 7.52006 134.564C7.18745 134.536 6.85269 134.576 6.536 134.681C6.21931 134.787 5.92722 134.955 5.6774 135.176C5.47679 135.364 5.31766 135.592 5.21012 135.845C5.10258 136.098 5.04905 136.37 5.05295 136.645L5.01436 141.714H2.74386C1.20189 141.714 0.1803 142.755 0.0993468 144.359C-0.0438467 146.818 -0.0322252 149.283 0.134075 151.741C0.174646 152.347 0.441746 152.916 0.882376 153.335C1.32301 153.753 1.90491 153.991 2.51253 154H300.39C301.958 154 302.702 152.277 302.702 151.113V144.532C302.656 143.781 302.366 143.065 301.878 142.493ZM23.9613 64.9129C24.276 64.8553 24.5661 64.7042 24.7937 64.4794C25.0213 64.2545 25.1758 63.9664 25.2372 63.6524C25.2835 63.3078 25.212 62.9576 25.0342 62.6588C24.8565 62.36 24.5829 62.1301 24.2581 62.0063C20.4837 60.7185 16.4675 60.2981 12.5083 60.7766C14.1443 59.1534 16.2872 58.1398 18.5798 57.9047C20.9698 57.6233 23.2674 58.4096 25.4145 59.2385C25.696 59.3385 25.9974 59.3694 26.2933 59.3284C26.5892 59.2875 26.8709 59.176 27.1146 59.0033C27.324 58.7845 27.4704 58.5131 27.5382 58.2179C27.6061 57.9227 27.5929 57.6147 27.5001 57.3264C26.1995 54.1128 24.2175 51.2193 21.6907 48.8456C23.1852 49.0289 24.612 49.5756 25.8463 50.4377C28.0514 51.8717 29.655 54.1461 30.4722 57.018C30.5576 57.307 30.7171 57.5687 30.9348 57.777C31.1526 57.9852 31.421 58.1329 31.7135 58.2054C32.8469 58.4058 33.2247 57.4575 33.6641 56.355C34.2882 54.5425 35.358 52.9159 36.7751 51.625C38.2974 50.1883 40.227 49.2578 42.2991 48.9612C39.7305 51.3068 37.718 54.1963 36.4088 57.4189C36.3362 57.695 36.3375 57.9853 36.4126 58.2607C36.4877 58.5361 36.634 58.7869 36.8367 58.9879C37.5383 59.5468 38.4172 59.196 39.5351 58.7566C40.734 58.2786 42.3762 57.6271 44.5465 57.8237C46.474 58.0011 49.0606 58.6564 50.9958 60.6802C47.0114 60.0806 42.9392 60.5502 39.1959 62.041C38.9141 62.1898 38.6817 62.4173 38.527 62.6959C38.3723 62.9745 38.3021 63.2921 38.3247 63.6099C38.389 63.9396 38.5527 64.2416 38.794 64.4753C39.0353 64.709 39.3424 64.863 39.674 64.9167C44.6854 65.973 48.1894 69.8202 48.467 74.4576C45.2789 70.9574 41.1657 67.5188 34.9748 66.8172C34.4594 66.7631 33.9422 66.9003 33.5214 67.2027C33.157 67.5998 32.9512 68.1171 32.9432 68.656V101.353C32.0939 101.421 31.2406 101.421 30.3913 101.353L30.372 68.39C30.3738 68.1708 30.3278 67.9537 30.2372 67.754C30.1467 67.5543 30.0138 67.3767 29.8477 67.2335C29.6807 67.0875 29.4851 66.9779 29.2734 66.9115C29.0617 66.8452 28.8385 66.8235 28.618 66.8481C22.373 67.619 18.2098 70.9227 14.6787 74.5078C14.9242 72.1579 15.9519 69.9587 17.5969 68.2628C19.1427 66.6206 21.2282 65.5104 23.9613 64.9129ZM47.0908 86.8859H57.6841V101.434H47.087L47.0908 86.8859ZM107.655 123.157C108.924 120.998 110.748 119.219 112.937 118.003C115.862 116.3 119.189 115.41 122.574 115.424C128.005 115.424 133.348 117.648 136.644 121.781C137.546 122.914 137.839 123.916 137.616 125.173H107.517C107.413 124.444 107.355 123.673 107.648 123.157H107.655ZM182.398 124.36C182.398 124.61 182.371 124.876 182.364 125.169H147.199C146.787 122.085 147.23 121.241 150.079 119.179C154.045 116.307 158.899 114.9 164.858 114.9C165.696 114.9 166.556 114.927 167.437 114.981C173.104 115.339 177.992 117.332 181.192 120.593C182.506 121.946 182.479 122.555 182.391 124.36H182.398ZM220.716 123.084C220.974 123.596 220.909 124.325 220.824 125.169H191.8C191.002 122.394 194.977 119.101 197.097 117.906C199.866 116.317 202.999 115.471 206.191 115.451C206.758 115.451 207.324 115.482 207.891 115.536C210.741 115.76 213.497 116.661 215.928 118.165C218.199 119.61 219.764 121.218 220.712 123.084H220.716ZM8.05209 137.678H89.9768V141.745H8.04437L8.05209 137.678ZM91.0985 134.594L88.2343 134.548C88.1795 133.302 87.8492 132.084 87.2673 130.981C86.6854 129.878 85.8664 128.917 84.869 128.168H238.88C236.868 130.073 235.897 132.131 235.862 134.552L229.675 134.575C229.407 134.579 229.141 134.635 228.895 134.741C228.648 134.848 228.425 135.001 228.238 135.194C228.051 135.387 227.904 135.614 227.805 135.864C227.707 136.114 227.658 136.381 227.663 136.649L227.57 141.741H93.0799C92.9681 140.145 92.9758 138.6 92.9835 137.115V136.699C93.0056 136.434 92.9735 136.168 92.8891 135.916C92.8047 135.664 92.6699 135.432 92.4927 135.234C92.3156 135.035 92.0998 134.876 91.8588 134.764C91.6177 134.652 91.3564 134.59 91.0908 134.583L91.0985 134.594ZM247.531 127.27C247.377 125.073 248.768 123.334 250.121 122.444C250.981 121.886 251.975 121.57 252.999 121.528C254.023 121.486 255.04 121.72 255.942 122.205C256.196 122.321 256.471 122.382 256.75 122.382C257.029 122.382 257.304 122.321 257.558 122.205C258.093 121.916 258.294 121.237 258.398 120.751C258.926 118.273 260.977 116.125 263.629 115.308C264.734 114.964 265.9 114.863 267.047 115.013C268.194 115.163 269.296 115.559 270.275 116.176C271.244 116.776 272.072 117.58 272.701 118.531C273.331 119.482 273.747 120.557 273.922 121.684C273.956 121.897 274.039 122.099 274.164 122.275C274.289 122.451 274.453 122.596 274.643 122.698C274.87 122.824 275.122 122.899 275.381 122.917C275.64 122.935 275.9 122.896 276.142 122.802C277.016 122.434 277.972 122.302 278.913 122.417C279.854 122.533 280.749 122.893 281.508 123.461C282.255 123.983 282.847 124.698 283.22 125.53C283.594 126.361 283.735 127.278 283.628 128.184C283.574 128.569 283.459 129.429 283.844 129.907C283.921 130.003 284.017 130.081 284.125 130.138C284.234 130.194 284.354 130.227 284.476 130.234C286.597 130.408 288.736 131.819 288.917 134.579H239.046C239.058 133.817 239.232 133.067 239.557 132.378C239.882 131.689 240.351 131.078 240.931 130.585C241.941 129.725 243.225 129.254 244.551 129.259C244.926 129.259 245.301 129.295 245.669 129.367C245.941 129.393 246.216 129.361 246.475 129.275C246.735 129.189 246.973 129.049 247.176 128.866C247.337 128.634 247.45 128.373 247.51 128.097C247.569 127.821 247.574 127.536 247.523 127.258L247.531 127.27ZM263.598 64.882C264.427 64.6932 264.947 64.1458 264.959 63.448C264.953 63.0917 264.832 62.7468 264.615 62.4643C264.398 62.1817 264.095 61.9766 263.752 61.8791C260.283 60.6917 256.578 60.3371 252.157 60.7573C254.037 58.8879 256.575 57.8305 259.227 57.8122C260.87 57.8241 262.493 58.1731 263.995 58.8376C265.152 59.2809 266.046 59.6317 266.74 59.0265C266.959 58.7945 267.111 58.5071 267.179 58.1953C267.247 57.8835 267.228 57.5591 267.125 57.257C265.877 54.0228 263.881 51.13 261.301 48.8148C263.271 49.0268 265.156 49.9327 266.91 51.5132C268.309 52.8033 269.342 54.4404 269.905 56.2586C270.29 57.2879 270.583 58.1013 271.404 58.1861C271.736 58.2184 272.07 58.1424 272.355 57.9693C272.639 57.7963 272.861 57.5355 272.985 57.2262C274.488 52.4769 277.804 49.4354 281.982 48.8996C279.099 51.6443 277.221 54.3812 276.104 57.4459C276.041 57.7015 276.042 57.9684 276.105 58.2237C276.169 58.4789 276.294 58.7148 276.47 58.9108C277.141 59.5276 278.104 59.1691 279.326 58.7103C280.076 58.4075 280.85 58.1664 281.639 57.9895C283.25 57.6554 284.918 57.7229 286.497 58.1861C288.075 58.6493 289.516 59.494 290.691 60.6455C286.412 60.1058 282.595 60.5453 279.01 61.9832C278.709 62.1332 278.459 62.3695 278.293 62.662C278.127 62.9545 278.052 63.2899 278.077 63.6253C278.239 64.5312 279.099 64.7818 280.19 65.1172C281.939 65.5647 283.558 66.4208 284.912 67.6152C286.89 69.3683 288.095 71.8317 288.266 74.4692C285.093 70.9266 281.223 67.6807 275.013 66.8403C274.741 66.8107 274.466 66.8361 274.205 66.9149C273.943 66.9937 273.7 67.1243 273.49 67.2991C273.343 67.4289 273.226 67.5886 273.146 67.7675C273.067 67.9464 273.026 68.1402 273.027 68.336V114.183C272.182 113.558 271.27 113.028 270.31 112.602V68.498C270.312 68.2559 270.262 68.0162 270.162 67.7957C270.062 67.5753 269.915 67.3794 269.731 67.222C269.537 67.0592 269.309 66.9404 269.064 66.8738C268.819 66.8073 268.563 66.7946 268.313 66.8365C262.045 67.8388 258.128 70.6298 254.389 74.5463C254.592 72.3835 255.458 70.3359 256.868 68.683C258.413 66.8095 260.676 65.5335 263.591 64.8705L263.598 64.882ZM98.0836 125.177L80.112 125.2C79.3862 123.569 78.192 122.191 76.6812 121.241C78.4428 118.982 81.1297 117.517 84.4874 117C89.3985 116.23 94.0976 117.98 97.0582 121.673C97.9757 122.81 98.3149 123.962 98.0759 125.165L98.0836 125.177ZM78.385 129.733C78.7435 129.961 79.2292 129.992 79.927 129.83H80.0002C81.2997 129.804 82.5585 130.284 83.5108 131.169C84.4631 132.053 85.0344 133.273 85.1041 134.571L72.3829 134.614L70.0121 123.161C70.9155 122.902 71.8673 122.863 72.789 123.045C73.7106 123.227 74.5757 123.626 75.3126 124.209C77.109 125.551 77.402 127.027 77.6256 128.107C77.7605 128.797 77.88 129.406 78.3773 129.722L78.385 129.733ZM230.77 141.757V137.69H293.956V141.757H230.77ZM67.1517 83.8367C66.9663 83.8398 66.7833 83.8795 66.6133 83.9536C66.4433 84.0277 66.2896 84.1347 66.1611 84.2684C65.8589 84.5774 65.69 84.9927 65.6908 85.4249C65.6898 85.6213 65.7276 85.8159 65.8021 85.9976C65.8767 86.1793 65.9865 86.3444 66.1252 86.4834C66.2639 86.6225 66.4287 86.7327 66.6102 86.8077C66.7917 86.8828 66.9862 86.9211 67.1826 86.9206H80.5668V106.901L67.3445 107.001C67.0842 106.989 66.8258 106.95 66.5735 106.885L65.7756 103.069C65.6706 102.629 65.4262 102.235 65.0789 101.945C64.7315 101.655 64.2998 101.486 63.8481 101.461L60.8683 101.357V79.7273H73.5895V83.7789L67.1517 83.8367ZM11.7566 134.598L17.6276 104.58H62.788L66.7046 123.041L69.0792 134.583L11.7566 134.598ZM299.445 145.006V150.835H3.0407V145.006H299.445ZM91.6922 29.9989C91.7957 29.9187 91.9134 29.8585 92.0391 29.8216L102.289 29.7792V32.9094L92.305 32.9402H92.2318C92.1946 32.7876 92.1778 32.6308 92.1818 32.4738C92.2042 31.8647 92.0298 31.2645 91.6845 30.7622C91.5229 30.5653 91.3203 30.4061 91.0908 30.2958C91.3058 30.2296 91.5089 30.1294 91.6922 29.9989ZM98.3226 98.1076H113.357L113.384 106.928L108.068 106.97L108.045 103.948C108.045 103.088 107.578 102.429 106.888 102.313C106.36 102.224 105.818 102.347 105.381 102.656C105.265 102.75 105.171 102.867 105.104 103C105.038 103.133 105.001 103.279 104.995 103.427L104.903 106.897L98.3496 106.955L98.3226 98.1076ZM87.9143 70.7107H74.611V67.195H87.9375L87.9143 70.7107ZM74.611 53.9996H87.9221V57.5115H74.611V53.9996ZM74.611 50.8502V47.3807H87.9182V50.8502H74.611ZM87.9259 64.1419H74.611V60.5915H87.9259V64.1419ZM74.611 40.8929H87.9413V44.3315H74.611V40.8929ZM89.6182 35.4614C89.7606 35.6288 89.938 35.7632 90.1377 35.855C90.3374 35.9469 90.5548 35.9941 90.7747 35.9933L107.139 36.0319V95.0429L97.116 95.0814C96.8704 95.0772 96.6264 95.1217 96.3982 95.2124C96.1699 95.303 95.9618 95.438 95.786 95.6096C95.6199 95.7812 95.4894 95.984 95.4021 96.2063C95.3147 96.4286 95.2723 96.6661 95.2773 96.9049L95.258 106.854L91.0176 106.924V39.4859C91.026 39.0646 90.8695 38.6567 90.5814 38.3492C90.2934 38.0416 89.8965 37.8588 89.4756 37.8398H74.6765C74.6438 37.2428 74.6438 36.6443 74.6765 36.0473L79.6879 36.0087C81.3879 36.0087 81.4458 34.5785 81.4805 33.7343C81.4848 33.5252 81.5028 33.3166 81.5344 33.1098H89.0053C89.0864 33.3216 89.1294 33.5461 89.1325 33.7729C89.0917 34.0715 89.1125 34.3753 89.1933 34.6657C89.2742 34.956 89.4135 35.2268 89.6027 35.4614H89.6182ZM143.525 25.5157C143.548 25.3839 143.61 25.262 143.703 25.1657C143.795 25.0695 143.915 25.0034 144.046 24.976C144.902 24.9027 145.73 24.868 146.567 24.868C147.299 24.868 148.039 24.895 148.81 24.949C148.952 24.9666 149.084 25.0318 149.184 25.134C149.285 25.2363 149.347 25.3694 149.362 25.5118L149.339 31.1824H143.579L143.525 25.5157ZM146.093 18.3224C146.131 18.2717 146.181 18.2302 146.238 18.2008C146.294 18.1715 146.357 18.1551 146.42 18.1528C146.486 18.1468 146.552 18.1558 146.613 18.1792C146.675 18.2026 146.73 18.2397 146.775 18.2877C147.338 18.8505 147.265 20.7934 147.218 21.7957L145.676 21.7687C145.542 20.4233 145.622 18.8621 146.077 18.3224H146.093ZM141.872 34.3781H151.104L149.701 40.8312V40.8736V79.3997L143.244 79.4575V67.1834L143.117 40.5845L141.872 34.3781ZM163.505 86.3C163.891 82.6031 165.965 79.4421 169.369 77.3643C171.224 76.225 173.359 75.6219 175.537 75.6218C178.333 75.6201 181.035 76.6291 183.146 78.4629C184.307 79.4305 185.26 80.6236 185.948 81.9699C186.635 83.3163 187.042 84.788 187.144 86.2961L163.505 86.3ZM160.761 89.4918H189.626V93.2851H160.761V89.4918ZM153.093 85.795H139.505L138.687 82.553H153.864C153.637 83.6863 153.386 84.6809 153.078 85.795H153.093ZM153.59 88.9136L154.863 93.154C154.49 93.227 154.112 93.2772 153.733 93.3043C153.445 93.2369 153.146 93.2342 152.856 93.2962C152.567 93.3581 152.295 93.4834 152.06 93.6629C151.832 93.837 151.646 94.0615 151.519 94.3189C151.391 94.5763 151.324 94.8597 151.324 95.147L151.305 106.947H138.718L138.699 95.7676L141.949 95.6635C142.32 95.6303 142.664 95.4565 142.911 95.1778C143.159 94.899 143.29 94.5364 143.279 94.164C143.284 93.7471 143.126 93.3446 142.839 93.0422C142.721 92.9197 142.579 92.8224 142.422 92.7562C142.265 92.6899 142.096 92.6561 141.926 92.6567L137.573 92.6105L138.822 88.9136H153.59ZM154.435 106.916V96.4153H204.818V101.427H190.112C189.214 101.427 188.185 102.159 188.185 103.131L188.088 106.904L159.562 106.939L154.435 106.916ZM217.597 48.6721C217.608 48.4608 217.576 48.2496 217.503 48.0509C217.43 47.8523 217.318 47.6702 217.174 47.5156C217.021 47.3659 216.84 47.2488 216.642 47.1712C216.443 47.0937 216.23 47.0574 216.017 47.0646H208.064C207.991 46.5197 207.991 45.9674 208.064 45.4224H228.399L228.476 48.5604C228.511 49.9443 229.633 50.0753 230.253 50.1447C230.411 50.1547 230.568 50.1819 230.72 50.2257V78.5709L222.667 78.6017C221.803 78.6017 221.125 79.1799 220.847 80.1436V80.1976V106.904L216.896 106.955C216.812 106.885 216.747 106.795 216.707 106.692L216.657 102.972C216.657 102.155 215.716 101.45 214.961 101.431L207.972 101.396L207.922 94.9465C207.913 94.5372 207.757 94.1448 207.481 93.8421C207.205 93.5395 206.829 93.347 206.422 93.3005L203.373 93.1501V50.1563H215.982C216.9 50.164 217.563 49.5626 217.582 48.6721H217.597ZM213.615 106.912L208.824 106.982H191.245C191.1 106.159 191.088 105.318 191.211 104.491L196.812 104.399L213.561 104.472C213.648 105.283 213.661 106.099 213.6 106.912H213.615ZM223.854 106.982V81.7049H237.674V106.982H223.854ZM116.522 106.982V102.317H135.627V106.982H116.522Z" fill="#CD0001"/>
<path d="M189.923 138.522H204.753C204.916 138.522 205.077 138.484 205.223 138.411C205.369 138.338 205.496 138.233 205.593 138.102C205.741 137.905 205.848 137.679 205.907 137.439C205.966 137.2 205.976 136.951 205.937 136.707C205.849 136.371 205.659 136.071 205.394 135.848C205.129 135.624 204.802 135.488 204.456 135.458H189.777C189.575 135.46 189.377 135.506 189.195 135.592C189.013 135.678 188.851 135.802 188.72 135.955C188.573 136.116 188.46 136.305 188.388 136.511C188.317 136.718 188.288 136.936 188.304 137.154C188.36 137.54 188.556 137.893 188.855 138.145C189.153 138.397 189.533 138.531 189.923 138.522Z" fill="#CD0001"/>
<path d="M148.769 137.786H162.392C162.596 137.789 162.798 137.747 162.984 137.663C163.17 137.579 163.335 137.455 163.467 137.3C163.616 137.126 163.726 136.922 163.793 136.703C163.859 136.483 163.88 136.252 163.853 136.024C163.798 135.656 163.612 135.32 163.328 135.078C163.045 134.837 162.683 134.706 162.311 134.71H148.78C148.379 134.718 147.995 134.876 147.702 135.151C147.41 135.427 147.231 135.801 147.2 136.202C147.191 136.406 147.223 136.61 147.295 136.802C147.368 136.993 147.478 137.168 147.62 137.316C147.77 137.468 147.949 137.587 148.146 137.668C148.344 137.749 148.555 137.789 148.769 137.786Z" fill="#CD0001"/>
<path d="M109.772 136.919C109.761 137.355 109.922 137.779 110.219 138.098C110.333 138.226 110.472 138.328 110.627 138.399C110.782 138.47 110.951 138.508 111.121 138.511H123.341C123.502 138.509 123.659 138.469 123.801 138.395C123.943 138.32 124.066 138.214 124.159 138.083C124.303 137.888 124.408 137.666 124.466 137.431C124.524 137.195 124.535 136.95 124.498 136.711C124.367 136.194 123.727 135.469 123.025 135.469H111.341C110.949 135.483 110.575 135.636 110.287 135.902C109.999 136.168 109.816 136.529 109.772 136.919Z" fill="#CD0001"/>
<path d="M205.05 133.23H217.54C217.773 133.243 218.006 133.208 218.224 133.127C218.442 133.045 218.641 132.919 218.808 132.756C218.951 132.601 219.059 132.418 219.125 132.219C219.192 132.019 219.215 131.808 219.194 131.599C219.143 130.701 218.507 130.188 217.455 130.188H205.073C204.846 130.184 204.621 130.225 204.411 130.311C204.201 130.396 204.01 130.524 203.851 130.685C203.713 130.835 203.608 131.011 203.542 131.202C203.476 131.394 203.45 131.597 203.465 131.8C203.474 131.998 203.522 132.193 203.606 132.373C203.691 132.553 203.81 132.714 203.958 132.847C204.105 132.98 204.278 133.083 204.465 133.148C204.653 133.214 204.852 133.242 205.05 133.23Z" fill="#CD0001"/>
<path d="M169.164 133.218H181.743C181.957 133.228 182.171 133.192 182.37 133.113C182.57 133.034 182.75 132.913 182.899 132.759C183.043 132.605 183.153 132.422 183.223 132.223C183.294 132.025 183.322 131.813 183.308 131.603C183.261 130.743 182.618 130.188 181.669 130.188H169.361C168.974 130.187 168.601 130.33 168.315 130.591C168.03 130.852 167.853 131.21 167.819 131.595C167.809 131.811 167.841 132.026 167.915 132.23C167.988 132.433 168.101 132.619 168.247 132.779C168.361 132.912 168.501 133.019 168.659 133.095C168.817 133.171 168.989 133.213 169.164 133.218Z" fill="#CD0001"/>
<path d="M96.7145 133.226H108.665C108.896 133.231 109.126 133.189 109.339 133.1C109.553 133.012 109.746 132.88 109.906 132.713C110.045 132.566 110.151 132.391 110.218 132.2C110.284 132.008 110.309 131.805 110.292 131.603C110.258 131.207 110.073 130.839 109.775 130.576C109.477 130.313 109.089 130.176 108.692 130.192H96.5525C96.3242 130.182 96.0962 130.22 95.8832 130.303C95.6702 130.386 95.4768 130.512 95.3151 130.674C95.1786 130.828 95.0741 131.007 95.0079 131.202C94.9417 131.396 94.9151 131.602 94.9296 131.807C94.9374 132.463 95.2766 133.226 96.7145 133.226Z" fill="#CD0001"/>
<path d="M123.823 133.191L132.689 133.226C133.637 133.226 134.308 132.659 134.358 131.811C134.36 131.379 134.193 130.964 133.892 130.655C133.774 130.521 133.629 130.413 133.467 130.338C133.305 130.263 133.13 130.223 132.951 130.219H124.308C123.947 130.209 123.592 130.321 123.302 130.537C123.012 130.753 122.803 131.061 122.709 131.41C122.665 131.652 122.671 131.9 122.725 132.14C122.779 132.38 122.881 132.606 123.025 132.806C123.118 132.928 123.239 133.026 123.378 133.093C123.516 133.16 123.669 133.194 123.823 133.191Z" fill="#CD0001"/>
<path d="M63.3694 128.646H16.9023V131.719H63.3694V128.646Z" fill="#CD0001"/>
<path d="M209.586 85.8066C209.217 85.7859 208.851 85.8882 208.545 86.0974C208.24 86.3066 208.012 86.611 207.898 86.9631C207.833 87.2175 207.82 87.4826 207.859 87.7422C207.899 88.0019 207.991 88.2508 208.129 88.4742C208.215 88.6012 208.329 88.706 208.463 88.7798C208.597 88.8535 208.747 88.8942 208.9 88.8982C210.08 88.9406 211.167 88.9637 212.212 88.9637C213.399 88.9637 214.525 88.9368 215.681 88.8789C215.798 88.8737 215.912 88.843 216.016 88.7891C216.12 88.7352 216.211 88.6593 216.282 88.5667C216.575 88.1545 216.712 87.6517 216.668 87.1481C216.614 86.7086 216.174 85.8567 215.565 85.8529L209.598 85.8027L209.586 85.8066Z" fill="#CD0001"/>
<path d="M225.045 70.0902C223.58 70.0131 222.278 70.0054 220.693 70.0902C220.573 70.0986 220.456 70.1314 220.348 70.1864C220.241 70.2413 220.146 70.3174 220.069 70.4101C219.77 70.78 219.608 71.2415 219.61 71.7169C219.633 72.1024 219.995 73.0931 220.701 73.1163C221.406 73.1394 222.031 73.1548 222.655 73.1548C223.453 73.1548 224.24 73.1278 225.142 73.0662C225.87 73.016 226.075 71.8249 226.063 71.5242C226.051 71.131 225.724 70.1403 225.045 70.0902Z" fill="#CD0001"/>
<path d="M213.15 70.09C211.523 70.0206 210.266 70.0245 208.805 70.09C208.081 70.1286 207.722 71.1694 207.741 71.6976C207.741 72.11 208.127 73.0853 208.794 73.1046C209.179 73.1046 209.565 73.1354 209.927 73.1547C210.505 73.1817 211.045 73.2086 211.535 73.2086C212.602 73.2086 213.427 73.0814 213.886 72.5726C214.031 72.4013 214.135 72.1986 214.188 71.9806C214.242 71.7625 214.244 71.535 214.195 71.3159C214.16 70.9728 213.774 70.1132 213.15 70.09Z" fill="#CD0001"/>
<path d="M215.786 93.2813C214.136 93.2351 212.853 93.2389 211.199 93.2813C210.528 93.2813 210.169 94.3221 210.169 94.7384C210.169 95.1548 210.532 96.1725 211.21 96.1879C211.696 96.1879 212.174 96.2226 212.625 96.2457C213.176 96.2766 213.693 96.3036 214.167 96.3036C215.111 96.3036 215.855 96.1918 216.307 95.7677C216.446 95.6329 216.556 95.4703 216.629 95.2904C216.702 95.1104 216.737 94.9172 216.731 94.723C216.723 94.3761 216.445 93.2967 215.786 93.2813Z" fill="#CD0001"/>
<path d="M220.682 58.3173L221.403 58.3404C221.896 58.3404 222.401 58.379 222.91 58.379C223.685 58.3874 224.459 58.3242 225.223 58.1901C225.774 58.086 226.106 57.5116 226.067 56.729C226.033 56.0737 225.724 55.3914 225.107 55.3374C223.645 55.2242 222.177 55.21 220.713 55.295C219.992 55.3259 219.595 56.2665 219.583 56.7599C219.572 57.2533 219.899 58.2941 220.682 58.3173Z" fill="#CD0001"/>
<path d="M208.7 58.3132C209.41 58.344 210.092 58.371 210.801 58.371C211.668 58.3726 212.534 58.3275 213.396 58.2361C213.484 58.2248 213.569 58.1949 213.644 58.1484C213.72 58.1019 213.785 58.0398 213.835 57.9663C214.098 57.5461 214.22 57.0535 214.186 56.5592C214.132 56.2393 213.8 55.3527 213.164 55.3103C211.686 55.2062 210.202 55.2062 208.724 55.3103C208.026 55.3565 207.752 56.3973 207.733 56.7481C207.714 57.0989 207.991 58.2785 208.7 58.3132Z" fill="#CD0001"/>
<path d="M208.682 80.4289C209.418 80.4675 210.12 80.4945 210.856 80.4945C211.592 80.4945 212.398 80.4675 213.269 80.3981C213.384 80.3871 213.495 80.3514 213.595 80.2936C213.695 80.2357 213.781 80.1569 213.847 80.0627C214.121 79.6649 214.243 79.182 214.191 78.7019C214.137 78.3974 213.774 77.5031 213.15 77.4761C211.697 77.3989 210.242 77.3989 208.79 77.4761C208.107 77.5108 207.749 78.4861 207.745 78.8947C207.745 79.2146 207.992 80.3904 208.682 80.4289Z" fill="#CD0001"/>
<path d="M220.667 65.6917C221.094 65.6917 221.518 65.7225 221.923 65.7418C222.459 65.7688 222.956 65.7919 223.411 65.7919C224.41 65.7919 225.196 65.6762 225.663 65.2214C225.8 65.0784 225.905 64.9079 225.972 64.7212C226.038 64.5345 226.064 64.3357 226.048 64.1382C226.048 63.7257 225.732 62.7311 225.034 62.7041C223.623 62.6501 222.37 62.6386 220.709 62.6694C220 62.6694 219.591 63.7064 219.572 64.1382C219.576 64.6 219.744 65.0453 220.046 65.3948C220.122 65.4855 220.217 65.5588 220.324 65.61C220.431 65.6612 220.548 65.689 220.667 65.6917Z" fill="#CD0001"/>
<path d="M213.246 62.7349C211.931 62.6655 210.486 62.6154 208.801 62.6886C208.115 62.7195 207.745 63.6677 207.745 64.1457C207.745 64.458 207.988 65.6376 208.701 65.6877C209.414 65.7378 210.085 65.7417 210.767 65.7417C211.538 65.7417 212.332 65.7147 213.25 65.6453C213.351 65.6357 213.45 65.6051 213.539 65.5553C213.628 65.5055 213.705 65.4377 213.766 65.3562C214.045 65.0076 214.199 64.5764 214.206 64.1304C214.183 63.7719 213.894 62.7657 213.246 62.7349Z" fill="#CD0001"/>
<path d="M95.3506 51.6985H103.06C103.275 51.7025 103.488 51.6628 103.687 51.582C103.886 51.5011 104.066 51.3808 104.217 51.2281C104.364 51.0752 104.478 50.8935 104.551 50.6945C104.625 50.4955 104.657 50.2835 104.645 50.0716C104.628 49.6646 104.45 49.2809 104.151 49.0043C103.852 48.7277 103.456 48.5806 103.049 48.5952L95.181 48.6299C95.0285 48.6326 94.8785 48.6685 94.7414 48.735C94.6042 48.8016 94.4832 48.8973 94.3868 49.0154C94.0888 49.3525 93.9327 49.7918 93.9512 50.2413C94.0206 50.8658 94.595 51.6985 95.3506 51.6985Z" fill="#CD0001"/>
<path d="M95.2803 45.1026H103.21C103.406 45.104 103.601 45.0634 103.78 44.9837C103.96 44.9039 104.12 44.7867 104.251 44.64C104.399 44.4673 104.51 44.2658 104.576 44.0482C104.642 43.8305 104.663 43.6015 104.636 43.3755C104.575 42.9991 104.376 42.6588 104.079 42.4203C103.781 42.1818 103.406 42.062 103.025 42.0841H95.4692C95.0714 42.0838 94.6888 42.2372 94.4014 42.5124C94.114 42.7875 93.9442 43.1631 93.9272 43.5606C93.9267 43.992 94.0939 44.4068 94.3937 44.7171C94.5068 44.8392 94.6439 44.9365 94.7965 45.0028C94.9491 45.0692 95.1139 45.1032 95.2803 45.1026Z" fill="#CD0001"/>
<path d="M95.4849 58.2786H103.052C103.482 58.2847 103.898 58.1213 104.209 57.8237C104.348 57.6811 104.458 57.5123 104.531 57.327C104.604 57.1417 104.64 56.9436 104.636 56.7443C104.644 56.356 104.498 55.9804 104.23 55.699C103.962 55.4176 103.595 55.253 103.206 55.2409H95.4464C95.24 55.2394 95.0354 55.2799 94.8452 55.3601C94.655 55.4403 94.483 55.5585 94.34 55.7073C94.07 55.9915 93.9185 56.3678 93.916 56.7597C93.9159 56.9635 93.9568 57.1651 94.0362 57.3528C94.1156 57.5404 94.232 57.7101 94.3784 57.8518C94.5248 57.9935 94.6982 58.1044 94.8883 58.1777C95.0784 58.251 95.2813 58.2853 95.4849 58.2786Z" fill="#CD0001"/>
<path d="M103.049 81.7396H95.4589C95.0891 81.7579 94.7368 81.9027 94.461 82.1497C94.1852 82.3967 94.0026 82.731 93.9439 83.0965C93.9035 83.5438 94.0421 83.9888 94.3294 84.334C94.4273 84.4621 94.5524 84.567 94.6958 84.641C94.8391 84.715 94.9971 84.7563 95.1582 84.7619L103.018 84.7889C103.225 84.8032 103.431 84.7748 103.626 84.7054C103.821 84.636 103.999 84.5271 104.15 84.3856C104.3 84.2441 104.42 84.0729 104.501 83.883C104.582 83.693 104.624 83.4882 104.622 83.2816C104.628 83.0812 104.593 82.8818 104.52 82.695C104.448 82.5083 104.338 82.3381 104.198 82.1945C103.89 81.8981 103.477 81.7347 103.049 81.7396Z" fill="#CD0001"/>
<path d="M95.6399 71.5356L103.026 71.4932C103.248 71.5008 103.469 71.4637 103.676 71.3843C103.883 71.3048 104.073 71.1845 104.233 71.0305C104.369 70.8821 104.473 70.7074 104.539 70.5171C104.606 70.3269 104.632 70.1251 104.618 69.9242C104.598 69.545 104.438 69.1866 104.17 68.9177C103.902 68.6488 103.544 68.4884 103.165 68.4671H95.4549C95.2423 68.466 95.0318 68.5098 94.8372 68.5955C94.6426 68.6812 94.4682 68.8068 94.3253 68.9643C94.1873 69.1155 94.0818 69.2934 94.0155 69.4871C93.9492 69.6807 93.9235 69.8859 93.9399 70.09C94.0401 71.0036 94.6569 71.5356 95.6399 71.5356Z" fill="#CD0001"/>
<path d="M103.037 75.1014H95.4816C95.2733 75.0953 95.0661 75.1345 94.8744 75.2164C94.6827 75.2982 94.5111 75.4208 94.3715 75.5756C94.2214 75.7509 94.1096 75.9557 94.0432 76.1767C93.9768 76.3978 93.9573 76.6303 93.986 76.8593C94.0708 77.6573 94.7261 78.1738 95.659 78.1738H103.049C103.257 78.1821 103.464 78.1484 103.658 78.0746C103.852 78.0008 104.03 77.8886 104.179 77.7446C104.329 77.6006 104.448 77.4277 104.53 77.2365C104.611 77.0453 104.653 76.8396 104.652 76.6318C104.659 76.4343 104.626 76.2375 104.555 76.0532C104.483 75.869 104.375 75.7012 104.236 75.5602C104.077 75.4078 103.889 75.2888 103.683 75.21C103.477 75.1313 103.258 75.0944 103.037 75.1014Z" fill="#CD0001"/>
<path d="M95.3161 64.8859H103.045C103.453 64.9037 103.851 64.759 104.153 64.4837C104.454 64.2084 104.634 63.8249 104.653 63.4171C104.663 63.2114 104.631 63.0058 104.559 62.8129C104.486 62.62 104.375 62.4439 104.233 62.2954C104.077 62.1448 103.893 62.0269 103.691 61.9488C103.489 61.8707 103.273 61.8338 103.057 61.8405H95.478C95.0681 61.8543 94.6793 62.0254 94.3922 62.3183C94.1051 62.6111 93.9417 63.0033 93.936 63.4133C93.9508 63.8098 94.118 64.1854 94.4026 64.4618C94.5185 64.5903 94.6592 64.6941 94.8162 64.7669C94.9732 64.8398 95.1432 64.8802 95.3161 64.8859Z" fill="#CD0001"/>
<path d="M103.053 88.37H95.3048C95.141 88.3715 94.9793 88.4065 94.8295 88.4727C94.6797 88.539 94.5449 88.6353 94.4336 88.7555C94.1276 89.0763 93.9576 89.5032 93.9595 89.9466C93.9595 90.5403 94.5262 91.4423 95.328 91.4423H103.138C103.348 91.4435 103.555 91.4002 103.746 91.3151C103.938 91.23 104.109 91.1052 104.248 90.9489C104.393 90.786 104.504 90.5955 104.573 90.3888C104.643 90.1821 104.67 89.9636 104.653 89.7462C104.611 89.3564 104.423 88.9972 104.125 88.7415C103.828 88.4859 103.445 88.353 103.053 88.37Z" fill="#CD0001"/>
<path d="M67.1909 94.087H76.3039C76.5234 94.0917 76.7415 94.051 76.9445 93.9675C77.1475 93.8839 77.331 93.7592 77.4835 93.6013C77.6313 93.442 77.7449 93.2541 77.8171 93.0492C77.8894 92.8443 77.9189 92.6268 77.9037 92.4101C77.8779 92.0086 77.6961 91.633 77.3972 91.3637C77.0983 91.0943 76.7059 90.9525 76.3039 90.9684H67.3991C67.0169 90.9818 66.652 91.1307 66.3695 91.3885C66.087 91.6462 65.9054 91.9961 65.8571 92.3754C65.8378 92.6051 65.8648 92.8364 65.9363 93.0555C66.0078 93.2746 66.1224 93.4772 66.2735 93.6514C66.3866 93.7851 66.5269 93.8932 66.6851 93.9683C66.8434 94.0434 67.0158 94.0839 67.1909 94.087Z" fill="#CD0001"/>
<path d="M76.3224 98.3967L67.1708 98.4352C66.9958 98.4348 66.823 98.4742 66.6654 98.5503C66.5078 98.6264 66.3696 98.7374 66.2611 98.8747C66.1115 99.0618 66.0027 99.2782 65.9416 99.5098C65.8805 99.7415 65.8685 99.9835 65.9064 100.22C65.9742 100.593 66.173 100.93 66.467 101.169C66.761 101.409 67.131 101.536 67.5101 101.527L76.519 101.492C76.7044 101.491 76.8874 101.45 77.0556 101.373C77.2239 101.295 77.3735 101.182 77.4943 101.041C77.6437 100.871 77.7581 100.673 77.8308 100.459C77.9036 100.245 77.9334 100.018 77.9184 99.7921C77.8751 99.4021 77.6871 99.0424 77.3917 98.784C77.0963 98.5257 76.7147 98.3875 76.3224 98.3967Z" fill="#CD0001"/>
<path d="M230.554 94.9426C230.838 95.116 231.162 95.213 231.494 95.224C232.119 95.224 233.036 94.7846 233.036 93.8787L233.013 88.8095C233.013 88.6434 232.975 88.4795 232.901 88.331C232.826 88.1824 232.718 88.0532 232.585 87.9537C232.373 87.802 232.132 87.6951 231.877 87.6394C231.621 87.5837 231.358 87.5805 231.101 87.6299C230.727 87.7245 230.398 87.9496 230.174 88.2646C229.95 88.5796 229.846 88.9641 229.879 89.3491L229.922 93.975C229.933 94.1776 229.997 94.3736 230.108 94.5435C230.219 94.7133 230.373 94.851 230.554 94.9426Z" fill="#CD0001"/>
<path d="M231.505 97.9803C231.089 97.9715 230.685 98.1281 230.384 98.4159C230.22 98.592 230.093 98.799 230.01 99.0247C229.928 99.2504 229.891 99.4903 229.902 99.7305L229.956 104.337C229.96 104.476 229.993 104.613 230.052 104.739C230.111 104.865 230.195 104.977 230.299 105.07C230.63 105.371 231.058 105.543 231.505 105.555H231.544C232.273 105.532 233.055 105.058 233.059 104.229L233.09 99.7343C233.074 98.6819 232.461 97.9958 231.505 97.9803Z" fill="#CD0001"/>
<path d="M51.3317 94.0947H53.9684C54.3657 94.0954 54.7491 93.9475 55.043 93.68C55.3368 93.4126 55.5201 93.0448 55.5566 92.6491C55.5821 92.209 55.4324 91.7766 55.1403 91.4464C55.0327 91.3188 54.8997 91.2152 54.7496 91.1421C54.5995 91.0691 54.4358 91.0283 54.2691 91.0224L51.3393 90.9953H51.3162C51.0852 90.9853 50.8545 91.0233 50.6389 91.1069C50.4232 91.1905 50.2273 91.3179 50.0634 91.4811C49.9239 91.6375 49.8178 91.8208 49.7515 92.0196C49.6852 92.2184 49.6602 92.4287 49.6779 92.6375C49.6886 92.8426 49.7401 93.0434 49.8295 93.2282C49.9189 93.413 50.0443 93.5782 50.1983 93.7139C50.3524 93.8496 50.532 93.9532 50.7266 94.0186C50.9212 94.084 51.1269 94.1099 51.3317 94.0947Z" fill="#CD0001"/>
<path d="M54.3614 97.7489L51.3353 97.7065C51.1126 97.692 50.8893 97.7239 50.6796 97.8003C50.4699 97.8766 50.2784 97.9956 50.1171 98.1498C49.968 98.3018 49.8519 98.483 49.7763 98.6821C49.7007 98.8811 49.6671 99.0937 49.6777 99.3063C49.6762 99.4957 49.7122 99.6834 49.7837 99.8587C49.8551 100.034 49.9606 100.193 50.0939 100.328C50.4301 100.641 50.8762 100.809 51.3353 100.794H54.1147C54.4979 100.779 54.8615 100.621 55.1345 100.351C55.4075 100.082 55.5703 99.7202 55.5911 99.3371C55.5888 98.896 55.4226 98.4714 55.1246 98.146C55.0311 98.0314 54.9152 97.937 54.7839 97.8687C54.6527 97.8005 54.5089 97.7597 54.3614 97.7489Z" fill="#CD0001"/>
</svg>
