<svg width="48" height="58" viewBox="0 0 48 58" fill="none" xmlns="http://www.w3.org/2000/svg">
<path d="M31.1231 7.93117C28.9422 3.69084 24.3479 0.710768 19.1341 0.154144C18.2094 0.0531763 17.2798 0.00171985 16.3496 0C12.8799 0 9.84984 0.767859 7.14377 2.32355C4.27071 3.97629 2.13412 6.42972 0.962341 9.41978C0.425239 10.8091 0.113487 12.2753 0.0388943 13.7629C-0.310783 19.2763 1.6988 24.8197 6.00911 30.2404C7.11951 31.6376 8.28415 32.875 9.51587 34.1852L9.57867 34.2523C11.5768 36.3732 13.3595 38.5141 13.3623 41.4042L13.3723 53.3203C13.3557 53.8678 13.2723 54.4114 13.124 54.9387C12.8956 55.8764 12.79 56.4373 13.2667 57.0796C13.5407 57.4436 14.0374 57.8346 14.6183 57.8375L17.901 57.8517H17.911C18.1846 57.8593 18.4565 57.8072 18.708 57.699C18.9594 57.5908 19.1842 57.4291 19.3668 57.2252C19.9034 56.6072 19.8363 56.1077 19.6308 55.0387C19.4768 54.324 19.3936 53.5959 19.3825 52.865V41.684C19.3745 39.7497 20.0441 37.8738 21.275 36.3818C22.2156 35.2114 23.1476 34.2038 24.0482 33.2276C25.2242 31.9545 26.4417 30.6371 27.6591 28.9715C29.2034 26.8564 30.3609 24.7912 31.193 22.6574C33.2482 17.3824 33.2226 12.0102 31.1231 7.93117ZM18.4662 56.4459C18.2654 56.6428 17.9991 56.7586 17.7183 56.7713H14.9737C14.8391 56.7802 14.7043 56.7572 14.5803 56.7041C14.4563 56.651 14.3465 56.5694 14.2601 56.4659C13.9746 56.0991 14.0902 55.6095 14.2429 54.9787C14.3945 54.4358 14.4803 53.8765 14.4984 53.3131L14.507 42.0294L18.2093 42.065L18.2293 47.6755V52.4068C18.2293 53.5657 18.2935 54.492 18.6175 55.5296C18.6874 55.7537 18.6717 56.2076 18.4648 56.4459H18.4662ZM20.0718 35.9236C19.0571 37.4936 18.4391 38.7182 18.2878 40.3552L18.2464 40.7977L14.5355 40.8505L14.4756 40.4223C14.2504 38.8061 13.6421 37.2671 12.7015 35.9336L12.1948 35.1915L13.0926 35.1643C15.3462 35.093 17.4386 35.093 19.6765 35.1643L20.55 35.1915L20.0718 35.9236ZM31.0217 19.2891C29.8542 24.2845 26.6258 29.3055 21.6875 33.8313L21.5448 33.9612H11.21L11.0673 33.827C6.03479 29.0957 2.97905 24.4072 1.72592 19.5004C0.504189 14.7106 1.1436 10.309 3.52711 7.1048C5.14276 4.93112 7.43635 3.26981 10.1567 2.30357C14.5455 0.743594 19.9605 0.967671 23.9511 2.87446C26.2347 3.9663 28.063 5.50486 29.3875 7.44876C31.4642 10.5002 32.0608 14.8133 31.0217 19.2891Z" fill="#031286"/>
<path d="M40.9024 13.897C39.0208 13.8989 37.2168 14.6471 35.8862 15.9774C34.5555 17.3078 33.807 19.1116 33.8047 20.9932C33.807 22.8749 34.5555 24.6789 35.8861 26.0095C37.2167 27.3401 39.0207 28.0886 40.9024 28.0909C42.7842 28.0886 44.5882 27.3401 45.9188 26.0095C47.2494 24.6789 47.9979 22.8749 48.0002 20.9932C47.9979 19.1116 47.2493 17.3078 45.9187 15.9774C44.588 14.6471 42.784 13.8989 40.9024 13.897ZM35.9513 24.4L35.7543 24.0104C35.3339 23.1839 35.0972 22.2764 35.0602 21.3499C35.0233 20.4234 35.187 19.4999 35.5402 18.6425C35.8515 17.8733 36.3277 17.1816 36.9353 16.6164C37.543 16.0512 38.2672 15.6262 39.057 15.3713C40.6812 14.8432 42.5509 15.1287 44.0524 16.1335L44.6775 16.5516L44.0452 16.9584C42.2555 18.1088 41.2335 19.1792 40.6284 20.5265C40.2642 21.3901 39.7117 22.1615 39.0113 22.7844C38.3219 23.3838 37.4599 23.8505 36.3552 24.2473L35.9513 24.4ZM45.6281 24.5085C45.0523 25.2468 44.3162 25.8445 43.4756 26.2567C42.6349 26.6689 41.7116 26.8846 40.7754 26.8877C39.6047 26.8871 38.4595 26.5454 37.4799 25.9043L36.7063 25.3977L37.5555 25.0366C40.1574 23.9305 40.7483 22.8072 41.4334 21.5056C42.0599 20.3153 42.7721 18.9651 45.0957 17.6192L45.4953 17.388L45.7522 17.7719C47.1852 19.9085 47.1352 22.4904 45.6281 24.5085Z" fill="#031286"/>
<path d="M20.3462 26.8151C20.3458 27.0754 20.2422 27.325 20.0582 27.509C19.8741 27.6931 19.6246 27.7967 19.3642 27.7971C19.1037 27.7971 18.8538 27.6937 18.6694 27.5095C18.485 27.3254 18.3812 27.0757 18.3809 26.8151C18.3807 26.6859 18.406 26.5578 18.4553 26.4384C18.5046 26.3189 18.5771 26.2103 18.6684 26.1188C18.7597 26.0274 18.8682 25.9548 18.9876 25.9053C19.107 25.8558 19.235 25.8303 19.3642 25.8303C19.4934 25.8305 19.6212 25.8561 19.7405 25.9057C19.8597 25.9553 19.968 26.0279 20.0592 26.1194C20.1504 26.2108 20.2226 26.3193 20.2719 26.4387C20.3211 26.5581 20.3464 26.686 20.3462 26.8151Z" fill="#031286"/>
<path d="M22.4083 21.7227C22.9483 21.7227 23.386 21.2849 23.386 20.745C23.386 20.205 22.9483 19.7673 22.4083 19.7673C21.8684 19.7673 21.4307 20.205 21.4307 20.745C21.4307 21.2849 21.8684 21.7227 22.4083 21.7227Z" fill="#031286"/>
<path d="M14.335 26.8149C14.3346 27.0753 14.231 27.3248 14.047 27.5089C13.8629 27.6929 13.6134 27.7965 13.353 27.7969C13.0927 27.7965 12.8432 27.6929 12.6591 27.5089C12.4751 27.3248 12.3715 27.0753 12.3711 26.8149C12.3715 26.5546 12.4751 26.3051 12.6591 26.121C12.8432 25.937 13.0927 25.8334 13.353 25.833C13.6134 25.8334 13.8629 25.937 14.047 26.121C14.231 26.3051 14.3346 26.5546 14.335 26.8149Z" fill="#031286"/>
<path d="M10.3835 21.7242C10.9226 21.7242 11.3597 21.2871 11.3597 20.748C11.3597 20.2088 10.9226 19.7717 10.3835 19.7717C9.84432 19.7717 9.40723 20.2088 9.40723 20.748C9.40723 21.2871 9.84432 21.7242 10.3835 21.7242Z" fill="#031286"/>
<path d="M20.3217 14.8333C20.3213 15.0921 20.2183 15.3402 20.0353 15.5232C19.8523 15.7062 19.6043 15.8092 19.3455 15.8096C19.2174 15.8094 19.0907 15.784 18.9725 15.7348C18.8543 15.6856 18.747 15.6137 18.6566 15.523C18.5662 15.4324 18.4945 15.3248 18.4457 15.2065C18.3969 15.0881 18.3719 14.9613 18.3721 14.8333C18.3719 14.7054 18.3969 14.5787 18.4458 14.4604C18.4946 14.3421 18.5663 14.2347 18.6567 14.1441C18.7471 14.0536 18.8544 13.9818 18.9726 13.9327C19.0908 13.8837 19.2175 13.8585 19.3455 13.8585C19.6041 13.8585 19.8522 13.9612 20.0353 14.1439C20.2183 14.3267 20.3213 14.5747 20.3217 14.8333Z" fill="#031286"/>
<path d="M17.3063 20.7464C17.3059 21.0037 17.2036 21.2503 17.0216 21.4322C16.8397 21.6142 16.5931 21.7166 16.3358 21.7169C16.0785 21.7166 15.8318 21.6142 15.6499 21.4322C15.468 21.2503 15.3656 21.0037 15.3652 20.7464C15.3656 20.4891 15.468 20.2425 15.6499 20.0606C15.8318 19.8786 16.0785 19.7763 16.3358 19.7759C16.5931 19.7763 16.8397 19.8786 17.0216 20.0606C17.2036 20.2425 17.3059 20.4891 17.3063 20.7464Z" fill="#031286"/>
<path d="M8.35129 14.8389C8.35091 15.0961 8.24851 15.3426 8.06654 15.5243C7.88457 15.706 7.63792 15.808 7.38077 15.808C7.12399 15.8076 6.87786 15.7054 6.69643 15.5237C6.51499 15.342 6.41309 15.0957 6.41309 14.8389C6.41308 14.582 6.51495 14.3356 6.69634 14.1537C6.87773 13.9717 7.12386 13.8692 7.38077 13.8684C7.63805 13.8688 7.8847 13.9712 8.06662 14.1531C8.24855 14.335 8.35091 14.5816 8.35129 14.8389Z" fill="#031286"/>
<path d="M14.324 14.8346C14.3237 15.0911 14.2216 15.337 14.0402 15.5184C13.8588 15.6998 13.6129 15.8019 13.3564 15.8022C13.0998 15.8019 12.8539 15.6998 12.6725 15.5184C12.4911 15.337 12.389 15.0911 12.3887 14.8346C12.389 14.5779 12.4911 14.3319 12.6724 14.1502C12.8538 13.9686 13.0997 13.8662 13.3564 13.8655C13.6131 13.8659 13.8593 13.9681 14.0407 14.1498C14.2221 14.3315 14.324 14.5778 14.324 14.8346Z" fill="#031286"/>
<path d="M26.2705 14.8374C26.2702 15.0954 26.1675 15.3428 25.985 15.5253C25.8026 15.7077 25.5552 15.8104 25.2972 15.8108C25.0394 15.81 24.7924 15.7072 24.6102 15.5248C24.4281 15.3423 24.3256 15.0952 24.3252 14.8374C24.3256 14.5796 24.4281 14.3324 24.6102 14.15C24.7924 13.9676 25.0394 13.8648 25.2972 13.864C25.5552 13.8644 25.8026 13.9671 25.985 14.1495C26.1675 14.332 26.2702 14.5794 26.2705 14.8374Z" fill="#031286"/>
<path d="M11.3458 8.76771C11.3458 9.02297 11.2445 9.26779 11.0642 9.44842C10.8838 9.62905 10.6391 9.73072 10.3838 9.73109C10.1286 9.73072 9.88391 9.62905 9.70355 9.44842C9.52318 9.26779 9.42187 9.02297 9.42188 8.76771C9.42187 8.51245 9.52318 8.26762 9.70355 8.08699C9.88391 7.90636 10.1286 7.8047 10.3838 7.80432C10.6391 7.8047 10.8838 7.90636 11.0642 8.08699C11.2445 8.26762 11.3458 8.51245 11.3458 8.76771Z" fill="#031286"/>
<path d="M23.3597 8.76895C23.3597 9.02283 23.259 9.26636 23.0798 9.44614C22.9005 9.62593 22.6573 9.72731 22.4034 9.72806C22.1492 9.72768 21.9054 9.62651 21.7257 9.44673C21.5459 9.26694 21.4447 9.02321 21.4443 8.76895C21.4451 8.51494 21.5464 8.27158 21.7262 8.0921C21.9059 7.91262 22.1494 7.81166 22.4034 7.81128C22.6571 7.81203 22.9001 7.91322 23.0793 8.09269C23.2585 8.27217 23.3593 8.51532 23.3597 8.76895Z" fill="#031286"/>
<path d="M17.2863 8.76467C17.2863 9.01766 17.1859 9.26031 17.0071 9.43933C16.8283 9.61835 16.5858 9.71912 16.3328 9.7195C16.0801 9.71874 15.838 9.61781 15.6595 9.43882C15.4811 9.25984 15.3809 9.01742 15.3809 8.76467C15.3812 8.51218 15.4816 8.27011 15.66 8.09144C15.8384 7.91277 16.0803 7.81203 16.3328 7.81128C16.5856 7.81166 16.8279 7.91222 17.0066 8.09093C17.1853 8.26965 17.2859 8.51193 17.2863 8.76467Z" fill="#031286"/>
</svg>
