<svg preserveAspectRatio="none" width="100%" height="100%" overflow="visible" style="display: block;" viewBox="0 0 16 19" fill="none" xmlns="http://www.w3.org/2000/svg">
<path id="Vector" d="M15.7747 6.20976C14.8282 1.9278 11.1955 0 8.00451 0C8.00451 0 8.00451 0 7.99549 0C4.81351 0 1.17181 1.91854 0.225333 6.20049C-0.829317 10.9829 2.01914 15.0332 4.59717 17.582C5.55267 18.5273 6.77859 19 8.00451 19C9.23042 19 10.4563 18.5273 11.4028 17.582C13.9809 15.0332 16.8293 10.9922 15.7747 6.20976ZM8.00451 10.8532C6.43605 10.8532 5.16506 9.54634 5.16506 7.93366C5.16506 6.32098 6.43605 5.01415 8.00451 5.01415C9.57296 5.01415 10.8439 6.32098 10.8439 7.93366C10.8439 9.54634 9.57296 10.8532 8.00451 10.8532Z" fill="var(--fill-0, #CD1417)"/>
</svg>
