<svg width="86" height="102" viewBox="0 0 86 102" fill="none" xmlns="http://www.w3.org/2000/svg">
<path d="M76.5229 7.82832C76.5229 4.53445 74.0317 2.24457 70.9266 2.24457H13.9494C10.7864 2.24457 8.58715 4.92948 8.58715 7.95914V52.8529C8.57911 53.1435 8.46479 53.421 8.26584 53.633C8.06689 53.8449 7.79713 53.9765 7.50765 54.0029C7.21247 53.9892 6.9327 53.8672 6.72191 53.6601C6.51112 53.453 6.38412 53.1755 6.36523 52.8806V7.7025C6.36523 3.309 9.85286 0 14.1885 0L71.1707 0.0151127C73.1944 0.0284176 75.13 0.844937 76.5517 2.28512C77.9735 3.7253 78.7651 5.67123 78.7523 7.69494V52.8932C78.7347 53.1908 78.6055 53.4709 78.3905 53.6775C78.1754 53.8841 77.8905 54.0021 77.5923 54.0079C77.3061 53.975 77.0411 53.8407 76.8454 53.6293C76.6497 53.4179 76.5362 53.1433 76.5254 52.8554L76.5229 7.82832Z" fill="#CD0001"/>
<path d="M48.3501 101.924C47.716 102.175 47.0115 101.71 46.7321 101.237L44.9355 98.1946H40.2023L38.2697 101.431C38.0533 101.795 37.2632 102.12 36.8581 101.956L31.7927 99.8855C31.4681 99.7522 30.9019 99.0904 30.9925 98.7154L31.9311 94.7522L28.6297 91.4508L24.8703 92.3793C24.508 92.4699 23.7355 92.1277 23.582 91.7477L21.4104 86.5113C21.2846 86.2118 21.5463 85.3789 21.8256 85.2078L25.1899 83.162V78.4615L21.8256 76.4485C21.5312 76.2723 21.2846 75.4218 21.423 75.0846L23.5694 69.9035C23.7254 69.5286 24.5155 69.1939 24.8753 69.2845L28.6071 70.2105L31.9487 66.8839L31.0504 63.3258C30.9321 62.8528 31.1762 62.0375 31.6266 61.8513L36.8883 59.6646C37.3412 59.4759 38.1137 59.9464 38.3679 60.3666L40.2174 63.4516H44.9254L46.8731 60.2157C47.0744 59.881 47.8796 59.5388 48.2671 59.6948L53.2998 61.7682C53.6218 61.9016 54.2132 62.5936 54.1226 62.971L53.179 66.8839L56.4905 70.2029L60.2448 69.2694C60.5921 69.1813 61.3923 69.521 61.5357 69.8708L63.6771 75.0393C63.823 75.3916 63.5991 76.2472 63.3223 76.4132L59.9303 78.4615V83.167L63.1512 85.1046C63.4909 85.3085 63.8658 86.1414 63.7224 86.4861L61.5332 91.7402C61.3369 92.2107 60.5417 92.4422 60.0234 92.3114L56.5005 91.413C55.4524 92.5803 54.3401 93.6884 53.1689 94.7321L54.0999 98.5066C54.1931 98.8815 53.8483 99.6465 53.5061 99.7874L48.3501 101.924ZM50.6727 93.7759C52.4341 92.4347 53.6747 91.3904 54.8196 89.7976C55.1342 89.3597 55.7884 88.9269 56.3017 89.0427L59.8825 89.9385L61.2312 86.5616L58.043 84.6869C57.0667 84.1132 58.0984 81.8862 57.5674 78.2602C57.5121 77.8853 57.7335 77.1128 58.0481 76.9291L61.2438 75.0444L59.8523 71.68L56.2917 72.5784C55.7884 72.7042 55.1493 72.2839 54.7995 71.7933C52.1599 68.0993 50.3355 68.8542 50.9143 66.5568L51.6818 63.502L48.3527 62.1457L46.0754 65.8271C43.7413 65.6044 41.3914 65.6044 39.0574 65.8271L36.7298 62.1457L33.4334 63.5397L34.2965 66.9594C34.3619 67.211 34.2638 67.9835 34.0247 68.1622C32.3427 69.4636 30.8453 70.9873 29.5733 72.6916L25.2553 71.7354L23.8588 75.0544L26.9488 76.8612C28.1516 77.5632 26.9865 79.3548 27.5477 83.3633C27.6156 83.849 27.3363 84.551 26.9664 84.7674L23.8663 86.5817L25.2553 89.9209L29.5331 88.942C30.9513 90.7772 32.6025 92.4199 34.4449 93.8287L33.4585 98.1266L36.765 99.498L39.0297 95.794C41.3659 96.0406 43.7216 96.0406 46.0578 95.794L48.3225 99.4804L51.644 98.1417L50.6727 93.7759Z" fill="#CD0001"/>
<path d="M64.8451 82.4148C64.5657 80.3288 68.5516 81.987 70.8389 81.524L72.4519 84.3121L74.5052 83.6101C74.2989 82.367 74.1202 81.3454 74.1605 80.3615C75.5404 79.3387 76.8331 78.2032 78.0256 76.967C79.0104 77.1367 79.983 77.3712 80.9369 77.669C81.4075 77.4878 81.9812 76.2624 81.9686 75.7315L79.5404 73.8014C80.2953 71.187 79.2535 68.721 80.5218 68.0692L82.6581 66.9696L81.9787 64.9163L79.9455 65.2786C79.5655 65.3466 78.7729 65.261 78.5339 64.954C77.5178 63.6694 76.4192 62.4523 75.245 61.3104L76.0679 58.2908L74.1806 57.3019L72.2808 59.8182L66.8179 59.4835L65.2854 56.771L63.2723 57.4604L63.6875 60.6435C62.3971 61.5527 61.2002 62.5878 60.1144 63.7336C59.7998 64.0733 58.8562 64.0909 58.5492 63.8167C57.0897 62.5082 60.8265 60.2083 61.2643 59.5062L60.8114 55.9682L65.4314 54.2898C65.7711 54.1665 66.6316 54.4006 66.7952 54.7176L68.0659 57.1786L71.2617 57.4529L72.8092 55.2209C73.0357 54.8963 73.8459 54.6295 74.2486 54.8308L78.1665 56.786C78.5313 56.9697 78.5867 57.9763 78.4609 58.3411L77.7261 60.4901L79.8197 62.9711L82.5877 62.4931C82.9148 62.4352 83.6319 62.8579 83.7578 63.2228L85.0864 67.0828C85.2273 67.488 84.9404 68.341 84.5504 68.5448L82.1876 69.72L82.0014 72.9912L84.1578 74.4506C84.5655 74.7274 84.7542 75.5352 84.5428 75.9604L82.7789 79.6016C82.6053 79.9539 81.8403 80.3565 81.4905 80.2332L78.8534 79.4053L76.478 81.4838L76.9259 84.1913C76.9813 84.5285 76.6038 85.2658 76.2591 85.3866L72.2707 86.7806C71.8455 86.9291 71.0931 86.5944 70.8918 86.2069L69.6714 83.8692C68.2673 83.6352 65.0615 84.0479 64.8451 82.4148Z" fill="#CD0001"/>
<path d="M14.1887 81.5894C16.7051 81.8938 19.7599 80.5828 20.2279 81.9719C20.9023 84.0201 16.69 83.6956 15.4897 83.8491L14.2315 86.2119C14.0327 86.5868 13.2778 86.919 12.8626 86.7755L9.02775 85.4595C8.6956 85.3462 8.13949 84.7046 8.19736 84.3523L8.6503 81.5013L6.29754 79.4052L3.92464 80.1601C3.37105 80.3388 2.61616 80.1249 2.34943 79.5839L0.587997 75.9755C0.29862 75.3841 0.587997 74.6821 1.12901 74.3197L3.11439 72.9861L2.96592 69.7626L0.71633 68.6228C0.240745 68.3711 -0.131672 67.6162 0.0444709 67.0752L1.28754 63.3888C1.39424 63.1029 1.59389 62.8612 1.85445 62.7024C2.11501 62.5436 2.42137 62.4769 2.72436 62.5131L5.26333 62.9636L7.36698 60.5831L6.72783 58.5373C6.60956 58.1599 6.4762 57.0452 6.83352 56.864L10.8169 54.8333C11.2119 54.632 12.0926 54.8861 12.309 55.2082L13.7735 57.3823L17.007 57.2439L18.2274 54.8685C18.4489 54.4382 19.2189 54.1489 19.6794 54.3074L23.5369 55.631C23.8867 55.7518 24.3497 56.4966 24.2792 56.8891L23.8212 59.5539C24.6365 60.339 27.953 62.5735 26.5892 63.7939C26.2193 64.1236 25.3008 64.0682 24.9712 63.6983C23.9239 62.5466 22.7478 61.5191 21.4659 60.636L21.8811 57.488L19.8681 56.7532L18.2375 59.486C16.428 59.4976 14.6207 59.6152 12.8249 59.8383L10.9578 57.3219L9.0353 58.3285C9.36997 59.4105 9.70716 60.5177 9.7902 61.4663C8.49847 62.6373 7.33677 63.9441 6.32522 65.3641L3.12697 64.9816L2.45511 66.9947L4.52101 68.0616C5.86473 68.7561 4.84562 71.1743 5.54264 73.7988C4.91356 74.5034 4.09827 75.057 3.05148 75.7439L3.91961 77.757L7.06502 76.9342C8.09217 78.0829 9.23661 79.1211 10.4797 80.0318C10.754 80.2306 11.0987 80.8446 11.0408 81.1742L10.5954 83.7182L12.6739 84.3095L14.1887 81.5894Z" fill="#CD0001"/>
<path d="M69.6031 44.5792L31.0555 44.5968C30.7696 44.5789 30.4999 44.4582 30.296 44.257C30.0921 44.0559 29.9677 43.7878 29.9458 43.5022C29.9684 42.8153 30.4491 42.3573 31.2618 42.3573H69.4269C69.684 42.3748 69.9295 42.4709 70.1302 42.6324C70.3309 42.794 70.4772 43.0133 70.5492 43.2607C70.6373 43.7186 70.2196 44.5792 69.6031 44.5792Z" fill="#CD0001"/>
<path d="M69.5631 11.6153H31.1111C30.5047 11.6153 29.9561 11.0139 29.9411 10.5786C29.9365 10.278 30.0476 9.98722 30.2513 9.7662C30.455 9.54518 30.7357 9.41083 31.0357 9.39087H69.4423C69.9959 9.39087 70.542 9.94193 70.5646 10.3219C70.5898 10.8931 70.2551 11.3863 69.5631 11.6153Z" fill="#CD0001"/>
<path d="M69.4118 28.0999H31.0454C30.7479 28.082 30.4685 27.9511 30.2641 27.7342C30.0597 27.5172 29.9459 27.2304 29.9458 26.9323C29.9745 26.6541 30.1011 26.3952 30.3029 26.2016C30.5048 26.0081 30.7688 25.8925 31.048 25.8755H69.5251C70.051 25.8755 70.5593 26.5423 70.5744 26.9122C70.5682 27.221 70.4445 27.5158 70.2285 27.7365C70.0125 27.9572 69.7204 28.0872 69.4118 28.0999Z" fill="#CD0001"/>
<path d="M63.5212 16.492H31.0606C30.7691 16.4687 30.4952 16.343 30.2875 16.1372C30.0797 15.9313 29.9516 15.6585 29.9258 15.3672C29.9583 15.0844 30.0875 14.8214 30.2916 14.6229C30.4956 14.4244 30.7619 14.3024 31.0455 14.2776H63.6143C63.9036 14.2838 64.1804 14.3962 64.392 14.5935C64.6036 14.7907 64.7353 15.059 64.7618 15.347C64.759 15.5048 64.7243 15.6603 64.6598 15.8043C64.5953 15.9483 64.5022 16.0777 64.3863 16.1847C64.2703 16.2917 64.1339 16.3741 63.9852 16.4269C63.8365 16.4797 63.6787 16.5019 63.5212 16.492Z" fill="#CD0001"/>
<path d="M63.6548 49.461H31.0357C30.4015 49.461 29.9134 48.7438 29.9411 48.2783C29.9806 47.9926 30.1195 47.73 30.3336 47.5367C30.5476 47.3434 30.8229 47.2317 31.1112 47.2214H63.6724C64.2486 47.2214 64.7544 47.8631 64.7595 48.2632C64.758 48.5647 64.6439 48.8548 64.4395 49.0764C64.2351 49.298 63.9552 49.4352 63.6548 49.461Z" fill="#CD0001"/>
<path d="M63.4961 33.0118H31.116C30.5423 33.0118 29.951 32.2922 29.9409 31.8845C29.9409 31.2982 30.5021 30.7245 31.2746 30.7245H63.6471C64.1982 30.7245 64.709 31.3208 64.7518 31.7083C64.7607 31.8778 64.7348 32.0474 64.6755 32.2064C64.6162 32.3655 64.5248 32.5106 64.4071 32.6329C64.2893 32.7551 64.1477 32.8518 63.991 32.917C63.8343 32.9822 63.6658 33.0145 63.4961 33.0118Z" fill="#CD0001"/>
<path d="M21.0835 70.5352C21.0835 71.8185 20.5737 73.0493 19.6662 73.9568C18.7587 74.8643 17.5279 75.3741 16.2446 75.3741C15.6092 75.3741 14.9801 75.2489 14.3932 75.0057C13.8063 74.7625 13.273 74.406 12.8239 73.9566C12.3747 73.5073 12.0185 72.9738 11.7756 72.3868C11.5327 71.7997 11.4079 71.1705 11.4082 70.5352C11.4079 69.8998 11.5327 69.2707 11.7756 68.6836C12.0185 68.0965 12.3747 67.5631 12.8239 67.1137C13.273 66.6644 13.8063 66.3079 14.3932 66.0647C14.9801 65.8215 15.6092 65.6963 16.2446 65.6963C17.5279 65.6963 18.7587 66.2061 19.6662 67.1136C20.5737 68.021 21.0835 69.2518 21.0835 70.5352ZM18.8439 70.5352C18.8439 69.8458 18.5701 69.1846 18.0826 68.6971C17.5951 68.2097 16.934 67.9358 16.2446 67.9358C15.5556 67.9365 14.8951 68.2106 14.4082 68.698C13.9212 69.1854 13.6477 69.8462 13.6477 70.5352C13.6477 71.2239 13.9213 71.8844 14.4083 72.3714C14.8953 72.8584 15.5559 73.132 16.2446 73.132C16.5856 73.1323 16.9234 73.0655 17.2385 72.9353C17.5537 72.8051 17.8402 72.6141 18.0816 72.3732C18.3229 72.1323 18.5145 71.8462 18.6453 71.5313C18.7761 71.2163 18.8436 70.8787 18.8439 70.5377V70.5352Z" fill="#CD0001"/>
<path d="M73.7201 70.5327C73.7204 71.168 73.5956 71.7972 73.3527 72.3842C73.1098 72.9713 72.7536 73.5048 72.3045 73.9541C71.8553 74.4035 71.3221 74.76 70.7351 75.0032C70.1482 75.2464 69.5191 75.3715 68.8837 75.3715C67.6008 75.3709 66.3707 74.8608 65.4638 73.9534C64.5568 73.046 64.0474 71.8156 64.0474 70.5327C64.048 69.2502 64.5578 68.0204 65.4646 67.1136C66.3715 66.2067 67.6013 65.697 68.8837 65.6963C70.1664 65.6963 71.3966 66.2058 72.3036 67.1128C73.2106 68.0198 73.7201 69.25 73.7201 70.5327ZM71.4756 70.5327C71.4756 69.8444 71.2023 69.1842 70.7158 68.6973C70.2294 68.2104 69.5695 67.9365 68.8812 67.9358C68.1925 67.9358 67.532 68.2094 67.045 68.6964C66.558 69.1834 66.2844 69.8439 66.2844 70.5327C66.2844 71.2214 66.558 71.8819 67.045 72.3689C67.532 72.8559 68.1925 73.1295 68.8812 73.1295C69.5682 73.1268 70.2261 72.8521 70.711 72.3654C71.1958 71.8786 71.468 71.2196 71.468 70.5327H71.4756Z" fill="#CD0001"/>
<path d="M18.0486 32.9865L14.7774 29.7153C14.5258 29.4637 14.5786 28.5679 14.7774 28.2911C15.0139 27.969 16.0154 27.8331 16.3098 28.1199L18.952 30.6891L22.9781 26.7058C23.2297 26.4541 24.118 26.507 24.4049 26.7234C24.732 26.975 24.8679 27.9614 24.5483 28.2835L19.8302 33.0218C19.5829 33.2404 19.2625 33.358 18.9325 33.3515C18.6025 33.345 18.2871 33.2147 18.0486 32.9865Z" fill="#CD0001"/>
<path d="M18.2201 16.6807L14.813 13.2862C14.5286 13.0044 14.5614 12.0708 14.813 11.7764C15.0646 11.482 15.968 11.3285 16.2498 11.5978L18.9574 14.2022L22.8904 10.3069C23.2175 9.98229 24.0353 9.98733 24.3574 10.2138C24.6795 10.4403 24.8607 11.472 24.5688 11.789L19.7525 16.6078C19.4732 16.8921 18.5548 17.0154 18.2201 16.6807Z" fill="#CD0001"/>
<path d="M18.1645 49.6043L14.785 46.2224C14.5133 45.9506 14.5862 45.007 14.8203 44.7126C15.0543 44.4182 15.9853 44.2848 16.2546 44.549L18.9496 47.1811L22.9253 43.2431C23.255 42.916 24.035 42.9285 24.342 43.1575C24.7849 43.4821 24.8981 44.4308 24.4905 44.8384L19.8001 49.5289C19.4604 49.8761 18.5545 49.9969 18.1645 49.6043Z" fill="#CD0001"/>
<path d="M50.318 80.8218C50.3173 82.8749 49.5013 84.8437 48.0493 86.2952C46.5973 87.7467 44.6283 88.5621 42.5753 88.5621C40.5222 88.5621 38.5532 87.7467 37.1012 86.2952C35.6492 84.8437 34.8332 82.8749 34.8325 80.8218C34.8325 78.7683 35.6483 76.7989 37.1003 75.3469C38.5524 73.8949 40.5217 73.0791 42.5753 73.0791C44.6288 73.0791 46.5981 73.8949 48.0502 75.3469C49.5022 76.7989 50.318 78.7683 50.318 80.8218ZM48.0785 80.8218C48.0785 79.3621 47.4987 77.962 46.4668 76.9296C45.4348 75.8971 44.035 75.3168 42.5753 75.3161C41.1152 75.3168 39.7152 75.8971 38.6829 76.9294C37.6505 77.9618 37.0702 79.3618 37.0695 80.8218C37.0702 82.2818 37.6505 83.6818 38.6829 84.7142C39.7152 85.7466 41.1152 86.3269 42.5753 86.3276C44.0328 86.3236 45.4294 85.7417 46.4586 84.7096C47.4879 83.6776 48.0659 82.2794 48.0659 80.8218H48.0785Z" fill="#CD0001"/>
</svg>
