<svg width="48" height="48" viewBox="0 0 48 48" fill="none" xmlns="http://www.w3.org/2000/svg">
<path d="M45.7267 13.8202C45.6899 13.7422 45.6374 13.6726 45.5723 13.6159C45.5073 13.5592 45.4312 13.5166 45.3488 13.4908C45.1808 13.4799 45.0146 13.5317 44.8825 13.6361L42.2338 16.2909C42.1631 16.3729 42.116 16.4726 42.0977 16.5793C42.0793 16.686 42.0904 16.7956 42.1296 16.8965C43.5134 20.4308 43.834 24.2925 43.0521 28.0067C42.2701 31.7208 40.4197 35.1255 37.7284 37.8018C34.4389 41.0736 30.0905 43.0653 25.4645 43.4191C20.8275 43.7763 16.2167 42.4541 12.4739 39.6936L12.2486 39.5265L14.2276 37.5306C14.2877 37.4563 14.3291 37.3687 14.3483 37.2751C14.3675 37.1815 14.3639 37.0847 14.3378 36.9928C14.2985 36.9097 14.2404 36.8369 14.1681 36.7801C14.0958 36.7234 14.0112 36.6842 13.9212 36.6658L5.98461 35.9742C5.91027 35.9697 5.83583 35.9812 5.76641 36.0082C5.69699 36.0352 5.63425 36.0769 5.58252 36.1305C5.53324 36.1767 5.49476 36.2332 5.46985 36.296C5.44493 36.3589 5.43419 36.4264 5.43839 36.4938L6.12147 44.3577C6.12948 44.4533 6.15796 44.546 6.20498 44.6296C6.252 44.7132 6.31646 44.7857 6.39397 44.8422C6.49973 44.8899 6.61764 44.9039 6.73163 44.8822C6.84563 44.8605 6.95017 44.8043 7.03103 44.721L9.01608 42.7481L9.18443 42.8801C13.7928 46.4813 19.5509 48.2887 25.3906 47.9669C37.4353 47.3056 48 36.8172 48 25.5198V22.5004C47.6609 19.0669 46.9403 16.3079 45.7267 13.8202ZM40.7344 39.713C36.7468 43.9756 31.2815 46.5538 25.456 46.9205C24.9651 46.9511 24.475 46.9665 23.9857 46.9665C18.6483 46.965 13.4784 45.1028 9.3661 41.7005C9.09965 41.4813 8.78233 41.5067 8.5183 41.7683L7.06494 43.1999L6.51993 37.0509L12.6604 37.5911L11.1234 39.1753C11.0064 39.3131 10.9431 39.4886 10.9454 39.6694C10.9435 39.7043 10.9495 39.7391 10.9632 39.7712C10.9768 39.8034 10.9977 39.8319 11.0241 39.8547C18.1626 45.7638 28.4196 46.092 35.9735 40.6504C43.4038 35.2936 46.3977 25.5307 43.2524 16.9123L43.1991 16.7645L45.1078 14.9115L45.2435 15.2421C46.9178 19.3239 47.383 23.8011 46.5836 28.1399C45.7841 32.4787 43.7537 36.4961 40.7344 39.713Z" fill="#031286"/>
<path d="M42.1563 11.0455L41.4696 3.19618C41.4581 3.10224 41.4245 3.01238 41.3714 2.93403C41.3184 2.85568 41.2474 2.7911 41.1644 2.74563C41.0619 2.71506 40.9534 2.71103 40.849 2.73391C40.7445 2.75679 40.6476 2.80583 40.5673 2.87644L38.5278 4.90992L38.3594 4.78276C34.2416 1.6544 29.8003 0 25.5069 0H22.4924C16.4367 0.475975 11.0581 2.94062 6.9281 7.12872C2.79581 11.2983 0.342394 16.8427 0.0355452 22.7051C-0.181317 26.6808 0.596699 30.6478 2.29916 34.2472C2.38292 34.3705 2.50384 34.4638 2.64433 34.5136C2.81252 34.5259 2.97935 34.4759 3.11304 34.3731L5.76421 31.7183C5.84017 31.6308 5.88944 31.5234 5.90618 31.4088C5.92292 31.2941 5.90645 31.1771 5.85868 31.0716C4.34676 27.2064 4.11263 22.9585 5.19063 18.9506C6.26863 14.9426 8.60206 11.3853 11.8489 8.80008C15.1023 6.18452 19.115 4.69232 23.2869 4.54658C27.4823 4.37659 31.6184 5.58138 35.0663 7.97772L35.3086 8.14365L33.418 10.0379C33.35 10.1121 33.3005 10.2014 33.2736 10.2985C33.2467 10.3955 33.243 10.4975 33.263 10.5962C33.3009 10.6853 33.3604 10.7636 33.4361 10.8241C33.5117 10.8845 33.6012 10.9252 33.6965 10.9426L41.6319 11.6341C41.7001 11.6404 41.7689 11.6313 41.8332 11.6076C41.8976 11.584 41.9558 11.5463 42.0037 11.4973C42.06 11.4373 42.1028 11.3659 42.1291 11.288C42.1555 11.21 42.1647 11.1274 42.1563 11.0455ZM35.1124 10.0209L35.2916 9.6951C35.4522 9.45586 35.6436 9.23881 35.8608 9.04957C36.1927 8.72741 36.6469 8.28656 36.6299 7.98983C36.6299 7.95592 36.6226 7.85419 36.4591 7.72823C29.2347 2.15702 19.0745 2.08557 11.752 7.55261C4.42953 13.0197 1.61245 22.4859 4.75413 31.0958L4.80741 31.2423L2.90836 33.1014L2.7715 32.7708C0.973401 28.4605 0.547112 23.7008 1.55067 19.1395C2.53657 14.5865 4.88585 10.4418 8.28578 7.2571C12.3051 3.48497 17.5458 1.28219 23.0531 1.05005C28.5718 0.812912 33.9896 2.58298 38.3037 6.03264C38.4393 6.14165 38.776 6.10774 38.9093 5.9733L40.5382 4.40973L41.0845 10.5441L35.1124 10.0209Z" fill="#031286"/>
<path d="M35.1928 13.7329C34.7084 13.3441 34.2748 13.3901 33.5529 13.464C32.5998 13.5633 31.2917 13.7002 29.0415 12.9493C27.4222 12.4091 25.9264 11.7139 24.4791 11.0405C24.3325 10.9586 24.1674 10.9156 23.9995 10.9156C23.8316 10.9156 23.6665 10.9586 23.5199 11.0405C22.1634 11.6739 20.6241 12.3909 19.0133 12.9323C16.7243 13.7026 15.3993 13.5669 14.4328 13.4664C14.1712 13.4398 13.9483 13.4168 13.7449 13.4168C13.398 13.4008 13.0578 13.5158 12.7917 13.7389C12.589 13.9041 12.4272 14.1139 12.319 14.3519C12.2108 14.59 12.1591 14.8498 12.168 15.1111L12.2031 25.8841C12.2249 32.4243 17.2899 38.0633 23.9947 39.0237C30.7092 38.073 35.7802 32.3782 35.7947 25.7618L35.819 15.0142C35.8198 14.767 35.7637 14.5228 35.6552 14.3006C35.5466 14.0784 35.3884 13.8842 35.1928 13.7329ZM34.7616 25.7618C34.7447 31.769 30.1303 37.0254 24.0274 37.9737H23.9898H23.9523C21.0168 37.5034 18.3327 36.0369 16.3512 33.8207C14.3639 31.6163 13.2535 28.76 13.2301 25.7921L13.1974 15.1051C13.1974 14.9743 13.2931 14.5904 13.5123 14.4995C13.6722 14.439 13.8451 14.4219 14.0137 14.4499C17.2693 14.9852 20.0791 13.7232 23.0548 12.3909L23.9026 12.0131L24.0007 11.9707L24.0988 12.0131C24.3992 12.1463 24.6983 12.2799 24.9963 12.414C27.9938 13.7571 30.8267 15.0264 34.1827 14.4256C34.2468 14.4178 34.3118 14.4247 34.3729 14.4456C34.4339 14.4666 34.4894 14.5012 34.5352 14.5468C34.5618 14.5686 34.7992 14.7744 34.7992 15.0082L34.7616 25.7618Z" fill="#031286"/>
<path d="M31.7311 17.1763C28.8098 16.899 26.6577 16.0148 24.3432 14.9733C24.2346 14.9229 24.1165 14.896 23.9968 14.8945C23.8744 14.8955 23.7537 14.9232 23.6431 14.9757C21.342 16.0136 19.1922 16.8965 16.2686 17.1751C15.9258 17.2078 15.8035 17.4948 15.8047 17.7516L15.8192 25.607C15.8277 30.3304 19.2637 34.4155 23.9956 35.3421C28.719 34.4204 32.1598 30.3595 32.1683 25.6688L32.184 17.6559C32.1793 17.5347 32.1308 17.4193 32.0475 17.3311C31.9643 17.2429 31.8518 17.1879 31.7311 17.1763ZM31.1413 25.6106C31.1328 29.7454 28.2249 33.311 24.067 34.2799L24.0125 34.2932L23.9592 34.2811C21.9378 33.8414 20.1282 32.7221 18.8323 31.1096C17.5363 29.4972 16.8324 27.4892 16.8378 25.4205V18.1634L17.0485 18.1367C19.5701 17.8097 21.4764 17.0467 23.8963 16.0039L23.9919 15.9627L24.0876 16.0039C26.3803 16.9934 28.3411 17.7795 30.9451 18.1476L31.1534 18.1779L31.1413 25.6106Z" fill="#031286"/>
<path d="M29.3809 21.7787C29.3833 21.8486 29.3711 21.9182 29.345 21.983C29.3189 22.0479 29.2796 22.1066 29.2295 22.1554L22.9764 28.4666C22.9295 28.5156 22.873 28.5545 22.8106 28.5809C22.7481 28.6074 22.6809 28.6208 22.613 28.6204C22.5347 28.6199 22.4573 28.6036 22.3855 28.5724C22.3137 28.5412 22.2489 28.4957 22.1952 28.4387L18.8137 25.0585C18.5715 24.8162 18.5412 24.5025 18.7411 24.2821C18.7857 24.2327 18.84 24.193 18.9006 24.1655C18.9613 24.138 19.0269 24.1232 19.0935 24.1222H19.1068C19.184 24.1231 19.2603 24.1393 19.3311 24.1699C19.402 24.2005 19.4662 24.2448 19.5198 24.3003L22.5925 27.3778L28.487 21.4299C28.5804 21.3348 28.7071 21.2796 28.8404 21.2759C28.9737 21.2723 29.1032 21.3206 29.2016 21.4105C29.2549 21.4565 29.2982 21.5129 29.329 21.5762C29.3598 21.6395 29.3775 21.7084 29.3809 21.7787Z" fill="#031286"/>
</svg>
