<svg preserveAspectRatio="none" width="100%" height="100%" overflow="visible" style="display: block;" viewBox="0 0 212 22" fill="none" xmlns="http://www.w3.org/2000/svg">
<g id="Frame 185">
<g id="Vector">
<path d="M22 11C22 4.92486 17.0751 0 11 0C4.92486 0 0 4.92486 0 11C0 16.4903 4.02252 21.0412 9.28125 21.8664V14.1797H6.48828V11H9.28125V8.57656C9.28125 5.81969 10.9235 4.29688 13.4361 4.29688C14.6392 4.29688 15.8984 4.51172 15.8984 4.51172V7.21875H14.5114C13.145 7.21875 12.7188 8.06674 12.7188 8.9375V11H15.7695L15.2818 14.1797H12.7188V21.8664C17.9775 21.0412 22 16.4903 22 11Z" fill="#CD1417"/>
<path d="M15.2818 14.1797L15.7695 11H12.7188V8.9375C12.7188 8.0676 13.145 7.21875 14.5114 7.21875H15.8984V4.51172C15.8984 4.51172 14.6392 4.29688 13.4361 4.29688C10.9235 4.29688 9.28125 5.81969 9.28125 8.57656V11H6.48828V14.1797H9.28125V21.8664C10.4202 22.0445 11.5798 22.0445 12.7188 21.8664V14.1797H15.2818Z" fill="var(--fill-0, #191919)"/>
</g>
<g id="Vector_2">
<path d="M49.0064 1.98125C51.9472 1.98125 52.2955 1.99414 53.452 2.04571C54.5269 2.09299 55.1073 2.27349 55.4942 2.42391C56.0059 2.62161 56.3756 2.86228 56.7583 3.24477C57.1452 3.63157 57.3817 3.99687 57.5794 4.5083C57.7299 4.8951 57.9105 5.47959 57.9578 6.54972C58.0094 7.7101 58.0223 8.05821 58.0223 10.9936C58.0223 13.9332 58.0094 14.2813 57.9578 15.4374C57.9105 16.5118 57.7299 17.092 57.5794 17.4788C57.3817 17.9902 57.1409 18.3598 56.7583 18.7423C56.3713 19.1291 56.0059 19.3655 55.4942 19.5632C55.1073 19.7136 54.5226 19.8941 53.452 19.9414C52.2912 19.993 51.9429 20.0059 49.0064 20.0059C46.0657 20.0059 45.7174 19.993 44.5609 19.9414C43.486 19.8941 42.9056 19.7136 42.5187 19.5632C42.007 19.3655 41.6373 19.1248 41.2546 18.7423C40.8677 18.3555 40.6312 17.9902 40.4335 17.4788C40.283 17.092 40.1024 16.5075 40.0551 15.4374C40.0035 14.277 39.9906 13.9289 39.9906 10.9936C39.9906 8.05392 40.0035 7.7058 40.0551 6.54972C40.1024 5.47529 40.283 4.8951 40.4335 4.5083C40.6312 3.99687 40.872 3.62727 41.2546 3.24477C41.6416 2.85798 42.007 2.62161 42.5187 2.42391C42.9056 2.27349 43.4903 2.09299 44.5609 2.04571C45.7174 1.99414 46.0657 1.98125 49.0064 1.98125ZM49.0064 0C46.0184 0 45.6443 0.0128931 44.4706 0.0644657C43.3012 0.116038 42.4972 0.305138 41.8007 0.575894C41.0741 0.859543 40.4593 1.23344 39.8487 1.84802C39.2339 2.45829 38.8599 3.07287 38.5761 3.79488C38.3053 4.49541 38.1161 5.29478 38.0645 6.46376C38.0129 7.64134 38 8.01524 38 11.0021C38 13.9891 38.0129 14.363 38.0645 15.5362C38.1161 16.7052 38.3053 17.5089 38.5761 18.2051C38.8599 18.9314 39.2339 19.546 39.8487 20.1563C40.4593 20.7666 41.0741 21.1448 41.7964 21.4241C42.4972 21.6949 43.2969 21.884 44.4663 21.9355C45.64 21.9871 46.0141 22 49.0021 22C51.9902 22 52.3643 21.9871 53.538 21.9355C54.7074 21.884 55.5114 21.6949 56.2079 21.4241C56.9302 21.1448 57.545 20.7666 58.1556 20.1563C58.7661 19.546 59.1444 18.9314 59.4239 18.2094C59.6947 17.5089 59.8839 16.7095 59.9355 15.5405C59.9871 14.3673 60 13.9934 60 11.0064C60 8.01954 59.9871 7.64563 59.9355 6.47236C59.8839 5.30338 59.6947 4.49971 59.4239 3.80348C59.153 3.07287 58.779 2.45829 58.1642 1.84802C57.5536 1.23774 56.9388 0.859543 56.2165 0.580191C55.5157 0.309435 54.716 0.120336 53.5466 0.0687634C52.3686 0.0128931 51.9945 0 49.0064 0Z" fill="#CD1417"/>
<path d="M49.0064 5.35065C45.8851 5.35065 43.3527 7.88201 43.3527 11.0021C43.3527 14.1223 45.8851 16.6536 49.0064 16.6536C52.1278 16.6536 54.6602 14.1223 54.6602 11.0021C54.6602 7.88201 52.1278 5.35065 49.0064 5.35065ZM49.0064 14.6681C46.9814 14.6681 45.3391 13.0264 45.3391 11.0021C45.3391 8.97793 46.9814 7.3362 49.0064 7.3362C51.0315 7.3362 52.6738 8.97793 52.6738 11.0021C52.6738 13.0264 51.0315 14.6681 49.0064 14.6681Z" fill="#CD1417"/>
<path d="M56.2036 5.12719C56.2036 5.8578 55.6103 6.44659 54.8837 6.44659C54.1528 6.44659 53.5638 5.8535 53.5638 5.12719C53.5638 4.39657 54.1571 3.80779 54.8837 3.80779C55.6103 3.80779 56.2036 4.40087 56.2036 5.12719Z" fill="#CD1417"/>
</g>
<path id="Vector_3" d="M96.376 0H77.624C77.1933 0 76.7802 0.171103 76.4757 0.475667C76.1711 0.780231 76 1.19331 76 1.62403V20.376C76 20.8067 76.1711 21.2198 76.4757 21.5243C76.7802 21.8289 77.1933 22 77.624 22H96.376C96.8067 22 97.2198 21.8289 97.5243 21.5243C97.8289 21.2198 98 20.8067 98 20.376V1.62403C98 1.19331 97.8289 0.780231 97.5243 0.475667C97.2198 0.171103 96.8067 0 96.376 0ZM82.5572 18.7413H79.2496V8.23472H82.5572V18.7413ZM80.9011 6.77875C80.5259 6.77664 80.1598 6.66343 79.8488 6.45341C79.5379 6.2434 79.2962 5.94599 79.1541 5.59871C79.0121 5.25144 78.9761 4.86988 79.0507 4.50217C79.1253 4.13446 79.3072 3.79709 79.5733 3.53263C79.8395 3.26818 80.178 3.08849 80.5462 3.01626C80.9144 2.94402 81.2957 2.98246 81.642 3.12674C81.9884 3.27101 82.2842 3.51465 82.4923 3.82691C82.7003 4.13917 82.8111 4.50605 82.8108 4.88125C82.8144 5.13245 82.7673 5.38179 82.6724 5.6144C82.5776 5.84702 82.4368 6.05816 82.2586 6.23523C82.0804 6.4123 81.8684 6.55168 81.6351 6.64506C81.4019 6.73843 81.1523 6.7839 80.9011 6.77875ZM94.7489 18.7504H91.4428V13.0106C91.4428 11.3178 90.7232 10.7953 89.7943 10.7953C88.8135 10.7953 87.851 11.5347 87.851 13.0533V18.7504H84.5433V8.24236H87.7242V9.69833H87.7669C88.0863 9.05208 89.2046 7.9475 90.9111 7.9475C92.7567 7.9475 94.7504 9.04292 94.7504 12.2513L94.7489 18.7504Z" fill="var(--fill-0, #CD1417)"/>
<g id="Vector_4">
<path d="M136 11.253C136 10.5053 135.938 9.75351 135.806 9.01791H125.222V13.2537H131.283C131.031 14.6198 130.223 15.8283 129.04 16.5962V19.3446H132.656C134.779 17.4288 136 14.5996 136 11.253Z" fill="#CD1417"/>
<path d="M125.222 22C128.248 22 130.8 21.0259 132.66 19.3446L129.044 16.5962C128.038 17.2671 126.739 17.647 125.226 17.647C122.298 17.647 119.816 15.711 118.925 13.1082H115.194V15.9414C117.099 19.6558 120.979 22 125.222 22Z" fill="#CD1417"/>
<path d="M118.921 13.1081C118.451 11.742 118.451 10.2628 118.921 8.89665V6.06338H115.194C113.602 9.17148 113.602 12.8333 115.194 15.9414L118.921 13.1081Z" fill="#CD1417"/>
<path d="M125.222 4.35371C126.821 4.32946 128.368 4.91955 129.526 6.00274L132.73 2.8623C130.702 0.995012 128.009 -0.0315927 125.222 0.000741252C120.979 0.000741252 117.099 2.34497 115.194 6.06338L118.921 8.89665C119.808 6.28972 122.294 4.35371 125.222 4.35371Z" fill="var(--fill-0, #CD1417)"/>
</g>
<g id="Vector_5">
<path d="M163 22C169.075 22 174 17.0751 174 11C174 4.92487 169.075 0 163 0C156.925 0 152 4.92487 152 11C152 17.0751 156.925 22 163 22Z" fill="#CD1417"/>
<path fill-rule="evenodd" clip-rule="evenodd" d="M156.979 10.8839C160.186 9.48676 162.324 8.5657 163.394 8.12069C166.449 6.85008 167.084 6.62937 167.497 6.62208C167.588 6.62047 167.792 6.64303 167.924 6.74997C168.035 6.84027 168.066 6.96225 168.08 7.04786C168.095 7.13347 168.113 7.3285 168.099 7.48089C167.933 9.22025 167.217 13.4412 166.852 15.3893C166.698 16.2136 166.395 16.49 166.101 16.5171C165.462 16.5759 164.977 16.0949 164.358 15.6894C163.39 15.0547 162.843 14.6597 161.903 14.0404C160.817 13.3247 161.521 12.9314 162.14 12.2885C162.302 12.1203 165.117 9.56024 165.171 9.328C165.178 9.29896 165.184 9.19069 165.12 9.13353C165.056 9.07636 164.961 9.09591 164.892 9.11145C164.795 9.13349 163.249 10.1558 160.252 12.1782C159.813 12.4797 159.416 12.6266 159.06 12.6189C158.667 12.6104 157.911 12.3968 157.35 12.2142C156.661 11.9903 156.113 11.8719 156.161 11.4916C156.186 11.2935 156.459 11.091 156.979 10.8839Z" fill="var(--fill-0, #191919)"/>
</g>
<g id="Vector_6">
<path d="M210.439 16.2869C207.032 14.6125 206.489 12.0272 206.465 11.8354C206.436 11.6031 206.403 11.4205 206.655 11.1842C206.898 10.956 207.978 10.2774 208.278 10.0651C208.773 9.71354 208.991 9.36256 208.83 8.93111C208.718 8.63264 208.444 8.52021 208.156 8.52021C208.065 8.52049 207.974 8.53082 207.886 8.55102C207.341 8.67087 206.813 8.94766 206.507 9.02242C206.471 9.03204 206.433 9.03722 206.395 9.03783C206.232 9.03783 206.17 8.96421 206.186 8.76504C206.224 8.16124 206.305 6.98273 206.211 5.88185C206.082 4.36721 205.601 3.61673 205.031 2.95301C204.755 2.63113 203.473 1.24832 201 1.24832C198.527 1.24832 197.247 2.63113 196.972 2.94901C196.4 3.61274 195.92 4.36321 195.792 5.87786C195.698 6.97874 195.783 8.15667 195.817 8.76104C195.829 8.95052 195.771 9.03384 195.608 9.03384C195.57 9.03318 195.533 9.02801 195.496 9.01843C195.191 8.94367 194.662 8.66688 194.118 8.54703C194.029 8.52683 193.939 8.51649 193.848 8.51621C193.558 8.51621 193.286 8.63035 193.173 8.92712C193.013 9.35857 193.23 9.70955 193.726 10.0611C194.026 10.2734 195.106 10.9514 195.349 11.1802C195.601 11.4165 195.568 11.5991 195.539 11.8314C195.515 12.026 194.971 14.6113 191.565 16.2829C191.366 16.3811 191.026 16.5888 191.625 16.9244C192.565 17.4517 193.19 17.3952 193.676 17.7131C194.089 17.983 193.845 18.5651 194.145 18.7752C194.514 19.0337 195.604 18.7569 197.012 19.2289C198.192 19.6238 198.909 20.7395 201.003 20.7395C203.096 20.7395 203.834 19.6187 204.994 19.2289C206.399 18.7569 207.491 19.0337 207.86 18.7752C208.16 18.5651 207.916 17.983 208.329 17.7131C208.815 17.3952 209.44 17.4517 210.381 16.9244C210.978 16.5928 210.639 16.3851 210.439 16.2869Z" fill="#CD1417"/>
<path d="M211.921 16.0904C211.768 15.6681 211.477 15.4421 211.146 15.2549C211.083 15.2178 211.026 15.1881 210.977 15.1653C210.878 15.1133 210.777 15.0631 210.676 15.01C209.643 14.4536 208.835 13.7516 208.276 12.9196C208.117 12.6853 207.979 12.437 207.864 12.1776C207.816 12.039 207.818 11.9602 207.852 11.8883C207.886 11.8329 207.931 11.7853 207.984 11.7485C208.162 11.6292 208.345 11.5082 208.47 11.4266C208.691 11.2811 208.866 11.1658 208.979 11.0842C209.404 10.7828 209.701 10.4627 209.886 10.1049C210.015 9.85763 210.091 9.58501 210.107 9.30553C210.124 9.02606 210.081 8.74627 209.981 8.4852C209.7 7.73416 209.001 7.26789 208.155 7.26789C207.976 7.26772 207.798 7.28685 207.624 7.32496C207.577 7.33524 207.53 7.34608 207.485 7.35806C207.493 6.84443 207.481 6.30226 207.436 5.76866C207.277 3.89276 206.63 2.90944 205.955 2.1253C205.523 1.63392 205.015 1.2182 204.449 0.894861C203.426 0.301331 202.265 0 201 0C199.735 0 198.58 0.301331 197.555 0.894861C196.988 1.2183 196.479 1.63485 196.046 2.12758C195.372 2.91172 194.725 3.89676 194.565 5.77094C194.52 6.30455 194.509 6.84957 194.516 7.36035C194.471 7.34836 194.425 7.33752 194.378 7.32725C194.203 7.28914 194.025 7.27 193.847 7.27018C193 7.27018 192.3 7.73644 192.02 8.48748C191.92 8.74866 191.876 9.02865 191.892 9.30842C191.908 9.58819 191.983 9.86119 192.113 10.1088C192.299 10.4667 192.595 10.7868 193.02 11.0882C193.132 11.1681 193.308 11.2834 193.53 11.4306C193.649 11.5094 193.824 11.6246 193.996 11.7399C194.056 11.7793 194.107 11.8312 194.145 11.8923C194.181 11.9671 194.182 12.0475 194.129 12.1959C194.015 12.4498 193.88 12.6929 193.724 12.9224C193.176 13.7357 192.393 14.4251 191.392 14.9769C190.862 15.2623 190.311 15.4529 190.078 16.0949C189.903 16.5795 190.018 17.1308 190.463 17.5953C190.627 17.7687 190.817 17.9145 191.026 18.0273C191.46 18.2697 191.922 18.4573 192.401 18.5861C192.5 18.612 192.594 18.6546 192.679 18.7122C192.841 18.8566 192.818 19.074 193.034 19.3925C193.143 19.557 193.281 19.6995 193.441 19.8125C193.896 20.131 194.406 20.1509 194.947 20.172C195.435 20.1909 195.989 20.2126 196.621 20.4243C196.883 20.5122 197.155 20.6823 197.471 20.8809C198.228 21.3534 199.264 22 200.999 22C202.733 22 203.777 21.35 204.54 20.8757C204.853 20.6805 205.123 20.5122 205.378 20.4266C206.01 20.2143 206.564 20.1932 207.053 20.1743C207.593 20.1532 208.104 20.1332 208.558 19.8148C208.748 19.6804 208.906 19.505 209.021 19.3011C209.177 19.0323 209.173 18.8446 209.319 18.7133C209.399 18.6585 209.487 18.6176 209.58 18.5923C210.065 18.4632 210.534 18.2738 210.974 18.0285C211.195 17.9077 211.395 17.749 211.564 17.5594L211.569 17.5525C211.988 17.0982 212.093 16.5629 211.921 16.0904ZM210.38 16.9316C209.439 17.4589 208.814 17.4024 208.328 17.7203C207.915 17.9902 208.159 18.5724 207.859 18.7824C207.49 19.0409 206.4 18.7641 204.992 19.2361C203.831 19.6259 203.09 20.7467 201.002 20.7467C198.913 20.7467 198.189 19.6282 197.009 19.2332C195.604 18.7613 194.512 19.0381 194.142 18.7795C193.843 18.5695 194.086 17.9874 193.674 17.7174C193.187 17.3996 192.562 17.4561 191.622 16.9316C191.023 16.596 191.363 16.3883 191.562 16.2901C194.969 14.6157 195.512 12.0304 195.536 11.8386C195.566 11.6064 195.598 11.4237 195.346 11.1875C195.103 10.9592 194.023 10.2806 193.724 10.0683C193.228 9.71678 193.01 9.36579 193.171 8.93434C193.283 8.63587 193.557 8.52344 193.845 8.52344C193.936 8.52372 194.027 8.53405 194.115 8.55426C194.659 8.6741 195.188 8.95089 195.493 9.02566C195.53 9.03523 195.568 9.04041 195.605 9.04107C195.768 9.04107 195.826 8.95774 195.815 8.76827C195.78 8.1639 195.695 6.98597 195.789 5.88508C195.918 4.37044 196.399 3.61996 196.97 2.95624C197.244 2.63722 198.533 1.2544 200.998 1.2544C203.462 1.2544 204.755 2.63151 205.029 2.94939C205.601 3.61312 206.082 4.36359 206.209 5.87823C206.303 6.97912 206.222 8.15762 206.184 8.76142C206.171 8.9606 206.23 9.03422 206.393 9.03422C206.431 9.0336 206.469 9.02843 206.506 9.01881C206.811 8.94405 207.34 8.66725 207.884 8.54741C207.973 8.52721 208.063 8.51687 208.154 8.51659C208.444 8.51659 208.716 8.63073 208.829 8.92749C208.989 9.35895 208.773 9.70993 208.276 10.0615C207.977 10.2738 206.897 10.9518 206.653 11.1806C206.401 11.4169 206.434 11.5995 206.463 11.8318C206.488 12.0264 207.031 14.6117 210.437 16.2833C210.639 16.3854 210.978 16.5932 210.38 16.9316Z" fill="var(--fill-0, #CD1417)"/>
</g>
</g>
</svg>
