<svg width="102" height="102" viewBox="0 0 102 102" fill="none" xmlns="http://www.w3.org/2000/svg">
<path d="M48.0524 52.5496C48.3171 53.1814 48.7055 53.7538 49.1949 54.2331C49.6842 54.7124 50.2645 55.0889 50.9016 55.3404L94.8185 72.7753C95.4318 73.0211 96.0861 73.1485 96.7467 73.1508C97.423 73.149 98.0921 73.0121 98.7147 72.7481C99.3373 72.4841 99.9009 72.0982 100.372 71.6133C101.091 70.9021 101.58 69.9925 101.778 69.0012C101.976 68.0099 101.874 66.9821 101.483 66.0495L83.6148 22.2314C83.2939 21.4422 82.7818 20.7452 82.1245 20.2031C81.4673 19.661 80.6856 19.2909 79.8497 19.126C79.0145 18.9591 78.151 19.0027 77.3369 19.253C76.5228 19.5033 75.7838 19.9523 75.1866 20.5595L66.3068 29.5611L62.803 26.0599C62.9889 25.059 62.9285 24.0279 62.6271 23.0555C62.3256 22.0831 61.7922 21.1986 61.0728 20.4783L42.4328 1.8358C41.2542 0.6602 39.6575 0 37.9929 0C36.3282 0 34.7315 0.6602 33.553 1.8358L30.6734 4.71538C29.4978 5.89395 28.8376 7.49064 28.8376 9.15528C28.8376 10.8199 29.4978 12.4166 30.6734 13.5952L49.3108 32.2529C49.8923 32.8373 50.5838 33.3005 51.3455 33.6158C52.1072 33.9311 52.9238 34.0922 53.7482 34.0898C54.2073 34.09 54.665 34.0398 55.1131 33.9401L58.5737 37.4007L51.0969 44.9739V37.87H39.3629V25.4611H0V102H99.8699V87.3077H63.7697V74.876H51.0842V62.4646H39.3629V52.5496H48.0524ZM75.453 89.5759H97.5764V99.7014H75.453V89.5759ZM76.8052 22.1655C77.1358 21.8249 77.547 21.5733 78.0007 21.4341C78.4544 21.2948 78.936 21.2724 79.4007 21.3688C79.8669 21.4569 80.3034 21.6616 80.6693 21.9636C81.0353 22.2657 81.3189 22.6555 81.4938 23.0966L99.3625 66.9146C99.5796 67.4333 99.6369 68.005 99.527 68.5564C99.4172 69.1078 99.1452 69.6139 98.7459 70.0098C98.3531 70.412 97.8496 70.6883 97.2993 70.8035C96.749 70.9187 96.177 70.8677 95.6558 70.6568L51.7566 53.2245C51.3152 53.0531 50.9239 52.7734 50.6189 52.4112C50.3139 52.049 50.1049 51.6158 50.0111 51.1517C49.9099 50.6896 49.9266 50.2094 50.0596 49.7555C50.1926 49.3015 50.4377 48.8882 50.7722 48.5537L60.1898 39.0143L64.8479 43.7459C65.3083 44.2177 65.8584 44.5927 66.4657 44.8488C67.0731 45.105 67.7255 45.2372 68.3846 45.2378H68.4049C69.0605 45.2394 69.71 45.111 70.3157 44.8602C70.9214 44.6094 71.4715 44.241 71.934 43.7764L72.6495 43.0584C73.5773 42.1261 74.1007 40.866 74.1064 39.5508C74.1121 38.2355 73.5996 36.9709 72.6799 36.0307L67.9178 31.1874L76.8052 22.1655ZM50.9269 30.6267L32.287 11.9867C31.5388 11.2379 31.1186 10.2227 31.1186 9.16417C31.1186 8.10567 31.5388 7.09047 32.287 6.34166L35.1666 3.46208C35.5365 3.09101 35.9763 2.79682 36.4605 2.59652C36.9447 2.39622 37.4638 2.29377 37.9878 2.29502C38.5121 2.29399 39.0315 2.39655 39.5161 2.59683C40.0007 2.79711 40.441 3.09116 40.8116 3.46208L59.449 22.1046C60.1973 22.8538 60.6176 23.8694 60.6176 24.9284C60.6176 25.9873 60.1973 27.0029 59.449 27.7521L56.577 30.6317C56.2067 31.003 55.7665 31.2973 55.2818 31.4976C54.7972 31.6979 54.2777 31.8002 53.7533 31.7988C53.2277 31.8016 52.7068 31.6996 52.2211 31.4987C51.7354 31.2979 51.2946 31.0023 50.9244 30.6292L50.9269 30.6267ZM58.1881 32.2428L61.0677 29.3632C61.3703 29.0607 61.6415 28.7284 61.877 28.3712L65.4924 31.984L71.0384 37.6315C71.5353 38.1412 71.8122 38.8257 71.8093 39.5375C71.8065 40.2493 71.5242 40.9315 71.0232 41.4372L70.3052 42.1527C70.0536 42.4062 69.7539 42.6071 69.4236 42.7434C69.0934 42.8798 68.7394 42.9489 68.3821 42.9468C68.0266 42.9467 67.6747 42.876 67.3467 42.7388C67.0188 42.6016 66.7213 42.4007 66.4717 42.1476L60.9966 36.5837L57.361 32.9456C57.6555 32.7391 57.9314 32.5073 58.1856 32.2529L58.1881 32.2428ZM48.8161 40.1382V47.3105C48.1307 48.1498 47.7284 49.1844 47.6668 50.2663L26.6902 50.0633V40.1382H48.8136H48.8161ZM14.9561 27.7293H37.0821V37.8548H14.9536L14.9561 27.7293ZM2.2707 27.7293H12.6728V37.8548H2.28338L2.2707 27.7293ZM2.2707 40.1382H24.3966V50.0633H2.28338L2.2707 40.1382ZM2.2707 52.5471H12.6728V62.4722H2.28338L2.2707 52.5471ZM2.2707 64.7556H24.3966V74.876H2.28338L2.2707 64.7556ZM37.0795 87.3077H14.9536V77.1594H37.0795V87.3077ZM2.28338 77.1594H12.6854V87.3077H2.28338V77.1594ZM24.4093 99.6938H2.28338V89.5911H24.4093V99.6938ZM26.6927 99.6938V89.5911H48.7654V99.7166L26.6927 99.6938ZM73.1747 89.5911V99.7166H51.102V89.5911H73.1747ZM61.4863 77.1594V87.3077H39.3629V77.1594H61.4863ZM48.8009 64.7479V74.876H26.6876V64.7479H48.8136H48.8009ZM37.0668 62.4646H14.9536V52.5496H37.0795L37.0668 62.4646Z" fill="#CD0001"/>
</svg>
