<svg preserveAspectRatio="none" width="100%" height="100%" overflow="visible" style="display: block;" viewBox="0 0 60 60" fill="none" xmlns="http://www.w3.org/2000/svg">
<g id="Memori-Logo Streamline Logos">
<path id="Vector" d="M30 3.5C44.6352 3.5 56.5 15.3648 56.5 30C56.5 44.6352 44.6352 56.5 30 56.5C15.3648 56.5 3.5 44.6352 3.5 30C3.5 15.3648 15.3648 3.5 30 3.5ZM30.0146 10.1445C29.6024 10.1446 29.1979 10.2585 28.8457 10.4727C28.4934 10.6869 28.2063 10.9942 28.0166 11.3604V11.3613L23.4316 20.251L13.5439 21.8633C13.1364 21.9298 12.7548 22.1071 12.4414 22.376C12.128 22.6448 11.8944 22.995 11.7666 23.3877C11.6389 23.7803 11.6217 24.2008 11.7168 24.6025C11.8119 25.004 12.0157 25.3716 12.3057 25.665L19.3525 32.7998L17.8467 42.6895C17.7845 43.0975 17.836 43.5146 17.9951 43.8955C18.1543 44.2764 18.415 44.6061 18.749 44.8486C19.0831 45.0911 19.4772 45.2371 19.8887 45.2705C20.3002 45.3039 20.7132 45.2236 21.082 45.0381L21.0811 45.0371L30.0146 40.5625L38.9775 45.042C39.3465 45.2266 39.7597 45.3066 40.1709 45.2725C40.582 45.2383 40.9761 45.0915 41.3096 44.8486C41.643 44.6057 41.9029 44.2754 42.0615 43.8945C42.22 43.5139 42.2704 43.097 42.208 42.6895H42.209L40.6992 32.7979L47.7275 25.6611C48.0166 25.3673 48.22 24.9998 48.3145 24.5986C48.4088 24.1977 48.3912 23.7784 48.2637 23.3867C48.136 22.9949 47.9025 22.6455 47.5898 22.377C47.2772 22.1084 46.8969 21.9304 46.4902 21.8633H46.4883L36.6162 20.251L32.0127 11.3604C31.8231 10.9943 31.5368 10.6869 31.1846 10.4727C30.8322 10.2584 30.427 10.1445 30.0146 10.1445Z" stroke="var(--stroke-0, #CD1417)" stroke-width="2"/>
</g>
</svg>
