<svg width="48" height="47" viewBox="0 0 48 47" fill="none" xmlns="http://www.w3.org/2000/svg">
<path d="M42.5824 37.5226C41.5794 35.7793 39.578 34.9262 37.708 35.4446L23.7612 39.3113L10.0131 35.4841C9.07299 35.2076 8.0676 35.2517 7.15527 35.6094C6.24293 35.9671 5.47547 36.6181 4.97371 37.4599C4.21361 39.073 4.09855 41.1186 4.68199 42.6806C5.11202 43.83 5.89768 44.682 6.95299 45.141C8.49411 45.8128 9.78651 46.1266 11.0208 46.1266H36.447C37.8033 46.1266 39.1968 45.7779 40.7065 45.0806C43.5796 43.7289 43.6412 39.832 42.5824 37.5226ZM41.806 42.347C41.4655 43.2082 40.8762 43.837 40.0917 44.1682C39.0701 44.6006 37.8381 45.0422 36.4435 45.0422H11.0208C9.6854 45.0422 8.49644 44.6052 7.48762 44.195C6.65198 43.8544 6.02785 43.1827 5.68383 42.2506C5.21197 40.9721 5.31657 39.245 5.9372 38.0398C6.58108 36.7916 8.16752 36.114 9.54942 36.4987L21.2694 39.7529L19.8538 40.3341C19.4946 40.4817 19.2041 40.577 18.8775 40.6769C18.742 40.7144 18.6269 40.8041 18.5574 40.9263C18.4879 41.0485 18.4697 41.1933 18.5067 41.3289C18.5464 41.4728 18.6412 41.5952 18.7706 41.6695C18.8303 41.704 18.8965 41.726 18.965 41.7342C19.0335 41.7424 19.103 41.7366 19.1692 41.7171L23.7554 40.4468L28.3764 41.7194C28.4411 41.7384 28.5091 41.7439 28.576 41.7357C28.6429 41.7275 28.7075 41.7058 28.7658 41.6718C28.8309 41.6315 28.8875 41.5787 28.9321 41.5165C28.9768 41.4542 29.0088 41.3838 29.0261 41.3092C29.0574 41.178 29.0369 41.0398 28.9689 40.9234C28.901 40.8069 28.7907 40.7212 28.6612 40.6839C28.3314 40.582 28.0071 40.4633 27.6895 40.3282L26.3158 39.7471L38.0671 36.4929C39.4699 36.1059 41.0889 36.8799 41.6875 38.2211C42.1442 39.259 42.3616 40.9465 41.806 42.347Z" fill="#031286"/>
<path d="M47.9989 32.6713C47.9953 32.7489 47.9757 32.8249 47.9413 32.8945C47.9068 32.9641 47.8584 33.0258 47.799 33.0758C47.7435 33.1228 47.6786 33.1574 47.6087 33.1775C47.5387 33.1975 47.4654 33.2025 47.3934 33.192L41.9134 32.4947C39.7238 32.2157 37.6469 31.229 35.9094 29.6426C34.9126 28.7389 34.1067 27.645 33.5388 26.4253C32.971 25.2056 32.6527 23.8847 32.6028 22.5402C32.4866 19.5591 29.9297 17.0777 26.6661 16.7569H26.6405L21.0828 16.7732C19.4022 16.7732 17.7123 17.5542 16.4547 18.9024C15.4843 19.9403 14.9613 21.2269 14.9008 22.7378C14.8021 25.2121 13.7386 27.5401 11.836 29.4671C10.0811 31.2406 8.02043 32.2843 5.71107 32.5679L0.560058 33.2013C0.499854 33.2084 0.438833 33.2032 0.380694 33.1861C0.322556 33.1689 0.268515 33.1401 0.221852 33.1014C0.102377 33.0059 0.0241523 32.8682 0.00335181 32.7167C-0.00481566 32.6431 0.00198028 32.5687 0.0233348 32.4978C0.0446892 32.427 0.0801626 32.3612 0.127612 32.3044C0.175062 32.2476 0.233506 32.201 0.299436 32.1674C0.365366 32.1338 0.437416 32.1138 0.511247 32.1088L5.4856 31.501C7.6427 31.2371 9.53831 30.2725 11.1201 28.6337C12.7867 26.9078 13.713 24.8821 13.7932 22.7773C13.8688 20.9293 14.5092 19.3591 15.697 18.1098C17.1893 16.5407 19.136 15.6691 21.1769 15.6691H26.2756C28.1352 15.6691 29.9645 16.3989 31.4255 17.7239C32.8376 19.0023 33.6337 20.755 33.7209 22.7854C33.9138 27.1391 37.5934 30.8675 42.2795 31.4556L47.4387 32.103C47.8025 32.1414 48.0175 32.3622 47.9989 32.6713Z" fill="#031286"/>
<path d="M26.6167 1.20407C25.8629 0.440989 24.8372 0.00798587 23.7646 0H23.7018C23.154 0.013704 22.6145 0.137327 22.1154 0.36353C21.6163 0.589733 21.1677 0.913907 20.7962 1.31681C18.4718 3.7633 18.4544 8.07982 20.7579 10.5519C21.5854 11.441 22.6663 11.9233 23.8099 11.9094C24.9535 11.8954 26.0344 11.384 26.8503 10.467C27.9451 9.23276 28.4914 7.59052 28.4914 5.94713C28.4914 4.18635 27.8615 2.43255 26.6167 1.20407ZM26.3447 9.34665C25.6834 10.2915 24.7606 10.8145 23.7762 10.8145C23.6694 10.8147 23.5627 10.8085 23.4566 10.796C22.8795 10.725 22.3349 10.4898 21.8876 10.1184C21.3862 9.69869 20.9851 9.17211 20.7137 8.57726C19.8339 6.72466 19.9711 4.42694 21.0624 2.72543C21.6877 1.75032 22.614 1.15758 23.6019 1.09831C24.6479 1.03439 25.6532 1.57017 26.3482 2.56621C27.0292 3.5658 27.3932 4.74744 27.3925 5.95697C27.3919 7.1665 27.0268 8.34775 26.3447 9.34665Z" fill="#031286"/>
<path d="M19.5427 22.8366L18.7768 34.4914C18.7749 34.5611 18.7585 34.6296 18.7287 34.6927C18.6989 34.7557 18.6563 34.8118 18.6036 34.8575C18.4784 34.9573 18.319 35.004 18.1597 34.9877C17.7866 34.9458 17.6739 34.6193 17.6948 34.3264L18.4479 22.8924C18.4595 22.718 18.5362 22.3112 18.9976 22.3008H19.0058C19.0821 22.3026 19.1573 22.3195 19.2271 22.3504C19.2969 22.3813 19.3599 22.4257 19.4126 22.4809C19.4588 22.5272 19.4944 22.583 19.5169 22.6444C19.5394 22.7058 19.5482 22.7714 19.5427 22.8366Z" fill="#031286"/>
<path d="M29.8309 34.3764C29.8393 34.4545 29.8318 34.5335 29.8089 34.6086C29.7859 34.6837 29.7479 34.7534 29.6973 34.8134C29.6517 34.8653 29.5963 34.9075 29.5342 34.9376C29.4722 34.9677 29.4047 34.9852 29.3358 34.9889C29.2604 34.9977 29.1839 34.9903 29.1116 34.9671C29.0392 34.944 28.9727 34.9056 28.9163 34.8547C28.86 34.8038 28.8152 34.7414 28.7849 34.6717C28.7546 34.6021 28.7396 34.5267 28.7408 34.4508L27.9795 22.8285C27.9755 22.7695 27.9838 22.7104 28.0038 22.6548C28.0238 22.5992 28.0551 22.5483 28.0957 22.5054C28.2025 22.3885 28.3503 22.3173 28.5083 22.3067H28.5316C28.6672 22.3056 28.7982 22.356 28.8983 22.4476C28.9983 22.5393 29.06 22.6654 29.0708 22.8006L29.8309 34.3764Z" fill="#031286"/>
</svg>
